<mxfile host="Electron" agent="Mozilla/5.0 (Windows NT 10.0; Win64; x64) AppleWebKit/537.36 (KHTML, like Gecko) draw.io/27.0.9 Chrome/134.0.6998.205 Electron/35.4.0 Safari/537.36" version="27.0.9">
  <diagram name="Data Architectuer flow chart" id="6XyZ5Ze-FetuxceDCOkH">
    <mxGraphModel dx="2605" dy="1565" grid="1" gridSize="10" guides="1" tooltips="1" connect="1" arrows="1" fold="1" page="1" pageScale="1" pageWidth="1920" pageHeight="1200" math="0" shadow="0">
      <root>
        <mxCell id="0" />
        <mxCell id="1" parent="0" />
        <mxCell id="-dhHVNQLW36O6P7HyVXI-1" value="" style="rounded=0;whiteSpace=wrap;html=1;" parent="1" vertex="1">
          <mxGeometry x="340" y="190" width="1240" height="821" as="geometry" />
        </mxCell>
        <mxCell id="uPWsSj5vBtJs1v_MymiC-1" value="" style="rounded=0;html=1;fillColor=none;fontColor=default;whiteSpace=wrap;strokeColor=default;dashed=1;" parent="1" vertex="1">
          <mxGeometry x="400" y="311" width="180" height="630" as="geometry" />
        </mxCell>
        <mxCell id="uPWsSj5vBtJs1v_MymiC-3" value="&lt;font style=&quot;font-size: 24px;&quot;&gt;Sources&lt;/font&gt;" style="rounded=0;whiteSpace=wrap;html=1;strokeColor=none;" parent="1" vertex="1">
          <mxGeometry x="430" y="292" width="120" height="30" as="geometry" />
        </mxCell>
        <mxCell id="uPWsSj5vBtJs1v_MymiC-4" value="" style="rounded=0;whiteSpace=wrap;html=1;fillColor=none;dashed=1;" parent="1" vertex="1">
          <mxGeometry x="610" y="311" width="710" height="630" as="geometry" />
        </mxCell>
        <mxCell id="uPWsSj5vBtJs1v_MymiC-5" value="&lt;font style=&quot;font-size: 24px;&quot;&gt;Data warehouse&lt;/font&gt;" style="rounded=0;whiteSpace=wrap;html=1;strokeColor=none;" parent="1" vertex="1">
          <mxGeometry x="870" y="287" width="180" height="40" as="geometry" />
        </mxCell>
        <mxCell id="uPWsSj5vBtJs1v_MymiC-6" value="" style="rounded=0;whiteSpace=wrap;html=1;fillColor=none;dashed=1;" parent="1" vertex="1">
          <mxGeometry x="1359" y="311" width="181" height="630" as="geometry" />
        </mxCell>
        <mxCell id="uPWsSj5vBtJs1v_MymiC-7" value="&lt;font style=&quot;font-size: 24px;&quot;&gt;Consume&lt;/font&gt;" style="rounded=0;whiteSpace=wrap;html=1;strokeColor=none;" parent="1" vertex="1">
          <mxGeometry x="1385.5" y="292" width="120" height="30" as="geometry" />
        </mxCell>
        <mxCell id="uPWsSj5vBtJs1v_MymiC-9" value="&lt;b&gt;&lt;font style=&quot;font-size: 14px;&quot;&gt;Silver Layer&lt;/font&gt;&lt;/b&gt;" style="rounded=0;whiteSpace=wrap;html=1;fillColor=#f5f5f5;fontColor=#333333;strokeColor=#666666;" parent="1" vertex="1">
          <mxGeometry x="880" y="360" width="190" height="30" as="geometry" />
        </mxCell>
        <mxCell id="uPWsSj5vBtJs1v_MymiC-10" value="&lt;font style=&quot;font-size: 14px;&quot;&gt;&lt;b&gt;Gold Layer&lt;/b&gt;&lt;/font&gt;" style="rounded=0;whiteSpace=wrap;html=1;fillColor=#fff2cc;strokeColor=#d6b656;" parent="1" vertex="1">
          <mxGeometry x="1110" y="360" width="180" height="30" as="geometry" />
        </mxCell>
        <mxCell id="uPWsSj5vBtJs1v_MymiC-12" value="" style="rounded=0;whiteSpace=wrap;html=1;fillColor=#D1D1D1;fontColor=#333333;strokeColor=#666666;fillStyle=hatch;" parent="1" vertex="1">
          <mxGeometry x="880" y="396" width="190" height="525" as="geometry" />
        </mxCell>
        <mxCell id="uPWsSj5vBtJs1v_MymiC-13" value="" style="rounded=0;whiteSpace=wrap;html=1;fillColor=light-dark(#f5dc8e, #281d00);strokeColor=#d6b656;fillStyle=hatch;" parent="1" vertex="1">
          <mxGeometry x="1110" y="396" width="180" height="525" as="geometry" />
        </mxCell>
        <mxCell id="uPWsSj5vBtJs1v_MymiC-216" value="" style="group" parent="1" vertex="1" connectable="0">
          <mxGeometry x="460" y="521" width="70.05" height="70" as="geometry" />
        </mxCell>
        <mxCell id="uPWsSj5vBtJs1v_MymiC-213" value="" style="image;aspect=fixed;html=1;points=[];align=center;fontSize=12;image=img/lib/azure2/general/Folder_Blank.svg;shadow=0;movable=1;resizable=1;rotatable=1;deletable=1;editable=1;locked=0;connectable=1;" parent="uPWsSj5vBtJs1v_MymiC-216" vertex="1">
          <mxGeometry x="5.668381618381632" width="47.775000000000006" height="38.76833333333333" as="geometry" />
        </mxCell>
        <mxCell id="uPWsSj5vBtJs1v_MymiC-214" value="" style="sketch=0;pointerEvents=1;shadow=0;dashed=0;html=1;strokeColor=none;fillColor=#005F4B;labelPosition=center;verticalLabelPosition=bottom;verticalAlign=top;align=center;outlineConnect=0;shape=mxgraph.veeam2.file;movable=1;resizable=1;rotatable=1;deletable=1;editable=1;locked=0;connectable=1;" parent="uPWsSj5vBtJs1v_MymiC-216" vertex="1">
          <mxGeometry x="44.05599400599401" y="23.333333333333336" width="20.994005994005988" height="23.333333333333336" as="geometry" />
        </mxCell>
        <mxCell id="uPWsSj5vBtJs1v_MymiC-215" value="ERP" style="text;html=1;align=center;verticalAlign=middle;resizable=1;points=[];autosize=1;strokeColor=none;fillColor=none;fontSize=10;movable=1;rotatable=1;deletable=1;editable=1;locked=0;connectable=1;" parent="uPWsSj5vBtJs1v_MymiC-216" vertex="1">
          <mxGeometry y="35" width="55.98401598401597" height="35" as="geometry" />
        </mxCell>
        <mxCell id="uPWsSj5vBtJs1v_MymiC-217" value="" style="group" parent="1" vertex="1" connectable="0">
          <mxGeometry x="450" y="431" width="85.05" height="70" as="geometry" />
        </mxCell>
        <mxCell id="uPWsSj5vBtJs1v_MymiC-208" value="" style="image;aspect=fixed;html=1;points=[];align=center;fontSize=12;image=img/lib/azure2/general/Folder_Blank.svg;shadow=0;" parent="uPWsSj5vBtJs1v_MymiC-217" vertex="1">
          <mxGeometry x="13.98188010899184" width="47.775000000000006" height="38.76833333333333" as="geometry" />
        </mxCell>
        <mxCell id="uPWsSj5vBtJs1v_MymiC-210" value="" style="sketch=0;pointerEvents=1;shadow=0;dashed=0;html=1;strokeColor=none;fillColor=#005F4B;labelPosition=center;verticalLabelPosition=bottom;verticalAlign=top;align=center;outlineConnect=0;shape=mxgraph.veeam2.file;" parent="uPWsSj5vBtJs1v_MymiC-217" vertex="1">
          <mxGeometry x="51.875613079019075" y="23.333333333333336" width="23.174386920980922" height="23.333333333333336" as="geometry" />
        </mxCell>
        <mxCell id="uPWsSj5vBtJs1v_MymiC-211" value="CRM" style="text;html=1;align=center;verticalAlign=middle;resizable=0;points=[];autosize=1;strokeColor=none;fillColor=none;fontSize=10;" parent="uPWsSj5vBtJs1v_MymiC-217" vertex="1">
          <mxGeometry y="35" width="50" height="30" as="geometry" />
        </mxCell>
        <mxCell id="uPWsSj5vBtJs1v_MymiC-218" value="" style="endArrow=none;html=1;rounded=0;exitX=0.286;exitY=0.652;exitDx=0;exitDy=0;exitPerimeter=0;" parent="1" edge="1">
          <mxGeometry width="50" height="50" relative="1" as="geometry">
            <mxPoint x="427.5" y="619.8200000000002" as="sourcePoint" />
            <mxPoint x="557.54" y="619.8199999999999" as="targetPoint" />
            <Array as="points" />
          </mxGeometry>
        </mxCell>
        <mxCell id="uPWsSj5vBtJs1v_MymiC-220" value="&lt;font&gt;&lt;b&gt;Object type: &lt;/b&gt;CSV files&lt;/font&gt;&lt;div&gt;&lt;br&gt;&lt;div&gt;&lt;b&gt;Interface: &lt;/b&gt;File in Folder&lt;/div&gt;&lt;/div&gt;" style="text;html=1;align=left;verticalAlign=middle;whiteSpace=wrap;rounded=0;fontSize=14;" parent="1" vertex="1">
          <mxGeometry x="407.5" y="631" width="165" height="60" as="geometry" />
        </mxCell>
        <mxCell id="uPWsSj5vBtJs1v_MymiC-223" value="" style="verticalLabelPosition=bottom;html=1;verticalAlign=top;align=center;strokeColor=#666666;fillColor=#f5f5f5;shape=mxgraph.azure.database;fontColor=#333333;" parent="1" vertex="1">
          <mxGeometry x="947.06" y="476" width="60.87" height="69.41" as="geometry" />
        </mxCell>
        <mxCell id="uPWsSj5vBtJs1v_MymiC-224" value="" style="verticalLabelPosition=bottom;html=1;verticalAlign=top;align=center;strokeColor=#d6b656;fillColor=#fff2cc;shape=mxgraph.azure.database;" parent="1" vertex="1">
          <mxGeometry x="1164.45" y="476" width="61.13" height="69.41" as="geometry" />
        </mxCell>
        <mxCell id="uPWsSj5vBtJs1v_MymiC-8" value="&lt;b&gt;&lt;font style=&quot;font-size: 14px;&quot;&gt;Bronze Layer&lt;/font&gt;&lt;/b&gt;" style="rounded=0;whiteSpace=wrap;html=1;fillColor=#ffe6cc;strokeColor=#d79b00;" parent="1" vertex="1">
          <mxGeometry x="650" y="360" width="180" height="30" as="geometry" />
        </mxCell>
        <mxCell id="uPWsSj5vBtJs1v_MymiC-11" value="" style="rounded=0;whiteSpace=wrap;html=1;fillColor=#FFCE9F;strokeColor=#d79b00;fillStyle=hatch;" parent="1" vertex="1">
          <mxGeometry x="650.01" y="396" width="180" height="525" as="geometry" />
        </mxCell>
        <mxCell id="uPWsSj5vBtJs1v_MymiC-229" value="" style="shape=flexArrow;endArrow=classic;html=1;rounded=0;fillColor=#dae8fc;strokeColor=#6c8ebf;" parent="1" edge="1">
          <mxGeometry width="50" height="50" relative="1" as="geometry">
            <mxPoint x="823" y="521" as="sourcePoint" />
            <mxPoint x="903" y="521" as="targetPoint" />
            <Array as="points">
              <mxPoint x="853" y="521" />
            </Array>
          </mxGeometry>
        </mxCell>
        <mxCell id="uPWsSj5vBtJs1v_MymiC-230" value="" style="shape=flexArrow;endArrow=classic;html=1;rounded=0;fillColor=#dae8fc;strokeColor=#6c8ebf;" parent="1" edge="1">
          <mxGeometry width="50" height="50" relative="1" as="geometry">
            <mxPoint x="1051" y="521" as="sourcePoint" />
            <mxPoint x="1123" y="521" as="targetPoint" />
            <Array as="points">
              <mxPoint x="1081" y="521" />
            </Array>
          </mxGeometry>
        </mxCell>
        <mxCell id="uPWsSj5vBtJs1v_MymiC-231" value="" style="shape=flexArrow;endArrow=classic;html=1;rounded=0;fillColor=#dae8fc;strokeColor=#6c8ebf;" parent="1" edge="1">
          <mxGeometry width="50" height="50" relative="1" as="geometry">
            <mxPoint x="1270" y="521" as="sourcePoint" />
            <mxPoint x="1368" y="521" as="targetPoint" />
            <Array as="points">
              <mxPoint x="1318" y="521" />
            </Array>
          </mxGeometry>
        </mxCell>
        <mxCell id="uPWsSj5vBtJs1v_MymiC-232" value="Raw Data" style="text;html=1;align=center;verticalAlign=middle;whiteSpace=wrap;rounded=0;fontSize=14;" parent="1" vertex="1">
          <mxGeometry x="680" y="541" width="120" height="30" as="geometry" />
        </mxCell>
        <mxCell id="uPWsSj5vBtJs1v_MymiC-234" value="Cleaned, Standardized&lt;div&gt;Data&lt;/div&gt;" style="text;html=1;align=center;verticalAlign=middle;whiteSpace=wrap;rounded=0;fontSize=14;" parent="1" vertex="1">
          <mxGeometry x="900" y="550.4100000000001" width="150" height="30" as="geometry" />
        </mxCell>
        <mxCell id="uPWsSj5vBtJs1v_MymiC-235" value="Business Ready Data" style="text;html=1;align=center;verticalAlign=middle;whiteSpace=wrap;rounded=0;fontSize=14;" parent="1" vertex="1">
          <mxGeometry x="1120" y="545.4100000000001" width="150" height="30" as="geometry" />
        </mxCell>
        <mxCell id="uPWsSj5vBtJs1v_MymiC-236" value="" style="endArrow=none;html=1;rounded=0;exitX=0.007;exitY=0.547;exitDx=0;exitDy=0;exitPerimeter=0;entryX=0.929;entryY=0.696;entryDx=0;entryDy=0;entryPerimeter=0;fillColor=#ffe6cc;strokeColor=#d79b00;" parent="1" edge="1">
          <mxGeometry width="50" height="50" relative="1" as="geometry">
            <mxPoint x="666" y="592.92" as="sourcePoint" />
            <mxPoint x="811.04" y="593.48" as="targetPoint" />
            <Array as="points" />
          </mxGeometry>
        </mxCell>
        <mxCell id="uPWsSj5vBtJs1v_MymiC-240" value="" style="shape=flexArrow;endArrow=classic;html=1;rounded=0;fillColor=#dae8fc;strokeColor=#6c8ebf;" parent="1" edge="1">
          <mxGeometry width="50" height="50" relative="1" as="geometry">
            <mxPoint x="570" y="521" as="sourcePoint" />
            <mxPoint x="660" y="521" as="targetPoint" />
            <Array as="points">
              <mxPoint x="618" y="521" />
            </Array>
          </mxGeometry>
        </mxCell>
        <mxCell id="uPWsSj5vBtJs1v_MymiC-241" value="" style="endArrow=none;html=1;rounded=0;exitX=0.007;exitY=0.547;exitDx=0;exitDy=0;exitPerimeter=0;entryX=0.929;entryY=0.696;entryDx=0;entryDy=0;entryPerimeter=0;fillColor=#f5f5f5;strokeColor=#666666;" parent="1" edge="1">
          <mxGeometry width="50" height="50" relative="1" as="geometry">
            <mxPoint x="903" y="593" as="sourcePoint" />
            <mxPoint x="1047" y="593" as="targetPoint" />
            <Array as="points" />
          </mxGeometry>
        </mxCell>
        <mxCell id="uPWsSj5vBtJs1v_MymiC-242" value="" style="endArrow=none;html=1;rounded=0;exitX=0.007;exitY=0.547;exitDx=0;exitDy=0;exitPerimeter=0;entryX=0.929;entryY=0.696;entryDx=0;entryDy=0;entryPerimeter=0;fillColor=#fff2cc;strokeColor=#d6b656;spacing=2;" parent="1" edge="1">
          <mxGeometry width="50" height="50" relative="1" as="geometry">
            <mxPoint x="1126.58" y="594" as="sourcePoint" />
            <mxPoint x="1272" y="594.56" as="targetPoint" />
            <Array as="points" />
          </mxGeometry>
        </mxCell>
        <mxCell id="uPWsSj5vBtJs1v_MymiC-243" value="&lt;font&gt;&lt;b&gt;Object type: T&lt;/b&gt;able&lt;/font&gt;&lt;div&gt;&lt;br&gt;&lt;div&gt;&lt;b&gt;Load:&amp;nbsp;&lt;/b&gt;&lt;/div&gt;&lt;div&gt;&lt;ul&gt;&lt;li&gt;&lt;span style=&quot;background-color: transparent; color: light-dark(rgb(0, 0, 0), rgb(255, 255, 255));&quot;&gt;Batch Processing&lt;/span&gt;&lt;/li&gt;&lt;li&gt;Full Load&lt;/li&gt;&lt;li&gt;Truncate &amp;amp; Insert&lt;/li&gt;&lt;/ul&gt;&lt;div&gt;No Transformations&lt;/div&gt;&lt;/div&gt;&lt;/div&gt;&lt;div&gt;&lt;br&gt;&lt;/div&gt;&lt;div&gt;&lt;b&gt;Data Model: N/A&lt;/b&gt;&lt;/div&gt;" style="text;html=1;align=left;verticalAlign=middle;whiteSpace=wrap;rounded=0;fontSize=14;" parent="1" vertex="1">
          <mxGeometry x="662.5" y="621" width="165" height="210" as="geometry" />
        </mxCell>
        <mxCell id="uPWsSj5vBtJs1v_MymiC-246" value="&lt;font&gt;&lt;b&gt;Object type: &lt;/b&gt;Views&lt;/font&gt;&lt;div&gt;&lt;br&gt;&lt;/div&gt;&lt;div&gt;No Load&lt;br&gt;&lt;div&gt;&lt;br&gt;&lt;div&gt;&lt;b&gt;Transformations:&amp;nbsp;&lt;/b&gt;&lt;/div&gt;&lt;div&gt;&lt;ul&gt;&lt;li&gt;Data Intergations&lt;/li&gt;&lt;li&gt;Aggregations&lt;/li&gt;&lt;li&gt;Business Logics&lt;/li&gt;&lt;/ul&gt;&lt;/div&gt;&lt;/div&gt;&lt;div&gt;&lt;b&gt;Data Model:&amp;nbsp;&lt;/b&gt;&lt;/div&gt;&lt;/div&gt;&lt;div&gt;&lt;ul&gt;&lt;li&gt;Star Schema&lt;/li&gt;&lt;li&gt;Flat Table&lt;/li&gt;&lt;li&gt;Aggregated Table&lt;/li&gt;&lt;/ul&gt;&lt;/div&gt;" style="text;html=1;align=left;verticalAlign=middle;whiteSpace=wrap;rounded=0;fontSize=14;" parent="1" vertex="1">
          <mxGeometry x="1112.51" y="631" width="165" height="270" as="geometry" />
        </mxCell>
        <mxCell id="uPWsSj5vBtJs1v_MymiC-247" value="&lt;font&gt;&lt;b&gt;Object type: &lt;/b&gt;Tables&lt;/font&gt;&lt;div&gt;&lt;br&gt;&lt;div&gt;&lt;b&gt;Load:&lt;/b&gt;&lt;/div&gt;&lt;div&gt;&lt;ul&gt;&lt;li&gt;Batch Processing&lt;/li&gt;&lt;li&gt;Full Load&lt;/li&gt;&lt;li&gt;Truncate &amp;amp; Insert&lt;/li&gt;&lt;/ul&gt;&lt;div&gt;&lt;div&gt;&lt;b&gt;Transformations:&amp;nbsp;&lt;/b&gt;&lt;/div&gt;&lt;div&gt;&lt;ul&gt;&lt;li&gt;Data Cleaning&lt;/li&gt;&lt;li&gt;Data Standarization&lt;/li&gt;&lt;li&gt;Data Normalization&lt;/li&gt;&lt;li&gt;Derived Column&lt;/li&gt;&lt;li&gt;Data Enrichment&lt;/li&gt;&lt;/ul&gt;&lt;/div&gt;&lt;/div&gt;&lt;div&gt;&lt;b&gt;Data Model: N/A&lt;/b&gt;&lt;/div&gt;&lt;/div&gt;&lt;/div&gt;" style="text;html=1;align=left;verticalAlign=middle;whiteSpace=wrap;rounded=0;fontSize=14;" parent="1" vertex="1">
          <mxGeometry x="895" y="631" width="165" height="280" as="geometry" />
        </mxCell>
        <mxCell id="uPWsSj5vBtJs1v_MymiC-249" value="BI &amp;amp; Reporting" style="text;html=1;align=center;verticalAlign=middle;whiteSpace=wrap;rounded=0;fontSize=14;" parent="1" vertex="1">
          <mxGeometry x="1375.5" y="545.4100000000001" width="130" height="30" as="geometry" />
        </mxCell>
        <mxCell id="qJvai_lrImhjCM4Q15sK-1" value="" style="shape=image;imageAspect=0;aspect=fixed;verticalLabelPosition=bottom;verticalAlign=top;image=data:image/png,iVBORw0KGgoAAAANSUhEUgAAAgAAAAIACAYAAAD0eNT6AAAABHNCSVQICAgIfAhkiAAAAAlwSFlzAAAOxAAADsQBlSsOGwAAABl0RVh0U29mdHdhcmUAd3d3Lmlua3NjYXBlLm9yZ5vuPBoAACAASURBVHic7N15fFxXeTfw391mn9HMaJctW/LuOIuzJyQ4zuY4IWmAAH0JBQIN+1agQN/St5SWLhRKS0uBliUBCm2BQiFxNggJgSwQskBiJ7ZlWbZlSdau0exzl/cPx1m9SHPvzDl35vf9fPwBgnXPkzujc5577jnPAYiIiIiIiIiIiIiIiIiIiIiIiIiIiIiIiIiIiIiIiIiIiIiIiIiIiIiIiIiIiIiIiIiIiIiIiIiIiIiIiIiIiIiIiIiIiIiIiIiIiIiIiIiIiIiIiIiIiIiIiIiIiIiI5KWIDoCIiGixnJv6kiaKb3MU5VoAawC0i46pekpFgXPIcZSDUJzHVMX5sTYX+5ny/oFSTVut5cWJiIi8Vrq55/UKnC8ASIuOpYamFSif1iPqvyivGy7UogEmAERE5BuVm7s+7ED5DJpk/FKAg1CdNxhvGvt5Da5NREQkv8o3u69wbNwGQBUdS30pFTjO+wNvGf2yl1dtsptIRER+5HwXmmPjc2jKccsxoOBL5Zu73uXlVZvwRhIRkd+Y2c6LAJwkOg6x1M9XvtF1sWdX8+pCREREtWIr6qWiYxDPMeAo33K+uzTsxdWYABARkfQUBctFxyADB1hi5u33eXEtJgBEROQHjugAZOHA+ZhzU1/I7XWYABARkfQcB/tFxyCRtKUWXa8FYAJARETSU1Xnp6JjkIntqNe4vQYTACIikp4eHrsPwHbRccjDOdPtFZgAEBGR9JTXwVKgfAiALToWSXS7vQATACIi8gXjhpG7FCj/V3QcclC63F6BCQAREfmGccPI3yuK8iei4xDPMdxegQkAERH5ivHmkU8zCXCPCQAREfkOkwD3mAAQEZEvMQlwhwkAERH5FpOA6jEBICIiX2MSUB0mAERE5HtMAhaPCQARETUEJgGLwwSAiIgaBpOAhWMCQEREDYVJwMIwASAioobDJODEmAAQEVFDYhJwfEwAiIioYTEJODYmAERE1NCYBBwdEwAiImp4xptHPg0H/yY6DpkwASAiooZXvmnJRih4jeg4ZMIEgIiIGtrhwd/+KYBW0bHIhAkAERE1LA7+x6aLDoDc2/ydkTYlZl6gaNrphmGsV1SlQ9O0FDSlRdO1uKZrEU3XdcBRVF3TAEBRFUU7/F9hWxZs2wEAWBUTcACzYsIsV1Apm7DKFZhlE+VSBeV8CaV8EaV8EbZlexK/A+QUoHz4fylzgGNDwSxsTCjAlANlylGcKRWYsBVnn2pjbzGk7x3+0MsKbtseGJvvMB1rkwNlA+Csg4M1AFIAkgBiAAy3bVBt6dYhRMq/RLjyKALmbhjmEDR7BipyAAAbUVhqChW9D2V9NQqBM5E3LoCpdQqOnGotkHnKtB55i6ZV5hTRsciIN8VHNv9w70YtELxSD+oXGIZxkhEKtBshI6IHDCEzOZVSBeV8EYVsAflMHvm5LAqZPMrFcr1COOQAQwqwC3CeUKD9tmJbT+z7+KbR4/3QztG5s20HrwecywFsAH8PfEezp5EofB8the8hVHm8qmsUjdMxF3ktMqHrYKlpjyMk0YLzT6P7N2+BVpkVHUrNBG4YddV3seOT1CXfHlyutIbfZOj6lmA0dFIoGkpqhu6LVzZmqYJcJofs9DzmpzPITs8fnlmonwkAvwWcBwHlAUcpPnjn285wzLL2dsfBWxVgfT2DIe/o9ihas19AS/5bUB3XE0AAAFuJYDbyRkzH3gtT7fLkmiRWMwz+ABOAhrHpu0P9gUTo/YFQYEsoGl4RjIZCSoN8Oo4DFOZzmJ/KIDM5h8z4LMw6JgSKAqe3JWSf0hnVTumK4vSeGKIBrW7tk3uKU0EyfxPa5/8GqpOrSRu2EsZ07H2Yir0fDoI1aYNqr1kGf4AJgK9d/OP91wYi4XeEIsFzI8lYWmmUEf8EHMdBfi6HuYlZzI5NIzudgePUr31NUdCfDmFjdwxn9yawvj0CtTluvS8FzAEsmbkRQXN7Xdor6idjJP1VlLWVdWmPvNNMgz/ABMB3Lv7x/mtD8eifxJLxs42QwcdQAOVCGdMjk5gemcT8VKbu7bdGdFywPIkL+lpwUkeEvxQSiRdvRffse2v21H8sthrDaMu/Yj50VV3bpeo12+APMAHwhUu27X9LIBx5bzwVP80Ice75eEqFEqYPTmJqeAK52Wzd22+PGriwrwWb+pNY3Rque/v0nJb8f6Er80EoTl3XjzxH0TCW+DvMRm4Q0z4tWDMO/gATAGltunOgN4j438TS8evCsTBHkioU5/OY2D+O8X1jMMv1HwR6W0K4dFUSV6xOIx5k3lZPyfw30DX3x6LDAAAcavkbzETeJjoMOoZmHfwBJgDSufSW0feEE6EPx1oT/armi0X70rMtG9MjkxgfGhPyiiCoKbigrwVb16RxUke07u03m3jxViyZvRFwLNGhHKZoOJi8CfOhK0VHQi8SzOxA9yNvhVaZEx2KEEwAJLD5HkfXi6OfiKXifxRpicVEx9PI8nNZjA6MYHJ4AnVdOfiMFekwXnlSGzb3t0DlykHPBay96Ju8FKo9LzqUF7CVKIbafoKyvlp0KPSMZh/8ASYAQl1xx1C3rYb/taUteU0gHGBVxToq5YsY3zuG8aGxum4pPKIzFsCVa9O4ck2aWwo9oqCMvoktdVvtv1hF4xTsa70TjsLikKJx8D+MCYAAV9wx1K0Y0W8lOpKX6LrOeyiQWTExuvsgxgZHYJv1nzKOBzS86uQ2/N66NoTEFGRsGK3Zz6N9/lOiwziu8fhfYDr2HtFhNDUO/s9hAlBHm78z0ma0af+e6kxdK6r8Lh2dWTYxunsYhwZHYHl0RsFixIMarju5Hdesa0OQOeGi6fYYVoyfC9XJiw7luGwlisH2h2BqrBgoAgf/F2ICUAfX3DISKQX1byQ7k6/mwC+3crGMgzsPYHxoTMgagXTEwP85pR1b16S5RmAROjMfRyr376LDWJDp6LswnvhL0WE0nWZe7X8sTABq7NJbDn60pSv9yVAsFBIdCy1cIVvA/icGMXtoRkj7SxNB3Hh2N85aGhfSvp9o9jRWjm/0rLZ/rdlKBHs6HuMBQnXEwf/omADUyEU/2nd5PJX4eqI9uVR0LFS9uYlZ7PvdIArzYqaWN3bH8I5zutGbZP54LKncv6Mz83HRYSzKocTfYSb6h6LDaAoc/I+NCYDHzr/jQDqpB7cle9rOa5ba/I3OsR2M7B7GyK4DsAWsD9BVBa85uR2vO7UdAdaGeIm+ycurPtJXlGLgDAy13ik6jIbHwf/4mAB46OJbD7473ZX+x2A0FBAdC3mvlCti8PEBZCbEdCbd8QDee/4SnNbNUhFH6NYYVo2fCqD+6zXcUTDQ8SRMrUN0IA2Lg/+JMQHwwKY7B3pjRuqWlq70aXzob3yTB8ax73eDQuoHKAA2r0zh7ed0I876AUgU/gc9s+8UHUZVRlJfQSb0StFhNCQO/gvjNgFo+vnIS285+NGOjt69yW4O/s2irbcDp1xyOhLtybq37QC4Z88M3vej3fjtaP0PO5JNuPKo6BCqFir/RnQIDSmY2YHu39zgq8HfMlqQWfo60WEsWtNWr7vmlpFIJWLclupuu4gDf/MJhINYf8HJGNszgv3bh+DY9V0bMJmv4M/u2otr1rfhLWd1wlCbMxcPmLtFh1C1oLlHdAgNJzj/NLof+UNf7fO39DhGz/gKSi2nwIz0Ir3rH0SHtGBN2etcfOvwK/TOlsl0Dwf/Zte1sgcnb96ISKL+h/w4AH781CT+6NYBDM0U696+DALWoOgQqmYwAfCUH6f9LT2O0TO/hlLLKQCAmb4bMb3mw4KjWrimSwAuv2vs65193beG4xEe0UsAgEgigpMuOg3ty8Qs6No3U8KHbxvA3QP+6fi8otr1P93RK5rj39hl0wiD/xEzfTdiful19wkKa1GaJgE497bdiat+NvV4e2/nW3hML72YpqlYccYa9G9cBUVABb+S6eAf7z+ALzx4EKbttxXx1VPtnOgQqqbaXMPhhUYa/I+YOOlTCUVR/qTOYS1aU4yEW24dObM73XUw2Z0+TXQsJLeOvi5s2HQagpGgkPbv2DWNj9y2B+PZipD268/PyU79a0o0mkYc/AHAAU4bvPzpr8meBDR8AnDpLaPvSfa2/TrSEuPma1qQaDKGDRedhnhrQkj7u6cK+PBte7Bj3L9PxwsRnH8aqPPiS09ZNoJzT4iOwrcadfB/hmLD2mS8eeTTMicBDZ0AXHb7yOfa+zu+wAN8aLGMYADrLzgZbb3tQtqfKVTw8TuHcM+gfzrHxTjS+cP08QyABXQ/8odMAqrQ4IM/AMBR1A0AIHMS0LAD4+V3HfpB+/LuD/J9P1VLUVWsPHMtlqxbJqT9im3jc784gO/8dlxI+7Xygs6/7OOdyCUNmjnPJGCRmmHwBwDFsdce+e+yJgENNzpuvmlv6Kp7p7e393a8ilv8yAtL1y1D/+mrIeJsCAfAdx4/hH++fxhWAywOfHGRF6fk32qIR2LXzHl0P/o2BDM7BEckP78W+Rk96+ZFDf6HKWue/7+MN4982nGUT3oYmusOoaESgPPvOJCOr27dn+xMnSQ6FmosHcs7sebc9RA1o3TXwAz++p59KAs4zMgrRyvy4uT9OwPg5I1n/7tWmUP3b27gTMBx+LrIT6KqIaXtxf8g+JaRv/BwJmDC7QUaJgHY8oOBjo5Ey+54a1zMS1tqeMmuNNadvwGaLuap9dfD8/jznw6hUPFfEnCsJz87axzjJ+Rn516YvHAm4Nia68n/WfGj/UMPZwJ2ur1AQyQAl3x7cHmkp3MgmoqnRcdCjS3e1oJ1F5wC3RDz5PrkWA4fv2sQ82VLSPvVCGZ2oPuRtx79yc9UfTkL4OR1wHxp96lV5tD9yFuZBDzPcT9/SVlGC0bP/Hq1T/5HHDUBAA7PBLhNAhTHucXNzwMNkABcum14TWJ1145IS+yYN5vIS7FUDOsuOBl6QMzAtWuygP93117Ml+RPAhYy7WvPiam54IY9Ezrm/8fXAc9pwmn/5zvuF9vl64AZPRD4apU/+yxfJwCb7hzobWlPPxqJhyOiY6HmEk3GsF7gTMDAVAF/etcgshLPBCx02teeCQK2j1bs2grsucBx/wpfBzTttP+iVPk6wHEc5d3KG/bPuG3fR791L7T5OyNtLSvjA9FErEV0LLIzFAdhxUHkmf8EAA1A4Jn/XnYUHBlGCo6CvKOg4CioOL79etRNdnoeTz3wJGxTzEC8rj2CT13ej5BkpS4WO+2rdeegthVqHJU37MkwrNGFHR7l0VSy7zTxtP8LrO9JLqgTrdzU9RFHUf4OJ34otxU4HzVuGPPkyEFf9vDn33Eg3dGSHIgmYynRschAAZBSbXRoFtpVGy2qjZRqI/HMn2qfUU0AGVvFnK1i9pk/E7aKCUvDjK36uoirl+YmZrHroR2wBa3QP607hk9cuhwBSWpeVNP5K4YNfc0MoEr+rbIVVHamjvr+/1iaLQng4P+chSYAAFC5uWeLA+cfARwriO2Ko3zQeMvIT7yJzocJwDW3jESQig0182r/uGJjqW5hmWahRzfRodrPPs3XS9lRMG6rOGjqOGBpOGDpyPppGtdjs2PT2PmrpwBHzAB2ztI4/uzi5VAFHGT0fG46f7U9D60rX4OovGONRmFPLv4g0WZJAjj4v9BiEgAAcL4LzSx0bbJt5TJFRS8AOA72q4pztx4eu095HTydavRdj33VvdPbm22fv6446NctrNIqWGmYSKlybgObtlXsMXUMmAaGTA1mk71CmNh3CIOP7RbW/uWrU/jAy5YKa991hTcF0FfNQgmZ3gbmEaegw9yTrLr8SjXV5PykWSr8LcZiE4B6kzq4F9v604m700vaLhEdRz0EFQdrdRPrAxWs0CtVT+OLYgIYNA3sKBvYaeooN0kycGD7EEZ2Dwtr/4Yzu/Cak+s/OeZV568ELOirZ+V7FWArMAeSrisXNmoSwMH/6JgAeOTy28b+qb2/8wOi46glFcBKw8TpRhkrDf8N+sdiAthdMfB4JYDBit7wh6jueWQnJg+4LtJVFQXAh17ei4tXJOvWptedv5ooQ1ue8eRaXrH2JWBnjr/yf8HXarAkgIP/sTEB8MBltx58X3t/1z8rqhyLnLwWV2ycEShjY6CChKTT+17J2CoeqwTwWMnAvNOYn6dt2Xjq/ieRnRYziAU0FX99RR/Wty9spbobter81XQR2pKsp9esljUcO+6+/6qu2SBJAAf/42MC4NLmH+7d2N7f84gRDDTcaNGpWjgrWMapgXLDPO0vlO0AT5sGHiwFMWL590CYY6mUKnjy3sdQLpSFtJ8M6/j81avRGqndN6vWnb+aKkFbOl+Tay+UdTAGe9rbwf/Za/s8CeDgf2JMAFy45paRiNqeGI22RBOiY/FSr2ZhU6iIFbqci53qyQEwaOr4eSmEg2ZjJQLZmXns+MXv4Ag6xW9tewSf3roCeg12BtSr81cTZWi98/VfE2ArsA7EPZv2Pxa/JgEc/BdG9gRA6qdqKx56pJEG/w7NwnWRPG6IZTn4P0MBsFI38dZoFn8QzaFHk7ey3WLFUnEsP3mFsPZ3TuTx1YdHPb9uPTt/OxM4vPiuWL85Mqegw9ydrPngDzxTMfCRP/RV2WAO/o1D2uzk8tvHvtze1/kO0XF4Ia7YuDRUxMmBirw3XBIOgKcqBn5aDGHOljo/XbDBx3ZjYt8hYe1/4IKluHyVNzWzRHb+amvhcJ2AWs0G2MrhKn/jYaDOu1b8MkBx8F8c2WcApAzukv89eE3Hqq4fizp73Su64uCCQAkvC5ah17lQj99VHAX3l4J4sBSE3+dKLMvG9nsfQ2FeTKnboK7gn65ejd4Wd4fuSNH56za09gLUdNG7RMBWYE+HYE2EF1Xhz2uyJwFSfP6LJPqeMgFYpHNv253oaV8yFo6FF19uSyK9uolrwgW0Nviq/lqbtlVsK4QxZPp7mWRuNovt9/1W2HqAla1h/MNVK6teDyBdhTfNhposQU2VoISrSxGdvA57NgR7NgBYcjxsyFoxULrPfwFkuJdMABbpynsmf5Pqaj1TdBzVCioOtoSKOC1Qlu/m+pQD4LFyAHcXQyj6uKDQyO5hHNg+JKz9157cjjef2bXon5P+yU+3oUYrUCImlKAFBCzAAHBk27BtAxUAZQ1OSTs88OcMoU/7xyP6qfXFpP/8j0KWe8gEYBEuveXgRztW9nxakSqqhevVLLwykkeST/01kbFV/G8hjH0+nQ1wHODpB55EZkJMR6oqwF9d3o/TumML/plG6Pwb4d9BFN47d2RPAKRJgS/59uDy1NK2v/Hj4K8qwEXBIt4Uy3Lwr6GEauON0RyuCBfgxw2DigKsPGM1NENM9LYD/OP9w8iXF/YdbZTOvxRfh9GzboJl1K86olsy7A5olM+fjk2aBCC0JHlHIBTwXb8eV2zcEMliU6gkz81sYAqAcwJl3BDL+rJqYiAcxLKT+oS1P5mr4ObHxk749xqt82cSsDiN9vnT0UkxZl26beT9yc7UOtFxLNYy3cSNsSyW6I2zd90vejQLN8ay6PdhPYX2vm7EW8WVt7hj5xS2jx/72N1G7fyZBCxMo37+9FLCE4Bzb9udSHamPiM6jsU6O1DGGyM5xGQ7tayJRBUH10dyODMgptxutRQF6D99NURtc7Ud4F/uH0bZeukMSqN3/kwCjq/RP396IeEJQDrQcmcwGqp9yS2PKDj8vn9ruIAaVFilRVIV4KpwAVeEC3KtaD2BcCyMnjW9wtofzpTw3SdeeGJhs3T+TAKOrlk+f3qO0ARg0y0Hrkr2tJ0nMobFMODgtZE8NoVKokOhFzknUMZ1kbyvDlXqWb0Uoai4chfff2ICI/OHv8vN1vkzCXihZvv86TChCUBLquVmxSfL/g3Fwe9H81hrVESHQsew3qjg+mgOAZ9UXVRUBctO7hPWvmk7+Ppvxpq282cScFizfv4kMAG49JaDH423xttFtb8YIcXBG6I5Xy44azbLdRNvjOYQ9kkSkOpuRUuHuAHoof0Z7P3lZ5u282/2JICDf3MTkgBsvmlvqKU79Zci2l6soOLgD6I59DbQKXWNrkezcH00h5BPkoDlp6w4vDJQkE9PXwfL8ccO3Fp0/s2aBHDwJyEJQGBJ9FuhaNjdySR1oCsOXh/Jo5uDv+/0aBZe75PXAeF4BJ19ncLa32MuxfcKlwprf6Fq2fk3WxLAwZ8AAQnAlh8MdCQ7k6+ud7uLZeDw4N/LaX/fWqpZ+H2fLAzsWbtM2LZAAPhS9joUHXk349Sj82+WJICDPx1R9x5HjSVu0gOG8O2Hx6MAeGWkgD4O/r7Xp5t4ZSQv/RbBQCiAzr7FH9TjlXErhf/OXy6s/eOpZ+ff6EkAB396vroOxJf+6FBnojO5tZ5tVmNLqIh1XO3fMNYbFVwaKooO44R61vRC08W9i//37KuQc+Q6hVtE59+oSQAHf3qxuiYARlT9juxP/2cHyjgnyH3+jeb8YEn6ioF60EBnf7ew9qftBL6T2yKs/RcT2fk3WhLAwZ+Opm6D8SW3HFiS6ExeXK/2qtGnm9gSKogOg2pka6iAZZK/1ulevRSqJm4W4Ou530PBEb8+V4bOv1GSAA7+dCx1ezW69a7xH6d726+pV3uLFVMdvC06X7Pa/qqiIBbSEQnoCBkaDE2F+kwtYdt2ULFsFCsW8mUT2aIJ25F/9bof5WwFX8nGMO/IOxG174lBjO0ZEdb+nyZuwhujtwtrX7bOX/oBVLehxipQIiaUoAUELEADoD3TvVsOYAEoa3BKGpy8DjtrAKacvwOyff5urO9JSr38qC7Bbb5pb6htY898IBSQckG2BuDN0dqc6hfQVbRGg4iHDagL3OttOw4yhQqmcyWUTf8deSu7A5aGb+ZisCXNsUr5Ih7/ySOAoCRwiTaBO9vfD02p//ZXy2jB6JlfRylxUt3bPp5gZge6H3krtMqc6FAO02yoyRLUVAlKuLpZLSevw54Lwp4JApYcyYCsn3+1ZE8A6vKpG92Rz8o6+APAxaGi54O/oijoSITQ3x5HSySw4MEfODxbkIwE0N8eR0ciJLJGTEPq1SxsCsq7KDAYCSHd0yqs/YNWO35SOrfu7Vp6HKNnfEXKzr+UOAmjZ90s/HWAYtjQenIw1s1A68lVPfgDgBIxoXU/c63uHBRD7MOGzJ9/o6pLAhBNxm6oRzvV6NVNnOvxor+ArqKvLYp0NOhqikUBkI4Gsaw1Bp1HD3rqwmAJyyVeD9CzeqnQ9r+Wre/bOj9M+wpdE6AAamsB+poZqK0FwMtXlaoDte3wtbXOvLfXXiA/fP6NqOYJwKW3jL4n0hKJ1rqdagQVB68OFzy9CSFDw/LWGIIebucKGxr62mIIGv4o1+oHCoBrwwVpywVHkzHEWxPC2n+yshKPltfWpS0/df4ikgAlaEFfOQutJ1fbwVl1oHbkoa+YO7yWoE789Pk3mponAOFE6MO1bqNaW8JFJFTvpr0CuoredBRaDZ7WdU1FbyrCmQAPtag2LpG4PkD7cnGFgQDUpTywHzv/eiYBaksZ+qpZV1P9i6WETeirZqEmar9t1o+ffyOpaQJwybcHl0db4/21bKNay3UTpxnefcEVBViSjNRk8D9C11QsTUfhlyOU/eCMQFnaUx5bl7RBN8Qtnbmj8DLM2bWbvPNz51+PJEBNlaAtywiZkofqQFuegdpauwTZz59/o6hpAmC0Rz+nCdzTfCy64uCacMHTLRDt8VBdpuhDhobWmPh92o1CAXBluCDleQGqpiK9VNyJ2UUngNsKF9bk2o3Q+dcyCVDTRWhL5z2/7mJpPVmobd7XRmmEz78R1DQBiCTjV9by+tW6IFBCyuOp/1S0foNyOhrgqwAPtao2zpe0+qPI8wEA4L8L3p8P0Eidfy2SALWlDG1J1rPruaV15zx9HdBIn7/f1SwBuGTb/reE42G5CosDSCg2zg96+26r1eVq/8VSFQVt8VAdW2x8FwZLnq4H8UqkJYpoMias/Z2VZdhR8e4tXiN2/l4mAUrAkuLJ/8W03nlPFgY24ufvZzVLAALhyHtrdW03Lg0XYXi48ltVFMTDhmfXW6jEIgoL0YnpioOLJZ0FaF3SJrT92woXeHKdRu78PUkCFAfasnkx7/xPRH0mNhddTiN//n5VmwTAcdRYKn5qTa7tQrdmYYPHp/zFQrqQgfhIaWHyzimBMjq1+le/O5FWgesAAGBb8QI4Lue4mqHzd5sEqG2Fuq72XywlZB6uQVCFZvj8/agmCcDF20beKWPlv82houdT9RGB/5oi225ECoDNIflmAQLhIKKpuLD2x6xWPFFeVfXPN1PnX20SoBg2tA75DyLTOvOAvrhXZc30+ftNTRKASDT89lpc141ezcKqGmz3CgkszsPCQN5bo1dqciaEW22CXwPcXjq/qp9rxs6/miRAbfe4ul+tqA609oUnKs34+fuJ9wmA46iRZOxkz6/r0qYaFXwxNHGHaAQEtt3INgXkKw6UFpwA3FE4f9GvAZq5819UEqDZUFPyfeeORU0XAe3EswDN/Pn7hecjyKXbhq83RD4WH0WnatWs2IvIhXhcBFgbqwwTnapcswCBcBDRFnEVtcesVuw0ly3477PzX3gSoCZL/nj6P0J1oCaPv5OKn78/eJ4AGOHQDV5f063zQqW6btMj/zsnVPsyqIvV0pES2v59pdMX9PfY+T9nIUmAmpJv3cmJHG/Ggp+/f3ieAISioXO8vqYbccX2fOX/89mCzmwX3XajO8UoI67IVRcg2Sk2AfhlaeMJ/w47/5c6bhKg21Kv/D8WJWwedTEgP39/8TQB2PTdof5IIipuufJRnBEoo5bvIyqWuEGiLLDtRqcB2BisXeJYjXhrAprAswEeLa/FvBM55v/Pzv/YjpUEqDG5vmOLoUZfGDs/GjprLwAAIABJREFUf//xNAEIxkIfgETvpRUAGwO1/QUrVsS9Ky4JbLsZnGGUa39c5mIoClraW4Q1bzkaHiodvXNn539iR0sClIj/nv6PeH7s/Pz9ydP+zYgEtnh5PbdWGWbNy7vmy+J+gXMl/3YefpBQbfRJdlJgor1+59AfzUOlDS/5Z+z8F+7FSYAX5XVFORI7P3//8jQBCMVCK7y8nlune3jc77Fki6aQd/G24zABqIONAbkWA8bTCaHtP1pZ94L/zc5/8V6QBAR8/DsctPj5+5xnCcAl3x5cHoyEpTmnNqA4WFnDxX9H2I6DTKH+7/EyhQoXAdbBWt1EwMOzI9wKJyJC1wHsrix7dh0AO//qHUkCoMvzynTRNPDz9znvZgCSwRskev2PtYZZtzPep3Ml1HOIcBxgKuu/rUN+pCsOVkv0GkBRFMRS4k4HtKDid+XVHPw9UIqvA1SpVpksjqby8/c5z759wVDA+4PDXdig12/qtmzamMnVb0CezpWE7j5oNrXcRlqNeKvY1wCPmKdy8PeMRE9Ni+bj5IUAePgJBiKh9V5dyy1DcdBv1PepbWK+iEIdVuUXyhYms/4pG9oIVhgmjLrO8RxfTPA6gF8Hr+Hg7xFbFVfd0S1bFTcTRd7wLAEIRUJilyc/T59u1W36/wjHAQ5O52r6ZG5aNg7O5sFX//VlwEGvRAcERRNiB42BeZ5C6RVbFbet0y1LEZuIknueJACX3XbwdC2gSzMftEoTM2Vr2g6GZ/Iwa5AEVCwbB6Zrc206sVqcJFktPWjACBrC2p8rmpgtyHM//Kys9YsOoWoVfaXoEMglTwZt23Fe4cV1vLKyztP/z1eqWNg7mfW0PkChbGHfZBYlU56n0GazQrJ1ABHBswB7Z/kaygtlfbXoEKpWYgLge54kAAEjUN1h4TUQV2ykalz850Qs28GB6RwmsyVXW/WOrPbfP52FaXPeX6R21UZMohPbwgJPBgSAfdNMALxQCJwpOoSqFYyzRYdALnnyMk8LGetO/LfqQ5Z3tY4DTM4XMZsroS0eQiJsLPj43iO1BaayXO0vkyWaiZ22uKn354skjl2Tvx6GOAPgibxxIQ7vBJAnuVwYBQV5nvuoSp4kAEYg0OnFdbzQq8mRABxh2g7G5goYzxQRC+mIBHQEDQ0BTX02IbAdB2XLRqliIVcykSuJqS5Ix9erWdhZkSMBCMfCQts/OCdXhUS/MrUOFI2NCFUeEx3KohQCZ8LUOkSHQS55kgAEwwGxvdHz9Ei0WOv5jjzVi6gaSN5YKtF3KxAJCW3/UI4JgFfmIq9FaM5fCUAm9FrRIZAHXK8B2PKDgQ5ZdgAoADoEv/+nxtWp2tKUbQmEAtA0cb92M/kKSiZnqbyQCV0HWxH7SmcxbCWCTPiVosMgD7juQSq6PC+CkqotVd12aiwBxUGLRAlmICLu6A0HwDhnATxhqWnMRt4oOowFm43eAEtNiw6DPOA6AVA07XQvAvFCp2Tv/6nxdKryfMdEvwYYzzIB8Mp07L2+mAWw1RimI+8WHQZ5xHUCoOuaNDsA2iV6OqPG1KbJ8x0LCZwBAIBDWa5n8YqpdmEq/mHRYZzQZPQjMDVp1nyTS64TAFXXurwIxAtJJgBUYzJ9x/SA2B0JmaI8iyIbwXTkXSga8p6xUDROxUz0baLDIA958ApATXkRiBdk6pypMcn0HROdAMyXmAB4yVEMjKS+BluNiw7lJWwlipHkv8FR5NgGS95wnQBoqirNIUAyLdCixsQE4DmZkjzrIRpFWevHaMsXAEUTHcpzFA0jqX9DWV8lOhLymPsEwNCkOc8yLlHnTI0pIdEuEyMg9lQ+JgC1MR+6CmOJvxcdxjMUjCU+i2zwCtGBUA24XwOgaVIsXQ0oTt2PAKbmoysODEnKtuoCTwQEuAaglmYjb8Joy7/AUQT2aoqGsZbPYDbyB+JioJpyPwOgaVKMu2GJnsyoscnyXdMMsb962TJnAGppLvJ/MJL8Omw1Vve2bTWO4dQ3MBt5c93bpvpxX0pMVaSoAhiRpFOmxheW5FRARRVbl5AnVNbefOhKDLXdXdfdAUXjVAy13c1p/ybgxSJAKaqjsgIg1UtQklcAqio2964wAaiLsrYC+1rvwqHEX9d0NsBWwpiMfxT72m5HWeuvWTskD/c9iLLAM25rTKI1s9Tg5Eh5JZgBsJgA1Iuj6JiJvh2DbQ9iOvpOT6sG2koE09F3YbD9YUzGPgIHAc+uTXJz/RJRWegh9zWmSREFNQNdku+aInwGgLtu6s3UujCe+CtMxT6IRPEHSBS+j3D5UWDRs1IKCoEzkQm9Bpnwq2HJU86F6siLBMCLOFzTJJmWpcYny3dN9Ns3k2sAhbHUNGYiN2ImciM0ewLR8v0IlX+DoDkAw9oHzZ6CaucAALYahaW2oqItR0lfhWLgLOQCF8BS2wX/W5BoUqzgJyKi6lhqOzKhVyIT4hG9tDiu5xAdSRYCWdKc1E6NTpbvmi34d0/nwhsiX/MiAZAiA+B6JKoXU5LvmiP4HbwheA0CEbnj/jfYkSQBEB0ANQ1JJr2Ez77pXHlL5GuuEwDLkqM7LDnsjKg+ZPmu2cJnAOS4D0RUHS9mAKTYC5SXpFOmxifLd42vAIjIDde/waZlV7wIxK2CJJ0yNb6iJN81U3At/liQCQCRn7n+DbZNs+BFIG5VHAU8m4xqzXQUVCTZBWCWxebeiSB3ERP5mfsEwLKyXgTihYzNJxKqrTlJnv4BwBKcAMSZABD5mvttgKYz60UgXmACQLU2J9F3rFwWO+eVCMlzL4ho8TzYBWDNeBGIF2Yk6pypMcn0HeMMABG54cUrgENeBOKFWYk6Z2pMMs0AcA0AEbnhfheAaT3tRSBemJCoc6bGNGHJ8x0r5ktC2++MGULbJyJ33PdmFTziQRyemLBYnJxqa9yW5ztWzhWFtt8Z57nxRH7m/hVAXnnQi0C8MGOrKEu0SpsaS9lRpHoFUCqImwFQAHREOQNA5Geue7N7r++ZNMsVKaoBOgDGJeqgqbEcslVIUfcaQKVYhm2J+7VLhXUENP6uEfmZJ7/B5UJFimJAAHDQ5MIkqo0DEn23SnnB0/+xoND2icg9TxKASrkszU6AA1wHQDUybMrz3SpkxebcS1r4/p/I7zxJAMySucOL63hhvyXPUxo1DgfAsETfrcJcTmj7/amw0PaJyD1vEoBy5QEvruOFnK1gmusAyGNTloqcRAtM85m80Pb7UnwFQOR3noyUVrl0uxfX8coeid7VUmMYMOVa8Z7PiJ0BWJ4KCW2fiNzzJAG491X9j8uyEwAA9kjWWZP/yZRUVkplVEriqgCmwgaSIXnuBxFVx7O58lKuKM2hQEMVTZojW8n/KlBwQKIFgPk5Tv8TkXveJQCF0navruVWBQr2SvTERv42UNGlSiiz0xmh7a9vjwhtn4i84VkCUC6W7vLqWl7YUeZrAPLGjopc36X5KbEJwEmdUaHtE5E3vFsubzs3OY4sddKAnaZcT23kT6ajYLdEs0mO4yA7My+sfU1RsLaNMwBEjcCzBOBn1/QeLOWKYsuTPU/ZUTBQkafjJn/aaeqoyLT9by4Hy7SEtd+XDiFscJstUSPw9De5mCsMenk9tx6vsFoZufN4Wa7vkOj3/ye1c/qfqFF4mgCUC6U7vbyeW3squlSnt5G/zNqqdItJ5ybmhLZ/WjcTAKJG4enoaE8XPw+J1gE4AH7LxYBUpcfLAWlO/wMOv//PTIpLADRVwSldTACIGoWnCcDP3rBiX24uJ3aO8kUeLQcg7o0p+ZUJ4DHJXiHNT2VgVUxh7Z/UEUE0IE89BCJyx/P58WKu+Guvr+nGvKNiu2TvcUl+T5YDyNryLP4DgLlDM0LbP3NJXGj7ROQtzxMAq1C5yetruvWAZFO5JDcHwEMSJo2z40wAiMg7nicAP726+7/KxbJUs+4TloZByRZzkbwGKjomLLmmukuFEvICjwBujxro4wFARA3F+yXyimLnZud/5/l1Xbq3GOIsAJ2QA+C+knwD3fTwpND2X97fwrJaRA2mJnvkStnyl2pxXTdGLI2FgeiEdlUMjEj29A8A0yMTQtu/cHlSaPtE5L2aJAA/u7r7a+VCWdxy5WO4t8RZADo2B8DPi/KddFfKFZGdyQprvzMewOq2sLD2iag2alMl5/BrgMdrcm0XxiwNT7IuAB3DbysBHLLle/qfGhE7/b9pOaf/iRpRzcrklQrlf67Vtd24uxhCWaLa7iSHsqPgnqJ87/4BYGpY7PT/pn5O/xM1opolAD97Rc+3CtlCoVbXr9a8o+KBknzTvCTWfaWgdPv+ASA3mxW6+n9Vaxj9aTkTIyJyp6aF8vMz2Vtref1qPVgKYopnBNAzJmwVD0uaFE7sGxPa/pbVaaHtE1Ht1HQULDiZD1uWVCUBABwu87qtEOaCQIID4LZ8GNKtWAVgWzamBG7/C2oKLupvEdY+EdVWTROA+65YdSA7PS/VEcFH7DN1PCZhtTeqr0dKAey35NweOjU8AVNg7f9N/UnW/idqYDWfB89n8v9Q6zaqdXcxxOOCm9isreJnEhb9OWJc8PT/FWs4/U/UyGo++t1z9ZIvFjJ5cZuYj6PoKPjffBi26ECo7hwAPy6EUZJ0R0h2Jovs9Lyw9te0hbGuPSKsfSKqvbo8/man5r9Wj3aqsd/SuSugCf2iGMQ+ic+HGN09LLT9605uF9o+EdVeXRKAkeVTHy0XypV6tFWNn5dCOCBh+Veqjf2mjl+U5Z36L+WKmBmdEtZ+ZzyA85YlhLVPRPVRlwRg+4YN5czE7LZ6tFUN2wG+n49i3uF6gEaXtRX8IB+GLfEWkNGBg3AccQG++qQ2aIqcr0aIyDt1G/EUp/Bus2JK2+1mbQXfz0Ug36ZF8ortAP+Tj0id6JmlCib3HxLWfktIx2WruPiPqBnUrSe8c2vf6Nz4zE/r1V41hi0NdxZ46Emj2lYMS7vl74iRgWFYlrhlqddtaEdQ59M/UTOo66OQk8n8gVmuSL3o/pFyAA9yUWDD+WUpiMclr/tQKZUxPjgqrP1U2MAr1rUKa5+I6quuCcBdr141Pjc+d1s926zG3cUQnqzw1MBGsb1i4F5JD/p5vpFdYp/+X3tKG5/+iZpI3V+GlrLZN5aLZalftTsAfpyPYEDibWK0MHtNHT/OR6Qv+1wpljE+JK7wTzqs44o1fPonaiZ1TwDufVX/bGZ85vv1bnexLADfy0ewn0mAbw1bGr6bj0hZ5//Fhp/eD1vg0/8bNnYiqPHpn6iZCFkOfXDp1JuK2UJRRNuLYToK/jsfwQhrBPjOQUvDd3JRlCWt9Pd8+bkcJvaJW/nfnw7hstUpYe0TkRhCEoDtGzaU5yam/0xE24tVdBR8KxfFEGcCfOOAqePbuai0ZX5fbOiJQaH7/t9xdg/3/RM1IWEbou++auk/ZKYyYk87WaCyo+A/8xEMMgmQ3pCp4zv5iG8G/+mDk5ifnBPW/gV9LTi5KyqsfSISR2hFlPnZ+esdW+pdgc8yHQX/nYtiB3cHSGt7xcB/+mTaHwBsy8b+HUPC2g9oKt56Rpew9olILKEJwM+vXnrP7Nj0/SJjWAwTwA/yEdxXZJ0A2fy6HMAPfbLg74iRXcMo5cQthXntKW3ojMtdG4GIakd4TdTp0uxVxXyxJDqOhXJw+PCg2wpy15NvFhaAWwph3FkIS7/V7/kK8wWMCDzxr7cliNecwhP/iJqZ8ATgV1etzsyOzLxP4BqoqjxSDuCbuRiytj+mmxvRvKPiW9mY9BX+XsxxgL2P74ao11+qArzvZUtgqMJ//YlIICl6gJ9d0/OVufHpHaLjWKwDloavZmM8SliA/aaOr/j03o/vHcH8VEZY+69Y24aTOrjwj6jZSZEAAEC2NLO1XJC7QuDRzDsqvpmL4b5iEP5YzuhvNoAHSkF8Kx9FzoezL6V8CQd27BPWfkfMwJvO6BTWPhHJQ5oE4L4rVh2YHZn8oMj90NWyncPrAm7OxTBtS3NLG86creKbuSjuLoZ8uf7CcYDBx3bBMsXkuaoC/NHLehE2+B0lIokSAAD46dVL/mVudObXouOo1kFTw9eyMTxaDvhqQZrsHAC/KQfwb9kYDvi4FsPorgPITIjb8//aUzpwajen/onoMKkSAADQ8qWL85l8TnQc1So6CrYVwvhmNooJzga4NmOr+I9cFLcXwr4p7nM0udkshnfuF9b+qtYwXn9ah7D2iUg+0o1Qt1zTk5+bmPl9y/LdcoAX2G/p+Op8HPcWQ74pTCOTsqPg7mIIX56P+74Ms21ZGPjNTjiC3lsEdRUf2dQLXeX3kIieI10CAAD3XL1029TwxJdEx+GWCeAXpSD+NRvna4EFcgA8UTbwr9k4HigFfVXY51j2Pr4HxWxBWPvvOW8JliRYvIqIXkjqR4Kr7p16ItmZPll0HF5p1yxsCpaw3qjIfeMF2Wvq+GkxhDEfbu07lrE9B7Hvib3C2r/2pDa87exuYe0TNbP1PUmpu3qp51a1+dK5uXB2JJqItYiOxQsTlob/yUfQo1m4KFjESsNs+kTAATBQ0fHzUgijDTTwA0B2OoP924eEtb++PYq3nMla/0R0dNKPPy//0eCpXcuWPmqEjMYaHQCkVRtnB0s4I1CWOxOrAQvAjrKB+8tBTDTYwA8AlVIZT9zzOCrFspD2U2EDn79mFdLhZvtmEclD9hkAqYM74pJtI+/sWN75JVWTcsmCazHVwRmBMjYaZbSojV1OaNZW8XglgMfKgYYto2xbNnb88gnkZuaFtB/UFPztFSuwpj0ipH0iOowJgEcuu33kc+3Luz+o+CbixVMArNBNbAyUsUY3oSuNsWzQdBTsNHU8Xg5gr6k39GJIxwEGHn4a0yOTQtpXFeBjFy3DBcsb4q0Zka8xAfDQ1p+M35le2r5FdBz1YCgO1ugmNhgVrPRhMmA6CgZMHdsrBnaZOswm2Qq5/8m9GB04KKz9PzyrG6/a0CasfSJ6DhMAjzXazoCF0AEs102s0k30GxW0S/qaYNJSscc0MGDq2G/qDbGFbzHGh8aw9/EBYe1fsSaN952/RFj7RPRCsicAvlshlN+bOVvT9aF4a6JpTjQxAewxdewxdaAYQlRxsFQ3sUyzsEQ30anaCNR5hqDkKBi3VQybOg6YGoYtHbkmeco/mpnRKQz9do+w9s9blsC7z+sR1j4R+Y8ve+zN3x2PJXpCe2Otcc514vCHmFRtdKgW2jQbSfW5PwnFqfr1gekoyDgKZm312T+TlopDtoY5W23od/mLMTcxi10P7YBtiZmZ2dgdw59fuhyBBl0kS+RXss8ASB3c8Wz+zkhby4r4QLSlMWoE1JIBB2Hl8J+Q6kAFoAHPzhqUHQUWDh+1W7QVFJzDf1iu6MSy0/N46oEnYQs64W9dewSfurwfIZ7wRyQdJgA1dMktB5YkO1t3huJhHnFGdZefy+GpXz4BsyJmtUN/OoS/vWIFYoHGq6NA1AhkTwB8/djws2t6D87vnzq9MJ/Pi46Fmkt2Jit08F/TFsbfcPAnIhd8nQAAwE9e07s7M5pdkZvNzoiOhZpDZiqDpx8QN/hv6IzgU5evQJyDPxG54PsEAADuvrbz0Nze+TXZmfkp0bFQY8tMzGHng9thVcS88z+1O4pPXtqPSKAhfnWJSKCG6UXuvb5nMnNoatX8VOaQ6FioMU2PTuHpB7cLW/B3/rIEPnlZHxf8EZEnpF6gUI0N27cHlk90PdJsxYKotib2jWHw8T2Ha/0KsGV1Gu89rweq2nC/skQNS/ZFgFIH58bldx36QdvSjlc18tkBVB/DT+/Hwaf3C2lbAfD6jZ24/rQOIe0TUfVkTwAadi7xJ1s6X31o38hnRRVnIf9zbBsDD+8UNvgbqoqPXNTLwZ+IakLq7MQLm7cNv6N9SfsXjSBXTdHCVYpl7PrVU8gKOtI3Hdbx8YuXYy2P9CXyLdlnAKQOziubbxlZ19IWfyCajKVEx0Lym5/KYODhp1EuloW0v6Ejgo9dtAzpiCGkfSLyBhMASWy+aW8o3Je4J9WVPk90LCSv8aExDP12DxxBi/22rknjXef2QONiPyLfYwIgmctvH/tyurftHZrGIir0HNu0MPj4AKaGJ4S0HzJUvO/8JbioPymkfSLyHhMACV3yo/2bEp3pWyMt0bjoWEi87EwWex7ZiWK2IKT9NW1hfPjlvViSCAppn4hqgwmApDbftDcUWha7I9XdepHCvYJNa2zPCPZv3wvHrv+UvwLgmvVteOtZXdA55U/UcJgASO6ybSMfTPW0fsYIsbB6MynlS9jzyC7MT80Jab8jZuDDF/ZiQycPsiRqVEwAfGDLDwY6tFTqR8nO9HmcDGh840Nj2L99r5B6/gqAK9ak8dYzu1nPn6jBMQHwkc3bht+R7mr9fCgS4svYBlTMFbD3sQFkJsU89ffEg3jfy5bglC4+9RM1AyYAPnPubbsT6WDylmRXepOi8gmtEdiWjZFdwxjZfUDIu/6ApuK1p7Thtad08F0/URNhAuBTF39/77mRjuR3WtqTK0THQtWbGZvGvicGUcoVhbR/Tm8Cbz+7G13xgJD2j8iXbTx8MIPfjuYwNFPAoWwF2bIFS0BCRETPqgCYBZwhKMrjgPMzXVG37fzYhXUpQcoE4AQu2zbywXh78q/D8XBYdCy0cMX5PIae2Iu58Rkh7fe2hPC2c7pwRo/YnaYHMyX8zxMT+PnQLEomB3siH8g7Cv4Tqv3pwY9etLuWDTEBWIAN27cHeg623pxsT7/OCBncLSCxcqGEgzsPYGLfISHV/NoiBl5/WgcuW52CJnBFacly8B+PjeFHT03B5lM+kR9VAOWfrFLlz4f+4uKaTGEyAViEzd8djxktzpeSncnrebiQXMxSBaMDBzE2OAIRJ0C2hHS8akMbrlnfhqAm9tdqZL6Ev75nH/bNlITGQUSeeMi0nVfv+/imUa8vzASgClt+MNChJFpuTrS3bDUCBu+hQGa5gpHdBzE+OAJLwMCfCOq47uQ2XL2uDUFd/FdhcLqA//eTIcwVTdGhEJF3hm3becXej2/6nZcXFd9j+diWHwx0ONH4PyRaE68LRkNiV3k1mVKuiLHBEYwPHYJt1X8/f2c8gN9b34atq1MI6nJMBo3Ml/CR2wY5+BM1pmFLM88e+ujFY15dkAmABzbf4+h6cfQTsVT8A5GWGM8XqKHcbBZje0YwOTwBCHjHv7I1jGvXt2FzfwtUibb0lS0bf7xtDwZnxOx2IKK6eKQU1F4+/KGXeXJwiTw9WIO4ZNvIO0Px0B/H04mVPHHQG5ZlY/rgBMaHxpCdrsvumBcI6gpe3pfE1jVprGuP1L39hfjab0bxw+2TosMgohpTHOUvB/70wk94ci0vLkIvdcktB5ZogcDfRVPxV0fiYTlHDckV5vOY3D+O8aExmJX6T2v3JkO4dGUSV6xJIy7xUREHMyW860e7udqfqDlkLc1c7cWrACYAdXDZLSPXByLBD0RS0TMC4aAuOh6ZlXJFTI1MYmp4Avm5XN3b74wH8PLlLbioP4n+dKju7Vfjn+8fxl0DYuodEFH9KY7ypYE/vfDdrq/jRTC0QI6jXrxt5IZgJPieeCp+Gk8gPKxUKGH64CSmD04iO1P/Kf72qIEL+1pwYV8L1rb5a7ImX7bxxu/tYJEfoibiADlDVbrdVgzk02g9KYp9D/B1HP6Di28bvUjX1Q9EYuGLIi3RdLOcPeA4DvJzOcyMTWN2bBq52Wxd29cUBf3pEM7pTeCcpXGsbA37NhN++GCGgz9Rk1GAqGnjKgD/7eY6TAAEuueq7p8D+DkAbLpzoFe3w+8PhkNbQtHw6lA0FFYa5Gxix3FQyOQwPzWPzMQs5iZn63oUr6YoWJ4K4aSOCE7rjuG0rljDHMX729H6vyYhIhk4l4AJQGO474pVBwB85Jk/uOSWA0sUVXtTIGRsDUSCG4KRUEoPGL4YtSqlCvJzOcxPZ5CdyiA7Mw/LrN+Anwzr6E+FsL4jivUdEaxriyDsj1u3aEMznuwGIiL/OdXtBRrjEbNJbP7B/pM1Q7tKD+oX6MHASUZQ7zRCgaiossTlYhnlfBGF+QLy83kU5nLIZ3KolCp1aT8dMdAZDWBpSwDLkyH0pUPoS4WQDDVPXnv9fz2FTImFf4ia0Pie//vyTjcXaJ6esgHc++plTwJ48sX/fPMP9yYVw7hA1bUzVFVZr6pal6aqaUVTWzRNi6mGFtYNPQAAiqboiqJAVVWo2uFKNrZpwXYcwAGsZ7bbVcomrHIFlbIJs1x59k8xX0I5X0QpX/Ky5n4WQAVwbECZO/yPnClAmbp4RXJrIqghHtSRCOnojBnoiAXQGTMQ0BrzqX4x8nV8lUJEUmlxewEmAA3g3lf1zwLY9syfRfn2LwaOvYJMAxB+5g+AwxNGoWf+eOMNL1913FmoW0dmucLtOEzu/SdqVkG3F+AjFBERURNiAkBERNSEmAAQERE1ISYARERETYgJABERURNiAkBERNSEmAAQERE1IdYBaHJnrGw77v9v2w7Kpo1MoYKpTAGFMgvPkDc0RcGq1jBO7opiZWsIS+JBtEYNhHUVQX1xzyYl00bBtDGVq2A4U8LgdBFPjGWxZ6oIy/FnrYRmvD99qRC2rE5hY3ccnTEDAHAoW8Fjo1nctXsK+2ZKgiNsLEwA6LhUVUEooCEU0NCeCGEyU8DwZB4O5Ok0yF/6UiFcvjqNzf0taPGobHPwmUExGdKxsjWMi/oP//PZoomf753DT3ZPY2im6ElbtdaM98dQVdx4TheuXNMK9UWlwZYlg1iWDOLqdWncsXMaX3l4lAWwPMIEgBZMUYD2ljBCho6B0QyTAFqU1a1hXL+xA2ctTdTtEJJkSMe161vxe+tb8fCBDL7z23EMTMl5gFKz3h9DVfHJy/pwanf0uH9PUxS8Yl2YJDErAAAbmElEQVQrlrYE8YmfDjEJ8AATAFq0eMTA0vYIDkzwKFo6sWhAw5vP6MLWNemXPN3ViwLgnN4EzlqawO27pvDNRw8hJ8nrrGa/P287p/uEg//zndYdw41nd+PLvxqpYVTNgYsAqSpt8TBCAU10GCS5Va1h/NPVq3DVWnGD2/OpCvCKta34wu+txtr2iOhwmv7+9KVC2Lomveifu3JtGsuSrkvhNz0mAFQVRQHa4t4dCkSNZ1NfEp+9aiW64wHRobxEe9TA323tx8v7XB+oVjXeH2DL6lRViY+mKLhi9eITB3ohJgBUtXhEvo6L5HDV2jT+eFMvdBkea4/BUFV8ZNOyqp5A3eL9Oez07ljVP7uxO+5hJM2JCQBVLbDIrUjUHDb1JfHOc5dIMaV9IqoCvPu8JXWdCeD9eU57tPqHiI5ntglS9bgIsMm84SnnFAe4EcClAPr+as7d9X71yydd/fzqv3/ACYQCpXA8/FQ4HvnkL17T/7/uIiKR1rZF8KGXL/XF4HaEqgAfevlSjM2XsbvGK+B5f14oZFT/EBF28bN0GO9gk7hytxO8fofzRQd4HMD7AWwAsPCltzViWxaKuUJwZmx64+jugz888+vbf7f5u+PVzwuSMNGAho9eJPe09rEYqoqPXbQM0RoubOX9IdkwAWgCV+52gikTt0PBuyDxZ+7Aweyh6VOmp0b2Mwnwnzef0YXOmH/XhXTFA3jj6Z01uz7vD8lG2sGAvJOq4J8AXCw6joXKzc6n5vPj94uOgxZudWtYyGI6r125No3+tPe7W3h/SEZMABrcG55yToGCt4uOY7HmRmdPfdn39l4rOg5amOs3dvjqvfaxaIqCN5zm/VMu7w/JiAlAg3tmwZ/vPmcHDkrZwp+LjoNOrD8VwllLE6LD8My5yxJYnvKuyAzvD8nKdwMDLdplogOoVjGXO0l0DHRil69O1a12fT0oAC5f6d10Pe8PyYoJQONbJjqAapULFT5mSE5TFGzqT4oOw3ObVyShKe6Hbd4fkhnrADQ+366mt02LPYzkVrWGkfToyNqH9mdwx+5p7J4sYK5oLupnkyEdq9siuGJNCuf1up9uT4Z19KdDrk/G4/0hmTEBIKKqndzlvpREybTxmV8cwEP7M1VfY7Zo4uHhDB4ezuBlyxP48IXLENTd5Y+ndkddD3C8PyQzvgIgoqqt8GBLmNvB7cUe2JfB5355wPV1+lNh19fg/SGZMQEgoqotTbhbpvHQ/oyng9sR9++bw68OzLu6xtIW90tQeH9IZkwAiKhqrVF3B7LcsWvao0he6s7d7q7dGnb/hpT3h2TGBICIqhbW3dWG3zVZu3fIuybyrn7ei7r3Mt+fnRLcHxKLCQARVc3tidAly/ImkKNY7Er5F/PiuOuAy4V28yV3/w7Hk5Hg/pBY/ASJqGrzZXcDeHe8du+RHZc/78UeVLfXcPvvUMtrc4+u/zEBIKKquX1CPc2DbXLHU6jYQn6WyA+YABBR1TJFdzMAr9rQDkOtXTc0mStX/bPj2YqHkRDJhwkAEVVtYLro6ufbogY+dlFvzcrKPjqaq/pnHxtxt02OSHZMAIioak+PVz/AHnHesgT+7JJl6IoHPIjohe7aPQXLWfzbbstxcOfAjOfxEMmECQARVW2HBwkAAJy9NIEvXrsa779gKda0Rzy5JgDsmynhjp2L3+++7ekpHJh1N7tBJDtWciCiqk3lTeyczGNtm/tBO6Cp2LIqhS2rUhicKeKOXdP4+eAsci53Gnzl4VEsbQnitO6FnYv1+GgWX/vNmKs2ifyAMwBE5Mpdu72fKl+RCuHd5/bgm69d53pWwLQdfOKnQ7j16eO/DrAcBz9+ahKf+OkQLLuWG/CI5MAZACJy5b69s3jbWd0IGd4/TwR1b2YFTNvBl381gtt2TuGK1Wls7I6jM3a4TO+hbAWPjczjzoEZTvtTU2ECQESuFCo2fvz0JF53SkdN2zkyK3DjWV349YF53LFrGo+PZhd1jf2zJXzl4VEAo7UJkshHmAAQkWvffWICl61KI12HA2ICmooL+1pwYV8LDswVcffALO7cNe26KiFRs+EaACJyrVix8Y1H6/9U3dsSwg1nduFmD9YKEDUbzgAQkSfuHpjFqZ1xXLoqWfe2n79WgLMCRAvDGQAi8swXHxrGnqnaHWG7EEdmBb7xunX4k4uWYeMCt/8RNRsmAETkmZLl4G9/vh+TOfF19I+sFfjUln585qoVOHNJXHRIRFJhAkBEnhqbL+Ojd+zByHxJdCjPWt8exScv68PnXrEKa7lOgAgAEwAiqoHxbAUfu30vdk2KfR3wYmvawvjM1hV44+md0FSeaE/NjQkAEdXETKGCj9y+B//1u3HYElXWU1UFv39qBz571UqkwobocIiEYQJARDVj2Q7+47FD+Mgdg9g5mRcdzgusbg3j01f2oyPGJICaExMAIqq5nRN5fHjbHvz5T4Y8O0HQCz3xIP5+68qaHEVMJDsmAERUN4+OzOOjtw/ij24dwB27plGs2KJDQlvUwJ9dvBxBnd0hNRd+44mo7gamCvjCgwfxpu8/hS88eBCD02IXC/alQvjABUuExkBUb6wESETC5Ms27tg1jTt2TWNNewRb16RxUV+LkKfxTX1J/GZ4Hj/bM1v3tolEYAJARFLYNZHHrok8vvrwCDb1JXHV2jRWpMN1jeGtZ3bjoQMZ5MviX00Q1RpfARCRVI7MCrz/loG6rxVIhnVct6G9Lm0RicYZACLyTF8qhC2rU9jYHUfnM9vrDmUreGw0i7t2T2HfzOKqAx5ZK3DTI2O4aEUSW9eksSIVqkXoz7p2fRu+9+SEFAsUiWqJCQARuWaoKm48pwtXrmnFiwvsLUsGsSwZxNXr0rhj5zS+8vAozEUWBsqVLdz29BRue3qq5msFQoaKTX1J3LV72vNrE8mErwCIyBVDVfHJy/rwirUvHfyfT1MUvGJdKz55WR90F2V4d03k8c/3D+NN33saX/zVCAZnilVf61i2rk55fk0i2TABICJX3nZON07tji7475/WHcONZ3e7bvfIrMD7f7wbH7ptD+4amEHZ8mbafk17BOkwJ0ipsTEBIKKq9aVC2Lomveifu3JtGsuSQc/iODIr8O4f7cavD2Q8ueb6zoUnNUR+xASAiKq2ZXXquNP+x6IpCq5YvfjE4UTG5sv41D378IuhOdfXOqmdCQA1NiYARFS107tjVf/sxu64h5E8x3aAz/1iGJO5iqvrrEjXdrcBkWhMAIioam3R6g/RqeUpfBXbxg93TLi6RjKkeRQNkZyYABBR1cJG9V2Im59diN+Nujt1MB7kIkBqbEwAiKhqi9vN/1LVbwY8sZH5xRUderF40P0MgMz3x+213f67eXGNWt6fZsAEgIiqVjbddeG1fMoO6+4G8MUWKzoat/cnEard/Wlxee2SB5USZb4/zYAJABFVrVCxXP382vaIR5G81Jo2dwcJ5cru/t0A9/dnTZu89ydvuk8AZL4/zYAJABFVbSrvbqX9FWtqV3GvmvoEzzdVMF3H0Mj3Z9rlvxv+f3v3HhxXed5x/Hf27K6k1epqW5ZkS1gGYxtVGEwKDuSCHbAChEmaKW2TdtJ2kmkb0mnTlJDSScFuM1OcTDJJZhJoKZ1J47qZ/pEmgzEYE4gNGeyQxjdcjC+S8EW2bOu+klZa7Z7+YZwEsHU7Z/fdc87387/f8+gZyfvbc877vCru/oQBAQDAnJ0acvecfU1Tpd7bXOlRNb9225Iq3dzkbt1Tg+5+Nsmb/tx6VXH25+Sg+xHMxdqfsCAAAJizjj73HwIPvL/Z0//Eb1tSpS/c1uR6nc7+MddreNGfv31fs267qsr1Opd41Z+uWZ7seDnF2J8w4Q0KAHN28GzK9RolUUt/f/tV2nNyWNuP9unIhVENzPL2e3VZVNfOK9OHl8/TzYu9GTC03+U2Qsm7/jx0e3PR9Wdvt/ufrVj6E1YEAABzdrw3rYH0pKo9eBv7lqYK3dKUn+mAs9U/llFnn/s7APRnan7vz/hkTj2pjPaeSem5o71604O7IoXEIwAAc5Z1HO3sdD93v9j8tGNQHuwCDGx/Xjw+6MkcAL/3pyQaUXN1iT66cp6+fe8yffaWRldHXRcaAQCAKzuO9nnyYVAsHEk7jvV5tl7Q+iNJL3UNeLZWUPpjW5buWTFPG+9Y4psQQAAA4EpXf1qvenQEbzHYfWJIJwa8u5UbtP5I0p/d0uDZKOeg9WdVQ1Kf+e0G02XMCAEAgGtb9p/z5Ja5aVnH0X/t6/F83aD055KVC8q14Y4WlXoUAoLWn7uW16q5usR0GdMiAABw7VjvmJ450mu6DNe2vdGrjn73W9PeKSj9+U2tdQn9051LPLkTELT+2Jal9mXuBi0VAgEAgCf+45c96hmeMF3GnJ0ZntD393r/7f8Sv/fncry8ExC0/tzQUBw7NqZCAADgiZGJrDbtOqFMzv2M+EKbyOb06M4TGp3IX+1+7s9UWusS2uhBCAhaf+qSMdMlTIsAAMAzRy6MadPOk8o6/nmgm3Okb7x8Ssd73e9rn44f+zMTXj0OCFJ//PAjEAAAeGr3iSE9vrvbFy915RzpO7tP6+Wuwu1F91N/ZsOrxwFB6c/5EfeHJeUbAQCA55450qevFfnt3Ewup027Tmj7Ee/2/M+UH/ozF611CW1Y534ffBD6s+/MsOkSpkUAAJAXL3UN6oFtHTpThC92nUtl9KVnO/WzAn7zf6eXugb14LYOnS3C/rjxW/XlnuyD93N/so6jZ4/2my5jWgQAAHlzvHdMn996TE8f7i2K57pZx9FThy/oL586oiPnR02Xo6O9Y/rrIuqPV7zaB+/X/jx9uFcnB7zfTuo1AgCAvBqZyOqxPd36/NZj2n1yyMjYV0cXny3/zVPH9C97zuT1bf/ZKob+eM22LLVfO8+TtfzWn31nUnryF2dNlzEjnAYIoCA6+9L6ygtvqrm6RO3LavXBlmpVl+X3v6D+sYx2dgzquWN9no73zQdT/flpx6B2dQ7oMzc3qrUu4dnaNzYkPVtLMtOf2cg6jp4+3Ksnf3FWWZ+8weiPEwswZ598Pb/3zfb86OV8Lq+tf9yW1/X97iPfO2i6hDmzLUsttaVqqy/X1fPKtKiyRPMTUZVF7Vm/SZ7O5DQ2mdWF0UmdGhxXR9+YDpwdUWffmG/fJve6P6OTOfWNZnRyMK3O/rT2dV/sz6X2lMYi2nhHi2chIJ3J6Xe3HPJkrcvxsj9zlc68dRxw97C2H+sv+G3/4w+939VnePHEJwChknUcHesd07EC7L/3o0L3J53J6eEdndrwoSVqqy93vV6+cxe/P+7xDgAAQJI0PpnTxhe6dOic+xck/bAPPuwIAACAX7l0J+Dg2RFX6+ztTnlUEfKFAAAAeJvxyZw2/KRrziHg4j74wg9YwuwQAAAA7+LmccC2N/yxDz7sCAAAgMtKZ3J65PnZPQ7YfyalJ1/1xz74sCMAAACuKJ3J6R92dGrrNNP4Lk1ZfOT5Lk36de9lyLANEAAwpcmco8f3dGvbG71qv3aebmxIauFb592fHc5o39mUnj3Sx21/nyEAAD4WjVh820LBnBgY1xM/7zZdBi5yPdqSRwCAjyVitukSAJjh+ihLAgDgY/UVMdMlADCjw+0CBADAx1pqy0yXAMAER/vdLkEAAHxsVYP7me0A/Mey9BO3axAAAB+7eVGlSqL8GQNh4kgjJeOTz7hdh/85AB8rjUX0gZYq02UAKCDL0pZDG9a6PmyBAAD43H1tC2RHXB0LDsA/JmxHj3qxEAEg+IZNFzBXdsxmg/sMNFaU6GPXzTddBoACsBx948hD73e9A0AiAITBSdMFzFWsNOZ60EVY/OENdVq+IGG6DAB55byi5PAGr1YjAASdox2mS5ir0mT5IdM1+EXcjujLa5s1v5y5AEBAddvZ6H3H/upuz74YEQACzpb+TVLWdB2zZclSsqx0o+k6/KSmLKZHPrRE8xOEACBgTjpW7sNHvnzraS8XJQAE3Pevs16T9LjpOmarqr5m/87fX/qU6Tr8pqWmVN+69xq1LmQ+ABAMzitZe/Lmjr/74EGvVyYAhEAmpy/Ig6ERhZKsqehrnF9zq+k6/KqqNKqvrF+iT6xayIwAwL8mHDn/bJWn1nY9uPZsPi7A3qGQuO+QE49F9HVJn5Xk2Qkye370sldLyZKlqvqa/Y3za2596t7GUUl6vXuAnQAu9I9l9IP95/X88X6NT+ZMlwNgGo40Ykn/aUubvHrb/0oIACHziUNOqxXRpx3pTktaIinpZj23ASASs514aWy8NFl+KFlWuvGdt/0JAN5IZ3J69fSwDpxJ6Xh/WueGJ5SayHKUMGDWhKQBR+q05Oy1rMiLJenMNi+G/MwEASDkXu8eGJcUn+u//+XxC3O+tmVJn3zfNVP+DhIAAPjVysbqov6M5QEhhkxd2I5EuCcNAIYQANBp6sKxSGTU1LUBIOwIANhn6sLxWOSEqWsDQNgRAELOcawXTF07Zmu7qWsDQNgRAELOiY1vlTRS6OtGLEtV9uSmQl8XAHARASDkWuvqUpb0g0JfN1kWPbymbWlPoa8LALiIAADlstYmSZlCXc+SpfJE/C8KdT0AwLsRAKDrmqqOOo6+WajrVSViu9etbNhZqOsBAN6NAABJUtlE1cNytDvv14lHh+dlytvzfR0AwNQIAJAktbRY6Vws+juWdDJf14jZdra6zFq7Zs08Y8OHAAAXEQDwK611ybPK5j4i6ZTXa8fsSLamouT31l1/1f96vTYAYPYIAHibFU21B6KWvVrSLq/WLItHh2srylff2db4Q6/WBAC4QwDAuyxrqDgfHalaL8f5R7mYEWDJUk2i5JVGp2LxHW0LD3hYIgDAJQIALmvZMmt85aKaR3LR6DWO9JhmEQQilqWqRPz1+vmJ2+++qelWnvkDQPEp6qMKUTwOnTuXtDLxeyxLayXdIKlFUvXe471x27ZyUdseLbF1Iha3n6uyJh71asgPxwED8KtiPw64qIsDCAAA/KrYAwCPAAAACCECAAAAIUQAAAAghAgAAACEEAEAAIAQIgAAABBCBAAAAEIoaroAYCpdPUM/7ktNfNR0HXNlWZYilhS1I7IjlkpitspitkrjUZWXRRWzyeAAzCjqIQWAJG3ff/o7vUPp+x0FbyZQWdxWRSKu2mSJEiXkcSBIin0QUFEXB1yy4+DpL/YOjW/K5nKB/Z0tjUc1r6JE8ytLZUcC+2MCoUEAADzy3MGTf9Q/nPneZDYX6PvmdsRSXXWZ6qrKCAKAjxEAAA9tP3DiA0OjkzsmMrm46VryzY5Yaqgt14KqUv5QAR8q9gAQ6G9SCJ7265t3VVYmbiqN26Oma8m3bM7RqQspHT09qPFM1nQ5AAKGAADfab+u/rVkabYlWRo9b7qWQkilMzp8akD9qXHTpQAIEAIAfKl91TXnKhOJpRWJWJfpWgohm3PU2TOsU70jAdwLAcCEon4+AUzHcZzIM3tP/ax/ZHyN6VoKpTZZoqvqkrIs/nyBYsY7AEAeWZaVu3t103trk/Efm66lUPpS4zreMyzH4V4AgLkjACAQ7rqx+WPzK0sfs0JyU2toZEJd51I8DgAwZwQABEb7qsX3L6gufdCORELxudifGld374jpMgD4FAEAgXJn26Kv1VbGPhW1IznTtRRCz8AYuwMAzAkBAIGzvq1pc3UyujYei0yYrqUQTlxIMScAwKwRABBIoRoYlHX05rlh02UA8BkCAAIrTAODUulJ9Q7zKADAzBEAEGhhGhjU3TuibC4U7z8C8AABAIG3trUude/q5qtrykt2m64lnzLZnM4PjJkuA4BPEAAQCr8eGFTyP0GeFNAzOMZdAAAzQgBAqNx1Y9PH51WWfTeoA4OyOUe9Q2nTZQDwAQIAQqd91aLP1VWUPGBHrEB+Vb7Ay4AAZoAAgFC644bFX6+tjAdyYFB6YlJj45OmywBQ5AgACK31bU2bF9SUrYtFIxnTtXitj+mAAKZBAECorVvZsLOqKrE6aAODhkYDl2kAeIwAgNAL4sCgsYlJTWYD93QDgIcIAICCOTAoleY9AABXRgAA3hK0gUHpCQIAgCsjAAC/IUgDg9ITnBAI4MoIAMBlBGFgEEcEA5gKAQC4Ar8PDJpkJDCAKRAAgCn4eWAQZwIAmAoBAJjG+ramzdXJ6Np4LDJhupbZIAAAmAoBAJiB9uubd1VWJm7y08AgxyEAALgyAgAwQ0EcGAQgvAgAwCwEcWAQgHAiAACzFLSBQQDCiQAAzEGQBgYBCCcCAODCxYFBpY/5eWAQgHAiAAAuta9afL+fBwYBCCcCAOABPw8MAhBOBADAI34dGAQgL8ZNFzAdAgDgIT8ODAKQF8OmC5gOAQDwGAODAIgAAIQTA4OA0LtguoDpEACAPGFgEBBejpw3TNcwHQIAkEcMDALCKaIIAQDApYFBZd9lYBAQDjnlDpmuYToEAKBA2lct+hwDg4BQyNmyXzJdxHQIAEABMTAICIX9yxsreQkQwNutb2vavKCmbF08FsmYrgWA9xxHz5uuYSYIAIAB61Y27KysTKxmYBAQPI7jbDFdw0wQAABDGBgEBJHzf62La/aZrmImCACAQQwMAgLnSdMFzBQBADCMgUFAYPRZscknTBcxUwQAoAgwMAjwP8eyvrliwYKiPwPgEgIAUEQYGAT4Vk9JSfbbpouYDQIAUGQYGAT4jyPri1fX1g6armM2CABAEWJgEOAru1Y2VG42XcRsEQCAIrW+rWlzdTK6Nh6LTJiuBcDlWdKAbetPLct/d+wIAEARa7++eVdlZeImBgYBxcmR8+lrF1Z3mK5jLggAQJFrv67+tUUJZ2myNFb0s8WBMLEsfXVlY80PTdcxVwQAwAfWtC3tqUyUtTAwCCgaW5bXVz1kugg3CACAT1waGFSdLPm56VqAUHOcrSMNVX9iWZavX9IlAAA+YllW7p4bm25hYBBghiNn80hj9cffY1m+P82TAAD4EAODgIJzLEtfXdlQ/akgfPhLBADAtxgYBBTMkGXpD1Y0VH/Jj9v9roQAAPgYA4OAvNtlRXTDiobq/zZdiNcIAIDPMTAIyIs+SX++oqHq9hX11Z2mi8kHAgAQAAwMAjzT61jWw/HS3NKVjdX/GqRb/u/EG0RAgOw+2LGwJ22/lkpn5kvS6qvnmy4J8IvXHDn/7kQzT7TW1aVMF1MIBAAgYF48dC45nB47ODyaWUIAAK4oZ0kHco52OI6zpXVxzT7TBRUaAQAIIMdxItv2ntqztL7iPaZrAQyakJSSNCCpT3LesBQ5nFPukC37peWNlYzXBgAAAAAAAAAAAAAAAAAAAAAAAAAAAAAAAAAAAAAAAAAAAAAAAAAAAAAAAAAAAAAAAAAAAAAAAAAAAAAAAAAAAAAAAAAAAACgSP0/2kS9Nzmi+WYAAAAASUVORK5CYII=;" parent="1" vertex="1">
          <mxGeometry x="1400.5" y="601" width="90" height="90" as="geometry" />
        </mxCell>
        <mxCell id="qJvai_lrImhjCM4Q15sK-2" value="&lt;font&gt;Ad - Hoc&lt;/font&gt;&lt;div&gt;&lt;font&gt;SQL Queries&lt;/font&gt;&lt;/div&gt;" style="text;html=1;align=center;verticalAlign=middle;whiteSpace=wrap;rounded=0;fontSize=14;" parent="1" vertex="1">
          <mxGeometry x="1380.5" y="701" width="130" height="30" as="geometry" />
        </mxCell>
        <mxCell id="qJvai_lrImhjCM4Q15sK-4" value="&lt;font style=&quot;font-size: 14px;&quot;&gt;Machine Learning&lt;/font&gt;" style="text;html=1;align=center;verticalAlign=middle;whiteSpace=wrap;rounded=0;" parent="1" vertex="1">
          <mxGeometry x="1375.5" y="851" width="140" height="30" as="geometry" />
        </mxCell>
        <mxCell id="qJvai_lrImhjCM4Q15sK-5" value="" style="shape=image;verticalLabelPosition=bottom;labelBackgroundColor=default;verticalAlign=top;aspect=fixed;imageAspect=0;image=data:image/png,iVBORw0KGgoAAAANSUhEUgAAAgAAAAIACAYAAAD0eNT6AAAAAXNSR0IArs4c6QAAIABJREFUeAHsnQl8G1e1//vgsfQB5fEea4E/ZXnAa3lA63iRZjQz2nd5lZOW0gellD6gCzwgLQ9ogEIXuqVbmqRN2jRNs+9x9njftVrWZnmX7diOHWdfbd8/d6QrjWTJlrwkTjj9fO5nRtLMvXe+zqfnN+ece+4NN8B/QAAIAAEgAASAABAAAkAACAABIAAEgAAQAAJAAAgAASAABIAAEAACQAAIAAEgAASAABAAAkAACAABIAAEgAAQAAJAAAgAASAABIAAEAACQAAIAAEgAASAABAAAkAACAABIAAEgAAQAAJAAAgAASAABIAAEAACQAAIAAEgAASAABAAAkAACAABIAAEgAAQAAJAAAgAASAABIAAEAACQAAIAAEgAASAABAAAkAACAABIAAEgAAQAAJAAAgAASAABIAAEAACQAAIAAEgAASAABAAAkAACAABIAAEgAAQAAJAAAgAASAABIAAEAACQAAIAAEgAASAABAAAkAACAABIAAEgAAQAAJAAAgAASAABIAAEAACQAAIAAEgAASAABAAAkAACAABIAAEgAAQAAJAAAgAASAABIAAEAACQAAIAAEgAASAABAAAkAACAABIAAEgAAQAAJAAAgAASAABIAAEAACQAAIAAEgAASAABAAAkAACAABIAAEgAAQAAJAAAgAASAABIAAEAACQAAIAAEgAASAABAAAkAACAABIAAEgAAQAAJAAAgAASAABIAAEAACQAAIAAEgAASAABAAAkAACAABIAAEgAAQAAJAAAgAASAABIAAEAACQAAIAAEgAASAABAAAkAACAABIAAEgAAQAAJAAAgAASAABIAAEAACQAAIAAEgAASAABAAAkAACAABIAAEgAAQAAJAAAgAASAABIAAEAACQAAIAAEgAASAABAAAkAACAABIAAEgAAQAAJAAAgAASAABIAAEAACQAAIAAEgAASAABAAAtcIgWAweOPAwMD/nDhx4hPXyJRhmkAACAABIAAEgMB0CfT19X0y2Nu7uK+vr+/o0X40MDDw/en2BfcBASAABIAAEAAC85xAZ2fnl7u6gkuDweDZnp5e1Nvbh44ePYr6+we2zvOpw/SAABAAAkAACACBdAkEAoE72ts713R2dl7u6upC3d1BFOzpQb29vaivDwuA/nP9/f0fSbdfuB4IAAEgAASAABCYZwQQQv/U0tKiCAQCu1pb21Bbezvq6OhEnZ1YAHSjYLAH9fACAHsB+DBAwTx7BJgOEAACQAAIAAEgkCoBt9v9QY/Hc4/f72/2+1tQSyCAeAHQ1o7aOzp4AdDVhQVAEPFhgL5IGOCdVMeA64AAEAACQAAIAIF5QiAQCNzkcrkebna7gx6PF3m9PuTz+1FLSwAFWltRW1sbam/vQB2dnShJGOCE240+OE8eB6YBBIAAEAACQAAITEbAZrN9yel0vuBsajrtcjWj5mY3cns8IQHg8yN/SwsKBFp5L0A7CQPweQATwwCDg4O6ycaC34AAEAACQAAIAIGrTKC+3vF1q9W62mazX7I7nMjpbEJNTS7kwgLA7UEerxf5sABIEAbo6Ohq6OrqWhIMBsfjwgDrrvJjwfBAAAgAASAABIBAIgINDQ231dc3rmlstFy2WK3IZrMju92BHE5nSABgL4DbjUgYwB8NA7jb2tqWtLW1fZ30GwwGq3v41QB9ZDXA2WPHjn2M/A5HIAAEgAAQAAJA4CoTqKur+3ZNTd2aurr60fr6BtTQaEEWixVZbTZkwwIAewGamlBsGMDr9nr9S/x+/zcTTT8YDD6YYDXAPYmuhe+AABAAAkAACACBK0igrKxaVFFVvaequma8pqYW1dbVI14ANDSiRiwArLaQF4CEAVyuU263e1lzc/N3pppmR0fHZ4PB4GhcGGD/VPfB70AACAABIAAEgMAcESgvL/+vsrKKjeUVlaiysgpVVVWjaiwAautQXX09qscCAHsBwmEAh8PhdTQ1LW5qakqrrn8wGDwUCQPwVQH7x4aGhj4/R48F3QIBIAAEgAAQAAKJCBw5cuS2w4ePbDlSWjZeWlaOyssrUAURANU1qAYLAOIFaLSct1qta+x2uzhRX6l8FwwGf4TDAKGqgJGiQL9M5V64BggAASAABIAAEJghgZKSw1/df+DQOwcPHh47dPgIOnKkFGEBUIYFAPYCVFWjKiwAQmGAgfr6xt/W19f/+wyHvcF37NjHgsHgqbgwgGum/cL9QAAIAAEgAASAwCQESkpKvrBn7/6l+/btv7D/wEF04OAhdOjQYXQYC4DSMlSGvQAkDFBd3VFTU/ewxWL5l0m6TPun7u7gK3FhALxD4LS9CmlPAG4AAkAACAABIPCPQqCkpOSmnbtLntq9p+R8Sck+tHfffrR//wFeABzEAgB7AUrLeC9ARUVFZ2Vl5b2lpaX/PBd8urq6bg0Ge8bJ5kDhvQHenouxoE8gAASAABAAAv+QBDZu3Pj+HTt2PbBj566BXbv2oN17StCekr1o7979aB8WAAcOooMHD6NwGKCvtLz8Z7i+/1zDCgaDR+LCAOdOnDiRVkLhXM8R+gcCQAAIAAEgcE0S2Lx5u3rr1u3N27bvQDt27EI7d+1Gu3fv4QVAyd59aB/2AoTCAOcOHTr0p/3791+xLXqDwWBhfBhgcHDwoWsSNEwaCAABIAAEgMB8ILB58+bbNm3asnfzlq1o69btCAuA7Tt2op07d6NdWADsKUHhMMD4vn0H1h08ePD/Xel5I4TeHwwG3ZEwQD+/RXDzlZ4HjAcEgAAQAAJA4JonsHr1tn9dv37Dqxs2brq8cdMWhAXAlq3b0LZtIQGwY+cuJAgD+Pft2ye9mg8dDAYLcBigL7pFMBocHKSv5pxgbCAABIAAEAAC1xSBdevW3bnuvfVH31u/AW3YsAlt3LQZbdq8BW3Zsg1t3bYdbcdhgJ18GODi7t0lfyotLf3w1X5AhNA/9fT0NPT29qG+UFEgNDAwuPlqzwvGBwJAAAgAASAw7wmsevfdr7zzztq9a99dh95dtx5hAbB+w0a0cWNIACQJA/SVlJRs3LNv38P79+/PwIb4aj1od3efKi4MMDowMPDVqzUfGBcIAAEgAASAwLwmsHz58g+8/fY7v317zTvn1rzzLlq7FguA99C69zag9es3og0bN6FNU4cByGqAgYMHD+46cOjQH44cOaLbv3//p6/kw/f29u4LhQH6UX//AA4DLL2S48NYQAAIAAEgAASuCQJvvvkmvWr1W82r33obvfX2O2jNO2vRO2vfRe++iwVAyAsQDQNsxWGAE6EwwE4SBkC7d4eWA4ZWAxzgVwMc5IsCHeGLApWVlXWVlZfvLK+sfLKqququ6urq75aUlHxoLgB1dXV9pbe376wgDHB6ZGTkX+diLOgTCAABIAAEgMA1R+D55zfeuHLlm0vfeHPV+Jur3kKrV2MBsAa9vSYkAHAYYF3iMIBj8+adt23dseOB7dt3btu5a/epyGqAvcmLAvFVAcsro3sD1NRerqmtb62rq99X12B5tbGx8RdWq9VosTjvsFgsn8M1B6YLta+v76G+vqPoaGg1ABoYGPrNdPuC+4AAEAACQAAIXDcEli174/blK1a4V6x8E618YxV6c9VqtAoLgLewAMBegEgY4CIfBtgQHwbYGqm0t3y55QM7d5awe/bs/WtJyV7r3n37xyNFgQ5FigLxVQH5zYHCewNUR/cGCG0R3NiILGSLYLsdORzOMaez6WiTy+Vwudx73G73ao/H94TX2/Kg3+9f2NbWpmttbZW2trZmtLW1fb21tfeLXV1dn8BLAnEeQl9f33ZcFbB/gA8DBBFCH7hu/oDwIEAACAABIAAE0iGA36qXLVv+6LLXl198fflKtGLFG2jlG2+iN97EAuAttBoLgFAYYO/atWupdevWyda9t370PZwHEFkNEFkO+HCisXHMf+/eA3eHNgc61IOrAkb2BiivEOwNEN4ciN8iuAE14C2CLXiLYBuy2ezI7nAgp7MJNTW5kKu5GbndHuTxeJHX50N+fwtqaQmg1tZW1NbWjto7OlBnZyfq6upG3cEg6unpudDb23f6aHQ1ABoaGvrvRPOF74AAEAACQAAIXNcEXnhh2S2vvvpaxauvvY5eW7Ycvb58BVqOBcBKLACwF4APAwyuXrOmQAjivfc2PJ5kNcDotm278oTXJjovLS295dCh0rtLS8uXlZWVu8orKsciWwTj3QHJFsFYADRaQl4ALADsDuRwOpETCwBXM2p2u0MCwOtDPr+fFwCBQCtqbWtD7e0dqKMDC4Au1N0dRMEeskVwNAwwOHisBXsHEs0RvgMCQAAIAAEgcF0SePHFl+556eVXT778ymvo1deW8QJg2etYAKxEOAzwBh8GeKtx1apVX4wHsGTJkve9+97GQ3g5YILVAGe3bduVFX/PZJ8rKys/UVFRoa+sqnqyurq6sqa29nxtXX2CMIADhwFCXgAsAJrdyO3xIC8WAD4/8re0IF4AtLahtvZ2XgB0dmIB0I2CwR4ULQoUCQNgL8Ddk80NfgMCQAAIAAEgcF0QWLJk9YdfeGHpWy8ufRktfekVhAXAK68uQ6+99jrCAoAPA6zkwwBVa9euvSnZQ69bt+4z723YGMQCABcF2rw5FAYIrwYY2r1797eS3TvV93g1QG1tLVVf3/jrhobG9Y0Wi99itY2lFAYITBYG6EW4KFAoDDCABgYH0bFjx7zgBZjqLwK/AwEgAASAwDVN4Lnnnvvic8+92PD8C0vRi0tf4gXASy+/il55FXsBYsIA7tWrV0+5TG79+vWZ6zdsPB8tChSqChjeHOjonj17vj5bwKqqqj5msThom83xoMPpfKOpyVXrcjWPJAsDtJEwAJ8HMDEM0B9eDTA4eAyLgDtna57QDxAAAkAACACBeUXg2WefZZ559vn+Z597AWEB8MKLL6GlS19GWADEhQFOLV++POVKeRs2bLg7QRggvDnQru6SkpKU+5oOMJ/Pd7Pb7ZZ7vd6f+3y+pX6/f3sg0GprbW0fShgG6CV7A0TDAMeODbkRQu+bzvhwDxAAAkAACACBeUvgqaee+dnTzzx76W/PPo+wAHju+Rd5AZAwDLBsxb3pPsiGTZv+liAMQIoC9f69LPCt6fY5G9f39fX9S1dX161dXV10V1eXsaen555gsO/h3t4+R1wYAA0PDy+cjTGhDyAABIAAEAACV53ASy+99KG/PvX0G08+9Qx6+pln0TN/ew49+9zzvABIEgaonU7dfpwUuGHDlveEmwOFwwBo5y5+i+Dje/bsyb7aQFpb+z8d7OnZTPYGEIYBhoeH2xBCH7zac4TxgQAQAAJAAAjMiAC64YZ/Wvbgz+598bHHerEAeOrpv/ECgHgBImGAl6JhgJeXLaOmO+jGjRs/uGnT5pL4LYJ34i2Cd+9Bu/eUnNi7d698uv3P9L6uri5zd3f3IL8aIHEYAK8I+PlMx4H7gQAQAAJAAAjMCwIHOGrBVo1q75sP3N/77JNPIiIAhGGAl0KrAapmOmGcvb9585adW7aSLYIn7A1wae/evT+a6Tjp3B8IBL7Q3tGxAS8HxEWBgnxRoF7U28evBhjDmwOFVwNgATA4PDycdOVDOuPCtUAACAABIAAErjqBjWbz+/eLF/zffmrBuS35hrNvPvwQevHpp/lkwMhqgJdePfbqq69ve+W15b997bWVOdOtu493EdyyZdsavBwwLgyA9uzZi/DmQHv37n8Shw3mEkwgELgp0Nr6l7a2trN8UaAJqwH6fD09Pd/t7+93DgwMosFjx7AAQMePH39iLucFfQMBIAAEgAAQuOIEDoi/+91D4ozmg6I70AFxBtpp1KB37/8RWvH4H9DL4ZoAkaJAy1YMLl+x4ulVq1Z9ZToT3bJtx2Pbtu8Y275jJ9q5k88DwGEAVFIS2Rxoz6FDh/59On1Pdo/FYvmA3+//mb+lZZAUBWonRYH4qoDd48Fg7wrypn/06NGsgYGB0UG+JsAQTgY8OzQ09PnJxoDfgAAQAAJAAAhccwRKtF/70EEq42+HxBljh8QZiLSDbA7aWWBAG+//EVrzf4+hlS8uJUWBxla+sWrj6tWrb0n3Ybds367Yvn1nzw6cB7BrNy8A9pTsRXv37kPhzYE6Dx8+nFbVwGRzKC0t/We32/09j9fr56sC4r0B+KJAbZG9ATo6upq6urom5CH09w++GA0DDKORkZE3k40D3wMBIAAEgAAQuKYJHBLfLjoozggcojLQ4Zi2AB2hQu2AkkG7FhWizQ//HL37l79ceGvlyieWL1/+L4kefOPGjTdu3Ljx8+u3bv3Wli1bmM2bt+Vt3b79h9u27fjrjh27LoRXA0TCAPv27Uf7DxxEBw4eunjo0KH/nW5IwO12f9TpdD3scjV3RooCCTYHCoQ2B+psb2+/J9la/8HBwY8ODAz6SRhgePj46IkTJ+5I9JzwHRAAAkAACACBa57AwYyMjx+i7thMBAAx/EfoBYi0UnoBIu2INAftKzBc2P3D7we2PLbYu/6ll/1r177b++669ef/vkEQCu0NsBlt2rQF4dUAW7eG8gAmCQOgAwcOoYOHDqPDh49UlZeX/0eqUOtcrs/Y7c4nHA7nsLOpKbQ50MS9AQYDgbZHAoHAh6bqd3Bw8LuDg4Pnjx3jwwA4F6AumWCYqi/4HQgAASAABIDANUHgCL3g/iPUgovE6OMjMfqRo2QBKpNkTmilcjE6UJyHSn52P9rxx8fR1mXL0KaNm+L3BuCLAsWGAfbzYQDsBTh48DDCWwQfOVJ29siRsl/iOH4icLhGQUNDA9tota6xWm3nQ3sDkM2BXKHNgfAWwV6v0+/33xcMBm9M1E+y7wYHB392jE8GHMYCAJ04ceK+ZNfC90AACAABIAAErgsCR+iM7CP0gs4Jxl+yYKhMkjkSb/zLmUwU3yqYTFTBZKFyFYMO3W1G+3/xINrz5BNo5xtvoJ3btvNFgXbv3oNwHgBeDSAIA6BD2AtwpBSVlpahsrJyb2VlpYGAraqqurmmpu6xuvr6lnqyRbDVingBwG8R3ISamlyjLlfzFpfLy5H7pnMcHBrahFcDDA8fx7kAx06dOjXriYrTmRfcAwSAABAAAkBgzgjsE4n+rZResJd/65csQKWhN/7eciZTjG644X3VYvGn8XmFJOu+cibzb+VMZnk5k3mBGP4KNguRVslmIWGrkIlQWbEJHf75/ejgnx5H+19/He3bvh3t338A5wGQMAA6UlqGSsvKUXl5BaqsrDpQVVWzs7q65nJNbR2qi2wRbEEWixVZbTZktzsbHQ7HLx0Ox6xk7uPVAceGhnzDw9gLMIKOnzixfM6AQ8dAAAgAASAABOYLAVwz4IhkwfNxb/wXy+jMnyaaY41IdGM5kyUr57KeqGCzfEKjz59zWaiSy0JVfMtGVVy0VXPZqDJPjSp+fA8q++2vUdkLz6LSd9ei0oOHUFl5BaqoqESVVdWoqroG1dTUoloiABoa+ywWy+/tdnvKOQOJ5p7su+Hh4VuHhoZP4zDAyMjI2MmTJzOTXQvfAwEgAASAABC4rgiU0Zk/LJNkXsBCgLj6y9jMlZaMjITxefLwFZKcOyqYzL9Vcln9SQ2/NBtVJ2g10myEW7VMjKoLdaj6pz9C1Ut+i6pfewVVb9mCaquqUV19A2poaBxrbLRss1qthmT5AmQ+0z0ODw+bh4ePj4+MjOBcACtC6J+n2xfcBwSAABAAAkDgmiJQIVlAlTOZA0QA4GMFk7W/Ljt7ynK51WyWqIrLHo9545/E6NdIc1CNLNpqZTloQlOIUO1CE6p/6Ceo/i9LUMObK5B1z67jjsb61x0OBz3bcIeHh5/FYYATJ07g9tvZ7h/6AwJAAAgAASAwbwlU0plfKWeyAji5j298nD+zqZTL/sJUk67ict7CAmCyt32h0cfnE4w+/k6eg+omNBGqk4davYpGDd8rQJaf//h4g0H2ZIMip7hOnv3tgFY75fK/yZ4Bv/UfP368lPcCnDx54fTp07dNdj38BgSAABAAAkDguiLAJ/+xWY1xCX6d5Uz2pDH4KiV1c7U0+5xQAGAXf6006zfVsuzvV8uz/7damvNcjUy0pkYm2l8ry2mqleX018pyxqc0+nIRqlckbw0KEWpQiEYbtGyv7ef3nXU88bsTzW8uH/GW7D7eand0dnZ2urq6ui3BYPBwMBjc39fXt7Gvv39tf3//8oGBgeXHjh1bPjw8vPz48ePbwmEAdPLUqQYIBVxX/7ThYYAAEAACQGAqAvtV3/5IJZtdEpPkh+P80qzvTHZvtTTrOSwASHw/9MYv+ttk97jNt36wUZ75lVp5jqJOLrq/Xp7zVJ1CtLFOJqqqV4jaEhn+sMHHRj/UlCLUwDcxalCGWqNSjEiz5CqR/b7vIdcfHkW+5a+itu2bUVdjA+rr60MDAwNocPAYOsYvBwytBsBhgJMnT6JTp049Otnc4TcgAASAABAAAtcdAfett36wks18Lya5j80ermYzk2bJV6vEn66R5pwXuvprZTk9aMkN094NEPfZoBTJG+TihxoUOSsaFCJrg1J0aTKDTwx/zFElRo3hZlGJEW5WgxQ13X838j6+GLWueAV17dmB+h02dHzwGBEAOBRw63X3x4UHAgJAAAgAASAwGQG8TLCKy1obl9w3UinNzkh2X4005634+H6dPFua7PrpfI+XIzaoROJGhegRi5La2qgUH09k7Imhn/pIIYsqpo07inTHm+//fsD90P07rUrxD2xKaoHFmJFwb4TpPAPcAwSAABAAAkBgXhPAIqBamr0Gr+MXxPeHaxjR7YkmXi0XZ8Yk9+GEPlnOikTXztZ32MNgVdEZVhX1a4tKXGFRiUcnGv2ogbeqKBRpagpZU29jVjXValFT220q6q82DX2nTU1/B4cxZutZoB8gAASAABAAAvOGADaw+M2eCIBwjH+oTp6d0D1eK8upj0nsU4iOX0kjadNKPtWoon5kUVF90zT0vCiwqSmUYrtsU9Mem4beZFeJH7epxEUWleibpRwH9QTmzb9imAgQAAJAAAhMiwAWAdXS7HUh4x9Zw9+Fs//jO6xXiO4JLeWLLt+rU4hz46+bq89WtehrVg21f7I3+xQNO7JpqPRbVDhctKkph00tXmfXUI/ZNJTJrsm5Za6eG/oFAkAACAABIDAnBPBbPF7CR5L8sKu/Tp5tr9PGFgsq5bgP18lFI3jtfn10Cd+aOZmUoFM8rlVDL7GqqfNC4x829pesanqF0PDbNdQGm4ZeateIl9s04nX4Dd6moQ7aNJTFpqE6rBr6lF1Do3SbTUOjaEsoIIZtGvEhq4b6m11N32VV5PwnDrUIHgVOgQAQAAJAAAjMLwKlHPdR3sVPCvngGL9CtD++bHC9XLw2bgnf0FwaOatGpLaqqYDQwEfONXS1UyX+FhYI0Td6bNglP5iKLn4ui1ryOZuOWhB6g6d/atPQf3Zo6DV2DV1t19L96QoEfH0CgXDGpqFqrCrxq1a1+IcONXXbTFZPTPVc8DsQAAJAAAgAgbQJWLiMT9bKcrzCOH+tXPQWuuGGfyKd1SnEhUQAkPX69WpKQn6frWODjvusXU1tiBh77H4nbns1NWJTUw8IDaldQ5+MGGw1/cRszMPNcR/FyYB2DW226+gldi29ya6lPXYtfTkyVoqehJAwiDzDSd5ToKb+gsWHS579mdmYL/QBBIAAEAACQGDaBGo40dfq5DnDpEQvf1SK/kQ6dKq+/ZEGhegcMf64QE+jUvw0+X02jja1uNCmpo5FDD5v+EMue5tash6Lg/hx7BpJgDfKWhrZtJL18b/P5mccMnGqJXfYtZIfO3T0604t3ejQ0hcdWhrZSZtCGMQJApyU2GlTU+utauoRi1pyx1x6VWaTBfQFBIAAEAAC1xGBcPW+y4I4P2pQ5kTc6g0K8Q5SsCe8Tt8zG49vUWR83Kam3o4a/mic3qahu21aSptsHIeGrsYGmDfCGtqS7Lq5+h6LAoeGoh0a+ndOHX3QoaXPRuaTgiiIEQShZMOTNhW1x6amF9tVInF8KGaungP6BQJAAAgAgX9wArhCH3H142ODQnS+ThUqFFSvpO4Lv/lHyvLiDP2ZILNraM6moToTuNbHHRr6DYtC8fHJ+ndo6W3E4Dq01InJrr0Sv2FBYNdKqL+HC/7PoaUPOLT0GTK/qbwECcQA9hCctWqow9bQckQGliJeib8ijAEEgAAQ+AclUK8QvRl19YtQvVLcaeG4T+LsdmGFvnBxngeng4lP4NPSz9o19NgE46+l+xwaiTqVfh1aZrlTJ0Gk4ZoBqdx3pa7Bb/AODfWoQ0tfJkKAHHlBkCRkEPWGxNYusKqpk1a1eJtVQ/3EqWK+fKWeA8YBAkAACACBfwACuERug1LULHT3NyjF+3B8mi/TG669HxYA29JFgr0Gdg3tiDH8YTe+Q0fvTseIO3T0n4nxx8cmAytKdz5zdb3dQHNNWkmpUytBTvJ8SY7JxEASr0Ck2qFFTfltKnppo5LSQWnjufpLQr9AAAgAgX8gAo0q8bcalOJzwjf+BpXoV1aVqCS2LC81kk7iml0rybNrqBMR4x81iBedOvph4cqDVHC7dPRDTdjwh5tLR38/lfvm8hqXgeacOkm5UJjEnIcEQaNDS20m3gDhMbkYCK8miBYmigiBcJ2E8zh/AFdNTEdEzSUL6BsIAAEgAASuQQIWJfUAEQBho3/RqhbvCJ2H6++rKdSoFmVN9Xh46Z5DQz9p19Dj2MAJDZ5DS/fjRLqp+kj0u1MvWdSklyDSnAZmSaLrrsR3zQb6O016yV4iRoRHIgAcOvqAUyOR4/k4dJJV2DuAWTi1kt/iJYcODb3XoaWP4+9mIATwZkijFiVValGJH2xQMV+8Es8PYwABIAAEgMB1RKAxYvBDW+5aVNQYX49fsOGORUU9OtkOBYLfAAAgAElEQVQjO1Wqj9g19NYEhh9X5bO4ZmCgnFpG5tJLkEvPkLZ2srnMxW92DXeLS8++49JLxvBciBiJHHWS8SadZFuTno7ZdbFJJ3ETYeDSM/9J5oa9IE4N9Q2Hjv6+U0uvcGhpX8RjIsgZiOQJJPMIRHZEFI9bVOJ6i0r06EyTNskc4QgEgAAQAALXOQGbkrrZohKfiLz1Cww/djuHC/YcTIbBYRB93qalrXFv/Pxbb5NOsrvGLLox2b2pfO/Uc98SGH/UpGfqUrlvNq4JaLNvchnYZ1x65qJwDtFzXgzsdemoBfHj4dUNTTrJGBEAU7ns3Trusw4dVWzX0K/Y1bRHKAjihYCwbDJ/HhUCCP8dG1XiGouaeqBJT38ifl7wGQgAASAABIBAhIBVRd8f/9YvMP64Ut+ZROvVHTr6604t3RVv/LHbu0lHb0h0T2TQFE+c+eJPNxsYJGhDKd467ctwOMOlZ+5tNjD9gnH5ObgMxBMhKXUbuKRhjSY9rRCECEaF1Q1TmZhNJ/6SQ0P9xK6mt9k19KlEyYIxQiBOBISFwPlGJbXRqhIZYHlhKtThGiAABIDAPxgB7JK2qsRlxKBEyvSGS/Tit1Gnjs4WYnFomdsdWnpAaPz5bHidBOHYdzqJg8J+489xP80GZkxoiOfyzdalZ8TNBtYiHC/u3Osy0ob4ecZ/dhmYJZEQgZ7uj/89nc98hUItI7NrqGdsGrqJ9wiEvTPkb0aOFl4IkHAO7w0gNR36GxWi5+vk2d9OZ2y4FggAASAABK5zAo0a6htWNXUp1vhHK/bZtdSvCAK7nhHjojzE+BPDj93dTVpm62wZfzKe28AMug0MIq3ZyGaS32briEWFx8SucBvZcbeRRZEWHXfIbZD8PFWvhksvKSWhgmY9XTFb88T9OLXcF+xa8Y9tGmqLTU2dxH8zIgD4YyJvQKi0MxED1Q0qamGqzzKbc4e+gAAQAAJAYB4SsGmol0i8WRiD5s+1kh14yniXPWL8hYYfG3+HTlI905h/IixuI9scMchGFjUb2TsTXTfd77xG5i6Pke33GFmEm3Ast5G93GxkXrDncf+aav8dHPdhl4E5HxUAzPJU7033uoBW+yGrijbaVdQ7oSJCYTGQSATg/ACBEGhQinsbVOLfVavEn053XLgeCAABIAAEriMCFiP3SZuaGok3/uE3/WG8g55TKxnCn+ONv0snafHmy/99LnC4jewRbJSJgfaY2N/PxjjePO4WTy6732NiEd+EY4TOa9067rvpjuXRMYwwbOAyMA+n28d0rsfVF+1qca5NTb1rVVOnsDdgkpAALwZw6ecGpehCo0L0dr1yYjLjdOYB9wABIAAEgMA1SAC7+iMCYOJ6/pPxhj+c6HYxfgncbD66x8itFxh/bKzfnkn/OOfBZ+Ie8JrYU14Ti4QtLAaOu01czLbE6YyH4/8xAsDEKtO5fzauxZ4Yq4bOt6ro9ywq6kxolUcoN6BxoicAiwC8LwSqV4hqapU5pnQLNs3GnKEPIAAEgAAQuIoEsEvZrqF7SHxfeCRL2sgxkuWupxfP5ZS9uexL5C09bKyrpzueRyf7ktfEHfSaOJS4sZtcJvlnpts/vs9tYOoi+Qp41cAM+5vJXPC9WAw0qsRFVpV4s0UlvhheIRAfDhCKACwEbPVyUR4IgZnSh/uBABAAAtcQAYdG8osYw49L2wo25IkYfpz0p5eUp7vELV0UPhP3u+hbOjbc7EC6feDrfSbpvb5c9qQvl0MJ2jFfnrR4Ov0K7/EbuU+6jexYNI+ACQh/v9rneNOnRhX1C4tS5J7CE4BFAKqX5zgaFDkFIASu9l8OxgcCQAAIXAECuLKfQ0sfSxTrjxj/cEW8UHU8pqpJzyx2m7gZbR2c7NG8udxPyNs6MdwBrfamZNfHf99mVnzcb5KuI/fGH/0mbpfPpLw5/r7pfHabuLtJuCIsAlZNp58rcY9VRWc0qsTLG5Xi0yQ5kM8JCG0THRIAobAAqpOLmusVontme4XHlXhOGAMIAAEgAATSIODQSv6QJN4fKYVLstzJsdnAjDcbmPpmPbPYY2D+I43hJr3Un8vmxxttj0F2x6Q3hX/057ISXy7b5c/l0MTGnvSZuO+l0k+q13hN3NqYhEIDd1+q916t66pM1McaVKL7G5Xi+lBSoJjPBwjnBESEQJ1chGplIleNXKS5WnOFcYEAEAACQGCOCbjVon9z6iTnses/8tYfcvmjuNr8wip9kfNQDJxtcpu4JS6TZEbFZ3wmKSUUANiQT+WuR2bz+/15siX+POmoP0+KErT6QJ7sq7OJERfs8ZnYERyuIDkLfiP3zdkcY677ssqzv92gpF5pUIovYwGQSARgIVCnyNlToxJdU8821+ygfyAABIDAdUPAoZesjRj/qMufbMrDH4XZ7vicN/xGJmYtfdglHvAY2KfdudLsdOPJ2JsQeXvP45Aft1zpb5OBDpgln2rJ4w605ElRgjbekid92nJ/xgeS3T/d7z0mqZ6EKsI5C73pPut0x57pfW6O+2iDgipoVIpXNSrFg+HlgRMEQD02/nzLQXXynEs1ctGLlTTsOTBT/nA/EAACQGBeEWjSSlheACQy/rH1+fk3/5DxjxbSIbFw/hh+Kw4bxqA3V/qSz8RK8Zv6VA/Nx/B5wx99k2/JlyaMrQfy5aKWPGkwxvDnS1FLqB0L5MlUU4033d/9udxq7KkgIsBn5FZOt68rcR/eRtiiEv9Po4raa1GJz6eUFKggAgAfeRGAamU5Q3Xy7J/BfgNX4q8GYwABIAAErgAB/PbaZJD4cE17Eufnj3HGnyx5i2a+xxTt4d3hsVn8HPKSTHwTN+gzcW/4c6U6vAQx2WO15EkvxBj1PG5Ced2WAtmDLfnSi4F8KUrQLO0Fsi8l63+m37vN5g/6crnjwlCFJ5fNn2m/s31/o5z+ilUt/o1VQzUmKhssFAFT5QMQT0CtPAeLANzc9bIs2WzPGfoDAkAACACBq0DAZZA8JjT+iV3+yd/6Jxh+U8IleKEEvTzuhC+PfbclT1rYZzT+i/BxI2/10bf5PvI7Nr6BAukbCYw+EQKrOn7AfZhcPxdHn0lq4nMTiLDJ5S74TNTH5mKsdPu0qkVfs2moR20aykL2epi4d4BgA6HYcsGkPoC7XiGq4JcG8ssDiScg7AWIioDxWlnOijptdsqrNNJ9HrgeCAABIAAErgABp4b6BhEAMcZfz652G5idbiN7hrz5R1z+se7+qEs8ahwj6/D52D6J64eT9cJv+uda8rmtgTzu7o487l9b8qXWOAM/jpcr4nh/a76sIpAvQ6S15stQawHfLrblyx64Aphu8OdJt4dyE0KrDby53MErMW6yMVwq5osOLb3YrqVskcqOGhpv7YwSiYAJJYOV4ouNKuqgRSV+CHsN+JUCClF7RADEhQIEXgDeG1AtzemG1QLJ/jrwPRAAAkDgGiHg0jOeGOPPJ/uxP8TTx5nvboNU7jGxz3gMbBPJfg+9+Qvi4XHGfxLDH0rcC7/ph40+duufjQqAsLHPk9/dWiDrCBt7YvRDx0LZ8UCRgrsSiD0Fks+15EkvR1cacKjFxF0R4SF8PotC8XGHlr7XqaGPOLT0GCnmFCsAkoiA0OZBgxYV9TauGhj/Bt+oFC2LWxVQVq8QnSVhAJwPIBQBNbIchFu1LHt1KffdlDdSEj4PnAMBIAAEgMBVJuA2Sv4iFAB8zN/EPpZoWoEC7gseI/Mjr4nb5DNxI8KYOD6PzeYPJfXFxPZjDT9x4Uff7kNv9sTYjyc0/gWy1naz9BuJ5jcX3wVyucXkGcIi4BKuCDgXY8X3ibf0dWppY5OO3kCWbeKlm8T4k2OsCKAingCrmnLZNNSTdpVInKzIT6OKUjYoxeOC/QJ8eOOhKiV1c71cvLJOLhoVJASSfABeAPBCQJrdWynLMcbPHT4DASAABIDAPCfg1tHZRABEMv0N3ItTTRtnhfvzOdqXyz3hy+Us/lx2jHeThzP6idHkj5MY/iRGnhcBbQUyFNMKZVX+O6+M8cXPj5YseV9LvqyFX2VAlh3mSndPxWamv/OhGQP7TJNBMoCTNMlyzUjJZm2sCLBraRQWARftGsl+q5r6uV2Tc8tU88CegEaluAtXCgxXCRxvUIkZ4X0NUuq2OrlodzIvQI00G1XjJst+x6LI+LjwXjgHAkAACACBeUwAG/JmA3M6YvyNOOmPW5/ulFvzVZ/25XF3+/KkONFvMCIAEmbtR+L45G0/cowz+KitUEba5dZC6a/nMts//pkDuTIjCU2ElxqiQP7sVhckY+JNfVxG9vsuI1Pu0jPjodwMfj+GUHVGwX4NvBCIioCzDi212a6m78JhAtJfKsdGpeiNuDLBy5PdVyfPltbKclzhFQG8JyDkAchBEREgzW6rkYmykvUB3wMBIAAEgMA8I+A2SA6SZD989BiZsplMEb85+wvkmS0F0t8HCqTVgXzpaMiQJjb8EaMfNfZhoy9H7YUTW1uh3NpRJFuMQxIzmedU9wbyZWWh5MPw0sMC6Rm3mfvoVPel87s3l/kvj4F5pdnAjBBPjAvvMqgnLSwCwlUbw16AE7iQk0NDFViMGTErKlId26IW6xtV4nEiABqV4l47x00az8chiVpZzuJaWc5ZLARILoBAAGBvwKUqLvtX10qRpFR5wXVAAAgAgeuSgNvI/oEIAJzt7zay3tl80C49/YlAobQ4kC9/szVfdpK4/RMb/okGPyICiuSoXdA6iuRj7UWyQx2FsjvxcsHZnHNbgTyTzDMiAgqkb8zGGNjr4jaxZreRKSPcsQeGCAB8jAoAhuzPcNKlY95u0jA6nJw5k3nYtJJPWVTifn7r4PCyQFwpMNU+61VZX66V5ewRCoAYEcBloyouezdUEUyVKFwHBIAAELhKBNxGRhZ68w8X+TGxQ3MxldYC2Q9aC2SXExn+iJEXvvGHjX1HkRyl0I52Fsn/1Fmg/txszL21QLqeCAB8xCIAi4KZ9O3WcZ/1mNjfe0xsD1lWGREAWHhNFAFnXXpmg8vA5ndws1frwKqmdmDjzwsAfFRSW6fzXDUykblGltMfTgYM5QKEcwKqeBGQ1Vohz57RXhHTmRfcAwSAABAAAikSCGglnyIGKbzU71KKt6Z8WVuh7NHWAtk4b/wFrv4Jhj89o486i+SRFhYJ59uL5K/OJFcgUCi9ra1ANornKhAB1pQfNu5Cv5HN9BrZd70m9iIpniTcVTAiAkIC4GIzX4OBuWu2ww14WlYVfb+VXxYYKQ50wqakpr1dcoVE8qkauWh7jAdAynsAsBcAtzOVbNadcUjgIxAAAkAACMwXAl4jO8CLABOLsJGarTdOnA/QWiB7aeJbP+/qH20rkL/Hi4Ap3vI7zQqUZrvUaVa81n6n/DPpMm4rlG2LJB8SEZAv+3E6/eAYeItJqveZuDKyXJLsI4D5kpoKRHi5jWyD28T9fC6XGNqVzH9Y1dQZXCkwUhxITc1KTYNaLue+Gmn2aX5FAPYChIx/WARkoQpp5l8hLyCdf0FwLRAAAkDgChHwGNlSbJTIGyrO6p/p0Lj+f1uhbGO88Q+/9V9qL1QUt5nl2xK49y/h79I0+MmuP9VZpPhdquWCOwql2e2F8vG2QjlZfYCXIg6n+jaOn9mXL73Xn8e648oH8xUSQyIgxNljYrvdBvavf3fz/+dMWU91P847sKqpOlImmBcAanElWnLD+6a6N9XfazjR16ql2bVEBIQ9AKiKy0KVXBaqYjI3WzKml7SY6hzgOiAABIAAEEiTgMfIvhoVABwK5Mm+mmYXMZfjXf5a86WlsS7/SILfhY4iRS6O13cWyS8LBUBnkeJy90LZV4NmxX91mZUPd5oVezrNigtdZgVK2IoVqEvYElyHhUSHWdHSaVZNuZlNR5H8sDAsEfIESP8Y83AJPgS02pv8edLHWvKkfXgJZKhoUKg4EvEA4KPXxJ33mri1PiMjm03jm2BKMV/Z1fQTuEwwEQBWFXXBohJ9M+aiWfiAhUYVl/23amn2eFQAZPMCoJLNQpVsVmMVNf2QwyxMEboAAkAACAABIQGPkVlM3v7xW2pLHvdd4e/pnPtMyptbC2TOJMb/fGeRTIv76yiSPxZj/ENu/nfjxwp8T3tT90L5oq5i+c6uYsXlGIMvNP7JzqOiYLyzWLEK9xc/Bv7cbpaa8Hz4lQbRZMSzkxUfcpvV/xbIl/4xkC8dERYMEpYOxp4Aby7r9uVxj+DrE409l9/Z1LTCpqbGhALApqF/N5dj1siyzFVc9mkiArAHICwAUAWb1VnKZcy6+JjL54G+gQAQAALXLQGvkftBSACEavy3mGQxFeFSffCOQu6bf8/270xi/M+0FSnluC8cD+4olLfGufrH2wvlk2aNd5i5zwaLlb/pLlZ2dRcr0eQtzjuABUJIDLR1muUi4TPhHQo7iuSdRJBERECR7CXhdeQcb1QUyJc92ZovO0WKBeFjnAg4589n38YVE8l9V/rokmd/xqahj5KNgrAHwKam6/Gb+lzPpUKefWsVl+0LiYBQGEAgAoYqpTnZcz0H6B8IAAEgAASmIOA3sloiAHhXdZ5MNcUtE34O5MtFrQWyodiYf8Ttf6q9ICoquoqU8jjjj2P4KZfZRRz3z90LVYu6Fypd3QuVKKYlFAZxYsCsuNxZrPgVeYgus+JJYvzJsb1IfiF+NUFngeRzbfnS59oKZGfICoFInYCoAGgN5Ep/gXc6JP1fjSMOMeDSwLhMMBEANjV1tlFDXbG9FHC54So2ewfJAxAIAOwJOFPFLuC9QVeDD4wJBIAAEAACeOc/E3M7yVLHAsCfx6b1P+ZAoczYWiA7i42i8O0/HE8f6ShQ5AhBdxTJ34tP8usyK9J+U0Zm8/u7i1X3BouVweBCJRK2iCiIEQQCIYBDDkWKdV1mVUanWXGRzxUQrkYolEf2ROjJl/97e6H8mbZC2VkicIgAwMdAvmy8NU96EJcPxisfhM96tc5tGupRslFQRACoxA9e6flgIVLNZb4YFwbAAgBVMFmXytgs85WeE4wHBIAAEAACYQI+I/NloQDw5nOGVOG0FUrvxQV+khj/oVazNEPYFzamOLFPKAC6zIpK4TXpnmMXfk+x6rHgQuUJoQgg57wYiAiBWBHQhb0BgmWGYQ/AyYBZ+ymfifpYh1n+h/ZC+QksZuKXB4Y8AdLXce2AdOc8l9fb9YzYrqEvxwgALXXgai7Fq2CzflHJZo1hLwBv/EMCAJUzmZfLmczvzSUP6BsIAAEgAASSEPAbZJ/HAiCSsW6SmpJcGvN1S57sd7jAD3kbjr79867/gUQx/Y5CxS+EBhfH5TvNCn1Mx9P8cNSs/VRPsXITMfzCY6wIUEZXD4STBIVzai+S/6XTLP9lZ5H8WCQfgBcAYRFQIOtvK5A+hsscT3Oqc3Zbk57+hFNLdwl2CcRx/xGnNntO905I5YEq2SxzJZt1Pk4AYBEwWsZm/jCVPuAaIAAEgAAQmEUCeN2/UAD4c9n8ybrHrvdAgew1YvgTvP33deYrEq5v7zQr3MTYho2/c7bfTIOL1Hf1LFIOCwUAORcmDkZWFAg8APzcihTHSS4APgpEQHtbkfSnQbPoxsn4XK3fMEeHlt7mwFsER7cJRnYtNW/esCu5bLqCzRoJhwCw8SdtrFSSdd/VYgfjAgEgAAT+IQngt0ahAPDmSQuTgcDFbgL50g04+S2xAJB2txUq/yPR/V3FSkpo/LEA6C5Wzkmp2IE75Z/pWaTe0ZMoNyBJOIDMDR9jBIBZ5movUtxzJbLnE3FL9TuHVvIgNv6khUMA06r1n+qY07munFlwewWbNRQSAREBgIXAWKkk8+7p9An3AAEgAASAwDQI4Fi3UAD4TGzCxCzs8m7N5yoSbe8bcv9L2zvNqi8nm0KXWb6aGFl+Sd5CRRv2JiS7fibf939f9ZHeheqVPYtUaDIRkNwLEN6EqFD25Gx7KGbyXMnudWiZ251ayQVi/HkvgIbuq5dn/Xuye67m99Vc5ncr2KxjFVEPAO8JKJNkXj4iWZBUgF7NOcPYQAAIAIHrjoCnQPI5b64gB8AozY1/yEAB94WWfGlzdN37BA9AS2uu6ovx95HPuDpgp1lxVigAuouVs1KLnoxBjsG71Fm9i1QtvPHHAiCRCIj3AiTIBQh7AUY7i2R/ttyf8QHS/3w7YgHn1En8Tq0k8vbv0NLjdg2lm29zFc6nnBH9VwWTOSAIA6AySSZuF49IsmYlL0Q4HpwDASAABIBAHAFvvvzrkQRALARMnEZ4ScAova0lX9odNf7SGPd/a4HMg9fIC++JP+8wK/5HaPy7zIqjqdboj+8r2WfsTehbpPpd352qS72LVAi3qAhIsEwwLAKSeQFiwgBF8vpkoY1k87lS3zv0krVOnQTFCAAd/fqVGn8m41RRmbeVC0RAWABgEXDuMJMpnknfcC8QAAJAAAhMQcCbJ80QCgBvHseRW3Alu5Y86XFc5S6JAHCmsnlQp1lhjREAxcrFZIzZOPZ/X/XlvkWaqr47VaiXtMQCoA0nBApXBaQoAFB7ofx0W5GiYDbmO1t9NOmYn/DGP1YA+N0c99HZGmOu+6mQZNxRzmSexJ4AgQBAZZIFw+XMHQmTSed6TtA/EAACQOAfggA2+EIBEMhn+VK5/jwuryVPeg5vcJNEAFi8+fIpY8xdZikuthPZsa/LrDiRrCb/dIAfvUt9T99d6pN9d6rRJAKgM7hQ9b3gQlXrDAQAFgHj7QXyP82Hgj8uHbWgSSe5ECcAztt14mnv5TAd/rNxTxmbLS1nMi8IBUCpZAEqoxd0HRaJPj8bY0AfQAAIAAEgEEfAa2TvjBEAJub2lnzuAX+edJQ3/gkFgLw21XK3HUWKZZ1FAgFQrPxr3BSm9bHrLv0neu9UbwgZ/pDxjwiAaAjgcs+d6ucGzdxHg4IaAdP0AGABwBcEai2S7ZhNEZMuALda9G9NOklHE37zJ00rQXYN/dN0+5ov11dIFhSWSTJHiQjAAqCU5kWAs4qiPjZf5gnzAAJAAAhcNwS8udyjwiRAv0m6zp+HSwKHtrZNIALKceJZKgBwNn5HkfwkjqeHvQDn2u+UfyaVeye75uhdamnfnapubPBJi7j+cQiAd/8rG3oXKW7H/QQXKh4ktQB4D4AgCbC7WL61y6wYCdclIPOMXQqI6wGEdwkkFQHbC2S2dtPMn2Wy50z0Gy6v26SX7MbGP0YA6JiNia6/lr4rpxfcHy8AsAg4Qi/YvXGOVoxcS3xgrkAACACBWSXgMXHLYpYB4v0A+D0BEgqAMrc59fhyZ6HiXpJMxwuAIvkrM5k8zsbvvUu1pPdO1ViMwRfE/XsXqc4EF6kXkyWG3YuUC4ILlReIAIh5+1+oWIPngwVNV7FycadZcTw8z1gBEN0iOKYkcFuBtL3VzH1tJs+U7r0uPf1/TfqQ8RcIgDaLQvHxdPuaj9eXMplPYRFAPABhAYAO05nPzsf5wpyAABAAAtcsAZ+R3ZNYAIS8AMQDEMjnStLN3O8oklcLBMDlyeoETAXwqFl7a89ClZ1k+Cc5bg2aZZGYMQ5TBBcq2xMZ/+5iZX388+Dlih1F8qc6iuQXybwFlQBRG9kToCBmGWRvaz73ranmPxu/u7WMzKWXjMYJgAs4H2A2+p8PfaAbbnhfmSRzV7wAOEIvQKXUgh/NhznCHIAAEAAC1wUBr4nzTSUAAnmybW6z+YPpPDDeJAcbT2JIO4vk76RzP7kWF+LpXaj4ec8i1bnosj7hEj/+vKt3kTJmDwN8X3ChYhsx/rGuf9VRoVAgY5EjXvLXXiTfjeceKwBkIQ9ArADAOwIem+tNgRwG2eddBmaAN/5hDwCO/zt0zE/IvK+XY0l29k1ldIabvP1j44/bYWrBxSN0Rvb18pzwHEAACACBq0bAqVJ9xGtiRycTAP486YbpFMJpK1K8IBAA4635qrTfkjvM3GeDC5UlxIjjqn49i0jjDf9ozyLV8zjJLx5iz0LFI+Q+odu/u1h5sXORLKU15u1mqam9UN4XSv6LbAbEb3ssLIWMSyMH8qVH2/LlX4+fx2x8tmRkfMClZ6pcegYJBYBDJ1k1G/3Pxz4OizO+WipZMESM/xGKFwDoMJXRhgXCfJwzzAkIAAEgcM0Q8BpYkdfEIiwAEosA6RoSS0/nobBrvb1QPsQnzmEvgFm+M5378bXdZqWpe6FykBjxBMfG3oXqOxL1G1ykyg4uVF7E98QafwXqXKhMa9MZvIVxW4H8PZL8h8seJzD+fJ2ElnxpEG+vnGhOM/muWSd5Dht/F37zj8b/LR0c9+GZ9Dvf7sXZ/hWS7FsPMxmqUknmD8okC/YkEADoCJWxdr7NHeYDBIAAELimCHhM7P9MIgBWTne9e1uh7E6SNY+9AJ1Fqb1xY3h45UBwoWK5cOc+bMSjAkBxKrhQ+XAyYRI0q/8tuFDZGWv4lai7WIE6ixWvTvcP1F4kM7cVyE5MIQBQS5404Ddyn5zuOPH3NRslhS49Mx4jALSSIY9O/KX4a+f752qx+NNVXHZOOZP5vQpJ5u/L2MzV5UzmgXIm010myTyVZAUA7/4XeACwFwAdpO7Ime/PC/MDAkAACMxbAh4TuyIkAEJeAFIPwJvLvTKTTXDaCmVHcMJcWASUpwqge6E8s7NY4SfV+WJEAL90T7Gt53vapHvb4zl3Fyt3xt6nQLi/zmJF2XRCGcK544z/QIHMQTwAYdc/efvHxp+0SrxzovDe6Zx7dfTXXQbmZMj4R9z/oy4dq5xOf1finlIu45PVskymUpp9fxWX/bcqNntLJZflqGSzTlWyWYjfBRAfmSyyFTDZCChSCTBRAmC8ADgkzvjllXgeGAMIAAEgcF0S8BhZj4cPAUTDAN489rmZGH9sJNsKZeMhlzn/9q+dCh5+m+8sVv6206y4xO8UiHyzaLMAACAASURBVDfnKY627mJFd/dCxYRNiuL77S5W/Cpk/KP38v0sVHQeNWs/FX/9dD4HzaIbAwWyVa2huH+kRDKulkgEAK6h0JLLrZ0JR4sx41+aDYyTGH/i/ndpmf+dzrxn+55aLueWGrlIUyvP+WWtNGdFDZddUS3NPlYtzUbVXDaqirQsVMllIWz8YwVAzFbAEeOfaAkgHwagFgwfpjM8R6g7Dh6hFvzlYEbGdbHscbb/LtAfEAACQGBKAm4d91mPkR2PCgBeBIx7c9lyf670D/586Xem7CTBBYF82ZOh7YFxxrzcPpUR7FjE3dJpVlQKywXj87AQGO1aKH8xlcJD3Yvkkq5ixWWhcAj3cbazMFQQKMF0p/1VIF/6i0C+dAzvkRBv/ENFlDgsAv5vugM0G5m3mg047k8ajv8zb063v+neVyMS3VivpBbUynLuq5flvFQnzy6vk2WP1MpyUA1p2OgLWtT4Zycx/tgDECMA+sskmdVlzIK3y+kFj5dKMu4rozONOOO/nMn8Yon2azP2pkz3+eE+IAAEgMB1R6DZyN7pMbKIb3FegGgogHW35EofSrX4D3axtxbIjmIXOR8rL5Ivmgxce6H87o4i+Qm83E5YLjgsBqxdZlXGZPeT33B1wS6zojfiPYhu7zveYZYvJNfN9rEV75dQID0zUQCEiin5crlRn4mVpjtus4H9cazxZ3DVvzK3+da0lmKmO26dNvumOjUlbVSIft2gzHmvXiHy1CtEo3VyEQq1HFQrz0HY+E9DABytYLMOl7OZyyvYrN/g0r+VdNZ3SrlbJ6zgSHfecD0QAAJAAAikQQDH/ycKgGgogIgAfGzJ5Y778qS/iS+cEz9ca4Esn8THWwtkgWSJerhAT1uR/D1SI0B47CySn+4oUjyS7N74MfnwgVlxJN6DwH8uVvw5/vrZ/uwr5Ba05EkHsPufvPnjSooCfkextyXVcT0GyR3NBuZ8rACQtKay8VKqY+DrcIihUZlDNShFDzcqxe80KsS+BqV4rEEhQrjVkyYw/nXY+E8tAIar2OzyKmnWa5XSzJ9WSDPZennWlJtGpTN3uBYIAAEgAARmQMBtZDvcxAOAjxEvQGxCIDFkofLAXCveIjjZsIF8WUlUAMgTFqgJFCm49kJ5t3CVQFQAKHa0LlJ9MVn/ib7vMiueTGj8zfKt013FkGicyb7zmaTf8OdJu5MIAOQ1sYdTmUuTnv5Es4FpjzX+zAmXnpnxtrgOHf11i4r6b6uKet2iopwWlXi0USVGjcpQa1CKUYMyzvgryJs/PsYa/1pZzqUaWY61WpazskaW/Ugtl6OokGR8bjJO8BsQAAJAAAhcZQL4LRMb/3gBEBUBE+sCYCEQEgHsmC9P+vv42H6bWfH/AvnSURwTb82X98VnweNKgm1F0qfbCmVjOEEwIgD48rrynk6zLD9dLF2FMmNnkXw8KiAilQedqYYt0h0z2fXePO4Wfx4XiHv7j9RY8JrYSbPWMc9mA7OTN/7R2P+l6WT847d7m07M2FTUozY1tcOqpgatagpZVRSyqMSRRow/Pk4mAOrlogt1clFjnTz79Tpp9v110uyMuQ5HJOMM3wMBIAAEgMAMCLj1zBNuA8MLgHREAC8A+I2C8D4BsndKOe6fyTT8BbIl2PiHk+J+Tb7Hx5Z8xX+2FshsfHIgzg8ojLTR9kL50lSS/IT94fOuAvlXOooUxycaf9kgTiyMv/5KfPYUSD7ny+W8xGuCd1kMFVnCXhX2nMfA/EeyebgNzKPY+Ave/sddesndya4Xfo83ArKrJXq7ln7aoaFrbRrqkk1NIdx4wx8+WgQCYOLbv5h3/TcoROfrlKL6eoX4tXpZzn01CtHtuBKhcDw4BwJAAAgAgWuUQLOB8WBD4zbyIuCc28gOpJoPIBQBvjzpuzgGj1tLnrQLJ8MF8qUjxKDjt9pAgfSnrQWyc9HQQChBEG+n21Ygz5wOQpyL0GGWW4XGn6/ZXyS/2F4kl0ynz9m6x2dS3uzP5QJYBAiMPx9i8RjZSrydb/xYzXpW6jYwowLjj5oN7G/iryOfLUbuk3atJM+plbzg0FI2u5YetWtohJuNbyHjHyMABMYfewEEb/+BeqV4TYNK/NNGheh2oagj48ERCAABIAAErgMC7lzJreRNM+wF2IONksvELfCYmD97jOxQNBSQOCkwGg7gwwJP+vNkWrIGviVf9gTG1G6Sf6YlT7on5BWIKZ97OlAo/+VMDE17oWyFMIQQOS+Qz4vd4twGxf/zmrgOUmQJ84wILCP7U+E/I5+JurnZwPTzxp+4/g3MUuE1AW32TU49Y3LqmKVOHe1yaOlxh5ZGpBHjHxIACYy/Grv+cROdsarEZRaV6K+NSspk00pmpTaCcK5wDgSAABAAAvOUQLOBeZIIAP6oZxYLp4rf3t1G9rceE3uSGLBEewUIRMC4P0/ayhe/yZOebc1XfTqQKzO25EsHSEggciyQ7cS5AsLx0j3vKJD9IGLwo9UGcc2BF9Ptay6vb9HTX/Ga2B7e+AsEgNvIDpOMfiyCmg1MBfl74DX/zXpmY41ZdCP2Crj0zBNNOqbWqZNcxjv/8U0riRh+LABijT/2AMS4/lutKuodq5L+Gbzdz+VfG/oGAkAACMxzAtjguPRMHzE4+NhkYEWJpo3L0HpMbFOKIgD58zhcCe/NllxuWUuedJz3CISL5ATypT0tedLCROOk8117ofzbbYWys4IcApJPsH8mHoV05pDOtd5c5r88JnaEvP1HEi8NzCu4H5eReZb8LcIFf0Zdeqa8SS85J9j0J2T4sQCIN/6xAmDMpqbsVrX4RbtKkudUiT+dzlzhWiAABIAAELiOCTQbWCOpLBc2PGcmS/DC2eReE7sxJRHAJweyJ0NL4SJlcccCedzLAa12xtu3tpkVH28rkLVEEgnDxYbaCmT+Lj39ifn6Z3PrWYnHyOI8i1DSZSjR73Kzgflds4EZx38H8jfBR+F2v03krT98JC7/8BHH/S02Df2cU0sb8RLC+coA5gUEgAAQAAJXmUCTXrJdaGzcRmb3VFPC1f28JnZvNC+AJLfFFLvhC9+ElgniFQK4Se3+PFnWVP2n8jtOJmwtlG0RJhKGz0fazdJvpNLH1bzGbWLNvAAIZ/mTt/5440/q/WPDH2/8nVr6skNH1zt11DM44x9X7buazwRjAwEgAASAwDVCwGaibm7SSy7jN0wiApoMzPdSmb5TpfqIx8jWR0VA8uRAXy53piWX+9VsuuRbC+T/izffiRMAo4FCqTqV+V+Na/CmQR4jl+c2smvcRnYEJ1wKDX8Kxv+SUyupadLRTzp1tIasrLgazwJjAgEgAASAwDVMoEnLPMW/WerxpjK8CDiTarEcj0mq9xjZXj6WHVcxcGKCINs70213hZgD+XJRIF96KZJIGK41ECiQPSK8bj6c8yETA2v0hIz+qTi3f4wAICIsdAz9TZp0krYmLbO8SU+b8dr++fBMMAcgAASAABC4hgngN3inTjJMXMvhOPPaqR7Jnsf9q9vILieGjCSzkcz2+NwAXPiGL4JjYs1T9Z3K7/xSwnxpT7zxb8mXvpXK/VfiGhx79+Qy93iN7EaPkT2DGRFeKbj9j+Gs/yY9fb9HJ/7SlZgvjAEEgAAQAAL/QAScOuZhsowsIgK0lHYyBC69RN9sZPqEFQOxQYuIgND+AaNeI/cDb2S1QKSEcMVkfafyGw4h+PO5I5H6AnmRxMJKXFY4lT7m6hq8uY/PxD3gMbEHPSb2MmESb/gTuP3PN+uZQ016ZrHTILkjUVGguZoz9AsEgAAQAAL/YASwIXXq6HYiAPCxSSfxJzM+2PXsMkhWCePVIREQLR0cFgLjbhNzL8aJiwt5TexZoUfAb5B+Zyao/bnck+HaAnh5Id/8edJOXGdgJv1O916PTvYlj5F7xGNiKz0mdoz3gggEUbzxJ/zcBqap2SB5zq3jNDhEMN3x4T4gAASAABAAAmkRcGgkd5PlYxERoJX8T6JOXEZG5dIx3TguTQyY8BjnDXhI2IfbxP5VGBrwmNjXhL+nc+4zSU3+PG48tJogsqrgtD9/ZqIinTnga7358q97c7lHvSa20Wtix8nzkTf+RO5+t4E53mxg3/v7rn73eNQS2B0vXehwPRAAAkAACMycwEaz+f0OLe0jAgAfcS4AzgkQ9o7fTJ0GZmmTXjIem5w2UQjwIkDP/lZ4Pz7H1e08RvYUbxxx5TsT2xe/Y2D8PYk+ewpkX/LlckN8LgHZgTCXG/flSYsTXT/b37mN0ts8Rm6x18RUEY/GlIbfyLS5DcxSj55TwC55s/0Xgf6AABAAAkAgbQI2DfUju6BmPC8EdPSfhR059Ky0SSfpiF0hEF0qyAsCwRI2l4H9q/B+4bnHxCwTvh1786QZwt+nOu/guA97czkbMf6Ro4n73VT3Tvd3LFJwvQJfLveU18QGJjP6gjf+i24Djv8zD7u0sq9Od2y4DwgAASAABIDArBPAb6J2Dd1JasWHvQCn8E5yeDDsBXDoJS87dZLxcF4AX3wmVgjEVqlzGSUvTTZRl4HjSCwcG0uvgXl8suvjf/MZuZVkWWFkRUEut346noT4voWf8e6FHpOM8RrZpT4T2z3B6Atq9xNBg3dMdBvZVc1GaSGsyRfShHMgAASAABCYVwSsavpnxPiToyP89u/QULRdS7eGQwLRWvPhCnSxIiDsDdBJVk1liHFiYdhQ8kvhmo2sJVUo4dUEiBhjLAR8Js5uMRpnJXGOr2hoZFReE7vca2L78TgR134Cgx9+27c1m5g/u3Ol2cmSJlN9PrgOCAABIAAEgMCcE7AoMj5uU1MD/M5w4X3i7Wp6xKakbsa14x1aeizsEeB3lsObzEQSBIUiAJ/zhYPoDTifIJWJNxvYTXyegIFfNTAeSGHLWZ9J8m2PiT0nNMheEzvozeNuSWXMZNfgkILPxJg8JvZtj4k9LuyfvNkLj958+WjggbvdbiPzE6eW+0KyfuF7IAAEgAAQAALzkoBVQz1vU4f3hcfbw2ooZNdI9tg1tC/iDYjPDQglCE4QAk6dZNdkGwbFA2jWSx4Rrhxo1ksmLdeL3ekeI+sTGmKPkb3kNXBcfN+pfMbVDd1GpthjYjd4TOzpuH5j6xjgMEWxdrzn2T+jk9XlaOz8eYQQGkplHLgGCAABIAAEgMC8ImBRib5pVVOXrEQA4GNEBMTuHz8hQRCLAKE3QC85hN+i03lAj45hhALAbZA8Ntn9HiO7juQNCI4PTnZP/G98NT4Dc4/XwO7wGNnziYy+oG/kW6Qf733hSXSqvhqNX7qEjb7wv3GEUFrPHD8f+AwEgAAQAAJA4IoTaFRRe7HxF7ZYb0CcCNDQfBhAGBLgcwO0TK2b4z6a7gP4TNTNMSsHjMzGZH1gV7sgXBDKGzCxbye7Xvg9v+wQr7U3srvcRvai0MAnOvfdZUQ9z/8lZPQvTzD6QgGAz6EsrxA2nAMBIAAEgMD8JtCopEwWlRhZVBSy4hYSAtPwBlA2vA/AdJ4WJwq69MyZaD0BSWuiftw67rvNBua80FvgMjC1Aa32Q4mux9+5cpkvuo3sQ24jW+42sqOJDL3biHMPGISFhf/uXNT36nPojN2CxkdH4438ZJ9zks0BvgcCQAAIAAEgMK8IVJmoj1lU4u6QAIiKAIuKetSqplzEIxDrDcC5AXEeAS3ttqWQuDfZwzfpJQ68t31YBIwH4vaux5+bDUyL0PjjfQew9yC+X7eJ+1qznlncbGDqmw3MeMw9gvoE5HvfPfmod9kL6HSTDY2PjU1m5Cf7rSB+HvAZCAABIAAEgMC8JNCoFL3cqBSjRt4DgAUA32px9r5NTf2RCAB8jIiASH5ARAS04pUCM31Al06yObzjYGjrYZPk28I+XXpmbdRDwNcauOTUsxJyjdtI3cYbfT1TRQz7ZEfffxfyRv9Ukx2NXr6ExsbG0Pj4ON8ms/KT/PYzMhc4AgEgAASAABCYtwQaVCJxo1I8xguAqAg416ihvoEn3aAUf1cQEiChgagQCCUJdts1M1t2RwA16SRPR3YdxEsJBTsPOvX0T7E4EHgIsKfgRy4dt6DZwDzZrGf8ceKAeBJijt4fFKGela+gk81OdOniRXTp0iV0+fJlNDo6ygsAIgImMfLkp4vkRHB8gjwLHIEAEAACQAAIzEsCOGbeoBS5G7DhFzaF6BHhhC0qUXtcboBQCPQ7w2JBeM90z506+qGYugJayY9xX3gL3Cad5IKw0FCTXnLKqZd0RkXBBHEQMfzuRQbUtfRpNGxtROfPnUMXLlxAFy9eRBcvXooRAEQEYC9Agv8GEEK7EEKL/37MQAiJE1zz5nSfHe4DAkAACAABIHBFCDQocv7coBChBiVuYr41KsRH4ivXWdTi52LyA8IrBWxqatiqiXXRz3TiTp2kME4A/BFvM+zUSVonlB1OWHiIFCCSIFeBErU/9TgarCxFZ06eRGfPnkPnzp1D58+f5wXAhQtYAEQ9AJdHRyNegLAA6EEIrUUI3Y8Q+mb8syGEbkQIXY4TAXvjr4PPQAAIAAEgAATmDYEGmUhcrxCN1mMBQJpSNJgojm9RUHRUAESSBE81qkVZs/1ATi2VQ5YV4roCTVrmTadeskkoCuLPhSEDl0mGWn//K9S3bxc6OXQMnT59Gp05cwadOXsWnT17NiIAzl+4EPECkBDA5cuX+0ZHRzeOjY1hg39bKs+GEHLFCYCGVO6Da4AAEAACQAAIXHECVRT1sXq5qA0bf9IaFKLxeoVYn2gy2CPQqKKOCkTA2QaliE107Uy/c6mYLxIBED6eJp/5QkPCYkO6aBli70P3oeCmd9HxniA6cfIkOnnyFDp16lRUAJyJEwAhL0DbxYsX11y6dOn+8+fPf3k6c0cIvR0nAFqm0w/cAwSAABAAAkBgzgnUycWr6+QihBsRAPUK0fPJBsbr8xuVopLwSoGLVrVIk+zamX5v14gzE1UZJCJAeGz+fgFqX/4SGnA3o+PHj6ORkRF04sQJdOIEFgAnIwLg9OkzvBfg7Nmz4+fOnVt/7ty5hWfPnv3cTOeK70cI/SJOAAzORr/QBxAAAkAACACBWSVQIxPl18lzUKiFRYBcZMFbACcaqE6e/ZkGpXhHOElwtEFBFSe6bibfOVXMlx1aerFDQ3sn1BbAtQYEew84TTLkf/w3KHigBB0bHERDQ8NoeHg4IgBGRrAAOBERAKdOnY54AXAI4OzZc6Pnzp0rP3fu3K+m+9YvfFaEkCFOAFwS/g7nQAAIAAEgAASuOoFqmfhLtbKc4dqIAMBCQDRSw4m+lmhyDYqc4gaFaCiUKCgea1CK70503XS+w0bfrqEes6kpB9lvIGYHQmGRIS2DPL/6GerYthn19/SgwcFBdOzYMXTs2FCMADh+fGR8ZOREOxEAE8IAE/MAxi9cuFB+6dKlHyCE0i5djJ8bIfSfcQIAf/zIdJjAPUAACAABIAAEZp1AiVb7oVpZTkOtLAdFmjzncp08Wxk/WKWe/kS9QrSOhAf4/ABlzgPx16X7GScYWtXUI1Y1VZe0uFCkwBCFHHeaUMtrL6KeJic62t+P+vsH0MDAAC8ABiMCYIj3AAwfP46OHx/hSwefOHEiY+TkyaUnT54aIHkAp3Ei4JkzkUTAc+fPR1YDhFcCnLp06dJShNAX03kuvPkPQii+bODn0+kDrgUCQAAIAAEgMGcEaqSiV2pkOQg3IgDqpNk/jR8QC4I6uShYL8wPkOf8Jv66VD/zCYTqHIVFTW20qKhLyeoJEEFg10pQ8y8eQG3bt6Ce7iDq6+tDfUePoqNHsQDo5wXAwOAgGhzEHoBjaGhoCA0N4zAAnwMQs3kQQugDp06dMp06c2b36dNnxmIEwLlYASBYDnhxdHR0VTpCACHUHecFSGkFQaoM4TogAASAABAAAtMiUCXNKa6RZiO+hUVAjSznZWFnNSLRjfXynKfq5DljMfkBspzHhdeleo7f9i1K8WKLStwhWD1Aygzzmw4JxYDjnkLke/UF1OF0oGCwB/X09KLe3l7UiwVAX1QA9A9gLwAWAOEwABYA0TyAxcnmd/78+S+dPn36z2fPnu2bsh5AqCrgubGxsb8ghG5K1if5HiFUGycAKPIbHIEAEAACQAAIXBUClfKsr1dLs09WS7MRblgEVHM5/5+984Bu7Kr2fmiPFkp4EEuWIQECfARSJ1NSZyYFyAshoQQIgVAeBBJ6f8ADBh4Zjz0uM+69V7lLlqxqyZYlq9myumRZbpJ7793741zpytca2ZbrOMmZte667bT70yzf/91nn70FknPn3koOqPn8mdPNj56xE5aBzf4BV8gyweyJr/3HzjyueeJBpuaJB1Y2RRf83DW5BqDlqbNg+NNvoL2uFnq6u6Gntxd6e11eAeAGNxIAfaQAQCJgoNUzDUARABQ/gLGxsWumM/zHjawCs7OzLy4sLJhQQKCFhc3xAJaXV/zDArsAYNtVDwDA9RMAAZdT+o8Fn2MCmAAmgAlgAodCQPv4iffJzp22kC9/794qOXc3ka4Xef4rHjt9UfHomVVyWoDcKx87nYKW/wUzMO3jD35E/cT9/1Q/fr/bE1WQElmQGmLYe9z6gxfAnJ0GTpMZurq6obu7G7p7eqCnhxQALnC7SStA/9jAwECc2+2+G41lcHBo0ucHQEwDIAsA4QewNjk5eVMw40VlAOBNc4uLX1xYWGjyhQVe9gsLvLZGJgdCcYHTtnLuA4BCPwHwjWDHgcthApgAJoAJYAIHSgBl8ms6d5rbdO40oE2OtvOn+2WPnfwY6kjxyP13KM6f1vlNC5D+Afn+4YADDU792AMnlY8/UKJ6/P4VisMgNbLgRojhZx4Hw//9FewSMXQ4neDs7ITOzq6tBMBar9vd5HL1v9Tf3/8uat+Dg4NmJAAC+AEYqeV2c7y4uPj40tKSjuIHQIQEDpAXQA8At/q3DQAJfgLgO/5l8DkmgAlgApgAJnAkBGRnT0XLzp2CJmI7DU1nT4+hlz4SBvLzp/4gP39qkbQM+PkHVFKnB/wHi4RB8/kzX1I+dn9DgGBC1MBChBBo+f7zYMzLBLvJDA5HB3R0dHgEgJMUAF3QhSwA3T3Q29vb09PT84+urq5rXrLkOAYHB4WB/ADGxsZSyTJ72QPAm5eXl7+7vLzcizIDUrMD+qUHHgSAM9Q+AOBffgLgh9T7+BgTwAQwAUwAEzgSAk2PnPqu7OwpIDYkAM6empOdO/1Q87kzt8rPnZISFgGvTwApAoj9udMCtFww0CDRdcX5+19sfuyMZSOQEBFHgIgoSEQVJFcOfP5haP39L8BUXQk2ux3s9nZob3eAw+EABxIAHU5wEgKgEzq7upa6u7vZPT09z/37RerzSwg0BnRtcHCwkuoHQFkO+OJWdXZzHQDetbS0dGllZWWVtAAESA88CwCPkO0GEADXrK4gy+I9JoAJYAKYACZwKATQi77x7KklnwA4e2pedu7k47Lzp19qOndqhpwSIPcUAdCgffrEJnM7GiCKBKh47P5/Nj96ZoT0DyCdBTcHFDoD6q88CbroS2BWKsFqtYHVZgObbUMAtCMBQFgBCAFgcHZ1/dLtdv/nbkAMDg5WbYoH4PUDGB4eDhjMaDdtU8suLy+fWVtbM62u+vwA/D7yYQoATqM6/44FcMnv5qZ0ytR28TEmgAlgApgAJnDgBGQPnfpk4yOnRhrPngLvNi87e/o7jWdPcUhrwKZpAa9/gOzsaRVKEEQdEPIVkD96Kl1x/tQiGT+AGkOAKgbUP/oO6PKzwaQ3gNlsAYvFCharlRABpACwtxNWgKmOjo6Uzs7OPWcR7O8frPbFAyCWAxLxAFzUsR/UMQC8fXV1NTmABYB83w+heAEAEE1e8O73HDfhoMaO28EEMAFMABN4gxBofPieDzU8crK94ZGT0PjIKbQtNp49nd141iMIKBYBQCKAIgQMqsdO+b7CZY+f+Ij8/Omr2/gIeIIJfe4hUP/h16DjcsFgNIHRZAKTyUwIALPFQhUA6za7vdFut7/o79C3l59mYGCAhQSAnx9A/l7aCrbO6urqd9fX1+eRL0CAfyoASPW7/tdg28blMAFMABPABDCBPROQnLv9xoZHTmrQy5+yDRNCYMMaQFgF/ISADZn4UccoT4Ds/Om0pnOnl7fyEUDOgs1fewo0sZdBp1CAXm8AvcEIBqMRjEaPADCZLUAIAIu132azXbJarZ/c84MFqDgwMCC7Jizw8PB/Byh6oJcA4O719fUBvxc9ebpIHnj3/3egnePGMAFMABPABDABfwLIq1/68Mka6cMnAW0UAeA79hcCXhHQi176DY+c/LDs7OmrsnOnFnwrBrxTA1QhoPj+t0CTnQGtLS2g07VBW5se2ggBYACDwScA1oxms9BsNj+n1Wrf5j/WgzjvHxiwe8ICe/ICoOWAQ0NDxNLGg2h/uzYA4JMAgAID7fTv0nbt4HuYACaACWACmMC+CKBAPdJH7sskX/7Uvb8QaCSnBgiLwMm+xvMnz8rOnk6UnT216LMKbJ4aAPnnHoHmP/8BNFwutLS0QktrK7S26igCQE9YAUgBYDQaX97XAwVRub9/YIyaF2B4eLg3iGoHVgQAPgYA3TsogKgD6xA3hAlgApgAJoAJ+BOof/C+SMlD94HkYbR5LADbiQAkChofObnW+MgpceNZ5CPgcRb0CQDv0sGmLz0BzZdeBXVDA2g0WtBqW0CLBEDLhgDQIQtA24YA8E4DDJjN5g/4j/Ogzs1m83/09w+sDwwMEImBPH4AI3kH1X6w7XhTAKNVAFv9iwi2LVwOE8AEMAFMABPYFYH6h0/+rR69/Knbw/cR0wBUEYCO/a0BXiHgcRak+AjIvvEMKK7GglKuAJVaDWq1hhAAGkIAtPgEQKuuDXRtbaDX6zX+fgBGozlrVw+yi8Iul+sT3AhKkQAAIABJREFUKDsgEgCkH8Dw8PD3d9HEgRUFgGcAIKBX4L/zDbx6YB3hhjABTAATwAQwAZKA+IETP0cvf3LbJAK8FgF/EbCdEJC9+E2QZ6ZDs6IZmpUqUKpUoFJ5BIBaowWN1mMF8EwD6KBVR0wDqJVK5Xvb9IYBvWHDD8BoMq+bzebHyLEe5L6/v//z/umBBwcHP3qQfeymrX8vAczcwgTwz920g8tiApgAJoAJYAI7EhA/eOKH4gdPrIsfvA/q0baVECCmBbaxCJw/A42/fAWaystBLleAQtEMimalRwAoPQJApdbMqjUeK4BvGsDjB7DW1tZGrOXX6fWvICuAzw/AsxywQ6vVXhNUaMeH26GA2+1+2S89cPcOVQ7lNgDcDgAV21gA/nYoHeNGMQFMABPABN6YBMQP3fe8+METq+IHT4Bn84qA3QiBxx6Ehj/8GhpYLJA1yaGpSU4IADkpAJqVoFQqm1QqzfNqtfYf5DSATwAQfgBtGeQvgLz99XpjOxIAm5YDmiy5ZJmD2rv7+6Op6YGHhoayD6rtYNpBiYDW1tZy1tfXV7f48icv/yWY9nAZTAATwAQwAUxgRwLi+088J3rgxIroAfLlT91faw24xj/giYdA+offQENtLTQ0yqBR1gQyWRMhAJrkCpArmufk8uZ0uVxNpN1FDncqlbqfFACEH4CW8AMYb21t/RB1wHq9/mvUaQAUEMhkNoPJZH2JWm6/x66+Pr5HAHj9AAYGvrvfNoOpDwAhq6urcWtra0vbRAUkX/5o/8dg2sVlMAFMABPABDCBbQkIKC9/JADIbcMSQIqBAELg8+dA8tc/g4THA6m0AaQNjf4CwCGXN/9GJpPdRB2EUqn8TmA/gJYfU8uRx3qDoXpjGsAjAMxmy4LFYrmXLLPfvdvdN9jX1wekH0B/f/8t+21zu/oA8P6lpaVXV1ZWZlFiIDI5kF9EQOQIuER9+wPA77ZrF9/DBDABTAATwAR2JCC4/57nhfffuyp84ASgjXz5U/cBhcAXPwfiiHAQC4VQL5GCRCKlCoC1xsam2qampidRGtxAg1CpVK1IAKjUGqD4AdQDwJsClTebzTSDwTh6TVhgs9VpMBg2iYtA9Xe61tk5FOJ29wESAF4/AOdOdfZ6/9/Jfd6xuLj4+6WlpbHl5WUiNXCA9MDoxV/z7+0eAEDhgKn/cDKgvcLH9TABTAATwARuuEF45t6vC+6/d0V4/73g23YSAk89DqJLr4JIIASRuB7E9RKor5eQAmCsoaHxskwm2zZynkKhfkxJrAbwCgDPcsA5rVb78e1+F73e9E2qHwBKDOQJC2xrdLlc79yu7k73enr6nnC73eBGAqCPmALI3KnObu8jMbSwsPDiwsJiz+LiIiwtLQESAMvLK4QIoFgA2ABwgmwfAJqob38AOPSASGTfeI8JYAKYACbwOiPAP3PvC4L7710V3H8vkJtPBCBB4C8EnnkSBNGRIOALQSgUgVAk9ggAMRIA0pb6+oYfKBSKoF7CCoWy0bMcUO1bDqjRtAT1VWs0Gos38gJ4kgMR2QEttmoAeMtef6be3t7fuZAAIKwA/Wga4Nt7bStQvdnZ2c/Nz8+3zc8vwMLCApACYGkJCQCPFWB1dZWzvAwn/esDALKMUP+94F8Gn2MCmAAmgAlgAjsS4J259+v8M/eu8M/cCwK0UUQAOqYKAcEzT67xIy4Bj8cHPl8IAoEQBB4BsCgS1ReIRKL7d+yQUkAuVz3a7LccUK3WKLaaKqBUJQ71ev27jUaTjpodcCM9sDXNv3yw5y6XK29DAPSB2+0OC7buduXm5ubumZ2dFczNzcHc/DzMz8/7BMDi0hJhBVhaWuItLy+f2aodAOBR3/4A8KWtyuLrmAAmgAlgAphAQAJ1p+55nn/mnlX+mXsACQBy8xcC/Ke/sFgXHQVcbh3U8fjA4wuAjzaBsFcoFP9FJBIRWf4CdrLNRYVC2eCJB4CWAxLxAJDp//9tU+WaWxaL5Raj2TwcKD2w1WqP3sqP4JqGKBd6XS69y0VaAPraKbf2dDgxMXHL9PR03szMzNrs7CzMIgEwN7dZACwu8lZWVh7YqYMAAuDcTnXwfUwAE8AEMAFMwEeAf/qer/FO37PCO30P8AgBgETAZiHA//z56brwV4FTywUOtw64dTwkANbr6vjiujrhVyQSyVt9De7yoKmp6fzmeAAqUKrVr+yyGaK4wWB5xGQyL1HSA4PVagObzQ52uz01WIsCagwtSeztdS15BIAbOQLu2ZIwOTl50+Tk5OWpqemF6elpmJmZAUIAzPoEwPr8/Dxrfn6ZCHQUzLMDgMjPAnBgKx+C6R+XwQQwAUwAE3gNE+CdvuerdeTLHwkAciOFwLkHJjj/+Nsym10LtbVcqOUQAmC6ro6XUFsr/PR+Hx19lcvkChUhAFBIYM80AGcvX+vkWIxG41dMZvMKcgZE0wBIAFhtHhFgs7UXBitWuru77+ntdYHL5QI0DeBy7X7+v6ur6x2Tk5O/m5ycHJ+cnIKpqSkgBcDMzCwSAWtzc3MVaEqAHH+wewCQ+gmATwRbF5fDBDABTAATeAMTqDt511fqTt29XHf6HiA3UgDUPXRyuPZ//zJSU10DLHYtsNkcqK3lWDgczk9ramrec1DYGuXybxIBgTbCAg8plco9TSNQx2QymZ43my2rG34ApBWgHezt7YJgsgd2d/f+oLe3F3qRACCmAdyfpPax3TGyNIyPj397fHy8e2JiAiYmJmFyctInAKanZ9ZmZmaKZ2ZmPrtdO9vdC7AKYN/ctusP38MEMAFMABN4HRBAL3/uqbuXuafuhjpi84qAMydG2T9/xVZdXgnVNSyoYbGBxSIEAGs/X+WBkHG53LfLmhSdZFhglBegubn56UBl93LNZLJ+12yxrFqsHisAmgaw2e1IAEB7uwP9u327dnt7exMoAmAs2OcfGxt7YmxsTDc2Ngbj4+MwvlkArExNT+dNT0/vyr8h0DgBoM3PAhDUaotAbeFrmAAmgAlgAm8AAuxTd32Ze9Lz8kcCwCMC7lqoO/9wZGVZ+WJVVQ1UVdf4CQD2sweNpkEm+y01L0CTQply0H1YLJZnLRbrnG8aAAkAOyEAwOFwTHV0dHxjqz57enrkPcgCQEwD9PG2KkdeHx4evnt4eJg/MjIKo6OjgATAGBIA48gCMLE8OTmZMTk5uW1MA7KtYPYA0EMRAMvB1MFlMAFMABPABN6gBDin7voi5+TdS5yTdwMXbafuBs7pu4Xs03d/orKy8q7KymqorKreEAA1bGQFWGIymTceJLLGxsYPNcqaxil5AWx8vf7dB9kH2ZbFYjljtdqGST8AjwBoh3aHAxyODujo6MhzOBzvJcujPYod0N3TM9vT4xEAbrd7y1S7KDXw0NBQ/tDw8Nrw8AiMjIwQAmB0bAxGR8cXx8fHk5D3P7X9gzgGgGmKABg6iDZxG5gAJoAJYAKvQwLce+98lHPyrgXOybsACQDOybvHau+76yW44QYizG5FRc0jFZVVGwKgmuW1ArA0B42jsVGW1dgoIxIDyZrky3K5/JpANwfZp9lsvs1qtRk8qwEIPwA0DUAKAOhwOrs7Ozt96+i7u7s/3d3dAx4B0AvdbvdT/uMZHh6mDQwMxg8ODi4NDg3B0NAwUATA/Ojo2NXR0VGGf72DOAeAt61vTg6gP4h2cRuYACaACWACrzMCnBN3nq69767p2vvugtqTd61zTt2Vxz5x4oPUxywvr37aJwCqaqCanAZgs4up5fZ73NDQ8EBDQ+M6EgBEdkC5/EjS2Gq12nfZ7fZswg/ANw3QAY4OZAVwgtPZCZ2dXayenp7bu7u7X/AIgB5A0wADAwO+TIRdXV3vd7v7X+3vH5gdGBiAwcFBGBwkBcDwzMjIyOWhoaFDdcgDgJs3v/9BsN/fBdfHBDABTAATeJ0R4Jy44w72fXehr32oPXFXO7IEBHrEssrKrxACoLIaNvkB1LD/L1D5vVxjMplvkUobdA0b2QFl6Npe2tprHVt7+/ft9vZpZAEgpgEoAsDZ2QmdXV1rXV3d3RQB0In66u/vf5fL5fqju69vfFN6YI8AmBkcHLzY39+/SVTtdYw71QOAT/kJgLyd6uD7mAAmgAlgAm8gAuy77/4E+8RdA+wTd82z77v7Ave2296+1eOXVVY+QwoAqh9AdTXrh1vV2e31eqn0Fyg9sFcATDU0NHx0t20cRHmr1Xqr3W6v3/ADQBYAJxACoLMLurq6obu7G7p70DRAT3lvb+/LLperfyMsMJEXAPoHkBVgKOKoXvzks/87CuAZPwEQSd7De0wAE8AEMIE3OIHqk5/9MOvEnd2sE3dI2Cfu2HHZWVll5RcrKqrANw2ApgCqWVDFYn3vIFCKxeJbJBLpNBIAUmQBkMlePIh299oGWtbncDhedjg6JjqQFQAJAM80AHR1dUEXEgAeP4A1ynJAb2Kgvrn+/v7owcHBm/fa/37qra6u/hcSABQR8Nv9tIfrYgKYACaACbxOCFTeeefNrHvvbGDfd+eLpJPfTo9WWVn5hfKKyg0B4F0OWMVi/fdOdXe6j1629fUSnkQiBQkhAGSlO9U5qvudnZ0hjo6O3I4O57pHABDTAF4rAGEBIPwAPMsB3fNutzu2a3iYdlTjC9TP6urqD9fW1qgCAGcCDAQKX8MEMAFM4I1EgHnixPuq773j1/5OfjsxYDKrTvkEAOEH4FkOWFPD/tFOdXe6LxZLvldfL4F6jwBwyWSym3aqc1T3Ozo6bu7o6LjS0eFcQgIg8DRA71JPjyuut7c39KjGtV0/K2trF/wEwGPblcf3MAFMABPABN4ABPh33rmn9fQVFRW3EAKgogo2xQOoZv15P9gkEglNLK4fFyMBIJWuicUNAZ0Q99PHXuqazeYbbQ7HH9sdjilPPACnZxoAOQJe4wfQu+5yua6iBEF76eug66yurmb6CYDPHHQfuD1MABPABDCBNwgBJpP5TlIAbPYDqMndDwKRSMwSiesBCQCJpOHyfto6iLpoOaDNZvuj3W4f84YFpsYDQH4A0x4BsMkPALx+AKre3t4Di+a31+dZXV3lkwLA6wfwvr22hethApgAJoAJYAI3VFRUjvimAVBEQE88gOa9ohEKhT8SicTgFQBtKP7/Xtvabz2bzfYeq9X6P1arbciXF8AXD8Cx7ujoqOvo6Hiys7Pzz52e5YDID2CZshzQGxbYNeV2u7+z3/Hsp/7KyooZCQCvCBjdT1u4LiaACWACmAAmcENZeaXEJwA2wgJPBZtCl4pQLBZ/XCgUzQg9AmChvr7+upipDQbDTWaz+W9ms2XMPz0wigfgcDjibTbbp8ixO53OctIPoLOz+3c9PT1/7O7pWSTDApPpgd3uPoHL5bouKXhXV1enVld9AuDAIzWSLPAeE8AEMAFM4A1CoLy8Ip6cBqD6AVRWss7uBgEK7iMQCJsEQhEQAkBU/4vd1D+Isnq9/maj0fyq0WSaMpnMYDZbgJIe2G2z2f7gdDo3mc7RaoUOp7OfXA7odPbeh8bS29v72Z4eVyuaBiAEAJEeuA/6+voW/h0N8O8Oh+PILBsA8N6V1VVYXV0lLABra2vHZkXFQfxuuA1MABPABDCBLQiglxTatri9r8tlZRU/Li+vhE3xAKpqoKaGHbGbhvl84V/4AiEQAkAo4h3WeAONyWAw/L+2NkOqwWBcMBhNYDSZgBQAZovFaLVav7eVM19nZ+edlHgAE1TLh1arfVtPT88/el2uZRchANxIAEBfPwoKNOAcGBh4ESURCjSmg7y2tLT0mZWVFaoACD/I9nFbmAAmgAlgAseQQF5e3rsP82XKZDJvRwLANw2w4QdgDbZfPp//CI8vWPEKgBEej0c/CpRtbW3ndW1t7LY2/bpebwC9wQgGoxGMRiQALBKLxfJfOz1De0fH78m8AE6nM2AOBJfLdafL5W52u93gRgKgjxAAKF8ADAwOWgcGhr8OAG8+rGdeXV190k8AvHRYfeF2MQFMABPABI4BgaSkzE8hAXDYQykrq+jzCYANPwCoqan5wk598/n8m+t4/D4eXwBIAAiFwq/uVGc/95HpvbW19TstLbrWVp0OdLo2aGvTQxshAAyrBoOJaTQaCTN+MP20t3eoPQKACA38ra3qoBd8b1/fT93u/kkyL0A/EgADZGKgIcPg8PB/u1yud27Vxl6vLy8v/5gUAGgaYGVl5fG9toXrYQKYACaACRxjAmg+PSUl5YnU1NR3HcUwy8or80k/gM3LAdn12/V/4cKFN9fV1fHreHwgBABfULZd+f3cU6lUH9VotJe02pZhbUsrtLS2QmurTwDMtbW1JRgMho/tpo+Ojo7bKPEA5v39AwK1hQID9ff3l3mnAbwCYBCGfOmBh0dHRkYiJiYmbglUfy/XlpaWXkUCYGXF4wcAALt6zr30ietgApgAJoAJHDGB7OzsdySmpHzjKDPmlZeXf90zDUDJC+BND1xTU/PgVgi4XO5fuHU8IAQATzAqEokONCUu+upWqVRfVKk0HLVas6bRaEGrbQFCALQQAmBYp9P/XavV7ikjn93u+AcSACg9sMPhLNjqOQNdd7sHzvf397f50gNvCAAYGRmBkdHR1dHRMfHY2NiPpqen/zNQG8FeW15ezl8mBADhB7ACAG8Lti4uhwlgApgAJvAaIBAbG/v+xMTkX6emph7pH3giIFB55SR1GoCSHtiG7vvj43K5ZznculVCANTxoa5O8G3/Mns9R1/7CoXyb0qlqkupUoNKrQa1WgNIAGgIAdDSodXqXkEBfvbaB3L2a293uMn0wE6nc9ehdZEDYH9//48HBgeHBweHCCvA8PAwDCMBMDIKo6OjMDY2BmPj48vj45PcycnJH05MTNy62zEvLy83LC8vI9M/2my7rY/LYwKYACaACRxjAvHx8aGJickRcXFxR7a8jIqjvLwigyoAqOmBWSz2VWpZNO9fy+X2cbh1gAQAl8tjU+/v5VipVL5XplD8QK5QNigUzevNzUpoVqpAqVKBSuURAGpNi1qr1T53ENYRu93+5fb2dkACoKOjo2s/TnxdXRPvHxoaihgaGpobQgJgGAmAEUIAjCIBMDYO4+PjMDExAROTkzA5OeWYmppKnpmZ+drCwsJHduK1tLTURQqA1dXV8p3K4/uYACaACWACrxECCQkJn4xPSGInJibeeL2GzGRWPhTYD4AF1TWs9ZqaWuILH83719ZyBLUcLhACgMub4XK5YXsZN1pm19TU9KRMJi+SNcnnm+QKkMsVoFA0g4IUAErVmlqtrmnWaM7tpY+t6tjtdvlGWGDn37cqt5vrIyMj9KGh4YShoZEl7zQAjI4iATC2IQAmkACYhKmpKZienobp6RmYmZkZmZ2d5c/Pz1+anV341vz8/P1zc3PESgpkZVhaWlomBcDKysqF3YwJl8UEMAFMABM4pgRiEhI+Exef2I5EwPUeYnl5hdxnBfAuB6yqrkECAGrY7GU2m/19Npvzv+xaDhACgFMHXC73j7sZN5utfVd9Q8NXpNLG/IaGxvHGRhk0yppA1iSHpiY5IQDkHgEwrlAoL6PpgN20H0xZm832qM1uB7snLPCa1dq1a7P8dv0MDAzcOjw8nDMyMrpCFQDj4xOEFYAUAFNTSABMIwEAs7OzMDs7B3NzczA/Pw8LCwuwsLC4sLi4aF9aWgIkAJaXCR+A57brG9/DBDABTAATeA0QiE5I+OTVuPj++Pj4Lx2H4ZaXVz/tEwBEeuAa8AmAGjawWGxgsWvXCAFQywUOh2tnMpk7ZsuTSCQfFIul35FIJJX1UumcRNoAUmkjNDQ0QgMpAGRNhABokisMCoXypf3M7+/E0mqziVFuACQAHA5H1U7l93p/YGDi1tHR0bixsbG5sXE0DbAhACanpnxWACQAZggBMOsTAPOEAFiAxcVFQAJgiRAAy+j403sdD66HCWACmAAmcAwIxMbG3nrlarzralxC0jEYDjEEFDSnvKJSj6ICUsMCV1ezUGRAqPEIAGCzOVBby0Ff/08GGrtIJPpPgUDwZYFAdFUoEhtE4vp1sTc7YL1ECh4B0ADSDQEw39TUlN/YqNhV+OFAfe90zWq1PmC12YAiAO7fqc5+709PT39wbGzswvj4+AjFD8AnAKaRAJhBFgCPAJibn/dZAXwCwGMFWASAt+53PLg+JoAJYAKYwHUiEJ6UdFPMlTjzlavxg8jz/zoNI2C3lZWVj24KC4ymAKoJP4BNAoDN4bBQA2w2+10cjuA+Lpf3ozo+P5HH5+v5fMGagAwLjBIDicSwSQBIpCCVNiALgFba2PiyRCI5MgYWm41jtXoEgM3WLg0I4ZAuAsDbx8fHn5+YmJRMTk6u+/kBbAiAuc0CYHFxibACLC8v6w9paLhZTAATwAQwgcMmcOHChf+IiY2TxF6Jg9i4uBcOu7+9tF9eWVnqCwhURZkGQBYAVi2aBgB2Lcdey+H2cwg/AM9qAG88AOB7owJ68gJ4BIA3PTDU10tG6uulcfX1srv2Mrb91LFYLGcsFus6KQDsdntAC8Z++gi27vT09KcmJycjpqamnTv4AfimAZaXlwuDbR+XwwQwAUwAEzhmBKJiriTHxF6FmCtX5TvFqb9eQ6+urv5wRWX1ApoGoMQDIKYBvH4ASABArccPwLMaAAUEquMDj4wKiCwAAhEIieyAon6RqD5RLBY/ehBL+PbCBbE2my3NlPTAbceF/+zs7F0zMzMXZmZnW2ZnZ1dIR8Br/ABWVv60l2fHdTABTAATwASuM4HLMTHfj465AoQAiLn65es8nE3dM5nM25jMipfKyitLyysqh4P1A6AsB4Q6MiogsgDwRV18vjBWKBQ+hJYObursOpyYzeYXNqcHtm4Z9/86DM/XJQC8e2Fh4ezcwkIduRqA9ANYXFz8vK8gPsAEMAFMABN4bRCIioq6PSr6ygISALGxVzqu15cwSSs/v4JeVFr67ZLS0qwSZlk3k1kOzLJyKCuv8GQGrKCEBd7KD4BcDogCAnHrXNw6PpPH4/1EIBB8guznOOzRigKTyexCAsBssYLFajUfRRrf3T77xMTE+2dnZ381Pz9vm7vGD2BxHQA+sNs2cXlMABPABDCB60gAhfa9HB3TEhUdC9ExsRAVe/XnRz2cwsLCmwoKir9cWFwcX1RUYikqLoXiklIoKWVCaWkZlDLLNgRAgPTAvuWAm/0AUDyA7r0GAjoqBkaj8YLJZAaPALCA2Wx75qj6DqafycnJ+6anpzNnZmbmtogHgPwA2oNpC5fBBDABTAATOEYEIqNi/nY5KgaiotEWuxoVFbWn5DW7eSSUSTAnp+BzeXkFEXn5hZr8gsLVgsIiKCwshsKiEigqLvEIgBImlFAFQFkFlFEFACU9MBEQiLoc0OsHUFtb99+7GdtRljUajR82Gk1zSACYzEgEmJuOsv+t+kIJfaampr45OTmlIlcDEPEAKMsB0RTA/DwKCERsu0pWtFW/+DomgAlgApjAERGIjIz8eOTl6AUkAAgREBWrOIyukZUhMzP3oaycvL9l5+Q25OTmLeXm5kNuXgHk5RdAfkEhFBQUQQEhAIo9AoCwAiABwPRYAJjlY8yyilpmeUUbGRb42ngArE3LAVE8gFoOdwzlBziM59pvm0ajkWU0msBoMoHHCmB+aL9t7qc+MvOPj4//YWJiotebF8AvHoAnKiByBPSLB/DL/fSL62ICmAAmgAkcMYGIyCh25OVoQBsSANHRsX89iCEgx7qMjIx70tMzf5uRmcXNzMyZyczKgazsXMjOyYWcnDzIoQqA/ELIJwRAERQWFUNRUcl6UXGJtaikNKuYyfxvJpN5O/KKR1nyyssrelF64E3xAIj0wJR4AKxaYHuWAxJhgWtr647dF6rBYPiWwWAEw4YAqDkI9ntpY3h4+LbR0fH4sbGxGZQYaBwlBqLkBZjayAuA4gHoZ+fm6sjVAMgCgPID7KVfXAcTwAQwAUzgOhC4GBn5YERkFESizSsAYmJi7tvrUJKSMj+Vmpr6clpaellqesZoWnompGdkQkZmFmRkZoNHAOQQAiDbJwDyCQtAXn7hXH5+kbSwsPjVgoKSL+bmVgbMUV9aXv4s4QhInQbw5AVoq6pmqYhpgGv9AMATD4D74l6f7aDr6fX6m/V644ieEABGMBrNq2az+TMH3c9O7Q0NDT0wMjJSNTIyukZJDxwgLPD00tTUVPH09DRhoZibm0ukCIBlALgmJfNOfeP7mAAmgAlgAteJwKXIy+KIyMtAiACPAFhFgYCCHU5cXHpYYmLKi4lJKbnJyamu5JQ0SElFWzqkpmVAWnoGIQDSM0gBkA1Z2TmQTVgB8npzcvKKc/LyfpGXl3cf+rIPpl9mWZmgjPAD8K4GqPSEBa6oqHmqooJzSzWLNbYpLDDpB+DJDjjH4XDuCKafwy7T1qYvadMbQG8wAGEFMJgSDrtPsn1kSRkcHHx6aGhItlN64MnJSdfU1NT/zs7O0sj6aD83NycjBcD8/GIL9R4+xgQwAUwAEzjGBMLDo++5FHEZ0EYRAJ3bDTkhIeE/4+ISvxYXl5SUkJBkS0hMgoTEZEhMSoGk5FRITkGbnwAgrABZyxmZ2aqsrOwrmZk5X09PL9hTet6SkpJPMpnl60yqAPAsB5SR466pqXmKSA/slxeAEg/AzuVy30uWvx57nU73bFubHtr0etDrCQEwqNPpDj3csNls/o+BgYHvDgwMmgYHB2FoaAiGhoZheHgEUHpgZAHwZAccXx8bGxNNTEx8JVBsfyQg/r0ccJLwA5gjMgMem3wR1+P3xH1iApgAJvCaInDpUkRG+KXITQIgMjJaQH2IxMTEG2Nj45+MjY2/fOVqXOuVq/FrV+MSIC4+EeITEiEhgSoAUiCZEAGEABhJTU1npaVl/CklI+MR5PFPbXevxyUl5fErWdQdAAAgAElEQVSl1HgAxDRAFZRVVz9MbbOaxfozkRjIzw9gIyxwHT+YLIHUNg/quLW19UM6XVu/DgmANo8AMBqN3zmo9gO1MzIy8h632/2bvr5+V3//AAwMDAASAIM+ATBMCICR0dHJ0dHxuNHR0f8XqB3y2sTExK3EckDkCOhJD/w8eQ/vMQFMABPABI4xgZiYmHdeDI+YoQoAZAWIuBydERV15ZGoqJh/REXHyqJjriyjqIAoL8AVtF2NB58AIEQAIQDWEpNSTElJyemJyWnfQ34Ah/HoxcXFoaWlZQu+eABlFYAcAcsrqjiB+qupYWdS8gIECAssKD3qCIDoy7mlRVfbqmsDXVsbKQCk6HqgZ9jvtc7OzpDeXverbrd73N3XB319/dDf308IgAEkAAaRBWAIhoeHDUMjIz8ZHh6+MZg+Z2ZmvuqXHpgRTD1cBhPABDABTOA6E7h4MeLZi+ER4BMAm6cBIIqICYCCAnnCAseSIsAjAGbi4hPEV+MT/xkfn/TkUWULLClhxvuWA6KIgJ5pgNXy8vI7A+FMTdW+rYbNFnoTAxECwDcNQOQF4AGXJ0gOVPewrmm1ul+2tOqgVacDnY4QAMttbW0H7vjncrlu6+npTe7tdS24XC5wud3gdm8IgP4BZAUYXBocHCwZHh5+ZLfPOz09fZlMDzw7O4sDAO0WIC6PCWACmMD1InDxUkQaVQBs9gPwLAf0RAVEAuBKV8yVq4VXrsT9LC4u7p4LFy4E5ax3kM9WUFARVlzCXPAJAO80QHl5xbZzz3w+/92s2tomNpvjSQ7kcQQELpcHXF9eAH7SUVgCNBrNPdqW1sWW1lZobfUIAF1bW8RBcnI6nfd1d3czu7t7Vnt6eqG3txd6kQBwkQKgD/r6+90DAwN/HRkZoe+17+npGRkKCoSmAebm5tL32g6uhwlgApgAJnDEBC6GR1pJAeCzAniWAi5FRkY3R0bFxERHX/lqRER86BEPLWB3hcWlCZvDAqO8ABXjRUXsHSMWIoc/NpujJrIDIgEQID2wQCAoPUyfALPZfKNGq7VrW1qhpcUjANra2qwKheJAls51dnZ+rrOzU9TZ1QVdXd3Q3d0DPT090IMEQC8hANbdbrfY1d//1UBOfQGhb3ERRQicnp6eJwXA7Ozst7coii9jApgAJoAJHCcCly5det/F8Ih1JABIEUBaACIioh87TmNFY8nPZ95WVFyySAgASljgsrKKoPMV1NbW3sSu5ai2Tw8sENTUNL3nMJ5fo9HmarQtoNW2kAJgRavXn95PX2jZZHu783mn06lzOjvB2dkJnZ0bAqAbCYCe3qneXld8d3f3p/fTF7Xu1NTUqenpaSDCAs/OogBAH6bex8eYACaACWACx5TAvyIi7iNf/lQBgETA5cuXj1UKYISwoKi4lsgLUFwKJYQAIMICm1Fo4d0gRtMBHA6H7+8HUMfjAw+lBxYIQSAQ2kUi0e27aXenshqN5mdqjRY0Wq1PALS06F7dqd5W9x0Ox9vtdvuLDofD7nB0QEeHE5xOp58A6Lb19PT8saur68CXFk5OTv4FCYDpmRkkApxbjRNfxwQwAUwAEzhmBC5ejPjKNQLAuxwwMjL6e8dpuEVFRU8TYYFRYqCN7IDrxWVl5/YyTolE8g4Oh1vFIdIDU/0ABMAnRYBQNCWor//SXtr3r6NWq8+q1JpltUYDGo1HAGhbWg3oJe5fdqdzu93+Qbvd/ne73T5ib2+H9nYHeARAB3QgAeDsXO7s7Crt6uo6u1Nb+7k/OTkpJQTANOEDkLWftnBdTAATwAQwgSMkcPFixPf9BYDPD+Dy5V8d4VC27So7O/sdBYVFTm9eAPClBy5hZmxbcYebTCbzLVxuXRwhAkhHQN4mAQBCoWhdLBaH78cvQC6X36JSqYdVag2o1R4BoNG2LCNnwB2GuOm21Wq91Wq1xlmttlmbzQ42ux3s9g0B4Ojo6Pu3BeDv3d3de3bq29ThNidomeDU1NTS1NQ0IBEwOzt7bEIrbzNsfAsTwAQwAUwAEQgPj3iFKgA2TQNERv3juFDKLyz8e4D0wINMJvMDBzFGDof3U24db6Wujg+8TdMAIiQAQCgSg0gsbq2vr9/1Mj2tVvuuZpWqValSg0qlJgQAmgZQa7W/C3bsJpPpLpPZXGg2W1YsFitYrTaw2myARIBXAEgcDsdzWq12V1MhwfYfqNzU1NRTk5NTZHbA9bm5uUMXHYHGga9hApgAJoAJ7IHAq+GR39tKAERERBbtockDr5KXl/fZ/PzCRf/0wCUlJd88yM44HN4XeDzehM8PgE/4AYCAFACiehCL6xdE9fW/QZaDYPpGQX2am5UlzUoVKJUqnwBQabTVwQT8MZlM5w0GU53RZFr3pAe2ABIAFishAqZttvYkh8Oxa1ESzNh3KjMxMXGVFABTU1OtO5XH9zEBTAATwASOEYHw8MtfDiQA0DRAeMRl/fUeKjK75+Xnt+Zfmx44YMS//Y6Xy+V+vI7HbyMcATf8ADwWAMIKUA/iegnUS6Sa+vr6Ezv1p1AoLiualdCsVPoEgEqt6ZQZDDdtVReJC53B8JzBYFD7pQcGs9kCZgvx76cOh+O65jCYnJy0TE5OkhaAi1s9D76OCWACmAAmcAwJvPpq5L3XCgBfVMDF6xHoh4opJy/vX3n5BbBZAJRMFBcXH9pyM+QcyOfzM3yrAZAFQCgCEVUA1EtAKpWu1Usb80QiUcBUxXK5/BW5ohkIAdDsEwCLSqUyoHCw2WzvadHpXtK1tdnJvAAb6YFNayaThW2xWB4PxnJAZXgYx2NjY2ETExNAEQCb8i8cRp+4TUwAE8AEMIEDJBAREfGei+ERa9eKAE9ioItRUdsmgjnAoVzTVF5e3uncvPyVvLwCyCMsAIXg8QMoeeGawodwgScQ/JAvEM4IBFQ/AGIaAOo9VgCQSBtAKm0YkkobX6amMJbL5d9skivWCAGgaIZmwgqApgA0P/Yfqkql/2hLiy6mpVU3RQkLTGQG1BsMAwaD6Z9tbW3HKr7+2NjYD0gBMDk5NYkCAvk/Fz7HBDABTAATOOYELoZH6LcSAJcuXf7R9Rh+IpN5Y05unj03Nx9yCQFQAPkFhVBQUMw8yvHweLzbBAJhs58fADkNABKJFAkAkDY0QoNMZm1sbHymsbHxMVmTfKlJrgC5XAEK0gqgUkVTx67RaB7UaFrKtdqWVRQRkMgL4A0L3Naml+n1+m+ilL3UOsfleGJiohwJgImJSWQFKD8u48LjwAQwAUwAE9gFgYsXL8UFEgAeP4DIml00dSBFkYk7OzeXmZOTBzmEAMgHzzRAwUBRUdGO4X4PZBCURtCXvUAg+ptQKF7ZPA0gJQQAYQVAAqBBBo2NMmiUNa3KmuTQ1CTfEABKJRMA3qzX69+tVKpfUqk1OnI5IIoI6A0LPKvT6VJbWowBExpRhnRdDwcHB989Pj4+N74hAH54XQeEO8cEMAFMABPYG4FXX4047y8A0Lk3HsDshQsX3rG3lvdWKzMn57fZ2bmQTRUAeQXreXmF/7W3Fg+mllgsPiUUie0isdcRkDoNQAiARlIAAFUAyOXNMoVCcU9zsypOqVRNEssB1Z7lgCggkEbbYtNqtb/UarXvO5iRHm4rY2NjXxsbH4fxcWQBmADkD3C4PeLWMQFMABPABA6FAPI6vxh+ye0vAsiAQJeiop48lI4DNJqVlXU2KydnJcsnAPIgNy8f8vLyYwIUP/JLKISwUCxJFovr1/38AKABiQCPBQBksibCAoCmAZoUzXqFonmd9ANQqojlgKsajaZKo9E8cRyc+nYDcmRsrGRsDAmAcSQADLupi8tiApgAJoAJHDMC4eERf91SAERcLj6K4ebm5jIys7IHs7JywCMAciEnNw+9/NX7icJ3GGOvr6+P8C4H3OwHgARAo4wQAIQVwN8PQKlaVSqV4Vqt9iOHMa7DbtPlcr1zdHRsZmxsjBQA/zzsPnH7mAAmgAlgAodI4PLlyzdfDI+YoYoAwgfAkxdgKTIyknaI3d+Ql5f37szMLHVmZjZkEgIgB7JzciEnJ28iLy/vo4fZd7BtC4XC9wmF4p+JRGLTxjSAvx/AFtMApCMgsRxQLdBqta/JqHmjo6PPjo6OIbM/KQB2Fco4WNa4HCaACWACmMARErh4MTKcKgDQMTkNEBEZFXVYQ0FTEOkZWayMjCzIoAqA7FzIys392mH1G2y7PB7vXj5fmCYQiGY3wgKj5YASv+WAjSOBpgHQSgDqckAUEVCpUg+pVKpvvebM/yOjBaOjo4QAGBsf7wqWIS6HCWACmAAmcIwJXLgQ+/6L4REDVBFACoBLEZfnYmJiDmUtemp6ZkJ6eiak+wRANhDTAFl5V68Xrtra2pvq6upeqavja3wBgVCKYDIsMHIE9DgDdkskDeENDQ13SCQNFwIJAGI5oMKzHNDPDwDlBZCoVK13Xa/n3E2/KGvhyMjIJBIAo2PICjBxLPwydvMMuCwmgAlgApjAFgTCwyNeuFYAeIICRURElW5Rbc+X09IyfpeWngFpPgGQBZlZ2ZCRldOYmpp6pMFlkCWitrbu81xuXTGXy1vgktkBUUhgvgAEpAAQi4dFIlFifX39g9QveKm0oZmIB7DZD2D9mngAlLwARHZAjWZdo9FUtLS0HOvlfyMjI18cGRmBESQARokpABz9b8//83FFTAATwASOIYGL4RFFpAig+AFARGQURERFPXtQQ05OS/tmalr6WmoaKQAyISMzCzIzs93p6ekhB9XPTu2wWKzPsNmci+xajquWwwUOpw643DrwCQBPeuAZvkCUzxeLn6RG/CPblslkN0mkDauEAGig+AHIFC/J5fIfyeUKl39YYM9ywE3pgdc1LS0irVb3LBIjZNvHZT80NFRICIARQgAMAsCxG+NxYYXHgQlgApjAa5LAhQsXbrwYHmmlioBLEZc9AiAyajQ6OnrfcfiTUlOfTUlNW05NTYdNAiAjazE9PfvMYYOrqqq6tbqa9T81NWw9i8UGFrsW2LUcqK1FAoALHI8AWKqr49XU1fG/yWaz37XdmOrrG77uDQtMXQ7YTabnRfkF5HLlb+Xy5pGNaYCN9MDeeACAggKhqICtrbr+1ta2+NZWwyMogNB2fR/FveHh4RuHh4dnh4dHYGSE8AFIO4p+cR+YACaACWACR0zg1Vcvf/ZieMQcEgEUPwBCBFy+HN2GcgjsdUhJSWlPJqekLqWkpEGKTwBkAPIDSMvMPrTQwxUVFfSqqpqfVVRVy6uqa9arq1lQU8OGGlIAsJEA4CzWcji1HA7v+zwe7wPBPmO9pIEnkRB5ATxhgYlpgMaX/esrlcr3Njc3/2+zUt1HTQ+sJgICaX0CgAgLrNOBTtcGbW2G/rY2Q7zBYDgbyPrg38dhnA8NDb0wNDwMHgEwglYAHFlsiMN4HtwmJoAJYAKYwDYEwsMjn0eJgvynASIvR0NkZLTowoXUbb+KAzWdkJDyWFJyykJyciok+wRAOqSlEQLgwJ3+mEzmR8oqKn5VUVEpq6ioWquorILKqmqoqq4BJACqa1hIAMzXsGsr2WzuC2ipX6Bxb3dN0NDwiXqJdH1TXoAGmZvL5b59q3rIMtDcrP6GSqWSef0AAFkBfGGBWwkrACEAdG16aNPrieRABoNxxmg08Yxm85+MRuMDpIVhq34O6vrQ0BB3aAgJgGFAjoAAcCxzFBzU8+J2MAFMABN4wxMID498KfxS5DppBUB+AJGX0RYNly/HSC9duhT0CzMuKenhxKSU2aTkFEjyCYA0SE0jBADnoOa9mUzmp0pLy/5YymSqmWXl62XlFVBeXgnlFZXgEwBVNTNV1aySmpqa51B0v/380OL6+hgUFRAJAEpegJeCbVOj0dyj0WiSNRrtqIbIC+CbBoBWXRvo2pAVwCMAKOmBwWQyg9lsmTVbLEKz2Rpus9meczgcH6c6JgY7hu3KDQ4O3jw4OLRCCoDh0dHs7crje5gAJoAJYAKvEwKvhkf+mioAPCIgGi5HxUBUVIwtOjr6kzs9akJCyhMJiUmziUnJkJi0WQCkpKYb4uIK3rtTG1vdz87OfkdRUdEXikpK4opLSjtKSphQUloGpcwyYJaVQ1lZBRAioKJyoqKqKq+ykvVMdrbkQPIbSCSSG8Xi+nG/sMDmvZjq0de8RtP6pFarzW1paZ3aPA1ACgADGAxGMBpNhAAwmQkRABaLFaxWG1htNrDZ7JPt7e2S9nZHrN3h+KHD4bi/q6vr/Vvx2+n6wMDAzwYHh2BoaIiwAAwNjX1upzr4PiaACWACmMDrhEB4xOW/IEdA0hmQsABExXhEQHTsTFRs7JYZ4eLjk56NT0haTEhMgsREqgBIhZSUtMGEjIxbdoupsLDwlryCgp8UFBSzCwqL5wqLiqGouASKi0uhmBAATI8AYJa7SssqUpiVlV84jHDCQqH4gjceANQjCwCxyb642+fxL4+cBlta9E+3tuqSdLq2TmQBoEwDEALAaPKIALPZQggAi9UjAmw2O9jt7WBvb4f2dgc4HB3Q0eGEDqfT7XR2Cjs7u652dXX9uKur66zDMfAh/779zwcGBhWDg4OEABgaGsbe//6A8DkmgAlgAq93Amg64FLE5RXSAkCKgKjoWIiOuQJRMVeFUXFxt1M5XImP/3ZcfOJKfEIiJCQkQYJPAKRAcnLqXGpq6mlq+a2OL0gkb83Lyzubk1MQkZtXYPSkBy6E/IIiKCgsAkIAFJVAUXHpanFxqaK4tPTPTCbz7q3aO4jrEomEJhKJZ6hhgaVSqfgg2vZvQ6/Xf0qn1/9KrzdwDQbjlMFoAqoAMFssQBUANrt9kwBwdHQgAQBOZyd0dnZBV1cXdHV3Q3d3D/T09I729vY2ulyuVLfb/av+/v7P9ff3E6JsaGjo4wMDA+tIAAwODcHg4PCB+2n4Pys+xwQwAUwAEziGBC5divr8pcioqUjCF8A7DYAEgFcExMReXY69GpcZE5N429Wr8T+5GpewFhefCPFo8wmAZEhKSllJTk7b9ks5IyPjtszs7B9lZecys3NyJzalB84vgLx8nwAYLCwqKigqKv12UVHRB48Km0AgShGKxEARAEsiUeMmAXQYY0G+Emaz+W6j0fxzs9lcajJZ3IQAoE4DIAFgJy0ADiAEQAcpADqhEwmALlIA9EBPby/09rrA5XKD2+0Gd18f9PX1z/T3D/QODAzAABIAg0gADAYl2A7juXGbmAAmgAlgAteZwKVLMXdEREb1blgAYoC0AsTEXoXYK2iLW71yNX79alwCxMWjbbMASEhKvWbKID09PSw9PfPF9IysnPSMrB5PXoBsyMrOgezN6YHn8vIKeHkFBb/NLSq686Cd3oLBKxKJbhcKRSs+AUCEBpb8K5i6h1HGbrczzGbbMxaL7V9Wm41vs9nHPAKgHdodG9MATmQF6CStAEgAdEN3D2EF8AoAF7iQAHATAgD6+/uhHwmAAUIAdFwP1ofBC7eJCWACmAAmsEcCKHtg5OXoOuQISDgD+iwAV8AjAuLgytV4uBqHNqoAIPwA/o66TU5OvjklJeUbyalpKSmpGe2egECeeACevACesMBZWTmzWdm54uzs3AtZeXmPxsXFbbm8bo+Ps6tq6AuczxcqfHkBRERegA6FQvHOXTV0yIWtVuutdrv9WbvdccHh6Kjp6HD2bDMNAL3ICuAirQBIAPRBHxIA/R4BMDAwgFP/HvJvhpvHBDABTOA1QQB9DUZExfz2clTMEmkBQL4AGwKAFAGkACD8AOwJiclXE5NSjEnJKeuB4gGkpWeOZGRk1aRnZv4WRQU86pwAO8EXCAS/4ZN5AYRiEInE6yKR5PGd6h2H+y6X6wNOp/Oxzs7u33Z2d+d3dXWbPX4A104DEAKgjxQAA8ga8Onj8Ax4DJgAJoAJYALHhEBUVNSJqJjYdlIE+ATAFaoASAjkB4DiAUwlp6Q1JaemX01JSX8xLS3tM8fZzCwSiT7G4wtmCQEgEAFKDywS1Scck58i6GE4HI73dnZ2vtTV1W3ZSgB4/QCIaYCBgYGWoBvHBTEBTAATwATeOARQaODo6Jir0TFXVgkBQPgCUATApmmAZGI5YEJSStxxftn7/3pobX8djyfbnB5Y6NhvICH/fg7z3OFwfMbpdCY7OztnPasBgvQD6O//9WGOC7eNCWACmAAm8BonEBMTcyom9orOZwXYwg+AXA6YmJwmSE5OZrwWHpvL412q4/GBEAB8IUoPvMoXix847mNHWfvs9o4vOxwd4o5tlwP2TLtcLmYAP4ClgYGd4wUcdw54fJgAJoAJYAKHTODChQtvjbkS9/vYK3FzV65SrADESgDqagAUEZCICjiWnJz29UMe1r6a53B4z3DreOuEAPCkBwY+X3hhX40ecmWbzfYpq90ebre3u8mAQAGWA652dfXwuru7X+jv739XT0/Pc/7LAd3u/opDHipuHhPABDABTOD1RCAqIeGW2KtxBVeuxq+RywEDxAOg5AVIZWXsISrgYTPj8Xi3cbi8CW4dD+rq+MDj8aGOLxAfVO6Cgxy/0+l8n9Vqfclqtcm9YYF98QA2LwfsNHZ0dv6+t7c3lNp/d3dvsUcAuDzxANx94HYPPEUtg48xAUwAE8AEMIGgCFy9evXElbgEcdwmP4CAYYFReuDZ1PTM3x8Xz/+ampr3cDhcPYdbB1wuEgA8qOPxB0QiUUhQD38EhZAQMRqNnzOazQVms2Ue5QUgogJ68gJshAV2OIY6OjquOByOewMNq6ur6x09PT3TpADwxgPoA4C3BiqPr2ECmAAmgAlgAkERiItLeiouPtHkiQjoFxY4xS89cHqGKS0ta9tIgUF1uo9CKDkPu5bLq+VwgRQA3DreCo/HO7+PZg+kKnJINBgMjxsMplSj0TSyOSywVwBYicRAi+3t7WUOh+PpnVIH9/b2fqmnB0UE3IgH0NfXd+lABowbwQQwAUwAE3hjE7hw4cKb4+MTvxGXkKQnHQE3pwdOJ9IDe4ICZUJ6eqY0KyvruoSfZbNrM9m1HCAEAKeOEAF1dfzr5g2PXvo6ne4JnV6f1tamH9HrPZkBDcaN7IAoMZDZYlk1m631Vqv1xwaD4aZg/8d1dfXk9qCogBthgdf7+vo+FWx9XA4TwAQwAUwAE9iRAFr+l5CQ8kxiYrLGPz1waioSARmQlp4J6RmZkJGRtZ6emVWZnpNzYseGD6gAi8X6G4tdC4QAqOUCh7AC8HIPqPmgm2lqanqPRtP61ZYWXVZrq26kVacDna4NUHZAJAD0BjI9sHnVZLJITBbLK0ajcdfTE2az+T+6u7vHqWGBe3t7m4IeKC6ICWACmAAmgAnslkBiYsoXkpLTJMkpRHpg5AfgFQDUsMDZkJmVDVlZ2bysrLyzu+1jN+Wrq9k/rWGx1wkBwOZALWEF4KhQit7dtLPXsgpFy20ajeZXak2LUKPRLmm1LdDS0gotrTpobd0QAG16w6rBYJDo9aZXzGYzba/9oXrd3d1PUbIDeqYBent/sJ82cV1MABPABDABTCAoAikpKXclpaRlpKSmL6SmpUOazwqQBRmZWZCZiURADmShxEDZucrs7LzvHHRegOpq1o+ra1jrNSw2sFi1wGZzgM3h9LLZ7EOLVaDX69+tUCi+0KxSRSuVKptKpQaVWgNqjQY0Gi0gAaAlBEArEgBrOp1eqtMZfrrflz71R+nu7s6jCgDkDDg8PHwjtQw+xgQwAUwAE8AEDpVAamrqB1PT0/+cmpbu9k0DZCIRQAqAHMjOyQVveuDh3Nz8S3l5eR/d76AqK2t+UFVds1ZdwwJSALDYtRMsFu8z+22bWh854zU1NT0sk8kvyOWKRrmieVnRrITmZiUolSpQEgJADWq1RwBotC1rLS0t0paWlp+q1ep9felTx0Eeu1yud3Z2dU1R0wN39/YmkffxHhPABDABTAATOFICaClgWlrml9MyMmvTM7JWt0kPDHl5Bev5+YUN+flFP8zOzn7/bgdaWVn9/cqq6rWq6hogBEANG4mARRaLte/pBqbZ/B9SqfT+xsbG3zc2yuoaZU2zMlkTNDXJoUmuALmiGRSKZkIANJMCQKWeVqs15RqN5gdKpXLXc/q7eX6n0/kV/7DALpfrjt20gctiApgAJoAJYAKHQiA5N5eRnpXzl4ys7I4schogJxdycvMgNzcfcvMKIC+/APILCqGgoGihsLCkvKio6Hkmk/m+nQZUWVn964rKqvXKqmogBEA1C4mANRaLtafohEKh8H1isfhJsVjyr3qptEEikc5LpQ0gbWiEhkYZNDbKAAkAGSkA5ApCACiale1KpTq2uVnzOHLK22ncB3Xf6exkegRAF3inAWQH1TZuBxPABDABTAATOBACaPVAZmbu+azs3JzsnNzJnJw8yCEEQL5HAOQXQn5BERQUFkFhUTEUFZUsFZWU8opKSn5cWFFxC3UQqK2KispXKyqqoKKyCggBUFUD1dUsqGKxfkUtu9UxWtbI5YpuFwgE3xMKRYlCoVgvEonXROJ6ENdLoL5eChKJFCSkAGhoJARAo0cALMvlclFTU/OvZSrVJ7fq4zCv22y29zidnXNIAHR2kQKg+4XD7BO3jQlgApgAJoAJ7ItAdnb2O3Jzc7+cm1vAzM3Ln88jrAAUAVBYDIVFJVBUXALFJaVQUsKE0tIyWwmzPL60vPzpsrKKlPLySiivqPQIgMpqqKqqQVv0VgNjsVgf4XB4X+VyeRF1PIGEx+NP+7IDCj3pgYUiMWwIAAnUbxIAssHGRllWY6P8a0ql8r1b9XNU151O58tOZyd0dnZ6BEBX95DD4Xj7UfWP+8EEMAFMABPABPZFIDMz8z25uQXfzssvZOUXFC4QFoAAAqCklAmlzDJglpVDWVkFlJVX+AmA6hL0VY+sA2w2+xNoGoDFZoejiIBsNnfIFxXQm9FmCpkAACAASURBVBfAlx1QQGQHBAESAaQAENdDfb1kvl4iFUokDf8jlUpPAsCb9/WgB1y5o8NpdDqd4EQCoLMLurp6wg+4C9wcJoAJYAKYACZwNASYTOaN+flFXy0oKM4vLCoeJywAxaVQXMIEnwBglgOTKgA80wBzlZXVKVXVNY3V1axp32oAFBDIFw9gIyywNy8ANT0wEgCrQqFYKRLVvyoWix89qtgBeyHb3t7+SEeHEzqQACCsAF1r3d3d+15NsZex4DqYACaACWACmMCBEkDhc4uLix8rKimNKy4pcRICoLQMSgkBUO6xABDTAP5+AN7VAL54AN6ogCgiIAclBqoDIjsgj7/E4wnkfD4/XCAQ/BeXy73uZv1gATocHaV+6YFrg62Ly2ECmAAmgAlgAq8pAoWF5Z9gMpk/K2WW1TLLymfRNEBAPwDKckAUEMgvLPAwh1MXXsvjnWcyFe98TQHwDtZisdDbHY5lqgBwOp3XNfnSa5EjHjMmgAlgApjAa5AAl8t9e1lZ2WPl5ZWRFRWV2orKqtXKymrPagCKACCCAlHyAnj9AFa4PJ6uro6XzuPxfiIQCO5jMplHtnRvv7jb29v/2e5wgMPRAWgawOl0dhw3/4T9PiOujwlgApgAJoAJBEUA+Q5UVFQ/XllZfam6uqapupq97O8H4MsOiKYAuDxyGoD0A1gRCIRmgVCYJxCJfikUCh9CIiOozo+wUFdX1/vt7e0T7e2kAEAioOMXRzgE3BUmgAlgApgAJnB8CdTW1t5UU1PzpWoW6xKLVdvAYtfO+QTAZj8A4PEEwOcLgI9WAxDLAcUg8qwGWBCLJa1isaRYKpX+VSqVPtfQ0HDH9RQGNpvtX3Z7O5ACwNHRMYniAVB/iQ984APvZdBoz/lvNBrtdgaDcTcjJGTTdMFtt932dlSWRqN9iNoOPsYEMAFMABPABF7zBJBDIYfDua+2lvtzDodbyOHWOQlHwDo+8Hh8jxWAWA7oFw9AjAICUeIBSBugoaFxtaGx0dEga2LJZLIImUzxg6ampjMSrfaDhwnKZrOF2mz2GVIAeKYBnDH+fYaEhNwcSqNdQhuDThti0ENSiGNGyGOhdPpVBp22SqPRbiXrhYaGfIlBp61/mE5/hLyG95gAJoAJYAKYwOuWAPL6r6ure4jHE/ySJxDkEVMAAuGaLx6AqB7EZFRAMiAQGRUQhQVGEQE35QUgwgIvKhRKZ7NS2aRUqZhKpfqqSqX9o0qrfU6r1T6k0Wg+ttf5eqvNVmCz2QEJAHt7O7Q7HKvt7e0f2+4HYtBDdB8JCfGV8QoASSiN9juyXhidXsSg01RYAJBE8B4TwAQwAUzgDUcA5QIQCoXnhGLxz0QiUapIXC8X10smiYiAEikEmRcAmpWe7IBbpAdeaGltdbS26hQ6XRtbp9Pn6vX62LY2w1/1etMrRqPxOyaT6asWi+Vxq9V6v9lsvttqtT5ttdrWPQLA7hEA7e2VO/1AgQRAKI32UwadLkd1Q0ND38Wg07iMUBoTC4CdaOL7mAAmgAlgAm84AkKh8CNSqfRJqbTx99LGxrSGhkZpY6NswJsXgMgOKCezA16THlhDTQ8M2pYWaGlphdZWHbTq2kDX1gZtbXrQ6w2gNxjBYDSC0WgCk8kMZrMFzBYLWCxWsFptgASAze6xAqBgQDv9EAEFQGjINxh0uuDDN9/88dDQkG8yaLSXsQDYiSS+jwlgAm94AmFhYe/8CI32mQ/T6Z8Po9O/wAgJORMWFvaBNzyYNygAlBNAJpOdkMkUzzc1Kf4mb27Oam5urvdMA6iWlSo1ICuAWq0BtUYLGm0LaLVUAaADnY4qAAxgMGwIAJPZIwJIAWC1eUWArb0lGORbCYAwesgPQ2m036MXP/IZwAIgGJq4zGueAINO016z0Wis/T4Yg0Yr8W83jE4PmJkrlB5SSZYNC6Vd3m/fuP7hEzhxww1vY9Bp0Qw6bY5Bp4H/RqfTN2WrQyO6/fbbXzNryw+f4BuvByaT+Ra1Wv1hlUr1sFqt/rZaq/2tRqOJ1Wq1RS0trQ0tLTpba6tulhQAbXqPFYAUAEbThhUACQCLdcMKYLfbXwyG6JYCICzsA+hvUBg9pAq1gwVAMDRxmdc8Af8/3OT5h0NCPrvXh0NONsiLlmxrY0//TaA2GXSanSyDxECgMvjasSLwJkYojU3+ZgH20zfccMObyBEjK0FYKO0CI5SWRF7De0xgKwIKheKder0+rNVkukuv1z9qNBq/rjcaXzaazX8ymSyXTCZLotlszrZarUyr1S6w2Wx8s9kclLhEDn5hYWEMsu9QGu1vDBrtKXTOoNPy0BQAOg4LpSWE0WinyHJ4jwm8LgkE+OPt+ZoLpf1zrw/MoIf8KXC7WADslelxqseg0b4W6PcNo9OmGHTaGoNGU5DjRWusGXSakyhPo2WR1/EeE8AEMAFM4DoTCPSH3HvNutehMWg0feB2sQDYK9PjVC+UTi/c/PuGxN56663v947xLR+76ab3keNl0EPcvrK7EADo6yuUTg8npodotBq0XCs09OYnqJYFsg+8xwQwAUwAE9gDAd8fZ8887jT1PCwk5I7dNklE19qYE/abBggsAEJDb34gNDTkcbSFhd185277xOWPlgCDTlNT/p/03HDDDW/ZagS7FQBISDDotAr04kcBWZAvAYPBCGN4grakh9JpDYH8C7bqH1/HBDABTAAT2IIA5Q85MGg0lteMu+dpgLBQ2j98bdJoCt8xIQoCC4AthoYvH1MCDDrNSv6uoXQab7th7kYAECFb6TRVGJ3+VQbj5vsZdPpLYXT6j9A0wq0f+hAN9YNWGSALExYB21HH9zABTAATCIIA+Yec2IfSmMgRhnJt19MAVIe+sNCQX1DaAgYdC4AgfpJjX4QRSuvw/a40WvF2A96NAED/98Lo9G+j9ogVBqG0fu8KERWDTltg0GjfRfeQxSiMTmvE0wHbkcf3MAFMABPYgYDvDzn6QkcCwOO05VvWtRuTPJ1Ov3ejPXo7+kO9cY6Wih24AHgLmqZAX4xhoSHfCg0NecY7bbGlSXoHHDeEhIR8NIxO/wqajiC/Oneqg5KGMEJCHg1FAUVotK+hCGIMBuM/d6q33X1iJQWN9lRoaMjzoaGhz9Lp9If32+YNN9zwVmJuPTTkS6jdMBrtSTqd/undvkipAgB5VW/3HMEKABSExftSJ5rzCgA22XZYKC2SQaf1kucMGi0LxR4gz/EeE8AEMAFMYJcENr2gQ2lMtFabQaeNb1wP+b9gm/T+kfZNHwQrABg0msjrKY68xZN36g+Zf9EyHQadNrIxzk1r0ccZ9JCY0NDQLZORoNCfZJ/ekJ9vDqPR4lFiEEqbaww6rYwaO5wcG7EOnkb7HoNOawm85JG2ygilNXuXFfmWxJH1A+2R8xwjlPZP9KKjjMEnxggPezpNG0qjvbKbNfVIxDHoIfkMOm2Tj4evj1BaP4MeEnvzzTeHBBoXusag02wkL0YobdlXl06b8V2n05xhNFqmJ7Qq4fmPfs8VSlnUP7pGbGFhH/oE2V9oKO1nYaEhPyfPrxUAIf+D6pH30cs/lEaLI8/xHhPABDABTGCXBCh/nAkLAKqO/ohTrtuCbPJNDDqtm6yHviyDFgC7iAOAXhQMOm2e7GeH/TD6cg40fgad5iLrogh26GVCnvvvQ0NDP0VtA517X/zUl/M2x3T5LR/8IJ3ahv8xiqa3zYs/UNv2IObB38qgh/zLT9QEaou8NoMsA/5jQ+cMOm3Jn8sW5xwGnf6/W9wj+yH26JnJvlAAKPQ7kOdeAdDhyeAWksJAIsW7XhuVQZYa5LNClsd7TAATwAQwgV0S2PSHOpTGRNXR1xX1ejDTAJtf9vQ21M7ma1tPAVD9BrYLBMSgh/yZOi7i2DNPXIC+YNHXOoNOG/QrMxtoNQNVADDo9ItbfMUjUdRMRcpgMD4ZwPKAvnIlRJpRekgagx7S5P1ap77werd6YRNf/nRaz+Zx09sZdFq5R5iEpCBnu2uFD719G0vAm7xf/dQxoOMudN1r7UC8xjb3iwI40X9FfWZ0fOgWADo9nJqXnRQAaJyEYyqN9nXqmJD1YLv/K9Sy+BgTwAQwAUwgAIFNf/y9AgDNFW9+yYX8K0DVTZeoX9BhobQ/opsHKQDCaLRzfi9V5BT2sv8StJCQkHczQmlRm56LTkNxwjeZ4TcJgA2T9hiKWId8CTwe6CF8Bp3+E/JBkZd6GJ3WuantUBo7NDT0I2QZcu8VCtJNZek09f9v70zAbSmqe3/u8H1Gv2ci5HJ6rao+1xvDM2oGHKLBp0meGuchxqgxxtkEjfoeRhyeqMkLCJnEoEYcg4pJREENKsQ4gLOC4gAKAuExCMokIFzGy73nfau7eu/avbu7VvWwh3P/5/vOt3t31/ir2lWrq1attf/++9+pCFN8ZtbIxkcnd4vme/HM/8xslOdbF96kzgf5YYrrUpoS/irRTyieF58iQEh7lZb175Bjd0WY8ucQOgDG0PPFgFSRl78FYJlfJEKAb8FN9D7ETkARHp8gAAIgAAKRBCYmqLEAsCJvs96z8wLJbjFMP3Hh9xDRDgnfpwBgmL7plUcmydFycVXZSuVfLyuMTQgATOtSflFEq0qruGeJ3uCVYd0pwNUqHDp9ilMm4yQHF+kVn5b5u0UYMbJT3K/6zBQOPR0Nw/Qf5XCy3VBaLbjWGHOvcjj/uygaTgpYfH5ZuCrCDyEAiP6B2GkX4VPy8QWAlZWVzZKn6H14ZfjUGtEDi+/4BAEQAAEQiCRQTDzZpy8AJMnDJ57Z1QPqkhYN+HHY3K+2hO1LAJCBfpy+bCUk76wrS3E/Mx4jZmlHb9aTcaYEAKKXFnGrPnfs2PFzlpPrxunRpdu2bbtrVVj/npuw/WV20WTPJrki3OQyfFjp0hp6u0yWbovgL4t0is8JZczc/sKzi2dNn06xcry6ULFiIPGHEACydJmPkBWY/JqOEn8DRXlTTg6Wo4Ai3IiegpxYKZ7hEwRAAARAoAUBb0IbKQG6ZPy3epl0a7cBTLbvnWvh+5rcfQkATpFtNDFV7elXVV3eImUPWbTm0yT5LT9MWQAIHfmbFHIyIWS0XO2nW3UtCm4TnJPkQD+c218v6nfp2to24z+PvbZMZ3v5/ajuTb6crqzc+KsAdasRQwkA2dYT0UliTEq2W/bbb7//5pVxi7gZzny1E31NnnvPcAkCIAACIBBLwJsoygJA5hHLe165DeDcwhZvuHf4E2lvAkB+TDCbIGWpPraOVeFLAsDoeFlVWLnnjucVk/R6jLfE7Az/aCWC1o2hV/v5iJc8j7Pk8VPRfncnGCZWC/x4Vde5noDviTF5V1W4unuW6dvjsiSXVYUbUACQ7Lbk1iT5u6LHIPoYxiRPNESvFIVMOSYqeh5V5cI9EAABEACBCALjwT43BORHLU9c1tr7+s/lWo5mjdPgz/rPexMAmM7x8viMn0fb6wkBgOhzoXQMJ/8yLgPdrH2rlnTlTdaLK6spE5OyM4IjnvRGAoZ3fa019GFL9DxfuKorr6x0eHHF+NJIibEujn+/dAR0XbY+/OdyPbAAkGUnRo9S5j9xboQPMyZ5oa8EWC4TvoMACIAACEQSmJgspvdVN09YcmM+opy8bzrYmOQF/vMeBYBrRuUMmJ7182+6nhAAmE5oCivPRNluVAaufjNuSsMy7RzHpxPLYcXT3aQuQKUwsCdXhuRX1G0TpESP8/IRRcWnlPNq+i6a9X78qnxmIQA0lRHPQAAEQAAEeiDgD/ZVilXufL17M800w0e5pml6Z8950K3bt2/fZ/SwPyXAzRNn9CNcyvplKV+XBIDjys/L38XHvceqcjukHMf/nh3DG7/hn+I/K67lDV8sGFqmK728qlYF5N6tNhfIJrYIxPKgH7d8+qHIq+5z6qRDut/+5bAQAMpE8B0EQAAElpCAP1lUCgDifW08ca372wCZ1zb3LGX+93L1e1wBGFv+G2YFICwAMH/G4yCKdVF/mTObMcepFQA/MdGrMMY8SpQYDdP3vXyrhIEP+HGnfDlErgCkRH/n54cVAJ8urkEABEBgAxHwB/sqAUAM6OTW44ol6fE2gIQv4jub9xNkehMAMlv1ef4pJ/85kUnLL9ErALIPP57Ao3QAnKU/b/KePJIYqoIxZi3l5E/l2F9JkMjSdL4MsmSMMQ/xyik6AC8Kpe8/t0wf8OLvnpcOgF8mXIMACIAACAxAwBvsp04BFNmVzpVnvgGMMXfx9rV3Vmlm9yYAMH15VE6iy4tyhT7FWJBojRuiV4kVPN8KXwsBQJz0jCZx3459sBy5FcNR3PIpgFB8/7k4OJLz8X5Z5BRBEabiFEDQZkIRVz4t01le2pUrHdgC8InhGgRAAASWlIA32NcKAMz8AD9c5riG6KnFvTqXsH0JAOVlaTGzq8GdMr+3KKM1dL1YlCvixQoAU/4RnLnjIr2mz8yqnSc8+G/swlKOuElZxR2u6FU0pSXP3IqC72VvQqegbFdAe2Ihc7AzYTxpWllR8ocAEGohPAcBEACBJSAwmiBlgpo+BTCqgSW6YBRWTOJ6S+JyTnsU0LvoSwCQCXOUd17ON3nZVF7KROr7M0g5+bgfMFYAcCsehb0DeZu/uGrVw89DruU4m2Uan2Jgutp34FNW2vMd4pTT8r/7SoVlAay0YrNe5+HPT0+ufX8OGW+i55XDyPc4ASBz/ZuvfjT0r6p8cA8EQAAEQGBAAqWJtda8qmicF2FTph94y//X+hOaX9S+BABJc8JAjaHbU6IH+XmVr52Hv9Gyu+9K1qU3cgcsRxnL8au++wwyFobeV3YyVIq3VTzWFdzyz0mLitmSPtMtRRg55lfHs0jbmOT3ivDyWd5SEJ2BknOfq0N+DtwKh2c6ma4QoafI0/+MFABGVgkN0xf9dHANAiAAAiAwRwL+RNK0AiAugSfCuiVtw/yeuuL3KQCkRL874dfe0PV13u2cJ7w9XnlPK0/UsSsAUscdO3bczZ/8XPonVBnoEQ+Bk7YDMv2BC0vmbTN0wtArqwgtp4jN+yquztDPVV74nbLKUA5riP7KCyOrOz8WGwHlcLI9YIhemh8rHOs4VCl1FnF9BuXVhyJM8SnbGl45dlmi5wqbbOujRsAo4uITBEAABEBgQALe4Ny4BSBFsEznToQXIaDBbWyfAoDkn7mtdYKHV45zxTmQmM61ht5niS73nq3L98I7oY+xjQAg8Y0x9ys5BZIJ+xanmHeUnON3E/9tE+VgurrOfHC2TVAuN9NthunT4trYLekfZ5m+VUpzT53rYNF3kKOZpfDrbvVGFCOF1/snDT0VAsD4pIfPrLiOEQAM81vKZSi+p0SPLdLEJwiAAAiAwIwJFINx9hnYo83MsvoTsKEfNymY9S0ACJrMGQxTeXIdL/X75WM6h5nvXYW0rQAgaYlr3ZKiXV3+xf0z0gqDOn65jDG/MnncspiMaz9v9h0v+Wl511ss89EThpQm+RTlKz53akwHxwgAwr/q6GLW34gO8cqKSxAAARAAgVkSsLlv+Wuzz3xPuzZ7N5jnYZmulTfT2sDyxk70ID998cpXFT43b0su3eSDVWH8e9uT5B7Z26tsA1RNaNnbdPLauj1sScsZ2CnyjDoqJ/Fln94tnY/2uEtlkS2Ib1ii55Td//p18a9FqdBtX1xUSquYoOXzakt0rDDw4zZdM/P9nS7CTTXpXikWH0V3oCmd4pllOrNo16YtoCJ83g+Sr0wLInx0EQafIAACIAACIKAmkHkiTJIDjTFPFkM5KfMfuPP5m9SJ9BDQWpuKEl3K/CzL/Gy5Xl1dTbokLfvkoriYmuSZ4mNBTgfI9kPTiksoPzHqI6sywsnxeopzrbwlFLeP56JDQUT3kdWOKgNDfeSBNEAABEAABEAABEAABEAABEAABEAABEAABEAABEAABEAABEAABEAABEAABEAABEAABEAABEAABEAABEAABEAABEAABEAABEAABEAABEAABEAABEAABEAABEAABEAABEAABEAABEAABEAABEAABEAABEAABEAABEAABEAABEBgLyAg5nnTNLVrRA/MfMwTPc3m/0+XT7mX+bNPkgPFLGyVe9wlx7SFme8ubnulnsYkT3T1f5qY4M3qblcfLGHEY9+S1xXFH5hA5nPCmDWbJAemzI/xf0tybYx5lPQp8bcgTqqa/F8MXFQkDwIgsJcR2Gytva9lfrk19JHMwY6h22sczvgObUrXyXWW6ezcfS2/LiX6n+IYZ9FZGmO2ZRM88xGW+bOW6UIbV3/xavjD3FEPv0KEJq3joFmySdP0zuJ8KPQvwt8sy7UB89qaTeREr7JMH7VM51mmXfG/J7rGMn9X0jBErzLGPBS+FzZgb0GVQGAeBORtxBC91U77sC9N7LWubDXhdlnmz1iipy7SxCJufS0nh7oBVlOPuDDi4ZDoWEv0sEVZIRCBTDMJiZOfefTHJc9zk/A1nLw78/RY5d2yn3u3WaKTxMFUF4dSS84axQcBEGhJYLMxyTMs0xmayaDXMIZ+3LLMfUXbakzyx5bp9F7rFR7YL0k5OXjey7oQAPrqRhPpSJ96oax8zbhPrYvwOlESfAEBEACBOgLZvjUn35n9QDVaQdhdV7Yh78vKgzH0Mst00RzrLisIV1iiQ+a1EgIBoN9eJu6rZetnbn1q/gJ1v0CRGgiAQP8E9t133583zO+xTHvmNljlb8kzFwBSot9NmX4w53qXtw/Olu2X/lu6OUUIAM18tE+JaD/RlZl7n4IAoG0yhAOBvZOAaOhb5vPnPljNWACQUwnW0PsWQOgpT/7F993W0JtmqSwIAaD7GCCnQiwnly3E7wkCQPcGRQogsFEJiAKaZbphIQarGQoAcozKMp2zQPUuJv3pT0OnyhvlLPogBIBulFPmp1imWxemX0EA6NagiA0CG5XAGvPvWKadPQ5Wsn1wY8f0Bt8CMCb5/QUTeqYn/WmlwYtFaBm6L0IAaE8461dxR0ND7b678+8TAkD7BkVMENioBMQ4jWU5QzxSvgsNRuPnRJeLvoAhekl27ni//ahk5Gfz9u3b95Gz5MaY+2VGgphfLnHcXnuTnsGgAoAxyR+1PG89rj/TLZbpNEP0t6LdLYJUmq7+htR3bW2bkU9rVw+QyTTX/uYjLdHnLNNNrXi7NjJMP2Hmew/ZJyEAtKObJsmvd2jfi6yhYyzzQbJ9sLq6mpROg2y11v6i9Ctmvr8c7zNEr7SG3m+JLmjsUxAA2jUoYoHABiaw2TJ9o3HgmBYMdhvmf5UJouuZ9SRJVt2xqFMs0x2lcgwmAKTMf1KRnz+xN13faomOFwttbQ2tiGa/tckjnN5B222XK0RnY6i+CQEgnqz0B2fIp6n/lJ/tyuwB5Iqem+JzHcew1qYijFtDp07ps0AAGIPCFQiAwMqKvGmUJt3y4FT+fpq8yQ/BzhizXd6kva2DQQSAlOixLSf/m1KivxNLgH3WX05dWObXWaafRraFtM3FQ+kEQACIb2VL9IaoNiT6xFCGlKy198wMd+WrVOsWAkB8gyIGCGxUAvvvv/+dZClZPWDlWuhbhuaRmdoVi4OGbu87L1k2t2J1b3pVoyzolL+fePdt27jv8vjp7dix425tjl+mTF8S2/F+Wn1cQwCIoyhbXZ7wWu4/5e+7LSevXVlZ6fTGrymhrAq4LYLLNeERBgRAYC8gYJmfrZ8Ik0NnjYSZH9BnntkAHdonnRYMbkhN8sw+yxFKSxy9xOpkpIb+KZRu7HMIAHHEsr346f5Tnviz77LtFZd699B9/566lwgpgAAIzI1AZnNfMWClnPxn173+uVXSyzh7C1LU1xOKLhWFPi+JmV3mvgeirMbtEcuNfRYQAkAcTUv0Pa/vVE78+fPkg3EpIzQIgAAI9EhAvO4pzyjvGWqPssfqBJNy+/4Ng/LUCYjzhl7yDxVaFCQt07m6SSUr/0Xbtm27ayhd7XMIAFpSKyvZMrvOcuZtQ+ls6EuLkCAAAns1AXfuXzEhJl9ZdlCZlT+mH0VMpJeIQuIi1NtNLBfry568ua9yQwDQk7RET1O20Uf1qSIkCIAACAxAwDK/SDdg8esGyH6mSVrm1+vqmr1F3zjk0bo2FV9j/k3lao0IdLf2JbxAANC3liH6S00fSzn5U32qCAkCIAACAxCwzEdoBixL9JwBsp9ZkrlmdnKdqq5M62IcaGaFi8jIeSdUrNjQekr0zxFJ1waFAFCLZupByvxeTR8TQ1hTkXEDBEAABGZJwJ0PDk4oyz5gqQUdmfw5efcs2yAyr02W6GuaSUasGyZJ8kuR6U8FhwAwhaT2hjX0YVXbWHvf2kTwAARAAARmQcAyvUM1YBE9fRblGSIPZ5VNa1znClktGKIcfaWZmX6dtpZYI8TxkV3zhQCgJ2g4+Zjm9yTupvWpIiQIgAAIDEDAMP+NasDi5OABsp9JknJ+X1PHLMySbHWICWJlna7oahwIAoC+m1qiYzXtYkzyDH2qGyuk9MftRL+ae0nkl4shpNzyZ3J4aug1YpXUmNVH9rF6tQjkRPlY6iL2F0SvSHyDtDUdvgj1WZQyiH8MGZuMSV6Q9RtDh7l+dKhlfoUo5IrelJx0W5QydyjH1h377Ufyu5F+JD5AenlR1RotSTn5eIfCzzWqNfR5zaBsmX64srIyuIXDPmBIJ1DWad0SPbVLnhAA9PRSQ/+ga5fknfpUlz+kTHr5WMOfiXSQdIVl+qj47Cg5FxsEiijOZic55DRHzb8cJQ5lLqt0YpTLOTqrWp3blW3lJckTqtLKvEjW5O+Xax6TW3YsWVG2tdXVX66qW4d7W/Jj3Mm7rKH/0v3OMoXuXZbpDMt8pDjo6pC/OmpK9Di/naqujTFrTQlKfzdEL7VMJ9d6qiW63HKzPRGxJZOa5H9bTt4owpI4ERvla4mergR52PMYQAAAIABJREFUY59ny0cFGPgi4lz2ulhEHLg4vSZvmL6oa7vmDhIqFASAEKHx89Qk/0vXJvQjcQQ1jrkxr6xdfbAl+kRLnxvliXOnYX5LaODsQtI5ByvnW/rO59flIbZSnJfPUpwp+yLueXJ4VVqW6URNP5LyVsUf8p4h+itF2faID4o+yiHzjvOREnOEu5a/YfqmrD4NadQuZfp/QUb12+pb8pUwujaYRm7Qbk8d5/zkG79OVgzusc8+vyD+e6yht4uAmcVJ09QqM1lPDf11XUaLej/CydFVyzYgR9Ttmi4rGxAA9L3b6WfUDj4TvzWiP9envFwhM/fXhj45Ud8465tNDG8RZ0tdt7aqiHYRALK3q2j33jUCQJI8QcXO0Cer6jHkPct8vqJsp/VQhs3u1NPVivya+kvds9OHsvDaVgAQo3OW6cuR9a0UAOStX1ZMnJfd062hr4uPGfH9I3N5SvSgrI0s04XKDHcOBayHzlKZhGxd6OqW/GNlAgt8M03TfS3TbZr6GWMe2rYqEACiyG1JmX6maRPLdBUR7YhKffEDb3LLljuVDOoGZ8X95Dt982srAKScHDzldlkl8FQLACsrK1uVDtpu62UvWNmvZNLQtGtXvykiQIpzM01encIYut0yv1xZfXWwNgKAbJO1cCEuv5MpAUCEY1HwlwJbokNEkHLXx8uWcP48eVdWodTQ30dAFOt4jXsXakoDB3QQbtTUTd7cBi7OIMk7f++KwbK9IScIAHFNZ5k+oOlzEsYwfX9iTy4uq4UKLYpthvlftXXvKdzVNkkO7AtEGwHAOVPb064+tQLAilafRFYe+qp/KB3ZglHU85ouSo7WJo9o6RJdMQ5Wb8U4mym96X/FCgCiy9GgLxKq15QAIEv9Rb8QAUDc1+fjOH+12JpJid6WtbdoqFqm3YqGzQoikikz/3aos8z7ubOcF4JX+Ecf3B3rEDy0lufkeFrb/CEAxJHTviUVv7dssLCrB8TlslihZX8xwj5F+Depent2g7mh6+W33geRWAEgTff77xGunyvqXS8ArCXJrxV9pOnTOWnro/qhNLZaJlHKrKiHf6/9aqoYnBP7JeE8/Px6ujb0vr70AmIFABFAOtR5SgBYI3pgodMmAkDu8C/5jm/gTmwAjRpce355VMh86eT1i7xvnjL/2ai8TZ02b/gRi2W60PtyoEvb1gsCQDw5y/xVVd8b98ubRIGwrwEovsTtY2RKWnrjVFWTxy0299GhWq2r4XqlKPy2r0UeM1YAaLFfW6p/vQAgJcq114MT3K5ZOJZKmR9Tw36iTm1NqDv2d2jyqAlzlds2aZ+GocO69iGJHyMAtHBQN8G7agsgd/LHR2d9yG0ByMq9nJ5wqzObJgzeuVWAm2rAljMcfyf6nkgbfUDrOw1r6BhVfYie23fes0ov15Al1fJj20ECAkB8azplwBZvMvzVtgNofCl7ibE1Tus9m8wutpy8WYwh7dix425+KdI0vbMx5l6yL+vSVfXt7Hdu6OtdX0hiBIDsqN5YgBuPiVH3mgUAp0+hSJtf7HMc4lqOm4XH03ZO49wkqP+9ZC+gdLK85IkeSKndN8lYZ3NFyncodSkKxrvlCF9XfhECwGa9+/BaQXBqBUDKbzk53NrVA6QPFb5HMsN/RM8TH0BT9TSGXh1u4MpC3CHahWKooCu4PuNrlySXTbGxzMgyqbwEjrQ+ywkEvkMACACqeWyZjmr5e7pNJshZKnfVVCF4W/YRI+p4pc1PPmwNJuwCyMtFjDKYIXqVNu2qcBECwKZMf6Nmss+eGTpMJiGx2SHnz92RyKfJeWzL/N2cW7MA4BR9b1Uw7kPrvgpJdi9/o6TwCk2Ll6ns6CRH+Gnh5GOy9VJb2NIDY8xd3FapUjE1uazrkXetABAwUneTJfpQpsVvVx8sW0LSl4xJfk+U+lLmf3PbT5UCgAhFlpN3Sh7FiRkRuOUEjZwQKGHKvorm6acVna2QlsqfN8p5TZHiqxKf9T3dfhXdWpIeZ13Mzvk5QxHltpj6njL/YZvMIAC0obayIr8D5RLuVFu53+BPRbt8Ufun7CeqxwpDnxI9gXYkV1asTKY1k23p/s4uWwFaAcASPayUb96Ghv7LmOSJKysrQZ2iQiAIMbGGPlKZ1ySP3aJFHkqr7fPAROX6b3KdTLYxeciRtCZBqlTvGxzbmCxGYUX5TfuyJML7KGKLC60AULNVKKsQb9Os2IqxoNDxfLd1c5RlPlp+R2JNsLZKmTIP0+kl8HUDVM395DJD9JJC6qjNbMAH7gSARrHxnAGLMZOk1VsdzH/RpkAQANpQy+PIqphlOrfT70msnuUmqnvTUm5fozxmtsTKdJWmXk7buHPZc2WmyhXIiXFINNXb1i9CAPhQue5y5HgIy3yZVbnJyX6ivkU5RFhsW+9QPM1Lhlg+DKVTfp6vhoTbNNMR6UFRNjcMp7JjcLOYGi6XV/tdIwDIxF203ejT0PXGmEdp8xkknNPo/dyoUIrOVxP2Ytl7mMcbjOwL1ZSp9OPhzw4CcYaJak8CyHHPNsWCANCG2jiOEwLO0PXHxsHwh8Ykf7wIioL6o47urPEYR6crpbfFm4wx29pkpBMASHSlJuxvyMqpnN1vk6cizhabmXxt7Bti8vtrirSig2SmfzWa+ZETtOi6KDX+r5VtguiC10TI9HNyHYLSXFDm296RmkYAsDxl6e82UequKfbMb4s5QrFrrlfCqRMUMrvNmZndzm8BWgpi+EY14Bp6vzbNRQ2ntgho6O1t6gABoA21yTiiedvxqI8/WJ2dMv+BZpl5shT9fMv2s3XHhk/rW/iXiV2ztVe3xxkioBQA/LZYl/PbXbY3QmWS53KOWzGe7WHmu2vSiwnjrPFN1LmiLKfHpClhlSfPdoljqNi0Q+Er377L85ehH7e1oKoUACaYGkPPD5V75s+dr4Cw8kcZXvX3c8QpwiwGLkv0+IpOOgE8e27oTTOH2nOGYtlJVVeiY9tkDQGgDbXqOKJ9a5k0Sl3TfXX6N/WtKU3e6mx7vauyrmno+i5LqE0FtpwcGurvYu+9KY26Zy0EADmCd5+69Pq6z8z3DtVZnndVgqwqr5iQDeVdaJlXxa+652y0KF4um5Ukq9LW3Mv2zhUWO9eYH61JrxymhQDwgXIaC/NdpErNHlCok4yfJ98R7dghKygKb+P8yks7/vdhOtiQdSunLYoxqroSHV+Oq/kOAUBDSR/GDeax9r4bBILkK9JG+hK0D+m21hS6NfyK9rk0xxTBorwEX9H/97RRiosVAEbW1JqL3MtTy/SNinqW+8WZvWTmEhFPcopV4BtiPTUqt5B+NIRORcFHdBaCPNuummqcAY0F+p3ik6co18J+ig9zzfJbEOq44icP5fM7ZX6WrhztTeQuSkPJEpmmrm2tAUIAGKSlN+VbN/rjT8E2JvqQOBMZpLQuUct8hKIcFwytAGyJTgqVQ8aAWBZxAkBy3SzNOFvmF4fqLM9jjsiF+Oj0i+L0PNzRxpvDdRnWO2tuLc9/Gay8Fhfx0X8xKwDCODqDeUWQs8niTtCqlCgqgZYl1pssJ6/te8CQJalwB6N1sX0wL5Z95SsGVTR1tVgB6At5b+k471/iO0DxVq34PYkWMdFLh1IUtEwXhfqaIXplb4BqEtLYLJmwdFaTTvl2jADQRuu9nF/M9+wMN5NYTSyPoaXv/PqYdJvCapzTxJphVo7NV/U9J1TUU0wbB43fiRJkRdzGWxECwEysODYWts3DbGmISI7CKPZxQh2WMkUaa+1925SlKo5aMY7oDVXxl+medgXAtlR4xArA8L0hU6wz9Knw4B7+Lbk0zujzTVAIOOW/0mRTKo+h24fa+/dbQSX0Gvq6H0dzHSMAGGMeokmzzzBiGEbRR87uI0/lG/K3Y/PSrN6IIazYdNuE15hyFsM7sWlHCACnxKa9UOHlSIU4o1B0yuaBI5dqby48GHWtpPPQpciTj+ia17zjq3UAOG6prqgXBICCxPCf4mSrxjiIoi9PTcbXp8xP6avUqaHXKH7nJ/eVX1M62Upk8E2YboxVOI4QAC6KTbupPtpnopSmaIP1RmMvyswywzEhxrllR2WKKyvOPkvwrXtW3lmz1exQHVu4C9YLAMNuc6gbpmtAN0n0o9hEdGxXa4IRSoAzkTS78m2KLycrNIOCHCVqSqfuGQSAOjLD3Xd2zL+taddAmD02P+nS+Yy65tiWCAnDUZlIeZNlCjp9ibUHoBUAnPvYiQLN6MsW5zipWSDs7tRG4/lvZ+zxRzFlG+ivshr8s6G2sMptpDoOyPHeDbUCQBtF1XIdFuq7O3//hVAjK55/OVaz1AehtZ4l/sv9eMt4LfbVFTzXLSwBLl3zyvKjZTpT176lFQDvzUYm765n8jUTzyzdhFumq0NcZNsiptHVAkDuuTEm6d7CWuYjQ/UWr29dMlR5/mtxrFijyDhD98YrmdMp73dSydXQh2NZKgWAK2PTXZrw7hx+t4HL0OdjbUsXgCJ8sn+hiLOsn1o76TK4takjVgDaUOs1zmZnd/+cygEqNICNn5/Y1lqdU0BrfuvM8uGX5/o3fNDwn2EBIHb/VisAzNNiW+48p17YK/pIl2V0y3RckU7tp119cGwv1zmP4s8M33eK/kmigBvq19GOljQCwCwFndh26iv8JmPMky3TDxWQKxvBQYq2IOjMr1amOVGWjpJyX6C6pCOeGCfqVNehiR7WJh8IAG2oDRJni9NtuUTV3hX9oO2Kl3jMbJvnPOMZkzwppiW0AkDs1kJMGTRhNXoibbf85KXLeZlrGj9bKRrqFACDE3JTuYZ4doamTfwwGgHAttha8PNYmmtZenRa+cElu8rBop2mvuwRKo7M0B1tVxkWpQEsk2rLpe0ZcQgAi9LSeTlEP8Yp5N1Q+XupmPgnw/FBsTVyOglDDK7Dpkn09Ji6KgUAcb8a/VISU45QWDeehthd0kZRUeP5r62p5bEb5IWb5OtZEn0v1B7l5xoBYKnO/5cr2Oa7nKeUs7ktzjzvSpPkt2Lz1JxhlYFRjrvEpr1I4TV7odbQ9W3LDAGgLblh4xlj1pTHwsqD285Y5yrijXBSiFiWATxOy1opAOwctmXDqTuvrWFjOklyYDi1yRA2fBz1FjHmMxlL980yXbqE/eg8Xe3GoTQCgOgfjGPsRVcp0WMrPCGVB6ny97NipVmlH21Rjot+I1qU5nKGZMqspr+3OBNd1BECQEFiMT/FQ6Bl2hk1sBr6fExtNMpbUfkHVyl6EjByN8rqqqoEgNxJjDrNoQIaTv4lzDxOgz1z8xw08pZ8sG2dVC8rs+ob+nwGEQAW0vlP24aNjbe2uvrLluh74Q48HgiMSX4/Jh9xjKFKv6WFvJiyDBVWznmr6sh8dNsyQABoS2528bI9+szr5vj3EuwXEW+HcoIkmJ5+QJ0WUIeKO4QAQHTB7Fq2Pid3QiTAMrks5kidWJEMtXMXBchoQXWofhGX7iACgDjaq2/dveDJvvvu+/OW6VuhDuc9j3I5qZ24LNM1MT+SRWoanSELEl/h4oWx1Z+WY+yycqvCIFItAee3Xa9wS3RSbWKlBxAAfMGKzy/hmdfXzZYpqBAqVhO1BVR4/hPb+Ju06ZXDQQDw+tHeLgBI53BL2Fd4k3yjRGuMuVe5U9V9FzsCWterxqz+j7p0Fvm+Vs/BWpu2rQcEgLbkZh9PzP9aJq1y4G6tMxtsAXgDNy+MALBiOXljcOw0dIymJ2arsiHT7kSHaNKqCyMvW8Hyxr2dN84XPeWFFYC6Bu3jvt6ULa2nkQY4DNN/KDvBO/qoyyzTEN8Jqrq10GL16wEBwKex+NdKZyv5wKl8C7FEz9P0tSHdt86CvEoHYIEEAKW7XjE4E7QEaYneEGjj20RHoEs7WE4uC+QhOllLb55dpQSo/O114b00ca2hU8Mdg9atoU/GVEpvJY+u3bFjx8/FpD3vsJbpKCWzw7qUFQJAF3pziStLw2dp+kbK/F5NCUX/RpPe9iS5hya9RQ2zbAKAcNQ5tFl9ZIh50F5LD7pSlunsUD+ao5nlECL1cwgAalR5QK09e8t0YUzSsvStP3bIL45Je55h5Sy4Zboy9GOS58aY+3UpKwSALvTmE9cYepmmb1iir2lKqPQMt76sW2kFg2UUAIxJXhhq65CgJy59Q2nEWlUsmPqfSsdxM3Eo5Zer72sIAJFEnalRjU908fAV9WeZTg51bnkujdbVXnpUwToE1mjrZnXuuPwvRYQA0KGh5hTV6QKE90eVljDTNLW631B/3gfngW4ZBYBt27bdVaFcd6144qtjKlbpGts37yetlf+KfK2h9zXmk+//n1mEX9ZPCAAtWs4yXaToHPJGe5eY5GN0DGTLICbteYTdf//972SZLtaxopd1LSMEgK4E5xJfLGGGDcUw3aAsnWwr3Bjuc/w6ZXoLGWwZBQABqbLdnyRPqIG+xTD9pLltk9fWxI26bTk5tDmfTNlSXvLmamkxqlIVgSEAVEAJ3dJ6PZPVglBapefiQlM1YYqBIjlOVYq/UF8t8+sVPyJ5+7uxBaupukIAmEKyFDd0Cld0q7YyiiNi0To62rxnFW5pBYAkeXh4TKg24GOMeVRjXEO3i2+VPtpAa1Ja7Fr0kd+80oAA0IK89kibRqO1nL3Sdna2ZJoy/1s5/qJ8d0d1NG92622dgZTrCgGgTGQ5vov558aBPV9uFRsYqj/LyTsV6d0oK1SqBBcw0LIKAGLHJLSCmjL9THSHytgtN3vEE1fS5Thtv2fmqxXH/MSIW9s8FiEeBIAWrSAdVDHAaJcsyyXYqhUw8jIsnnlgt/R/uoKRCDI7ux7ZKQBCAChILM+nUxIN6wBEWLUzJnmGpu/JltvykJos6RILACupob8OtY9YDvVr7Dz/NdqNENPtfpyu11ZjsbKD6fKu5esjPgSASIpq971MrRVExPRi6AfiPb+ljQOiyGpHBVdb/csk7OTwqMQbAkMAaICzoI+sXT3A68u1goDYydBWIbMTzxRW1I08qqvNfxbhllkAkCOYNmTIx9CHfY4Koe7ivq2kWqZ3aPrmMm8DQADwe5niWmtprK0/c1eETcpjKMWAec12ol9VFH/wIJb5dZofjQtzcayiZFMFIAA00VnMZ4bor3T9JXlzTA00fuizY7d29YCYdBcl7DILAMJQ4Rr8Bn+LJuQwbQiXtSnR41R9swe7A/PqV0sjAKSG/i8R3WdeoIp8LSdfUXWKjp77jDHblVsNuRBAdPm8hQCl5mwhtKzHOk0q2qDuEwJAHZnp+9bQm5j57tNPZnpHtrtUPgFi+4plfpHqd0r0uS4242dKy8ts6QUAhcXGNeZHuypvtZxc19Ced3QxIe5hLV9uDZ86yE4D7DHGPKQceRm+L40AYImOz4735MffNs8DriV6bkMnHE1ssrxFRDu6ljFl/jNlfnnehq7vwwhGbLlFUherWFFlJTo2Np9QeAgAIULj5+4N7JrUJM+c1wRoDL1a2WduFYdc49KHr7Zv376PZbpJk74hekk4xX5DNJ111+S07AKA83/SeFwzJXqbsGDm325sxwG3clJDf9+Y91hR8Dypk6btegyzqas9mGUTALKJzjB9UzpFjyCDScnbdYSDiNOCCSoDWEPvV3bAQgDZZQ0d1rVjKIu3kibJr1umMyLLeO4QttghAGhbbWoJ9jRmvr8+dveQ1q4+WHn+XzxEHt8mR8vJm5X98jbpO23yaBMnn7yTd7WJW8RZdgFA6qEwtnORhAspDRqTPKng0vfn2to2Y5luUfUjok/Myi6AOKcTvRgxpNWlzkspABSNkTJ9SfZp+lb+KAN1g9VPi3yDnz06TxC7/5bpG8E8x5JoIQh8O8a9ZrnOoe9pmu5rmP/GGro9smzXDrWVAwEg1Grj5zV7sKe4ibCzJbVxTtNXKfNjFBbhin4sx0TVbmL93KIGbzEelCQP9+P3fS1bLiknH89+Ly2FmqJMG0EAkHYNjR1i2TFl/vf6cMllbY5bFxw1n3FKzXRC19WdQJk2u5XhzFvhXi0AeJ3iUsvJ4TEueAOQs8erq6uJNXSMZdrl5TUamKruyepE30uqbiBTWR8sl8kwfdqYzMFGL9smcr4/m/j1rlx9XreuMf+Ohn2bMBAA9NRqBADXVny+KHMmSfJL+hTDIUWvxVmCC2vojwXaU8Ip14eIMEYlxoFuN0Sv7PuFwhizzf1mxlsSEACk0cQK5IXlMcv/ngmLRBf49yav+ztFVNeLpP0s09WT+fpul6euz5Bxsi69tvflZVfmF78cEADGA0U+eGWdJXmzWHJqc75ctNJT5j8UIzs6k6ITjb/LJsmBbRu4KZ7oFERYCfQn3eL6YjG4I8JAjOa97O8bYx5qOXlty5WIIv9bYxW5mnhUPVMLAOJ62dBHZvkvbzJVZZ7XvWYBYNynDdP3DdHfykAs++qx5b3HPvv8gugZWKaPqpdSx7/pncaYX4nN0w8vb2NSB3/QVFyf6YTmTishmRvs/AVieq8bAkDWTKK939Qe7nmdwLi7D10rv7/UXVui5zSVs+LZzZaTN1prf7EuTc190StwbrPPrMhjHQLAeLAoJpryp0iYJ4tCSWqS/yOW9lLmZ4nfcHFUkxp6TWroH/KlOXnzoTuqQOvu9WOHuq5jyBuZZbpEV5bxID4VPl+2P88SfULOusoAL298steWCQnM73GOic61TLdNxQ8zL7fBjdYmj6irV1/3tQJAD/Up1y/4nZnv3Vc9+0hHKwCUWO2xzOfn/YaPzpX4+CCZ4I2h54tnP/k9ZXvvhj7p3u7qBu8gM2OSF/RRV6e/Mz0Jh/vx2fK7cF4qg37qZVtMBCX5DVmmc0rsJusLASBrWvdi09RHat+8ZXWzj/6hTcNy8sHGNq3uT7Lqc5wYNpKVBEVeW3K9Kn6RJToppMgKAaAa+uSPbQZhnBvLTm8Mis6x4rYDtFb2Zs6h4gdyYVc3vxouEgYCgJbUlBLgIvSTUhn4SH1twiEt0VP17rYrheebLNH3cuFHJoLkXU6J7YT8aHByWUXfL9XJSxcCwKjRrKHPR7Fz47ms1I4SmcGFs1pZ+SYeUf5LDNMXZfXRcPLurB8Rfcga+pRbqRpvEynmLQgACkgRjVP/g23Ix03+M/MK5RQDjxu6Xp3TJzqpDyc/2t82BAAtqcUWAGS/XF8TfUi3lNr0ttnq99/qdwIBYNRwLZbXpZ2umNVJp1FBV1ZWnJXJs1q1ecMc0jY9CAADQFU3hiylEx3id5BZXju7BPrTCTNiJcYz3PnyWeLACkAE7ZZbAENPkDfLVkJENaKDytZfT9ta3VhAABi1nRwJtpFKxbJtOUpgxhfihbWjPlS3vuON43uNAJAa+if1xOwBGi5O8p1ZLW039W/nm+CE4erpLVuGud4o+5+i+NVU5qGeYQVAT9YynbggfSYbDOVIr7X2nvoatA+ZHeslunyO9f9y16OwG+EYoN+CkYbE9qTpfvv78Wd9nRk/Y37vHPvQTsv8F13tDiyNHQA5MiLKey00enuTtlxjXyxvEV3B991h5fSBGIaYU4e8QjRelUoufVd9lB4EgBEKzcVWS/TnKo9nYcGvy2/sXNmf7/vobAiAbE05t8Gz2xIgukDGsD7qutEEgKC1P78PGvp8qH1n9dwSPT7k3rjnMXmXbDmLu+I+6rhMAsCovtJZRKu/F414v2PVX++2RJ+TgWoe+06jiisuUqIHiTQd5Uegvt5NA7u45jxRrHAtChMIAIoOMh1kszHmUaKQpLR73tQntM92Zcp0RI/v+8z9dPWa77ijeh/uqCDYVO891tCpxiR/1KfBmo0mAGQ2ARrP+49XIsUzYHOrzvZpfnQ8OdgyXdrzZO/3qytl26Nv2xxLKQD4zSvHqzLlntxk7rdbnDX2IY+v8yXCE8XqkhgE8vNchmvRWHUuND/Qs6B0iVhMG9jaVSvE2XGvGZ/v19oSWDQ7ADWAN8sRJLGNL94sLZMoO/VxDFR+V5fktjX42XJcrib/ud2W42j5MWGSMWRPx4H8WjlGK8eM+3pTK4PJbHME+rphfks53iJ/t8zPDv2epA/5XgIXqT6ZzQmTPCn77Ri6vmMfkpWps6QN3RHq4DHUNiyyrfVAP5ItszZpzyvOFtkfMsY8WYzX5Ect6ITsDZ7pW+5sstgGOM/m30+zRB8yRG9NOTlYzvEugJe03tllNgSInirntN3b3qct0+mW+buOSYT9g36PaPVeWSTYJ4GtYmEzO0ZH9AZZfsyM+uRHt2SylN+S/IvNiG/Jka5ceOCj8wlw9ZFydLXPAg2dVuZIKFva5ddne9OGTs3HisxOSFHfs6yhr8tKRr5/nRwqjJw10sGPAw/NAOl3JrAlTVd/w3mlPMpw8rF8vM2EateHsv4kv5lTneG5oyS8mEiOdX7VubRIYO8mkEnfUW8+/Pq9mxhqDwIgAAIgAAIbhIAz9zveBgnoBhiiV22QqqMaIAACIAACILB3E7BMR8XsXc3zPO7e3VKoPQiAAAiAAAj0S2CTwk/35CqBoWPmrc3dLwKkBgIgAAIgAAJ7IQE51hdrU0CcKW3btu2ueyEuVBkEQAAEQAAENg6B3Dxn8pWY7YCU6Qezsua2cUijJiAAAiAAAiCwYARyX9T0pUgh4GeW+cV9WDtbMBwoDgiAAAiAAAjsPQRECGjpOOYLa8y/ufeQQk1BAARAAARAYIMRcN66TotZCSjCGqZP2yR5QgvrXZuwnbDBOhKqAwIgAAIgsHwExN61s6Y4eQIgYCugEASsmMY09BGxRLjG/Oi1JPk1MZMqVtcyj4bW3tMSPcyY5IVibc7ZqD5j+UihxCAAAiAAAiCwwQiIrWvLJL4F2gkB8fEgAGywPoTqgAAIgAAILDEB8ZkwoPc0X7iAALDE/QRFBwEQAAEQ2IAEMucwTDcPvBoAAWAD9h1UCQRAAARyxNWmAAAC6UlEQVRAYMkJiJa/5cyjlf/W3uc1BIAl7yMoPgiAAAiAwAYlkB0TNPT2gbYEIABs0H6DaoEACIAACGwQAsz8AGvokzbKpXBQmRACwAbpH6gGCIAACIDABicgx/ss03G2H/0ACAAbvL+geiAAAiAAAhuMQGY8iOhpluh4y3RltLKgoR/D1fAG6xSoDgiAAAiAwN5HIE1Ta4keb4kOsZwcbojemhL9szV0jGU+UgwEWeaDUqLHMfPd9z5CqDEIgAAIgAAIgAAIgAAIgAAIgAAIgAAIgAAIgAAIgAAIgAAIgAAIgAAIgAAIgAAIgAAIgAAIgAAIgAAIgAAIgAAIgAAIgAAIgAAIgAAIgAAIgAAIgAAIgAAIgAAIgAAIgAAIgAAIgAAIgAAIgAAIgAAIgAAIgAAIgAAIgAAIgAAIgAAIgAAIgAAIgAAIgAAIgAAIgAAIgAAIgAAIgAAIgAAIgAAIgAAIgAAIgAAIgAAIgAAIgAAIgAAIgAAIgAAIgAAIgAAIgAAIgAAIgAAIgAAIgAAIgAAIgAAIgAAIgAAIgAAIgAAIgAAIgAAIgAAIgAAIgAAIgAAIgAAIgAAIgAAIgAAIgAAIgAAIgAAIgAAIgAAIgAAIgAAIgAAIgAAIgAAIgAAIgAAIgAAIgAAIgAAIgAAIgAAIgAAIgAAIgAAIgAAIgAAIgAAIgAAIgAAIgAAIgAAIgAAIgAAIgAAIgAAIgAAIgAAIgAAIgAAIgAAIgAAIgAAIgAAIgAAIgAAIgAAIgAAIgAAIgAAIgAAIgAAIgAAIgAAIgAAIgAAIgAAIgAAIgAAIgAAIgAAIgAAIgAAIgAAIgAAIgAAIgAAIgAAIgAAIgAAIgAAIgAAIgAAIgAAIgAAIgAAIgAAIgAAIgAAIgAAIgAAIgAAIgAAIgAAIgAAIgAAIgAAIgAAIgAAIgAAIgAAIgAAIgAAIgAAIgAAIgAAIgAAIgAAIgAAIgAAIgAAIgAAIgAAIzIrA/wfOTcNsqP3HzQAAAABJRU5ErkJggg==;" parent="1" vertex="1">
          <mxGeometry x="620" y="202" width="120" height="120" as="geometry" />
        </mxCell>
        <mxCell id="qJvai_lrImhjCM4Q15sK-6" value="" style="shape=image;verticalLabelPosition=bottom;labelBackgroundColor=default;verticalAlign=top;aspect=fixed;imageAspect=0;image=data:image/png,iVBORw0KGgoAAAANSUhEUgAAAgAAAAIACAYAAAD0eNT6AAAAAXNSR0IArs4c6QAAIABJREFUeAHsnQXYHEXSxyvugZAQIQQLHtwOl8PdEiDB3QkeLLge7na4u9vhFpxghxx+wOF69x1yQH/7y+1ww2ZlZrp6bLuf53123t3pme5/tVR3V/1LxCePQP4QWEpELhSRl0Tkq9DftyLyuog8IiKXicieIrK0iPTOXxXapkRTiMhKInJQVSaPicjfqzL7SUT+U71+V0SeE5ErReRgEVlXRPq3DUq+oh4Bj4BHwCPQFIF+InKjiJiYfz+KyD0isqOITNP0Df5HDQRmEpF9ReRxEfklpqzCsiXvRBE5WkTm0CiYf4ZHwCPgEfAIFA+BKUXkBYvJJJhYWHFeW90ZKB4K+S1xRxFZX0T+YjnpB3Kq9/lMZfdgKxHpkl8YfMk8Ah4Bj4BHQBuBqxQm/9pJ5SkRWUa7oG32vA4isoGIvOJAPrXyCv5/X0R29opAm7U0X12PgEegLRGY3/HkcmvlfHp4WyJrV+l5RIQz/WBiTvvzryKyrF0VfG6PgEfAI+ARyDMCJ6UwyfyraiPAitan5gh0qvx8aNWAL+1Jv/Z9v4rIn0WkV/Mi+189Ah4Bj4BHoIgITEhBAQgmlrtEBGNDn+ojMKSy6n4oRXkEcmn1yW7AiPpF9t96BDwCHgGPQFEReDXlCQdXwpmLCpbDcrPljwtfq8k4q9/ZxVnFYf39oz0CHgGPgEcgZQSeyGDS+aLiOrhYyvXM8+swlvwuAznEVSbgFtg4z0D6snkEPAIeAY9ACwQefNd0f/Irs9NqG20K2U/ciUDjfoiFvBIgsqSI/DMjGSSRI3YBm7RoXv5nj4BHwCPgEcgbAsaYjk98Y7Z98ptfP37y61/NuXc9kmQS0MrzjYjMlTeMUizP3AVZ+dfKm52AVVPEyb/KI+AR8Ah4BGwQeOY7M9uT3/z6BBN/+G/xFVerHeDT/B+/88E29Spo3kEi8l6BVv61bQKbABQYnzwCHgGPgEcgzwg89ZUZ8+TXv/4zPPEH17e//pEZOuPw2gE+zf8fFBHc39olwex3f4En/6BtYEDqXQTbpdX6enoEPALFQ+CJb8y4YLJv9HnrX/9u5l10yWBgz+LzkOIhm7jEe5dg8g/ayMWJUfAZPQIeAY+AR8AdAk9+9cvxjSb92u8nfPmzOfria81iK6xqevbuEwzwaX1yrowrXNnTLCLyQ4kUANrHimUXmq+fR8Aj4BEoFAJPfWUOqJ3k4/z/xFe/mAc//M5M+OI/5vbXPjTn3f2o2f3ok8yiy69iOnfp4kIxeFJEys4WeKf25N+jWyez3vLDzBn7L2yeuGxl8+mD65sfntnI/Of5MeaLh0eaZ69a1Vx0+GJm0zVmNP36dnUhtzdEpFuhOocvrEfAI+ARKCsCT31t1nny619/jTPhx7n37jc/Ndvuf6jp228q7QlldFllUrWcV8Nrqim6muP3XMB88/gGxry4caQ/FIPLj17CzDXzlGrlqCo0e5ZYbr5qHgGPgEcgdwiw6lqpwht/oIgcKyKcLS9z3/vfzPTk179+FWdCT3rvPW9/btbZYjvToUMHrQnlbRHpnDukdQqkQrvcqWMHs88Wc5qvHh0VadKvpxz8PHHMpB2D3j07a8ntH5U22F0HJv8Uj4BHwCPgEWiEANvk24nIR/W2k/sPHPzvoy665neufkkn+Kj5TrjqFtOrT1+tyaSMuwBE1rPGZ4reXcxdZy2XeOKvVQZevG51M/2QXtblqtZtp0YN1n/vEfAIeAQ8AvYI4C53VZTJZKMddzec40edxG3vu2LCS6b/wMEak8kz9jDl7glXR5FZs3tmmKaXefWmNdQm/0AZwGZg0XkGaMjtldyh7gvkEfAIeARKhMDJzSaJ2t92PfxPqSkAKBBXPvGyll1AmTwCBtha/g/q3928edta6pN/oAR8/vBIM+PQ3hpKwIIl6mu+Kh4Bj4BHIDcILCAiv9RO8s3+79Ktm7nt1Q9SVQJOu/Ee07FTJ9vJ5PjcoG5fkG2ayajVb5z533/+8s4m/0AJeOn61Y2CTQAKqk8eAY+AR8AjoIzAea0mi3q/b7n3QakqAOwEbLLbPrYKAK5lZUk31pNL1O92GDWL88k/UAJO228hL7eytDpfD4+AR6BUCHwQddII3zfXQoumrgA8/PH/mUFDh9lOJoeLyLgS/CWO9seK/OP710tNAfjx2dFm+DDro4Bhpep1vjIeAY+ARyBjBAaGJ/U41wMGDUldAWAX4IBTz7NVANo+//jt5k5t8g92Aa46zpoSerOM+4p/vUfAI+ARKBUCq8SZ9MP3ZqUAsAvggCiobZQCzv4/ui+91X+gAMAgiNFhuA3FvD6hVD3PV8Yj4BHwCGSMwAExB+HfBvD5Flsqkx0AdgEgCUpa7nbPt8xCA1Nf/QdKAHYHFvjflnFf8a/3CHgEPAKlQuDPSQfkUdvtmpkCcOxlN9hMJG2d97Cd5slMAbj2+KVssP9bqXqer4xHwCPgEcgYgWuTKgDjz7ooMwXgllfet5lI2jrvzacsk5kC8Mata9pg/03GfcW/3iPgEfAIlAqBu5MqAKff9JfMFACYCLt172EzmbRtXmh6gy35tD9/em606dAhMXXxz20Q1bFUg4uvjEfAI5BvBBIHkrnogaczUwCwA8AIMany0s753r1rncwUABSOXj2sAgX1ynd38qXzCHgEPALFQeCJpJPh+fc8lq0CMHgarwAkCARUcAWgR3G6li+pR8Aj4BHINwJYVieaSInUx0o8q78ePdWizSWqf1Lcss5X4COA7/PdlXzpPAIeAY9AsRC4MOmEtMthx2U2+d/++kdtNWknlVG9fAU2AiRMtU8eAY+AR8AjoITAn+pNElG+W3bN9TJTAE6+7g6vACTcuTl0x8K6AfqwwEqd3j/GI+AR8AiAwI5RJvt69/SZYkrz2Gc/ZqIEjNllL68AJFQAll4wOyKg7UdaEQHd5busR8Aj4BHwCOghQCjgxJPpsZden7oCgAvgkOlmSFxmm/qWIW/Hjh3MB39ZN3VPAAUqYII4+eQR8Ah4BDwCSgh0EZH/Szqxzb/EMqkrAJ4FMLnCFsg5CzbA606wYgFE4Vtbqc37x3gEPAIeAY9AFYFHgokhyecp19+VmhLw+Oc/melnmd129X+2iBxbgr/vksiLPP2n7Ga+nbBBarsAv0wcY+adrZ+t3Ib6HusR8Ah4BDwCOgh0FJFNReSTpBMJ+ZiQidCXhjvgvieeaTuJfCwi1LsM6WobuY3dePbUFIBzxi9iK7dfReRgEelZBsH5OngEPAIegSwRWFpEnrGZQMJ5R227i3MF4IoJL5mevfvYTiS4PZYlbRiWQdxrbAFuOdV9XICXrl/d9O5pxf4XlvkHIrJZiZS4srRFXw+PgEegAAhMJyKXVlZTrKjCA6v19T4nnOFMCfjLO1+YaWea2bqMIrJCAWQUtYi9RQRynMS4MDEzQbuKCfDFwyPN8GG9E5evSd2eE5FlogLl7/MIeAQ8Au2MQD8ROVFEfmwyqFoN1J06dzaHnHOJuhJw198+MXMttKhV2ap1fr+EK8fE0RyDdjD9kF7m1ZvWUFcCPn1wfbPoPAM05NbsGTeIyMzt3LF93T0CHgGPQCMEsPLfVUS+CAZ8l58dO3Y0O4w/0kz48mcVReCyRyeawcOmbzYBxPltv0YgFfj7hTXkOUXvLubOM5dTUwJeuHY1g2KhUbYIz0CpPUlEUHJ98gh4BDwCHgERWVNEXo8wgKoP1Isst6K54fk3EysBj3z8b7PzoceaHr3Uto+JJT9FSVvF/Roy7tSxg9l/6xHm/57aMLEi8PPEMea0/RayjfiXtD2i5O4mIii9PnkEPAIegbZEYD4RUZkUbCaWLt26mQ13GGtumPhWZEWAiX/8mReawdNOl3QSaJTv0BK3hLVs5FSbd+jAnuaUfRc03zwe3U3w+6c3MpcetbiZY6YpGuGf5vcovWDik0fAI+ARaBsEhojIn0Xkl9pBPcv/ORaYd9Elzc6HHGNOv/lec/trH05yG5zwxX/M3W99Zi5+8Blz0BkXmFU22MRAL+ygrASRKWsceer1mAPMTPduncw6fxxmTt9vIfP4JSuZTx5Y3/z47GgDo9/nD480z161qrnwsEXNJqvPaKbs09WF3GyfiRKMMuyTR8Aj4BEoLQL4Ro8XkX+6mAhK8MwJFdKf7iWUPnW6rwTysZ3om+VHGb5ARKYpofx9lTwCHoE2RqCDiIwSkXf9JNDSFe5uEelWorbCOfetXu4t5R4oB9Bdw/7Yp0RtwFfFI+ARaFME/iAij/sJIPIEwERwZ0mUgE4icpWXfSzZB4rAhyKynYiAoU8eAY+AR6BQCDgj8mmTCQW/8c6FkvjvC8uuz3ltIqtg0nbx6YmEft+u/H8eAY9AjhGYsrqFacX85ieOSavG6wqsBJzgZZho5d9IibjNEwnleNTzRfMItDkCqRL51Ewu74nI7i5og2ve02hwdvk9dMhFCwp0TA5wcykTjPWeyKCOEAnBkumJhNp8sPXV9wjkCQF461/OYED8VwUE/OZ7iAihc10O+lk++6ICKQEHlVgOQRt4sbozA4HV2xnU98tKbIVxJbETydM45sviEfAIxEBgDhG5I4MBEJcpVsaDq2WFZjZXnAIOMIE3gXP1PCeonINJsuyfY6uC6CoiXMPgmHad36h61+S5TfiyeQQ8AiVDYEBlG/JUEfk5g0HvXhGZJ4QnVtLPZ1COtAd73ndajpWAzUt6BNNIzt9VyKymDbXD/tU+8Z8M2uIDIjJ/qCz+0iPgEfAIqCMAkQ9bvFkQ+fxVRFatU6M9MhhwG00KaXyPcV3e0mhlZZAQ0D8VQK7X1xHECBGByyGNthB+hycSqiMM/5VHwCNgjwBbz5uKyN8zGNg+E5EdG1jDD8tIGQkPvK2u/+EAM4zs8pLWdjBZc5Qwl4g84gC7VvKK+/tqDQSxioi8kkH5sYuBbRNl3SePgEfAI2CFQFZEPlg8c8zQLDLejRkMsFEnCDwTOBuG1W9PB+XMQ9AgjD+13T33r2mtvGOiA/yiyrHVfci5UfwGvDc2E5FPMii/JxKqaUj+X4+ARyA6AsMrqzC2OFsNgNq/s/17tYjM2KKoWGBrv1vjeU+JyDZ1Qr0e7KC8B7bAyOXPS4kItLUamAXPOKpBgZlIiZqH/QftI7g/L5+tdmT6ZsiN8YyILN0AV/+1R8Aj4BH4HQIQ+XDOzAo87QH2SRFZ7Helqf8PKy5WXrblY7K+XWEiwwWSbdeZ6xf3t2+PUChzbZ33+e3p6V0sJCLfKteF3Z4oaXoR2bdKL21jcIciwc6Cxnk99gqc/bdKM1SV2yyUGJglW7XPVuX3v3sEPAIlRQAin10qf18oD+y1E1a9/5nMMSSL6uZ2nEIZ/y0i7HKQiFa3ZJVMCJ/7h6uBi74SESYZBni2cV+rTjwMpgdUrldMQMqiUfZaDCFBSivN7aCNJHVxZGXNWft+InJlNdwwdirILfBQ4Ro7DJQ9mBUPq+4mDKoCxhENcq3FNO7/2CtEbb8ouZ5IKK0W69/jEfAINEUgD0Q+TQsY+pGVloaFeJbb59pKACvKnUMYubpkBalt1MgxU9YxD9gi11iVbxUTeE8kFBMwf7tHwCOgh0BeiHyi1ogV1mMKqzUIVLIMuUs9zlCoR3iVygSGt4SrhMeFdjjnW+rYSrgqf6vnQiwVxjPJNQx9U7d6Uc3vnkioBhD/r0fAI+AWgSyJfO4TkXkTVm9bhUGaifKPCd+vmQ0l4CyF+oQnKupGCFntNFBEXlcuK+2Ao5e8JPrE5wp1vDBhhTyRUELgfDaPgEcgGgJw5sMhrm3AFZ6EGl0zgYyKVsy6dzFAagzQF9d9ejZfogScqzDphDGHEGYTxeowMWr7s0+oGJr2Viyj1qNQnsJYJrlGCVvOokCziwiR/5K82yYP7eZaESGMt08eAY9AiRBgomHy1d7CjTLgYFSIP7ztOe8lCoMiW7SsZvOUcHG7TKFuYVlgAIdRpW2CgwE3svCzba+xvM9rNDtk8bhCfVF2bY+YsMsh6JAt3nHz49p5bCXqYB/bxuPzewQ8AtkjkGcin6joaBlp4Z+fx0Q8gyuUB3uUgA0tKguTnDYTH+6S7OTkOcFAqGFkWktolKTOnkgoCWo+j0fAIzBpKw/DJrYk464CbO9nC3MmJRlgJPWqQh0ejeGmpVT0WI9BCYAAyRb7cH4mMgh04iYwv0u5LG9WjjuGxC1IRvf/SaHuuJlq9QF4L2B+1GZdDLeVRtfPisgyGcnBv9Yj4BGIiQBEPmzhZTFYPC0iMMRpJo348vjyJzU81KxLq2fBxYBlfKPBOMn3EDqt0erFod8pw63KZcA3HxKcoiR2P95RwACSIc2EJ0aWSr0nEtKUpn+WR0ARAc7YMWL6VGHgijvRfFB9N1uWmolJQ4NuFoWoKInVt7YR2A8NIinWYsIuxFXK7Yf2iGFb0RKRJ+P2g3r3j3RQ8YVFhB2teu9z+R07ShitYhjqk0fAI5ATBIpE5BMHMmh6bQe093Nqcd4MBwzI7lSoexg7FKlm1ukYip6n/E68NqJQ5DbDIsvfblLA4+MWAa1s6ueJhGzQ83k9AgVHoGhEPnHgxoAtPIElvWaQLGJiG/oBJQwC7FACGp3nnqj8LlxNiRlQ5KQVbvoUhyB4IiGH4PpHewTyiEBRiXyiYgnHO+FMg4kr6Sec/UVOKAEPKeAQxo948bV2GkSzC99je42iUZYIdHspYIOPPd44LlOWREL3i8h8Livnn+0R8AiIFJnIJ478TlcYdJnoimR41ggfLMC13fG+ERHOkUkaRpZhhQGjQwL0lCVhW/O8QnvEmh4bC9fJEwm5Rtg/3yOQMgKcz8LuhjV1eLBN4/qzimEhHPO2RD5RIWPbOIjkZlO/PaK+sAD3uSDkgRTpJOX2hJFYUY9cmjWDRSvhnlnF27RH8hJtM62EEvZXhTLHrfM/q6Gx2b3yySPgEbBEoAxEPlEhwIuAsK1xB53a+1/KUZCZqHVvdR/unawia+ual/+12Adb4ZDV7+coYI9dxNAUK5AHIiFtz6AU4fOv8ghkhwCc3Fn6/GqRmMRBEMpg2wmNlRrx1suYsP1AubHFSDs/ZFMEaipzYhdGIxQyZE9pJ+IueCKhtFH378scARo+Z51snx9Z9WHFzxmiEwhXrqx+d7iIbFzxv15QRDhzzTKx0jteRDhL1R6oWz3vSRFZPKPKszLSCFJEhL0yJ2IZaDAjtmoLcX5Pc2s7S9kyRsTBpdG9K2dUCWxiUECyYAfFIDdrIiFIrvCcWq9C93xAJXTzmRU7IYKDXV+ZJ+6oBkO6oBLHAaNYOFWWFxHGY58KhACrvyOqQT1ggGvUCRt9Tx4CgqAx8yzO39NINE4GUo2Id43q1uj796rBY9Kqaz08r0sgq9r64HPdDh0WSt03FPCqxS/J//vVE2aJvyOMcRKcwnnekv8a9GYFE+PaEwr1CNcpyjWLGtxN0wwGNYuI7F6d4LFPiFLO8D0oSyjcLCxWEhHcLn3KGQLTVA1P/pZAwGFh17tmoGWQc8ljDlXraw7KXq8+4e++q+w0ELQE74Iskxbr2pgsK5Hyu6et7GwxkYTlmfY1u2rtlmatjAcwK9pinTV2KPsbiQjKv21d4uYnQuiuDu102MXd0hFb4tciclpl14CgUT5ljMD0FW3yVBEh8EbcRhj3frRXaDAZeLVSmYl8omKE8vG2gvweTHG3JmrdXN8HUY0GZ33cvsD9DILtmtgdTIJZOA/jCf0/61QmIiEmfuyI2AkMY+3q+t4KY+ciWQuwHd+PoI9TCtsZt3EQZAdueZtV8+CKNfD5Su5ucct/T86016MVOisyYauvHdOMGbiH0nazPC7KWs7dRURjtzFPSuug6gJHwwU37pjEsYpNsC7aIkaouCzHfbfG/Rxfooz7lAICq1W2d+B31xCczTPYfoWDP05CaThQRJKcRdmUlbz4BLPVnqc0p5Kx4yF5qlQGZcG46qOU+gSGs2kQ2mQAY6xX0vdt+yT5N4/1Vvc3s7XNIkGjbnGegffOnxMctc7mgC0zTrmDexnT2X0ok2KMrQbeL7lIGMlhHZ+FBWsg5NpPyoLFaKsBkUbRLkQ+URsLmDysMNBgo0HwnHZPDISutz5vdnhuW0T5XaHQflm1TpXDyrNYyDuREF4ZGtFCa8d1m//xJpg6h/KMWiRowvHYwD4swAHSMFzSbXZpor6/7n3wXD8WKlBQsLx8chZEGeulJUXk6QzKjqESxyS50eBqwMFIx1Z+KGC46vj0XwSIvOdqG5RVoVe0ft/S2DbHKMy2HXOkkscE+ycsoK7aVDPcCDG+aYMVNeXC9qtZ/ix/w7CyaEaC9G1cIJvhxi7NUSKSKrkThDh583uuBxLacthTACIdDde2eu9q9h2T4jUiwtlwXhPKkoa742V5rWCG5UIhatY+kvyGMpkmg12G8MV+NRNkEkzDeeizS8R+c3oZWESwmMDWJlzuNK6fqQlehdGiRphm12Un3sYf0xOR1ZuY0Nndi4oJuwGpKAFZGDhFBaHefW+KyDzVowoNV6F672j2XZZEPnFaYCtNs1kdg9++EhFWYD79DwE4EDQC1wQYhz+haM7rbtL/EEj/ioGQfhfGKsn1ywU4XmE8ZnGBwpKkjjZ5IOthVX1nBu9OWm6OJ4qgBBA3JW4dL3StBMB4pmFpG7diRbwfo8jRDbbL0h8Sm7+RMyaNAWT75q9pu19hvZyQoCPHae8QZPVpO2RbV5hQuElIx2qx37f1q3JxB2yhGkpPbf3L+D9RSfNMTY5HC7wMSbA/z9Wcg7U8Wz9JCtVOefJC5BN1VMKQ8xUFuTLRpbIFFbViGd9HfyEmexptn9DEWdNlZwx33dfDcGeLf5FCWGPEy6IjCyIhW5zTzv+JiMBZk8e0umW7hU5Z3fMBo5i0hVSk9+GrCylR0bbAYVS0xZmVVmbWqDnswZyJ3q6Aaxy5oGzY8GDkEEbrIrEDoxGu+zbrkqT7AFaQsImGrcbjtKV2ufeFCn8MWOUtERPBVganaFZKK+CGbaXymh9r7Lk1AU/pWZwfarjsnJBSeYvwGtxPszA0pW/QDvM4oGUpt3UVBlOw5TlFS1kSCeV1rK4tl+pEqdRAMO6sLWeS/3HRt05abjVJKpD3PHkk8okjcPxjbTHG1oGVlk//PQIhkpktpjb5kakPjvL71kikURtMyYsLXFFtLbIiErLFPI382D7lzShwH4X2GmAHq6tVwq0reJja54Cevcy6c4wwh/9xRXP5+huam0dvNunvsvU2NIctt6JZZ44Rpn/PnmrvU64DPri4GuH7WtS0vhImaxcVAOVyc+bG2Vse2qwnB/q9cDnr5SzfVjYn/f6xhfsvKyKhlrh37t7VTLfYCLPQtmuaFY/ezqx+2liz9rl7m1VP2tksufdGZo51ljJ9hw5o+ZyEMmYhhy1UXhIGnZp1JU5GogRhjoZ1+G+VWWv2Oc09m25l/nPI0eaXQ49p+vfTwUeZuzbZcpKi0LFDh9+eoQxOnOfmncgnqpBZyXyogOMtUV/YBvdpbdvFaY/N7sVFq8gKqnaTwZq/GV5RfsPWBe+CIqcsiYQmw3jqOaY3K/9pR7PzxAvM2Ncua/k35qYjzbwbr2hQGBTkGX4G4YnzkjhGfF25ftDdx05/0SrE4sOmN49stUPTCb+ZQvDCjmPNMjPMGBZYmtcoQXkn8okjXM69bPFjRQUhlE8i4xXwtJVHvfxXRaDEbhf5scJ7SUFOuNqVwdslIBLKghtl0mqeiX+3v17actKvpxhs+9iZZsT6yxjRWxjiFdAzR51hLe3FdyVCbyyXVkIq1htUYn3Hyv2o5Vc2P0dY8TdTAPiNZ3A80EFS3Q0oCpFP1La7gFLEw72jvrDk9yUh7IjVhyz7YWoMYQWQM8x+GjuaHP+VJaVOJDTLKotEXvHXm/zD36151p6ma6/uWv2JwEF5SkdY9v16uDBeRUqsHuo9IPJ3vbt2NTdutGniVX8jheD6DTcxvbqqbwHV1qtIRD6RBFpduWjEQHjRby9Pgnw7pQklaHu4kp4jIvB7B99pfMLyWIZVa9R23uw+DXdmYg0QPrxMyT2RUIcOZtFd1jNjX0226g9P/OHrTW49xkwxbKBGP4E1Vt1/3qKRUJbTlMcCFOBdWpWpb2W74N82L+7eubN5cMvt1Cf/QCm4e9OtTOeOHTWEXvsMtrYxmiijTzWCr61v3P+ZnBgs2j2NVNpJCfCnYxI/nbSFAyWAsK55GtyqVU39gyh/nyr0A6IOli3RPkaJyDsK+ATt+rfPpfYdnWi7PzzZN7re6v6TTc/+fX97l0X5l82ZUJGJtnExY81OzerJQGQF5iXrbuBs8g+UgBNWXt2qjDV1LCqRTzM5hn8jKBLBMGwxg+yo3RM+4Ro0s2FZ7FwD6g7Kuwu8i9WEVwJENlPoB+C5Yo3MyvIvix9VIqG5NljO2eQfKAWjLh9vOnXpHO5TSa7ZLctbos+iwCepT6M8LOS2alRRq+AOG809r/PJP1AC1p59zkYVjPN9UYl8Gsmv3vfWRzrVlVMe46TXq6+r71YWEW3DqXENCrurcqenT0CP2+6JAfVBBWyJi1Jm4iUVIqF+MwxWO/MPJvtGn0uNGxNn3K93L8aAeTwuo0zaHCMoAWNqBwOsZf+ZtHP07dbNfLT3AakpAK/vupfp0qlTPUFG/Y4tf9wuypxWSirPmnzEAm/ntLQSc2K4bWLo0yztVSODcN6k18c0e2Gb/DZ7ZZX7owK2h7UBXvfZ4LTun/d1vvoPFIJdXrrITDGdtT0A8RQWzOEfhvkaNlzhcYNw0jz3t2RFQrDvksukNvkHuwA7LrxouEJJrkf8VvvyXbBCwbglCS7hPHDNt/P2MZ3kWwUcw5ieHLG5acRrCL+X63aYuFrBq2FlzW7QrK1eVODf6fOE+a5tP5GDLfR3AAAgAElEQVT+n2aBWVOb/AMlYNUTd45UtqR1KmE+WC4JWz4p4QqRCEBc/t7bY7/UFYC3d9/X1jVw86DyJfw8PKk8Q/kY5GYrITZRqzSPiHwZwiNR/6jJHzds58E1+TXKcFBUAEp6H2fdbyngygq5rMrxzDb4wOQXTMypfb56qUvWQI1+l8dn/LYgOCupwJeZYabUJ/9gF2DJ6WawAfX0kg5wbHNqnFejRLRrQvHhXNCmfdXmxYI8yTnjkcrloFyxyEFK2Aiw6aiVT5L/NykhNlSJ7fAkeJguPbubXV64MH0F4LXLzMLbrZmozEnrWoJ87G5O2gVIfN5z5PIrZaYAQBBkIYS7S9h5WZE8YIFJgCfHB2U2dGom+hmUwskGWPJ5kyWHwp8UZBouD9d5okFtJg9Xv12tgClKYj9XBczwuYl3nmZYet5MJn92Gta/eP/aNu7/b63IbUQ7eyNpZ/jLZltnpgAQMyBpuauGFRn2MSevxmDPBpMgLwaE7ZimUdoeDnDkE0WzmwKY2A6En2t7jV9wrRuiQjEL8wgtF1lInMqWEre1P+y8bmYKwE7Pna9JE2zbv4qSH9ZQ+UfSweWd3cdlpgC8OXYfG5A5ByxT0iI7wXWwHdPUIvJq0n7QIN/Dilzj7O6c0eA9SftBmIioHWWuRZK1WMnAuyRpO4PrP7Vz/zqBhHoP6pe0L7Rrvhdou4ldAL/Z/9DMFIAv9zvERmhYuZYpYWBmgwd5ORNiFdxuiSApzyrgF8Z/YnC+pggmSkBie50G9UMJgN64HRM2GU80wCUsy1bXBBzKU2hZW1nenhQTwvlmqQAMmHVYK1n5338/T3CMldxo7P8OOiIzBeBfBx5uI0wGvltFZE8RWajgvAC4cULwYIMHeZtSRdqOKjnN31tEJihgF8aeuAmuyJOYtC5SLi+MmBvnVD6ui6UVKAvuhiKnWURkaxFhSzix6+t6F+2XqQIwaK7MoseG+3+RruHESe7u9Nm+4zNTAD7Z5yBNoL8TkTtEBIY2tvSKElddK+TpUwmt1Is86OESpmE0GW6HxPSGTc1lgsTqcgdKwAYuC53jZ5+qgCW7qEUKlT1HxdMF6ukrK/EoPlKo/6Q+sOYZu2eqAPSbcUi4L/rr1ovCt+mX7yVtAM/vsFtmCsAz2+/qUsBoRn+pBH/Bb3pJJUMuF2PgPkllF8rHCnB+F4XL8TO7VnZ+Em91hrALt8F3RWRYSnVGCbimQTnCZYpz/ZOIrJdS+fP0GgKhfaiA5c15qlSoLBwdzV2NCHddld47TruIfO+y4zfPTgF49dJJbogKcoxc3xK8Czsl4bwyUaWvWH+jzBSAS9fbIFGZE9aVSImsFg8REaJH5SFy4PQigqJii0NUdrrQmOL0ksmNLUm8EYiSt3d1Z4bdGeKy47qyiohA1pNkp4bnMxDa4hbOzypquFNUJn84uz83KNcDqtw1J39V5G/A4I8isn5lUt2mQqOMgorc+OP/NapyQwHLUyLSY1ieSa/XykGlaN8o9Lh64oL6hVLdWmIyz+gVMlMAtrzv5JblSwuHAr1nEhlQ4sFwu4X+kJkCsPUCC2cpcMh2HqnYDkAtSoSwXhl0/FsUGhqUkH0yKHv4lQxYy1d2WeCr5zz+/2LUC8UMQy4s5Alr2jP84DrXLgJsfFZZjbOlmkViIsWWRbMv0LZXjVAZ5LZCxQDuqMqxGcG14tDHElnx5WrYUybfVnKLUBzrWzgCtMXx/QzGApRgaKtRlG9TigCaCIf+s0ybmQKw0jHbJSqzgsyL/N4/0GsSs40N7dvX/HTwUakrAbxzcO8+eQKe7VMmr2Org6frSXUdpYbLSi2rxAr+eM0zyKpHC+ea4FO7O8BWqHac7a9zcHwCz8BdSu0h6FMEDGFyr5cWrRDgcG7+seI7scHBuJHdgySMifXKGfe7GWMqnwFWtZ+0aZeJnR8Mfwnfi9zBrrYM2fzfoYPZ/J4TMlECZl5xoWzqnBfs45cDuy/GxEnhARODd+cmW6auANwyerPE5U2ps3CuThSnE6pbqr8FXlAYGbBc/7tCPTgDzyIxsTypUP5WbeCdinKxrYgE283HKb8Tw6+8+IDD3Hivcv3YieG4K0gcuzBotMLd9ndsKYhbzg5D2olJ1bb87G6g3GolZEtUyvEVeyRYW+PskNnWJXb+RXZYO3UFYNvHzjCdunaOXVYFWRf5nVBiT0oYLiWuSNrxAP5zyNFm3sGFs/bETQ9bi1NEZN3KlvWAAPwEnygVieVVzcsgAu1tmontJiIM2pY9bn62ZeHij5uv2f0cPSyXJngR3sU2ukbM+3C9UXJgDNR2lQy/o9H1ayLC8cCkVUqE+mvcgrL4V4W2Al5JdzKQIzshnM8+VLGfYDemEUa5+777FL3Njs+en6oSgO2BJUaw4cIFksc/NS+NEEYX13aWv4V+jA3mzaM3S20X4OJ1R8Uun03dHOWFh4Az0ODsOqrr2LwiwgrDFgOMstJK2EdAVESdbcudh/wYyq2eFngx38Pu0KMlwTmQNUpNWt4VwM1qW6OtRiVYQmasxrCleKyytU/7CupeyM8Ft149NQVgs7uONx07d7LBicVZ1PE3Zne0vp2w9Z8qtweUnMlivVidjU7bdwrzj70PdK4EfLjXAWaaPn1thJ3nvFDRwi0+pgEjHysKDeayV1JkLoNkCd/4POMep2wc7bAqzXPC/kSjncTBxfW9GBimyVNwoUKbpcwD6zQUmCdRIAnyxFGYhkLvGv9Yz2dCHnX5eOdKwK6vXGyGLTpnrLLVkSsyyGMisqumnQ04satWV9nBqMQKyMWHTW/+7ZAZENbBRaedzqqMtnVMOT9R+S4Qkc0qBlK4/EHcYVt/VjbwGqSRxooIxpG2Zc5LflYKm6cBnMI7mGSeKRH2QRv4c0rKK0d0nyvgB7MerJBri8hJFXug5yrcIiiRQX1K+9mzf1+z1f0nO1UC5t3YKiJsgH0ew2PjBq299c8uf0Oqd87ZmHACUBJ9jplnPvOjA68AnrnR3PMmKpNtnXKUnwnIFgMG0DQS25m2Zc1TfhSnolElM/Ek5vjIsfwwXk2DhwNDRNs2SLvR6Le25cgk/4DZpzPbP3G2EyVgmQM21agTuy9EhsxTmknJyDuMD8Hvpm1Vyf0UGrxZfqaZzRfjDlY7Dvh83Hiz3IzDw5Xx18kGJlY0/Vs1AsvfOaawOk7SaIMOngGhTRETK1mC1ZStz2AcB4Ofy8SiCK6PsmGXan2mGDbQbHLbsWpKANv+8222slYdIErKU2KnNzEzb4O2ildNJJpqOhR+zdbgztp/gHl6u12slYAntt3JDJ+qv3V5NOpUgmfAquc6YcNQNnlNYstyDZzD53MOrWHZnje5cnbreicAI6zCG+Vl3Se79u5hVj1pZ2slYOuHTjPTLT6XZjuE0yIvCdsd7LM064e7OPwWkdPhWgXo1LGj2WbBhc1bY/eNrQi8OXYfs+X8C5mOHTpogtHOzyLus2u/6t202k6OnnNi5J6T7xvZ5sTVqWx9ANIn126CZVRqM2kH0y02wmxw1SGxFYEdnj7XLLrretpc//Bm5Cmdptw/iW8xc9wKQlhDjGC1BtK5Y0ez6iyzmQvXGWne3WNcQ2Xgnd3HmT+vvb5ZeeZZDcqDZhn8sybJE6tk6INdhECG3Kds1swM/K4nl7j90+b+oSLCWWDZ+hZHl5oJAyziFmDAp0G4VTa8reszcMSMZqlxY8zGtxxtxr56aV2FYPsnzzZrnD7WzL7WEtoTP+XHEJNQ0HlJHM1CwW2NbfUZeA/MlrRymygWZLIK9evRw8w3eMgkWwHsBbjmO5fvjPhstl9yzbIVsR5RsSTuN/znWMGyFVZLnRu1/XC+9KVy2aLWwdV9l1kQuUTFLYv7kBVngq5wy+K5GNkROCppmtNFaNwCYIzCjpFopkaKnbt3NcQQmHaROQw7BIPnGW56Deznuh2h3OcpjVZsL/AG0KYTJ1Y9WTC2uRZ6q+dDzMNWaT55tt0P2rC+EdTlwKqrYECh26ohEQa1FbZF+h3DoKTKUCus8vA7Z4JlW9lC+xwloBBGqoTG3bUaEVKbZCXP7RyX3MerQbcI9sRur3ZI6TzXPygbAdDwkMlTIspsUD6bTwy9ad/Wie1CopzZFKaIefGdDlsX5ybSVgayiBICmfCnTuQ8Zf8BZuFlVzDrbbmD2XT3cZP+NtxhrFlm9XXM0BlmcvLOal1Y/Zc9aXDe15XBoP7dzUqLDTE7bTirGbfVnJP+dhszm1lzmaFm+iG96uZRakNEk6xN2L2w1UtoXBTV1ELjKtXJBq9wxFKO6MIRS1nkaZAd2ZQvi7zsdkCznLdE27XFg13Y+TQrBj1lpttDCqAkARXXn0arCT+giGAoyoCCdbmqy8oUU/U3G++6t7nkoWfNhC9/Nk9+/WvDv5tffs/sfvRJZvgcqlbBtBd8t/MS5EezPwfPYvWjemTDpH/ANnOZF69b3fz6wsbGvNj47+071jbH7T6/mW0GdUZPVrhQZeciNG4GY1cUhT1oA0RzTDI2Fj0PK+08JuJt2GCL996CLiq2h2XBbCqVZd67K1tlhFltldp5S1FNPt269zCb7b6fue/9rxtO+I2UgSe++sX86YqbzLDhs6iVpxqEpZXsi/o7FLQqWPXu2dkcuuM85p9PbNh00q+nEPwycYy5+k9Lut4VUKmnFl7Kz/lX5bjyLwmO7BKHf1cuf9qyuTrHRr3Q/ibFA1suAq05S8S4T1q4Iue7MeFZMAYYO1asMK8SkX+0KXaR5T5ioT+YW155P/bEX6sQPPrJ92b9rXeK/N4IckmLMtlZx63z4H5a8eOXXWiQ+eSB9WNP/LXKwP89taHZbE2nRzqabSLLZwVGuwTyYocqiZ0KebOsQ1bvxuXPNWdEne4W66skkTyx28JmzWnivOjkNm04Gtbgs1bdinhW2YyvrDr0yqM2No98/G/ryT+sDOx74pmmc5cuVuWqtvW8sYRpdHIVts/tR85ifnputPXkH1YG/rTH/KZTR8/7ERpncdu9VdFtFyprjX5RtGdg0N7oSFejT2k9g+OrOF5o7AARuTK1hPbI+WheGwD2ChC3aBsvnq28dYQVNqx8F1UC/WC9nFc8nZYLgz6278OTt9b1cZffaDrac0ngJjU4td7l/kUo8lZhv2mrB28/t+rEH1YCLjlyMadtLud9DQtudh0JooUxF8eLWomAYpr2XPjRH6e1m+RQLng5TBb6VgtUB88haBSr+lb9AK6eVCf/oK4bighbUa0KmPbvgLZOtZDza1Eah+rJuamrRKxzZ1bZoTqkLZOG71t2zfWcTf6BErHD+CMbvj8GJnu5EnoGz10iRr3rYrfF2jM5m/wDRWDfLa3Du9Ytu23dHea/XETmUl5khJvX+soRCFEkgqiYlPtth9gklSULVQKSofQWLbFjfGcDTMGeneRMFyYwZeUpyhic4LWsR5yRRdGk4jSw8Q5bEpp/nLIU9t6B00xr7n3vKycr/2Dy55PdBRQNS1zxCClLsjL+m3X6vobz+mCidvWJceAKiw62lVuR8kPM5GqLGn9/7VgGWKyHE3YlUDLnBXNWxzbEUOG6ZXmNPz8LQ3aKieIKgyuRAnORIIk5IOaZhXYD4bwE0ppGxjDLi8j3yg0Tf2LttKZyGbVxVn3e+DMvdD75B4rATS++Y7p062ZTfo4B8kYakrT9WQUaufHkpZ1P/oFS8cqNa7SbPUA9DoOkcg7yLVNh+cQ10Kb91+ZtRru8QcZGz6z64TYgAqZPKSEwg4jgXqF5vlTb6Gr/513wdLeMbywiTK74B9c+I+n/NDJ4wrUS5ByqvvSKdU2KUcN8w+ec20z44j+pKQAoAqN33rNhefKMVZ7Ktvh8U6c2+QdKwNbrtlUIcMYoIg9qJbgQvlNuQ2ypt0q9K0HHjshgYfioiHDE5VNGCLAFf7FyQIPagZvV/HkV+so5YtZxI+UzMAxgeKZGwpCmtp5x/0fLJ34DW7wch+Q2KM9RF16d6uSPAnD3m5+aLl27xsXU3x9ql3ef/cfUFYD37l7HdMy3V8CrlbNYOOXHiMhrCv2YSUzjzJqtY1Wip8ouGJHq4qRBlboQRlvbIDvcL1kIQl0OKZlPOUGA7VJ84OGc1tgV4BkPVRoSLiw2Wzus2jU9GNDY2V2wSRjQaOxOcBQTTmjhsDiisT/m4Aww3AkjX/eZYkqDr36wPZ/m59KrrR25nAoDeaneNc3UPczPE8ekrgCwEwDXQE7kwdhBrJDTRWSUiDDBhdOySuPLVuGHJrjGPotIcJq4sa2eVDHBAp+jgRsUj2M5yoLMaHgCfHyWFBFAGVivMnGfUeFfxpgqijZIcA4mrVOqeadWLC/n95odgx0J7AySJDoU9bQtz19FpFXQHgyM4L9GI0eZ0raLiFQHDPLSnPTD79rv5HMilVFBHqV7z5ZrD89k8kcBgBsgI5mw8MDQmXFo3YiLj0sUykqsgqQLHSI9vq9QhjDmuNFBf66ROO5cseLeCJX4fVVOlFaLMuy8XhSRC6pHr37S15BEhs/AYhQ3B3iLmTzZvuEaKsQpUigXlvzhBm57DRlDEiYmdiRs303nwdAnbkIrx4f04GpHjEM+kbjMux1xfGYKwJVPvJy43ApyKvS7zz/kD5kpAI9fslJa2HFs9rSInFDd2SNSXtzEYkVj6x2r77gJtzBrjoeatn57ZRexS9yCxLyfsYhdC+aA5arzAeMprty1uywxH+1v9wjUR8DKHaqmkzBAEYiBBhs1ZTlQ1CsjnRwDGlxOiIGg7T45aRA/8ZrbMlMAHv30B9OxU6e0JpNSvefRi1fKTAH48pFRrrDk6G1CKDRun3odI8F3Wop9HJKX/tXjCU2sHigAdW4C8fgsHoH/nmedVWcit+lAsHgRAyBK0tgqZKWheTwSLjdbfmjkMJJdq7SqMRfe/1RmCgDHAUQaVJZ5WzzvjVvXzEwB4BigS+eOGjizwn+2wgpHXBNsd1ztNmod7b0eMRgZocvZudDAKHgGhsRaClF4XPHXHoHcIADNJq6EQaPX+PwwAlGDlrHQ1ikiGYRAJjIk/OSJsLpiwkuZKgCDhg5LVO6k9S1Lvr/fs26mCkDfXlZxHTCEpc+lGQgGK3wXxr21XR7bnoeV29kLIsIxrU8egdIjwMSGkYvmxIARDsY49RLGergO2b5Py12oXhlbfZd4teF3AKzlbttuEuUv8A4ANjKNSMJatXPb3zWOGXHvbcT8xlhyh8JYEm4T2BBkSjFrC7rP7xGIi0C36rl3uCPYXjPJ19ueh7XQ9tmsLHAfzCoRfzxRHY6/8ubMdgBwP/Q2AMnk9shFK2a2A/D5wyMTtbVqG8WWJaukRfAFJ3xtQqnBrc4Gm9q80BFHIVarLYv/3yNQeATYSsNNsbZT2Pz/fMWFKGxJjPuKBi0nZ5hZpuuT4rTTIUdnpgB4L4DkbTtLLwCUj6TtreI2xpFclkmL4hvegSC5OLr8yPvUB/D6z3ZFwIUxzRMVtyJIeUi41NgMZuTleIGVRZYJv+hE9Vh8xdUyUwDGnXR2ojInrWuZ8mXJA3DkLvPayI3+l3W6SaEtQOwTGC2epPC8MKYYL2tSEGeNt3+/RyAxAi7caSC8IBZ3uNMlvV49cc30MiZ2c+reo6d54INvM1ECllp1raSYt32+IQOyYwJcdJ4BNvgTQS3rRKhvDbfaUyuGjBq04WE8vxGRBbIGyL/fI5AnBIaIyJtKE3bQ2VqxXQX3NfvkzC8PaVEbbPY/5dzUFQAfC8Be+bzrrOVStwN47eY1m/WHKL/htZKHRBjXKOVtdo/GGBJ+PgRmPnhOHlqHL0PuEJi+SlMZ7jBZXhPVKy8GOhxpJHZxGjxsevPIx/9OVQkYvdMeWcquFO9ebN4B5tcXNk5VCeDowXLiTMKS6WIwwmgPWmHb+mjl/6FKyeuirv6ZHoFSIDBzxrGtw52dGAZ5SsQTCJcv1vUuhx2XmgJw04vvmC7dusUqX03diPzI0VAZEkFUEmNxw0lLp6YAvHzD6rYEQGy74+GTl7SwUnC0xPKryp72HDYqzAs+vhwegdwhMI8WC57FwIs3QVa+zI0EMs6iPoaogDe+8LZzJeCJr34xy66xru2ACedCWZLVGfLM0/Ux307YwLkS8MMzG5lF5rJmbbw5h0I726bfKOQlwBGhi33yCHgEIiKwiIiwBW87kSTJT4fl/XlLWA0nqc9veYbPMZdzg8AdDjrit/dZlHevvIFvUR6CrFhhssbSQ80vjkMDK2z9U0eMVfOWcAv+xFYGCfNjQ7Bd3gDx5fEIFAEBzhI1fPjjDr5n5hgcXKzi1ud39y+5yprmsc9+dLITcOxlN5iOHa055OGPLxMzGjz1b9jKbZ8t5nS2C3D8ngv8ro0kLCvb/7j15jFtnLBOtrhgiOiTR8AjkBCBVSvR8n5MsfPi+xsmEkpYbGfZttDAYsGlljP3vP25qhKwzwlnmE6dO9sOmOS/xRl62T14Pw25bbv+zObHZ0erKQI/Txxj9t58Dg2Z8YzzsoM30pvv1ZBBjGccEqlU/iaPgEegKQIjRQQjGq2BqtlzRjctSfY/zigiKq5J0840s7ni8RetlQC8C9bbcodmmMb9bcnsYVYvAUqlypHWMgsNNJ88sL61EkDIX44WFPsVq+w8p1lFBEt8zTo3etYJeQbCl80jUDQENtea+JoMAPDt5zlh0fxBk/I3Gowaft+5Sxez6dh9E+0GYOzHlv/QGa3dxsLlgxq6rMnKGDAs9yn7dDWn7Lug+f7pjWIrAj89N9qcd/AfzNT9rLw0wjILrr8XkU1zLrxDwzg6uj5X/hv6POdQ+OJ5BIqFwM6OOiwDGIPXLDmGA1ZDyhgMtqqfPXv3mbSKP/euR8zjn//UdFfg5pfeNWOPPMHMNPsI1TJUFbzFciwD26IR7vULTRkOHtDD7L/1CPPCtau15At49aY1zKE7zmOmH9JLW261zzsxhx40gey6a9hjNJHh5SJC3ACfPAIeAQcIqJyl1unABzsoq8YjcUU8uU55awddtf979elrsBFYa7NtzKa7jzOb77G/2WD73czSq61tppl+RrX31KkTcRvKnvavU28VTAdO1d2suNgQs8OoWcy4reacpBjsMno2s+qS05ihA3uqvCNG2TlvnyqnwlwhRj3i4IYLZN5ch3MqAl8sj0ByBI5y0IHzSM8JEQ4xDeIMQkW+lx2OlZI3i9znxH7j720kz7cr4XPnzqFUCBlOMB7NvsLxYZ4IkHIIuy+SR0APAYxsNDvw1yIyn17xrJ8EGRIDqGYdi/As3D7/aI1e/h5AcJp2lCeugRjx5iUR3e9Z5X41IRR9NC/19OXwCJQaAbR4bYteXADzYAfAgEnQkCJM2C7KSN2XLlHrHSoib7WxPPFaOSIHZ+OE9H7cgRxWKVFb9VXxCBQCgQsddGQmM7ZoZ8gIAQhjoPuFidDFxFqkZ5ZFCRgoIq96eU5qz3dkyLHRVUTuciQHYj10yWjM8K/1CLQdAviJq/jCNxgQCEtMeOI0Ux8RualBeYo0cWuW9ducUjJHbRfsUlkFAiphe/ibiMwRFUCl+zqJyHWOsdxXqaz+MR4Bj0ATBLCyfdFxZ2YSeynFaHQcO/w1hTppTs5pPesbEVmoSXvI60+4/D3nZVp3JwtCpLVTEhwueVemIIf/ExGMPH3yCHgEHCLgzI2qziDxlIiwMneZoDrGADGtCbWI7wGfBVwKQfnZsP4942XatE2zg3esY8IcjtTOSVEOdyq3I/84j4BHIITA9BkYx2E0hPGQdvLn/fGUns9EZC5tITh4HlbmKI5FVLSyKPM1jvoXov1TBnJY10Gb8o/0CHgERAQjoiwGKTR7jIi0EgrFtQ7rQuhTWBPfc/iOLOSAl8bsWkJw8Bx2i6yjNeZMZrjxEZrZ5XHGRAeGt4dlhCNU3a53DR00Xf9Ij0C+EcA1LotJJ3gnRkQYE9kmzglfcFgXfJzxOSexGr3AscFkgE9anx+JyMzV+uXpA6XuUYdyTQvf8HseEpHhVZB7VFxkr3BYP4h5llMS6N4OyxnGp9H1SUr18I/xCHgEqhr1hxl3ajr7xZZnlhDcaDOQhQcheMgZqGvToiLydAb4vVPhvt9FRLD8DpfT9hpXzTwZXPUUkQeV68jKm10cSGZs8YqbH3w3atDW93EYmfM/IrJrbeON+f/2OVB4qUeeSMViQuhv9wjkC4FTMhgEGw2aZySEZqyIMDA0eq7N94RKZpu2WcLmYI2UtqjfFZFtQr7R7EigDNjUsTYv75iuWYVT+o3gMtDA1pbP5n8sypcJlR+imTSOFpARE2grStuVReQr5TqH8YLjo1UZQvD8drlJjjg0nswB8dFvwPgLj0BREcD6mwkuPEBkfX1MDDCZINg5cFXmLxPw5+NWd7byIM6K9bLKTsNqDQKiQK6kbZMAu960MWShfSuTFPYhmrKFCplgNfXSItXAUP9QfCfxF26oyi3OERfHMC45DphAp6kHQoPv1nGoYCeV744Nyuq/9gh4BCIgwICksXUNsQ+rqqQduV6+AyKUHwpYlxbhL4fOaCMUZ7Jb4FRgpYk71sMxPSzA87EKsxu7M6MqFtdsg7dKnCdjJFUPz6TfvZEBaRP1xCj0FuW6QG0dhVaWfrF8RdE6UkTuqWybowRGxe+nqkHfmRVbFCZNGw8X1+RVKDpRwkMTQEqbFlyDawT31cGtOoX/3SPgEaiPAGegUQe2RvdBq8sg4mKQaHZeubiIaK7Uaut3o4MAJEwsTNLYKmxR2SHYrUpNjLLDambDKo4jGqzy60vx99/O6gAXqHah3E0roTixaq6Vic3/P1aPaJLWIZDb+iKyrYjATIfc9qwex7AzM2fCrfVmZeJo6RCH5+5M7Fs3KQCsoC6Ue0IZ43pqI1PyYjjpk0fAIxATATRnDYIciECCBCgl6y8AACAASURBVPuY5jk8ZCYMtrWJs0i2Vm0Hj3r5AwIVGM6KmlwoAa9VjjUGpQAISpK2NTxHXChXRU6riwisjfXarMZ354ZsSgKcMLTTtkUIW/BvrlSfRkc6QT38p0fAI1CDwNUKnQ+L+wE1z91Y2VCIwRuLaRIrQ7bTNQa8es/gnL0sRCP488NXUK+eSb/DvbJ/VRYuPlC6sHNIWr56+Wg/o10UNoNnotihiNWrp8Z3uFkGSt5sDtpPrYEvuxv3K9SHI0hsgXzyCHgEIiDAdr3GgMFKvF7SdhVi+3az6jm6RrnrPQNXOrZwy5RYwcU5v66HS+13UPBCxaudmPy1I1Ay+aOQlikRA+Fupf5bK1v+x5B0PQfHSI1cfFFU6d/1yhLnu0PLJGRfF4+AKwSwrH5docNBYoIG3yjhlhenA2d5LwMqA2sZkwslAAvyvopg0Y7OUm4vHOVsp1jGPD2KYxJ2wqhjlv0m6ruxp2H3rlE6QqEeKBF5ZrFsVHf/vUcgVQS0OluUkKNZ0YVGHZi471QlBsJUhRjzZbh6ap/lQqCjQcnK5H+6wgQQljkTYzu4iGHXoG2gF8ZR4xoOh1acA/yOt4nt+1otSmJ2G3+7R6BcCHCGqOHOw8QeNWURMCTKQIIRIccK7ZLw1CBMbBRsot6Dm2JvSwC1bTqY/PFuaZc0r4hA2hRVZmneR/uI6gapdSxZtiOfdmnHvp6OEcjK4Ib3phkyNMoAh6/8wo7xzuPjl6gwGmLoGAWjqPfc24AeOUr9j1IuC2XGPa/dEoa4GsZ0UWUe5b4kob41DJMxfC3rcV67tWtfX0UEtFxu8HeOmzDw0nbtijII1bsnbOkctx5luB+XKdjw6mGT9DvIcuJaYWscRdWWd/8yCChhHVx7yNRi3ez/lxJ6i2i5JsPC6ZNHwCNQRQDSjU8VBv0rLRDFcImIf80GDte/1fN1tqhSYbOu6IBH4a4IZ70BYAc7aAcHBQ9v80+XHBlR+icueUMsZEBwqyjvaXYP5GQQhfnkEfAIVDi/z1PoVN/G5A6vBzz0rtrc7s0GguA37B4InuPT/xCAElfDHiTAmM+b6pDJ/O+N/72COS+cR+Pau4D9HmXsPVyyZDaSGVEOiUlhk9gt1AjMxC5EF5uC+LwegTIg8AclYp6dlMCA0x5e/EaDiPb3DISE6/VpcgTgqoe7XhPz65u4fLlwDT1h8mr5b6rKusZEGrVtsMMIeZBGmkeJUbRVBE+NsvpneARyiwDngrC3Re3Eje4jYBBb+FoJH/JnFcrVqLzB98/lJKStFm4ungO3vSZ9M9hfW0cJgNJZ22/9ZBeAlOiZuNddkEI/g1IcvgnNhHtu0I+TfuIiabsjoVkn/yyPQKoI7KPQiZgc5ndQ6jEKZWs2MCSNee6gqrl/JLKANa8ZnnF/uygUr12bGZKynJZ7VPNTQHZetJW8cHsg8qF2YpHwoUKb5FjKJ49A2yEwfczws+EOHb52scra28GEEy4z58w+xUMALxGMp8I42l5je7KVg+di5Y17qU/RESAC5b+U5RtuH8Rw6BG9OJHuHKlU3rUivc3f5BEoEQIasdQ5P59CERNcxeAEDw8cLq7xNtA8slCEINeP2tLBZK0t3/DOQq7BzFnhNEJ/t5LlRAdb7rcpjBfvKxBW5UycvjgegcYIENGuVWeN8jtBQbTSUBHBliDKezXu4QjArxLjSw9vCe2zeg158oxLQscK8WvWvjlgvNTe3WkkUyKELqcItdZOJoykPnkESo8AVvYa1KD4dWslGOg+TnHyDwYnDIl8io/AbhnIKpBZo092dZoFlIlfy/bIwWLA5fl/PXnxvnGK8B6g0B4pk7ahomIV/aM8AjoInKjQWbCenUmnOJMismmE+6w30ET5DtIZn+IjsIdCO4oinyj33OAn//gCFBEIn7S5HqLIK7gH4i24P2wTz/irQnuEnhieAZ88AqVEYG4lv24N7Z1Oq0FAFAwmNp94Q/gUHwH8qG1w18gLcVSraHLxa1b+HOy6uTT6iyrbxyuxQKD4tU1LKh1N4Y7qk0egdAig2RKiNWrHbHTfKwoMWlOLyIMKZWlUxrjfc6aNK5pP8RGAZS8u3lr33+0n//gCq7BtLuIg8qONTHHng5DMNmHXY1MO8hIWe6BtQXx+j0DeECD+uW3nYKJc1rJicAZgdWtbFu38GEHh7+5TfASOzECexJGPG2Aofs3Kl4NdwC8zkFer/spRBF4mNqm/iHymUDeMSX3yCJQGgUFVzbZVJ2z1+/mWiDDBakeaa1XmOL9DdoNvsU/xEThGYeCNKqtHYsSRj1+T8uaYOSNj26hy5T7bgFzwSsR5X6N7ly9vM/A1azcENELtfiEixBVPkvC5P1apYzbqsFrfY5C4apJK+jyCK5WWHBo95zHvs52opQ1T8v5pJBfN74kFknQbHtfeBxTa4d/8DlOiduYz5QwB4rtrdM4tEtaLbbn7lMpQrx5vV2lf6/2W9DuMozCS8ikeAgy+ZzmUNQZjfeIVyd9dDb9LGN6k/aFePgh47ld+Zvg99GuOK5KkESKi4Vk0PsnLfR6PQF4QwDr6DYVO+lBC0hyidr2j8P7wwBC+RrFAwSBp7zB8IyILVJ/tP6IjgBKAT35YThrXtGNN1snoNSr2nfQPDHc1ZBA8g36H/QW8C6coPzt4B5//FBGCUSVJRyuU63sR4djEJ49AIRHQsNBGk54zQe3XFJFvFTpheEAIX9c7KzxJ+X2wliWpewK4SpOFVRu4hWWlcY19xsalQSmdihAw5xllWRBCuHdN8V3a9mB4jHIf1z+fuAPsIti2PYxNffIIFA6BWSpsW2iwth0AC+84iRUgPAGuqEWbWQvz7j8r1DmM2SeKcczj4FjEe4n37pLRESVgoyICk0GZmQDZuQu3ZdvrF0WkX4O6uPbuuaOy2zBlg3c3+noVpfr7NtcIYf99bhG4V6HxvxfT2przWcJr2g40jfJH8RfG4PAa5TLgtgjnuE+NEUDh/EgZ93rt4CcRWbtxMfwvVXY9Jsx6+CX9jiMYvImaJdf8HhjmzdGsAHV+u14BB5TauMpHnaL4rzwC6SDAVmnSjh7Ot3qM4jIBaNBxht8fvo7DGAbL4O1KGARlYPDRYCyLAWlhbuWcVCM2e4B1q0+OpThi8mlyBFCAr1Vu+yjA003+qrrfuGb4/C6mAjhERLDnadWmWv1+Rt3a+i89AjlDAEMpwvS2atCtfmcVHTXhNve1wjsblSkJZzhboNpsg2yBThUVlDa5j4lBI7hUI9k3+h4lII6C2g7i4AjsAuV+iGKXJO7HdkqW+PXkH9gFUN8oaXcFTDjSXDTKy/w9HoEsEThbobFjvEd43lbJ9Xm/bdQwjKC0Qww/6V3RfmsW+JZrGFrVG+SjfAep1B9/K017X9AXtV0wYdWzMYJ1HeWTRUqvCGJnV+Q5hXGRBYCPOBkBcH9LNggsrGR8t2uE4uMGdJlCp2o00GvFDefs7nnlcuL/3O40tCiIbynj2qgtNPueyJS29NQRmnvub3HhBrugQq1pJ9pKeLg9MCnPGKGcC4kIRqThvEmu2U3wySOQOwTQTDUmumdFBI25WWLlx31JOlCUPBOVje5gFXtNubz3tHEgGvB0ae8RpY2E74G4aelmDbbkvxHSOoyH7TVK1VKKmKEsX6xcxnAdYSmNQt3LOX44X5JrbBCmVcTGP8ojoIKARmhWzrlaReViYPhUoSM16nxXiUhPFUR+/xA6rfZZdTvGocfSW5tYplFbiPM9x1ZEuWu3xG5dHJxa3YttBe5zLhJ2ARzrtSpDkt+jHBdyJKhhrIpngU8egdwgwIoc1qwkHSec59QWNaID44YVzqN1zfYc/AEuE9bqGgaS4TqzsolLUuKyji6fjQ+4xllqGD/Na6y92eptl7S5iGAQp4Uhfdu1d8VKSoHJGtX5chHBALhRwqe/Ud4437vGqVH5/fcegckQ0PC9x4cbDbleYgvvIqWOU6+TEZ6UgSGNBFMdW4b1ypH0O+hQy56Y/DWOmMIYY+fxgrIskC0U1GVPTGQaZ9qBPNIkWUIRd7mLBFvhNE0awN0KbY7dRBc7lU2K7X/yCEyOAC54QSe2+Rw1+aMnfUNHwvLd5tnN8r4uIrM3eLerr+dz4LZ4hKvC5uC5uJY+pdwGcBvFyAwjTW17EqzX58oBbq6KsJbyThy7COzupZmgE9Yg6Wk0trDT18htDwVEIyw5IbB98ghkhgAaqEawHTTiemkxB1vm4Q5LRLGsArwsLiIYj4XLY3u9Xz0QC/4dblaPKOPEVj0eK0HCruBl5Xdgp2LjwhaULW+fuD1qUHyH2/reGVXStRsxtOHbNKgbkf7CGCS5xu5g3gbP9197BJwjoBF/HU14eJ2SbuJgoAk6WUDkkfXZ+YoiwiARlEvjc486WBb1KxRMbT55jPXqGZq68CwgjkPau0suZc2KVsPWJ9zOD3JZ4IjPhtBJg60vXK/wdb3AYTAWvqrQ9x9NGCk1IjT+No9AfQTY4tQwyDug5vG4E2r7FIc7IwPYujXvzPLfdZQtk1Futs6yQkrvxpDqAYUBMix73MuWaVI+uOa13TU/SMhk16SYmfyEXQO2MmE8ba9PzqQm9V86qwPZh/Fhoq6NZYDrqIYR5Vb1q+S/9Qi4QYCts8cUBgMCfHQLFXFAxf8Xkptwx9G8frMSK35E6H15uWS3QzN6IQZVG+SlcgnKwepIO5gMk/9yEcqCu6Y2uyBc9lHIYiIUL5NbmBzZzdDsi1AGM47kKWGEfKtyPcOYoQyGj56o+yUK70Mx4xjLJ49AKghsq9Bo0XzDNKqcZWn7yYc7H3YGjUKJpgJai5fspIBpuL5F5apn8sc2I1wX22uOWTBWjZqIL6Bh2xIuN5EtixjRESxQYMJ1sb2GwTPr47dGbQESMnYgNVbm9XDCfmKz0Mv7iwjeKPXujfPdhaFn+kuPgDMEtBosbn1B2lBEWKHFafBx7oVfoBW7YFCWLD81goaEccG+otmWd5Z1rffuLiJyi3I7QBFao97LWnzHZM2kHcbT9pqIjs3cw1oUKfWfodHV3g3BZbgIfPZpjkl4QNi2LRSWKDtcqTci/8JyIaC1ZYXRVdradhEkcaTCYBAeTDB6q912zCMOtIWrleuOjQoua0kTIabhpwjjaXuN22kRwjpzHKdNt3xvzZFfUrmklS+tXUl2QzSOVGlb4SPVtHDy72kTBLSMVjBSy+K8rShiOl550sHnff4cV57J/wrlOmMHwSrONnH+rc3e+JKIMMHmNeEaq82N8HjEyHl5wyQtuyRXRtV5w9OXp6AIaLqt4BqlbW0dXpnVs7gtEuwYR52nPCHil55HlzRWP9pRHZn8RysKHNy0jeBgIOQ4LW8J10tt3gWCa0G4VNSUlmeSllv1TEUF2pc7vwhoEVfg9pe2z21+UW1cMlbFBCYKKza211ghz9D4lan/gqKDj7RtvcL58abAq0I7sR2sTeHMxDiVdkEtnoeSf5eyPCBYyqOikwQm19wkpynZnTQiVktSZ5/HIzCJqEeDupKJ35V1LZbeZfB/Dzc3jOK0LeIxRMvDGbSryX+LMIDK11AHc5wSVjhsr+GN76NcziSPo61pu8DhdjskSWFynAcGT+0joXAb0mpfjajVcwytL1peEdD2yQ43eI3rZrzbecU0arlYlWkEDwnjzBl0lqsyJn+N2OjhOqFY7hgVVIv7FnAQTY7z8SyVAI5hrlRWbPK222Qh8smy4smB4hZuf3m7/jhDmvPJAPNfFBcBrfCVrjoI4WHxVS5z4lwWuwZNDLM8lz1OuS5M/jun2ACIUfGdch2QLwFq0k4udmIIhpRHexNNbLG2h8xIs09qP6tVeHVNPPyzcoYARje4QMG1jYU1Vr0Q7XxVpZ5l0OSa1TPa7DWV7fmDRQRe7MBCGWtgl9tdtg0e8ot2cXuBxIhJ2xazcH549lEuCLhDOORx1baCS9Lfq+2DdoI7HUaEuBnRVm6stquVE+wkaE/+1Af+hLQT/Ara3BW4yRH6OmpCdktU608cepQIwtziuhgc2eEGSh9+RkRuqBDwHC4i64kIbrgk6HjDbcL2Gla6dgiHXIVPxipTedviH86PMSzHViTayrKVWA57VdkHMfSE5yKYD8jHES39HANV+BpOqPR5FoB5shuqVsd/1EOAMJOHVTs7wg83hjjXGFIRfvVBi2fEeV/ce4mCtWs9AEr+HYO2tvcEE71tTAf8xQ+pbCPjMtcsEbI4rqxb3b9Psxc6/m350ETbqpxRf7+zhVJLG2C3AyWNfhD1ubX3odhpsx2yK7KIY8zz+HgYTTXY/GplpPE/ffMehcBqtJVTqsRi7Br5lBMEsBYfIyKcI2o0mLw/g47WzoxXcNVrD9yaMmelCVU0tgvhxO6S5nt41oHhF2R0vYqDiI4Y49Xit1rVQt9m0tfGP/y8orFOajcXYj2wcg5jUtZrDIlRvIvs2qkt/9Sfx8SP1TuWtmVtaLX1Ygvcb0eJ4OerzVBXi7Xt/xw3EQsd6/L9HLRRdrrykqAahnLYFrNwfrbr8T/nmOVJ5WeH36NxTd3jxFrIi9y0y8FR2rU5l5WGvINn4LGAYg+pm08pIkA8c4zfAkG0wyc0sXQwn/6LwJw53nYMt0cXNiTH5LAREGLa9igljBvXLrCrfYft/xw1jsyhPLIqEtvjcJ1wjGqLbVHy007ZhfbJMQIYvHEO006Ni7qygvTnTpM3LlzSXJIq5XEAwjApr4kQzHndonchS/rm5nkVRsblwpi63fomJFKDMsZd4/XsWmJci1KDESSxVDKPXjncAT+3i0FB85lsMXH26VNjBGio/2qT1QZMaXlXBBk0bAxwNfuP62el6XrZuAfk95fZHBjtupap7fPhHwiHec+vdCYvGUcZRzVQ3KjX3i0MdCd/otI3S1bdNWyFU6T8WLu3sipXgrfwj1nBgSFa3trK2QWY/IOGBBth2Xfp2JXzqTUCuFJrs3nmrW/WloejMAyBi5RYYEfxsJoQcqFNpX5rOnA1qhVY3v7HCtoblsRrXms7OIPOS7v4c4Em/0BqGEDiapcXDDXLwSrJp+gIsH0MZmVtD43a1qHRIcr0TlhR4xjT41oZ8Gg4LTjWxe10pkgHwVc88/MWp1J183DCiUL60qgzFvX7SwvcHnYq6aCvGWnRTW/I51Ph52+X47pgvIEfJO8pSUAy5yG9OdsN2LwCMMv8+U8RWT/vLSWn5RtaZe4rW/sgGiLurkVOMMWVTS4E3oIJ0af4CMCSmGceDxdtNc+kbVNbLLKdRfPEzxuKRhfCyOMz367QlM4dvy/5HNWjkjISkFxX9YMvg5AhTcljv7MpE+PTHGUQTgZ1YMv5vhK2iUbtCaNYCLPymDazlAMU+6qESDCAPW1ZqEaCyOP38J9nGZkuj40yTpkgjMmjXG3KdHOVQCgODnm/F9ZCG0zymJdzU8/NkazlQfKkHYchj20kKBMeXXkM2gahWFDGpJ8QdanZrLVTozipRKu8ZMOAXa68R2pM0qEIPV1Lg2uHUn5yYxSVBJM85/ER5+zaFyvQ70vYLuq1WYKP5c2+62gl7KHit47mCeFA2d2HaBg0+E3t+k3b58YKNa8BSOp1/ijf4WITJxpeERvB6UoDThQ807iH8WqpIgoiR2UmgNKHJWsXjdrebjnCnaLsqIj7wzY7Yhg7cZ7QCLhE3/ft1s2Mnns+c/5a65unttvZfLrvQebHg48yP4w/0nyyz0FmwjY7mdNXW8usM8cI071z50TviFnmD6rMSjlrB4UrDtTIqvLq0q2bWXq1tc1ex51qzr/nMXPnGx+bRz/9wUz48mdzz9ufm0seetaMP/NCs+qGm5o+U0yp+u5qXYhvUPYtZaL9qWI3dGBPs93Imc0VxyxhJl67mvnykVHmp+dGm18mjjFfPDzSPHf1qubiIxYzm605k+nXt6vqu6t1IThMu4TldjVQDE4joFvHTp3M9EvNY5YaN8aMvOxAs+2jZ5hdXrjQjH3tMrPDU+eYTW49xqx60s5mntHLm96D+rloKxwFpOJCF1FQsyj3x/tFpEfEd//uti01CzKkTx9z1hrrmH8deLj55dBjIv19ud8h5viVVjODe/dxIXieSQhTGrpPdgjMp+le1qtPX7PDQUeYe9/90jz59a+R/h75+N9m/FkXmelnmU27reQpyI+dlCbPjSGUGl7zz97P3HzKMubniWOMeXHjSH8/PLPRJEVhrpnVFbjtJ6+u/yYmAhx9nafZRoJnde7e1Sy07Zpm28fOnDTZM+G3+tvtlUvM2ufubYYuqN7HIfXKU9JWygm/HGsnk9X/G4GwbD5ZxR/+xxXNdwccFmnSr6ccfHvAYWb3xZY0HTt0UBusqg27rGe7aTdmlYhjHTp0MKO229Xc/dZnkSb9esrB45//ZMYeeYLp1r2HVluBywD2tDKmJ2z6dpC3R7dO5vT9FjK/vhBt0q+nHLA7cOYBC5vePdV2/XBtg0PdJ3sE2JZW43+ZY52lzNYPndZywm+mEKx+6m6m54AptPo4bqSENc9Lmt0Bhwq2TJF3xVSMuVi5P77Njokn/lpl4IYNNzG9uqptGRItzSd7BHC9srYT6dGzlzn20usTT/y1ysBFDzxtBgyeRmuA2N8eptw9YdlgArf5HNS/u3n6ylUirfbrTfy137143epmhml6acnNBwbSaXbwelgrAJ26dDYrHLmN1cQfVgq2fvBUM3DEjFpthaB2eUqEs9YO6X1LVIPmR2wGBfLOPWiweW+P/dQm/0AZeG6H3cw0ffpqCJ1tEZ/sEYAW10oeTNSXPvK82uQfKAO3v/ahmXWe+a3KVq3b+zm0FraVHLwGVthwfv/yDaurTf6BMvDZQyPNovMMsCpbtW6v2ILk809CwNpbpFvfXmbk5QepTf6BIrDzxAvMzCsupNFWsAVIdFbusI24COmNmzYunw0TpD9WHNHDp+pvPtr7APXJP1ACnt1+V9OzSxdboVNHAi74lBwBtli/tJlI+kzZz1wx4SX1yT9QAu544x9m0NBhtm2F/Csmhyl3OeG5YNvTCpdbT1tWffIPlIDPHx5pZhza26p81fpBSe1TcgQ4DsYYNrEsOO/f4MqD1Sf/QAnY5cWLzJD5Z0lcvlDdNkkOk7Oc0DVb776E6ghO1zRjND245uZYwHLm//wOuzmb/AMl4JpRY0wHsbYJIJyiT8kRYFKM1T7C93Pmf/yVNzub/AMl4NKHnzPde/RMXM5qmS9MDlPuchIZzQqPLdce7mzyD5QAdhf69LJW9IvA/Z67BhIqEBTwVm1Fc9s/mPRrP7d97AzTZ3B/q3KKyO2heufp0kVI78sbKQGwCCUG8uBll3c++QdKwE6LLJa4nNU64ifpU3IEzrFpKyuPHON88g+UgH1PPNO2rRB/u0NyqHKV8yYbuQ0Z0MN88/gGzhUAFIHT9rPe3iVIik/JETjGpq3MuMx8zlb+tUrAOufva9vHiXWTt2OAQHIQNFnbWtXIkvH7dwn6wMTbDYN69zZY7AcTtOvPr/Y7xAzoaWUwRF0x8Brn/xJh8GlNg4rcAbt07WpufOHt1BQAuAMU7AGOK0k7IdBVZFnV3nv0bvOlMvmjAPz47GgzfJj1UQCunL6PJ8MgcaAgfPy3uOfE1BQAFILpFhuRuF1X2/lZOW4rLij5dwhrAKvXdvY4/0Pg43rSr33+kcuvZCtwn99iMojTPsL3brD9bqlN/sEuwHGX3+hlbSlr3PS+enRUagoASsBVxy3p5WYpt3DfS+t69rWWSHXyRwEYfcMRRnTdxcve9vA0mC1QAg5I2jh6d+1q5etfO7FH/R/2wC6dOpVdSKWr37XPvJ66AjDhi/+YgdNMWzosk/bZJPlg+AvO6NP6/M/zYwzuhknK6/Mk3+mxxW7U5eNTVwBQAobMN7NvK/EUxisDBeCSpEIfNWKe1Ff/gZKwij77m29A8RpQLLxmnXu+1Cf/YBdg9E57xCpr0v5Q1ny3n+HO8r+ZQrHDKBUrby97h/063OZ7Dexnxr56aSYKwNL7bezlHE/O2BbMiBKQmBns7DXWyUwBOGHl1b3A4wk8U7xG77xnZgrASdfenmndw4Nk0a5h/Pv30xulvgOAYnDdCUt5uRWoj8++5uKZTP7sAGx801G+rcRvK7uiALyddFDSZPwLVvZRP+/fYlsv8PgCzwyzg8++ODMF4PbXP8qs3kn7Vl7yrbz4kEwmfxSAv922lpdbgfr4kntvlJkCsOvLF5uOnf2xcMxxY5ILZGKr7n/sfWBmOwAwDsasrL8/w8HknDsfzkwB4ChAgROgLdvPvlvOmZkCQDTBDh2yO8/240s87Fc7ZdfMFAB2AaYYNrAt+6hFO32NHQD8IBMBFyfKX9SVfdT7cD1MWm6fL5m8bXC77NGJmSoAAwYN8e0lQT+/5MjFMlMA2AXo1UMtUJCXfwL5x+nz6/5530wVgKnnmN7LOJ6MoUL2CkCcRu7vTaY8ZK4A6AUJaqtBRjPoTzODv0a/eQUgWX/LYpzyCkBxZFVtH5MUgEIeAby/pz8CyKKTJ31n1kcARB5MWvZ2zpelAuCPAIo1oax20i6Z7gD4I4DY7eVVdgDeSjrAPba1XtjfqFv/wX0PbLGdH9Djbfdkitf4sy7K7Ajgzjc+zrTuSftXHvJdf+JSmR0BvHHrml5uBerji++xQWYKgDcCjD3507duQwFI7AZ4VoZugCetsoYfHAo0OOCLH/jlp/156g13+7aSsK0csM1cmSkA1x7v3QDzoARGLcMsKy+SmQLg3QATKQC7oABcHFXAtfeNHDF3Zl4Aq806ux/UEw7qtXJM4/9Z5po3MwVg07HWAUPatq3NN1u/zBSA7Ud6IqA0+qbWO3r062N2e+WSTJSApcaNads+mlB+EAHNgAKQmAq4V9euqQYCCrb/Px833nTr7K2DEwo+83U5lwAAIABJREFUs45yzdOvpq4EPPHVL2boDDNlVueiyaheeQnR28hIz9X3ngo40You83a+9rl7Z6IADJ5neOZ1r9d3cvwdoYEnJatgQKdlEAzo2BVX9cIu0Oo/6ASjtts1dQXAswDaTyTjtkqfC8CzANrLLeh3aX5Ot8TcqSsAo68/3M8H8eYDggHNGigA1uGAv9n/0NSOAnjXwF5WoUIJB0yI12P9XyIMvkg6oBAO+IaJb6WmBBAOeOYR89gODmeXpJ0kDgfcp1cX89F966W2C/DLxDFm3tn62crtlJLILYtx6v2kfZx8absDDlvUOhzwpTluK3+1kUWDvNsFk3/wmdgQkBeMX2b51BSA3RezDhP6cFBp/5kIgcQ2I7SVFdfbKDUFAM+DBh0g6vcfi0jHRCjlL9NNNlhsusaMqSkAZx+0SFT5NLrvjfzBX6gSHWPTVgbMPl1qtgDrnLdPozYQ9fv/qywIe+RUOpuLCGf1UesS5T4WNJOl8TYv4Tz+ka12cK4E3Dx6M9PRPu7z3pPV3n8RB4ENbNpKhw4dzGHnXeZcCbj+ub+Zvv2mitIhmt1zQRxgcn7vNnZyE3PHGcs5VwJevG5107untX3PSTmXRd6Lt7hNWyHvAlus6vwoYNtHzzB9Bvdv1n+j/HZrToWxsYj8bCuHmvyc+3eqV1/CAv5ac3MU8H67h235d/cY50wJeGmn3U2fbt1+e1/CsqJNzVQPAP9dZAR6ici3CfGfJL+u3bqbC+970pkScP/fvzEzzDqHbVsh/wqRUcn/jVOJyA82cuMoYOK1qzlTAj57aKSZYRoVwqZF8i+OXJeQSeJDm7ZC3hWP2taZErDLixeZIfPNrNHHx+RQEiyytCf/axpN/kH92Rq3AnTEwEFOlAAm/+mnnNKqbNW63RNU1n9aIXCebVvpP3CwufTh59SVgHvf/dIsuNRyGm2Fc9CybP8Hwr7WVm7TTN3DQNCjbf3/6YPrmz/MPUBDbi8HlfWfVggcattWOnXtbFY9aWd1JWDniReY4SsspNFWvqqc/Xe3Qkk/83oigp2aRv2CZ9wgIp1bFXVDjZcO6t3bPLq13nHAbWM2N33tV/4BEOu2AsH/HgmBBWx3jGhr0PMeffG1akrANU+/ZqabedZA1raf+0VColg3LaPRx6fo3cXcetqyakoAuwrTDVFZ+SPznYolktyWdqjKRNShg/nDzuuasa9eqqIIbPXgKWbgnDPY9u0gf96OivDIw0I/KJ/G5y0i0jVKK2Pb53WNl2MTcPQKK5vvxx+Z+EjguwMOM3svsbTp1LGjBgjBM1i5RgIjCmBtfs+dGm0Fm4ANdxhr2LZPyhCItf8Bp55n+kyhsktEW/lGRKYoqXwn6MhNzF6bzWG+enRUYkXg54ljzKnjFtKM+PePHK7oitqMdlRRAKqT2QxLz2u2vO9kKyWA3YSe/acIxnLbz+9FBCUnL2kOEflOo2+GnnGHiHSLU0GsDm2B/S3/8Kn6m3PXXM8wmQckPq0+v9zvEAPN75A+fX57jmaZKue6j4nI4Dig+HvrIrCoxi5AINt+Uw80Ox9yjPnLO19EVgQe/fQHc9SFVxtYBoPnKH2y/VnWtLISRpMwn7JPV3PUrvPGUgS+f3ojQ5jhOWZSG8wD+e9eVqGlWC8WSNZHfPXaWOfuXc18m65ktrz3pMiKAMyCa529p9Z5f9BO+DwjRUyjvOruephZfMdxd+zjDc48n7Z4aRjg3657d+1qNphrHnPOmuuaJ7bdyXyyz0Hmh/FHTtoh+HifAw1BhU5fbS2z9uxzmu7pMPx9ICILR5GKv6cpAliV/iZnjWu4ApZceQ2zxzEnm3PvesTc8cY/zKOffG8mfPEfc8/bn0+yGzj47IvN6mO2MFNMZW0BXK/sH4kIho5lTiq7N2F5d+7UwSy70CBzwl4LmMcvWcl8fP96homeiH6fPzzSPHPlKuaCwxY1G68+g+EIIZxX6RrXP7+7Z9dqWRg9riSPxjLu0MEMXXA2s9jYkWa9i/YzWz94quFcn2OCHZ46x8Drv8oJO5m5NljO9JpabVcvXB7O/qe2g0o1N6Q84fLZXt9v49q4oAMLRNsKucjPFtCmqmJsv4exbeVCNlk+ky3y2JpzwUR/egnltnXBZJC34uI5YW35X5B2NSkITo4EgN2K1piHMb/1AuZExQJpVczVczAEaWkhmaPGkpeiQJ7xUEnbCWdnZV1NWlt351Tm7OrhzuxTfAQ4+mVB5GqMzdNzH8ihd8/RStize9M7vvgnz8Hg95RSofIk/EZluVdE+k8Og/+mAQK0D/Vt5Jy1t5tFpEuD+hf168SBv3Imm0b9+K3K+fU0RRVOBuVm4XNyQWTbSOZxvv9SRKbNAOdWrzxMQQZPigi0/mqJUIEAFgfgIt/7tojMrYZeeR+Et8h1bdIuqGdZdof2aROZwZ0+oLzdT61mLHjua5M2wbyEb/1KaujpPoijaJu581kRmVK3SP99GpSQcCXbFK5IeQmYsr4LIEvyzA6VGNJWsQAK2JauasWgVQDZji0g7jbjxnMlduPUaG7ziMg7bdYm8swPgUFiUvKfiSICy6ezBDnBT23UWKBEPiKH50TOBBzjwbjO2AzMRc1LtLCisgIy8FnRfBdU5rj7WhtDxegbRbl1lIj8q6AyTTp+HFgA4ZyTQCYvpbXbhRLQTjsBNDSCRKieqRSgETYrolWEsASNO2lnd5WPwEDsgBQpEQCoHSf/oA1g2xOLCKVIwo1ZVhTYo9qwPRwUE6esbmcV/2aMcZKjroFpFpbjgHayCWAQeU1E8NFs91R247Fgwmj1SSjNoigBLkKJtsInj7+X0Zgz7ngEq+VtMSaXPMoxbpnYtd4qLlAZ30+gOs7zW9X1rqx4DDAMbCfvAATxdYUcabWMG0aWr981QoNs1WDL9PtpBVACiHCmHU2syDK8osBHOLZ9fzYtivcCjQNQQi9nC1xG+fGwwmYHt9baPseClDDBmS5CKCA8AYTWrS1gWf+nrvtnDXwGDXLLNtwyjNKGaf95TZzxJjUoilL3ot4DvW2mA2cGDYajW+JaFFVmScrNTkeeWP6Sip22On9lF5ogfSMrnlcjkj7IVb6FROSZNmtcxFRuF8MiFzGpk3RojTysCDSeE34GNhF5S0S71DbYdYFdGMc0r/OsuGm2JSYPju3aaZEGiyFjlk8pIoBhyRYiAg93mh05y3e9UHGF4yikzEnb8wNDtO0qgZhWSJk9EFcnKGIh9CG8r3a7gcAjL2kNB6FEgzjiBBB6wgF+jeTBeMK4sqSDCGllDvREW2SBcm2Ksmokw7S+xy4NK38VBry8dOailQNymI1E5NE22TL+vMBnTK3aFmdn/1YeQPaqeelSVS8L7dVqMOhgp4IFfC2T38HK9eJ9eXAxYoL+QblueMFw3BdOq1YZIF0cMaAkwmY2uoZ3IY32GK5jka+hQn5RuR0EfSpvn5yH7+E9tfLXXLFkHF9dMdgMFBgxMSDA3Zy3xkd5qNtu+YPfqkSE+IUMSRPvZisuXF+YqP+icG79crXdzdwCATgeNOvHs/Zt8U6XPy/vQGGD5rmZ+xxMe8SLf0RBbpD2jGvB48+O1I+KckPZ2N6lUDJ49h9F5AtFjDT7CC5rhKe1jTeAm9wJ1Z2hdrPnyKBJ2b8SP/o1q+dRkKmwMoNyl20bOjSTPKEZOb+BuAPWNVZUrDQCdiNcWPJ8DnlRi8HSHsV0njBvVRaaHT/OmSvBhVBAdhaRC6uTC5M6bQMOCnYLPqm6ZhL0gu1pzjlXFJF+MSE6zsFAmUUs+mUc8HPgOx8nGiJyW6yqDNPHiUYWyI2dJPp5IDciLWJHg8KE4hJHbhg3ano2cD6ORXUZElbjNostzT5f+yxkRoRZEm2FNsvKHUZRgolxTMccECh4eF0x3j9f7eN/EhFkn0cO/2q1/IdrBLCErG1YefqfVcx0rkFw+PxZKiuij5UxRjHKs5aurQSwqkR5SSsx6X6nLDOO8PJ8lrqZsmEbkxOTS1ETuzQQVOVpLKwtyylFBdeXO18I3J7zhv5ZVbvNF2qtSzOsYnD1njK2BNHBLiTPCeVEm9oYJYCtcddpAQe7Neyq9HFdcIXno2TVTjI2/7PyZMexaImohxyR2tTddV4WFezg+uQRsEZguNJZJ36xDNQuGj+GWFidFyUxiBBCVRMLmNeKEkEPJeBc5fqztYwFu6vEdirbpJoyw8K/CJN/gKk2MyVHTHgcFCXByuryWFSrfRV5d6UobaGtygmvs+3Ax1kZA4hLggwmlVoL6rwJCkOuVxTwDMuD8KJxzo/zgIkrJWATB5Ujipu2oZfzaGIOcOCRRyu33W9FBG6TvCdCx9oa04X7bPiahRFMlxo7gnfnHUhfvuIhwKT6qkLH56wTikyNZ4U7UPiadwzKKcQYZ2qTOLGKzPP5cTNRwGdxmUK7Csuf82UoebXS7FVjuvA7bK/htCAufFETRqa2GITz496bO8a1qnDYVTtWub7humNPApEURnfh75NcY/yJN5hPHgF1BJZW2sJnq56J8BaFBt+ok8DnvLA6AnYP7Fm11G5U5iTfM5HEsei2q4Gb3NgswBmfpP6N8qAEYMBqmwhIpb3lm1ooUdvKN8nP7s35yjL7tLo4aPLa1H9it+5+5XqG2yzudSg+c1W9bcK/JbmGNt0nj4AzBC5R6Ay4IsIZzSCCr7oruwC264jMlofEDgo+3kk6daM8sLbldacjLuYoAVcr44P74lpxCxK6H16Dj5TL9LqIDA69o8iXLmT2dxGZPiegzFcZP95Vln+4LxNZDuWdcRBX7PBvSa5pW804JHICqy9GkRFg25LtuiQNNJwHV7UgsVLDGCj8u+Y1dgFZGscxUGpThGJAiCFhmRLsgdq7QliaQ9UbNzEJaQ/+fyupzLS9hMApayUJdlWXY9KpIW+dbRXGPhZRRY3CF7dv+vszRkCrwcKgFSTIcLQH3LASgWFMFlvlnHFrb29D0AP1aBkTOyXa8dPxEIkTVhr3TEhSwu3H9hrjrrysbLXbDSQzDyrjxTFJQEimXd5mz0NZ57zf5a4knApB0lpQQeDlk0cgFQS0tqzYwg5vWdEZXJ+3cdaWVgKns5UHRjgP5kyrAhm9ByXgDmXcMI6KskKC9UzbPfP9EitsQRMhEI7GNnZY0cLXPk0XSeySiMMQLoPmNXZJtd4OmkeqgSz8p0fAOQJaRiu4BYaTa4tb+PbXC7/Q4bU24x3ukxDRtENiVakdi4ItXehQGyXsKbS9Uxj028Uqe8oqjazmpIlSkUYYcDyTCHKjWfbws4jdUGuvo2VUvVWjBu2/9wi4REBjgmNlBtFQbcKXm9/CnUjrmu09tvnYnneVMG7UKi/PKRphigaueE3AWa6J478qu0xERKxNAyvUtARO0XwXPPy4ELZTwrhXW4kimE14p1AbTwIeueYmqY2OqelWzU6jTx6B1BFggNY4K21EXAHnurYLVniAx3jJBV0mkQrD77G9xpCNsLPtmFj9sXqyxTCcn8E+7CKKqxdBdML32F7j0lb2o5pG7ZFjFI1xISyDGx0Y8jJxEg0RBsnwu7Sum7GTErXV9j0Qq2E75ZNHIDME4PK2bcjkb0RdiaU7RDca76j3DFxnNFdpUNFqGhDhykZUx3ZOKGlEs6wnv6TfQbnKeSzb1s8qPxs7jTRtTfLYNtjV01beOS/X2rWDOIuolknbT6t81J0Im/US7qUau5swMvrkEcgcAbTzVh2i1e/4W2OEUy9BcYvbYKtnJP0dXoKV6r045newz2muJrTIbGJWI5e348FBmNKkMq6XD3dWiJTq/Zb0O+iCoQ326b9KkDZ9MnS5tokJWJuKO9xeWLA0c9FlxzN8f5JrdljYgfXJI5A5ArhNYVyXpCGH8+Ab2yxtp8SWFX5ncM1ky3Zg0vM0CGdYrQfPs/1kFwF3S5/+hwBKAOGfbbF1lZ+jhVor7/+Vvj2vINMh5rwm5kdZQMlRmnZ5wnW7XEQwYG2U4BcI35/0ut13BRvh67/PCIE9FRo2q+c/tCg/BlycrybtOK3yXZVAs17eQZCQvVvg0K4/Y2TmcvXWqn00+p2ANou0q1Ba1BtbHo0FQhj7JJS3LCA4Nw8/R+ua57KAaJbY4YTDw/adhPz2ySOQKwQg0NDYouU8lmc1S+w4aAfUCXdKorTN0KwAod9cDG4Hhp7vLydHwIXFflj+ca/xLMCly6fGCKzgQElm0RElcYR4scLE26hdcMzBIqBVOkOhDAQOwsjSJ49A7hDAslrjDHzXCDWjU1+q0KEadWrOh8NMhfWKhAWu9nbiyfVe5L+bDIGhDgh7GrWFZt/jnrnsZKXzX9RDYG3lFTjHZNvUe1HoOybLpx2OE9iQRGHl5GiIY8ZmbSnKb2NDdfOXHoHcIaDBfMd2KgN8qxS48Wh0rHqdr9m2HlHi8POuly/pd2e2qrD//XcIsBP0trIM4sgOS+5WSuLvCuz/Efg9NBYJgZyaGcou6aCPBu/l85qIJEXsaGrYrrzowBXSN0mPgCoCnHNpRFCjc0VNq4gIbl3hzql5zU4DOw5BwsVJo47hMl6m6OIUlLMdPqdzHEMiLKPwNdwMEMj4FB8BmOu0XWVrZcF5PzIKy0zrmrJD9BXVYHh3hXKgNDVyK4wvAZ/DI+AQgY0VGjydtbZTNysyrj3aTG7hAeNxERlS3ZnQJjm5yWv2zUTb8jdkr2FcFZZ3s2smFm+F3VIsTW9gK7sZxnF/YzeGoxgYA89Xfna4LOxOcpQRNTFmaLAMYj/gk0egMAjcq9AJ2d5t5lJTCwaEMdqR5MKdn0mGAEbh72yviQkOLahPdgjA5f6xsmzqyRZXzzgTgF2typ37cGV5YSDn0jgYimOO/uIkLPbrtaM430Eq5IKxNE49/L0egVgIsCr7XqHxHxnrrf/dlnNJ7xmn47a6l12FNAKdxISwsLe7VgI4b8aP2yc9BI5XGCNa9TON34lOCWtknMTRpMa7fZuLg7q/NzcIaATEYbs1Cac6W7Rs12l0QBfPwNUw7oCSG8HmuCBziwgeHNoyY/LnaMsnXQQ4Rz/Xgby05M95f5LAYexcahioEgjJJ49AIRHgPE5jy5yIcFENbsJAQcmq0Qm1BpPgOS+JSP9wQf21GgK0E41t10BWwSft2G/Dqonpdw/CSh4CrgDrvHxCXrT+70oa/R94+m3rwQ4qO6k+eQQKiwDx1zUsfjdPiMBUIvIXhc5o25mD/G9WjQkTVsdna4IAkz+ulAHW2p8TRKRPk/f7n5IjgBLgQnFL2gbeqgQLYjcpSRqh5IFAxECfPAKFRwB+7KQdMcgH2xZhW5MkBhe28YJnZfX5QQyGwST1bPc8f0pBxo+JCJHkfNJHAGNYjGKz6p/Bex+uKJJQTidJKKEPKNSBHaew63GSsvg8HoFcIDBIiTEP9x6bNFpEYG4LOnqan8Qv0Aw7bINDGfMek6JcH/XGm86aEBHuHklRlrVjAPYIXSxqB8dB7TOT/O8JpiyE4LPmD4EdFDoGRwm2tKvzi8h7CmWJ06khKeK9PrlBAE+ROPLQuJdjJb9CcyNPbC2ICaIhp6jP+KEyLmxhWR3sej5TKPclluXw2T0CuUOgo4hwhhq1Qza6j0hwNho6wHCU8KBCWRqVMfw9ngjESPDJDQIaniZhecW5Jq47hq4+6SNAH3VJ7BWWM/weGpEcL1QYU74UEYJd+eQRKB0CBM/RCMfZKuxmFOA4bzxPocOGB5Laa9jJfJS4KNJIds8BjuVXK896/9+soJAmq335cxEPRJt1s1aGHOdwRGmbCFOuYey8rW1BfH6PQJ4ROFFh0OYcfyalSrrmDE/iQ6xUtVI/Zg+FdlQ7GST9/wZP5eykra3qOMYH5/0aLJydRYRAPUnbT5DvKR8PxEk78g/NEQJYUP9dobNA+auVXLORXeuNxrRENek52jzywQBs84kfO94mPtkjgCU9uzuaUQNrZQsLJ+/RSPsrjGdQTCd1O9Sog3+GRyA1BNZV6DB06PUUSryO0rFE7QBT+z8rhChxwxWqVOpHEP9dY6u1Vj4a/xPB0isBds0Pauy0+ABOsSvqpNzTi8i/FMaz4xTK4h/hESgMArcodBrbIBkrigjWvxqDf5RnwGWwQmEklL+Cbul4VRhFhq3uuchv4yZuOMMysP63JdvRCD72vueWSNxmfMaCIkAcd6g2Ww2orX4/KWH9F1fS3FuVr/Z3OOU1jBgTVruw2WCC1N4SvqByHIXftvZz/6y4vVxYgcUsOMaycGXU9pc0/t8nZlmD20cplXet4IH+0yPQTgjsq9CBmFDj+tjj8kPo0DQGl0bvuCJmqON2ahe1dWWg1fAeCcvi4tBKHSVA+1jhNK8E1Iqx4f8Y4nIGHpZPmtfIfvuGpav/A5TQuA/alvOm+o/333oEyo8A1rNExbPtRE/HOHvF0IateNt3auR/XkTYCfGpMQIEY9Ge/Oud1e/qQAk4uXG1/C9VDgV2YTT6ku0z2AUaE0Mq2A/YvhNvphlivNPf6hEoHQKsxjW2YHeMgAyRtbAbsO24mvlhDiNgkk+TI4CBpvbK8PomLnu7O2gbuL36NDkC04jIkw7wtumb7CaOnLyok31DlFENpXSvyZ7sv/AItCECGoQ8MO4xqDRKGBi9m7MBJxisfqxsJ2Ld7tP/EFjFgYHmjRFIe/Z00EZgK/Tpfwhgf5M3RTzcF2l7jRKMpk8otBFCgtsymjYqo//eI1AoBAjZq2EAxLl6vQS15msKnTYYJFx9ahGT1MOgSN/hnUEsdE2ciTIXlbb3YOV3U4+DiiQAh2Xd1IFsNdsJz2JrHma/emkXhbbBjudi9R7uv/MItCsCDAwaHZnJI5wI0PGy0rOD8mlvSwfP5fMhi1Ck4XoX9Xp5EYFCOYyJ7fWdMSb/ALcjlMtAHTB6bdfEavdMB5gGbUO7T9YL4DVERL5RqMM57doIfL09As0QuF+hc70ZitLWV0QwEAwGCY1Pzi05atDgMWhUng/aNIDQEkquoWFc77Xwtjhaue1QrnZUAgjso9G3w3INX9PnR1SC6JylLK/PRWTO0IB1tcLzPxGRfqFn+kuPgEegisCsStuDnLn2qK6mwwOF7TVsfhxXkGB8g+df230sKCNb4Pi+t0tiS1TbNZNAL1BP2yQY2gKZaHzSXv6/vfMAv6Oo+v9JT0iHAIEQAoQQCJ1QpYWShB5aCEno0pGE3iG8NEGaCCq8SAsigqGDgID0ItKliIIgRQQERcW/oDj/+4l38y6XW3Z3zpa798zz/J67v3t3Zme+086eOed7DvKpUJvlXSVl2xuOdoINFWpfba8CXP2IOzJBaRxMb7P+s+oaApkicIrCRIPd7yGFcsILPjYEC9ZBYmr1zDB8r9Y1mwUbUNnpZdcSEYw4tXCjHI3Nn+5mU7lIuW70aydEfcOtTvs4JxgjYIgAXjs3cC3G2DO4T+OTiISvK5R5b531w74yBAyBEAIYav1aYbJpTPygDKg64fxulAhznKaHAXHng7ecRnVo1+95QyQGeoC1xidW2hz/aCWEAG31MhsYBDhlTFlox3ZrAhwR/u5QHlO+45KXkmWb1Nl+MgQMgSoCWuo230lL/ncjhh7G2DDtc84VSjZCEJy0SZkglgqOaTThQgjAS0NjTAVlYA2+i2YlC1AWgtetyjgFePGJfczqEdqZxhFguB5xr80VNEKn2S2GQIAA4VXjTjLt+2uNgIK6NfpE/YhaUrseQXnETtCIgNio/ll+z9sQBlFB2zQ+nxMRBLG0Ej7gVyvXGfKZOAx0abVNo9zRKbvbcqy3cIyKpmEEnGSchg2TY1TfbjUEOheBoSKCK06SCaeRB3efsQnh560u7bNPNqN2TRh7ahPBYKMRZ3NIih3qbfgmNMZYUAZCwJSkFSpIvi2VXOQCTGo/0b4kIc4ZpEQ3XlufOP9bBNCCDFKrRnshgLV0nImmdS/xvWEr80lYtWtvcuH2YehEQBLNhAZjVDVkMaF3ocYlcuFxFaImqJZ3rrCgTRQRVPdJFmPqmsbm/3LljB6yp6wSON2gPDZhg9w6YQM4noDmGg4FqGwxMMTdkH47ovr/VlVXOVTjmolnz0rRG4azc4I1+ST893kLD8+frK4bkZP5tMfyGgIdgQBvudp+/K0mPu53WhL7sJT5ziE4GukxEtjINhKRs6tW8zCgtcIn+B2cHquctxP1jrfXvhHqQV05ww3K0Ph8tXI2zwKfdcLQTPusm81u8wgNQQvBGIWnAJ6DOJoyOOw5KuGNmkBLPkIkeYlmp9GP9crA/mbtCHhEuQUj3rdSrGu9+tMvaDItGQKGQEIEVqvQqKIirTfBtL+DTUw7NnfvigfBFSnWHwt6jCbjJNzu2ADibBytsEZrwtsOb5r1tANEPXtTGYfXRGSxOA1XvhePFVgGW2ET5/dmAiib4QWV0LXvKT4ToePmqvYBgTBqQuPwomI9ajHCk6NZbI+o9Qzfh/ZJ2+6ktt7h/6MEKAvXz64NAUOgDgIaoTfDE7PeNRbZ+PSnlWYoRRCrV3cEpFaRxVDVThKRX6a4aAd1Y6NHDR0IAgRiwpc6+F3jE7fLIoRSRsDjLVyjTUEZaGLGhQYiwWl+ofyM4FnhT9xdOXajTc0Sx0Afp1gfyHyixm1oVs96vxHJT9vtNIxhcA1jaDvb6dTDzr4zBHJBAFUjjFzB5NL+zIqYZePKAotngXb9g/J+2ID2Fordp1J8bvD82k82aYKn/Eb52ahyl8xlJNZ/6HyVkM73K7cRjw82Y45ZanFN+3/mGox1CI216cgUNXIcTxxc+8AU/icEuTbrZLhPaAf8FpYMAUNACQHOK8OTTPP6UKU6RimGjYszWM36h8tio+eNmzRQRK5M0UAr/NysrjkXRv1ctIQNBOyDWeGQxXNoD0ahJIwHtb0fwm1AMA5rPaqPTe2DZ6XlqXMmZjWMAAAgAElEQVRearW2gg2BDkbgZykssIR+zTqxWVyXQluCBZVzTt4eUekG35Xhk7PvIrOpoanSiBVfpL7CtoPjpadTHEuQN2EjknXaQkTwvtDEmzHqG38iaxzseYZA4RFI4+wO24K8EupVXOyyMnDUXOTyKOsDEWkHJkS0Llmc1+fRB2k8kwh7UTxI0pqn2ynb5nCc6Ou2mFZbrVxDoC0RWE5E2AA0F6DZDc44swYobQIVTczyKgu6YATAdklQET+jPF7zwj6t5yL4HlOQObi/cl9hA4BgYckQMAQ8EcDSOw1VNm9pRbHS5Uz7JeVFKK2FO+tyYWSMwv3uOczUsxO8KU21edb9oPk8Ij/ikVKUdG4Kc4+jBY4YLBkChkBCBCDS0QjD2WjxKlI0trRJVRphUOTv2Siw2G7XRPjoNH3li9x3jeoGcRMavaKkFSuMifB/NKqvz/cYGW5QlIZaPQyBdkJgSAZvxfgyZ0kh2wr/wC4ATgKfhacMeTE+K8PiyfiCqrgMfeLbBkL0ws1flIQGMG03S4TYdtRgFaWPrB4diACGVFn5rWMLULQEJzwLh++C2675a4lwitY/ceuDJgvWwnbtD996YxhHlMyiHLkF/QdTn2/bouTHxXH54KH2aQgYAo0RgFSFsJ9RJpbWPQRRKVpCNZnm8YcWdtrloDaFMKlsCW6GTuxPCI3g8ChaInJkmmyGtfPifREhXLIlQ8AQaIAAAVbuzHjzZ6LCVNeK/rRBlVP9GmvyNLgPahenovyP4RReEWVNGLTCjlgUvNOuB1oPBNkipjRJjRrhCoNlHnwHRcTf6mQIfAkBeOO1o6s1moj1vs+DEOhLADT4hwAt52e5aQwYPL9bY8NN3PZ77u92PeRot8dhx7kp+89062++jRs6fEQ97LS+u70BBmX6+ti0+nKpxfq5rTcc5r4xdbQ7eq8x7ri9V3Azpo12W64/zA1baD6tPopaDvEREGCLmND4RW2H9n0YQaJ9sGQIGAJVBAhvem2Ok5JJThS2gPa0iB2zW7WO2gvS3PL6DRjodtpvhrv83ifcY3/6l3viz/9p+HfDs6+5A2ed4YYtsZR2XTgr/loRwVeqExuiaiCa0UsMcOcdMda9ede2zj0/venfKzdv7U4+YCU3fGjqwgBudXEiCyrBG6kYggyxCWuP3TjlPV9g4SgSiHaTIaCFAJbvl+Y8IYPJi7q9yGkNEXlbE6vuPXq4yft8w9312gcNN/xGwsDD7//THXbmt92gBYYE+Gl8wj9f1vQtrb5beIHe7spT13FfPDut6aZfTyj47Kmp7uIT13RDBvXS6K9wGQjRuxa882Zp9YFnOUQLxPXXkiHQ0Qhkqt6OMGnTDAms0dEEE+JNObzwJroeudwK7ronX4m98dcKBPf+/s9uk+12SlSHBu1YXwOogpUBMZBKBLpN1x7q3r9/h9gbf60w8OGDO7qJX1tEs9+IIFjktEyaWrQGY7kZvkSQJMiSJUOgIxE4JcGkaTahNH4jmEeRfJVrB8YeGph9bfwW7r63/uK9+QfCwOMff+H2OfZk16VLF40+uKW20SX4H9pbb2ymTBzhPn96qvfmHwgD/3pmmjt46mjvelXb9r8F7yfsErTaqlUO3AgYP1syBDoKAeKKa00iysF9jDcQDf/57xa4J1AdeuG26fZTWp7zBxt73M9jzr/Yq27VtsGlPrTAfRC3ahxz4Wnihc3Gaw5V3fwDIYDPUw9a2atu1bbh8jcgLjgZ3T/NF/9q/q+n4MnxExHBDsqSIdARCBB8Q0WNXZ2UYd7tGQoTHSa+IlLQEg3Pa6FedpWx7sH3PlV7868nIOAx4FtPETmiRDNhXV88Bg/o6d65Zzu1N//w5s/1f56b7qZtsYRGv+1TwH5Do0eIbN/2EbmQROyOPyiUF67PFQUJjFRton0YAukgsIuIaFLdElVsx1BVkaQ1WASJ5lY0S2bCB4cXjVjXGOvd+tJbqW7+CAR4EeBG6FNXESmTMaC38d8Pz1g3tc0/EAb+8eTObrXl5vftt5tDc7Eol9/3HItgQlCqRUINgtkPhj9fvML5LwyVb5eGQOkQSCP2NmfitQnubQSD8ORKcn1obcE5/4/RUJJ2zM1z+FkXpL75BxoBXAV79e6TuK7V/iuqH3ncYeAVEGiDsQulvvkHQsAz123hunX1suPgGKBIZ9prKb1wfKNOp4+tCgY+47w27xl1nmNfGQJtj8DESvzvf/psYHXy1puUAVBI07WTK+7/WG0vFhSY82c/n6hlw5Yc6XDbCzboLD6nHnhoXLzt/jpj9rYLx2UmACAI7La1N7/DRjnPleDxaPCeVVgHnmxyRr+eiBC7QnPsQhZlyRAoDQK4dWU9SQgopHFOd0NBemEdn0XmxO9enunmj4Bx28tvu67dumkujB1X1nJLDZx7Ph+8oWfx+dJNW/nifFhB5gz18G0LmsTVWrRnQsYvNy2qYz8bAsVBAHW8hmV+eCJHVZNNUVgAeO5WBYBz76Rt6dO3n7v/3b9lLgAgBKy9yWbhfrPrmBvSmTNXzfTtPxAw1lxhAZ++uqwA84XgSxxH+LSDvN+O2JZtRQTvFd/nBfkxkq53vBmxOnabIZA/Alit/0lxUjA54hrK3KXwfAK4EKUwz8RCFCwOsT7X22zrXDZ/BIAjzr4wVl2TtrGs+V68catcBABPt0BcVfNONyqMiXdiujXihqxt4Dw5byDt+YZAEgSK4iozssoR4LsREc88zzQn6YL2jf85KzcB4OqHn/XFvWPzLzmsXy6bP1qABy4b74M7G2eeaeukc6UmX9i7KGp79kvRxTlqHew+QyBXBFC/vVkzmXwWFPJe38QQp1VjT1Coy+cigkYjr5Q4LPA5196SmwDw0Hv/cF27dvXt+47Mv8ekpXITAD54YEcfzFG955X6Kq09MPQlTYcrrDdh/CE5G5e0MpbPEMgSgQVF5GXlCcDmRxSvpAm3JI064ZsOq1seCUvk8KIQ+fry+36RmwDAMQDhhZPWvZPznX3YarkJAGgBunfzcgfMi0PjLIUxw4a7lOck/x+FeoTnzd9FBI8DS4ZAYRHAb5tQl+GB63utFTADCVqDfRAq0KwSpEZYIMNH8HFSXK957IVcBYCFhw33HQMdmf+OizbKVQAY0LeHD+6nV99aswx2s6KPq2xofmm54Z0XKtMHyyAvoaRXymrxsecYAnEQILTlL5QHvHbIzCsV6odRI1qONBJvTRCXECfhdi2SEdMAqAqkwWKc+ucLc7bMVQDo0V3l6Abuj4cqx3enish4EUFFn0ZCM/eIwvx+SZHIiDoRIElzrEBpTFRDS4ZAYRBAyvdiqaszSdAkEEJVM7FxI0X7TkgECY3E0QQ88ceJCN4KGm5LX2nbOT++NTcNwP3v/FUrQuBX2qXQj4Uu875LN8lNAPjTg142AM1wxZbmscqR3jcrLwybiwgvDhopsZtsaByhIdxAozKhMrpWNuwfhZ7RDJuov70lIiNCz7BLQ6AlAkNEZLnKmyV++ZtW1XOrVAcSpDlJE5vYT5UH+KsisnDSCrXIp7VQbNjiOfV+7l0RlMh3kojclwI5Ut0FZMapZ+cmAFz6s0fr1kl5vJTyGRcdu0ZuAsCjV03IClN857FvOUdEsN5PEopbS7C/vN6kVfiuh4gQ4loT09/WxCaIW000MbCcYtgMURt7Ai8jHDmGYx7ELdfuLwACTAj8Rwlr+2hEX3zOmImXjbsbeaOouTmjJpSl5sDGewAvgrSSlqoQo8JWnOdwB2xSMRzEIOhBEfl/ylhFwn3cVtvlJgDscfjxkeqYBy5FfybR+QJinqw/zzpk1bz6DT966HvhvSB2CC8urdJVCn1JYJ8oz2pVl0a/Y8TM+qqJKzEmFmj0wND3aGjRtpwoIgRrejtCPVirflV5QSRKIdFb7dghBGgRLxkIcONzDq9h7IZkjvU9Rm/1grKwkWqcqYcnBNS98AeknbSMhY6vqSjqzM0qggFMhQheqDvD7cvlut+AgQ53PCzys/5bcvSYXNpcBNx969C/bw/36S+m5CIEbLj6QkXpN9YyNiIIwHgxqdUMahn37lUzl9P4l7duDTuFcN/8sgFZEdpG2Ak5ftA6WnyluraNSgMcKzMZAqj1Z4vIZ74LTpP8lH2JiCwZqqJGsJ3wQMa4jhCbWSUtdyHCG59dFbw0qUDD2Hhfn375jzPf/K994kXvejcZkx1R9o/OTD8McK124c27tnVd/SICpt03aN8uFpFpIsKm5Ps8jBR5ockicdz6tEKdw22m/gFTKeXDe6LNwBp+HkLZvSJCgDdLOSGAnyrqd03qyXAn17vmjZZzsu8oD2BibWObkGXSIgyph1Phvhszds3MBYBtdtu7cDgoj9vU27feqgtmHgzo4KmjU29XgfqBl5ssXzxY4zhqwNtAE+e7q0eNf1Yut1Ud0XRiQ2ApIwQ4S+IsB7KKVp3TDr8TJTAvggstytB2wNmdOXtOZkLAdU++4nr07OmDC1HY6h09ZTTNVB/DWW1iLK49a73MjgFeu32S692royI4Rg0spjogKu6Bi4rI6z7jokB50Qhgh7GQNkhW3pcRGJ0C0U7ihUlhAOIjTCjNPJNG0JA8MYz87IUWXczd9doHqQsBj3/8hVtj3KaR69VgHMG6WJbkddw0fOh87m+Pp28L8O9np7lN1x7q22/tlP93IdV5HmONI9UoBnntgun7VRuoPLDUeiZHQbiCwluBUIOdG0cqrUJCaz2/YTmcd2kZcxRhQHFejpVvnglvA1i/ioBHJnVYbb1x7pEPPktVCDj4lG9ptAU+9bKkr/mOsW3GLebYoGvP6zX/P2L35TT6rZ3KuLqq/s/q/L/eeF5WRNg42wm3ZnVFGwDHA/wH7ZbWqIR+f6pJX2D3kIs3BEQxANsM+Hb6DbsFjOeyTkjcxNjGtQXpv50wU6vrtnvs63hLT8MjgGOGrt28VcgIh0OzHhwpPo8NBm4Lrz78xtTRqQkAV5yyjlfdfNuWc35cAG+o0G3PEJGVc9i84GNJTPWdM3aNxg32aVnSQPtOX15Go7hp009JOGAS1Y+FI3Ec+IIODAQZ/EqzSEhrEP8g6cOe1Wiwdtz3E3aY6h5871NVIeD4C3/guvfw4o8P+gFf5bKlozXG3wE7jXKfPTVVVRA4c+aqRbf6D8ZFVp8s8reKyGFV42T4TtJOa5dMw0tfwQ4beCekjZ9P+avGtKkjMFMmho/f0lg0ClbGET491SLvmIo67QARuVZE4BTIasFoy+eMWW0Nd/Ov3vQWAu5582O35dTdNTHIyyi0xfDy+hmGu79qjMmvrbKge/fe7b2FgL8/McVN33IJzX4ra1mfiAjhgRHi2KjTinS4ccS30HbCGcbTomsCIGmLiylzmaO91JJ2TOm4DUzjfhjxtBJnTBD6HFx1hyzTOVoa2Ncts0/ffu7AWWc4OPvjHgnc/+7f3P4nnub6Dxpct+wEk4py8Gkua/IyBgzjCUnQrP1XdJ88tlNsQQBbgmu+ua7DuDBcpl1H3gR4A8TtDiIwhNVWjKBxxvNWRSEQUxwP12fIsxAHa+7lpTHpPMB9fc24D4xyP7SNZTrzB2BCY/qkIDTuIVU6yzSJLpIOiLTyBRHVTqlyduNuA2Wy2vMGLTDETT3oMHfFz590j33074bCwKMffu4uuuVet9N+M9zgBdXZ4hjz6/gMkoLnJbiV6rgdMqiXO3y35dz9l23q/vVMcyPB3962jfvmzFXcqMX7q42b6hjEl56zcxZDNHy3aUWy1BzjKZaFS/bPK+XPUgqBvFPF8hw3WO1+yrM8zZc/zWnOC6QPLvAuqHoIEKABoxSfShUt76UJJEDUbCwohMa1BeWrQz41DoMBg+d3q2+wsZu0+z5u10OOnvu3/Z77uzU3Gu/4LcWxSQjksqfUvE4GD+jpxq+ziNtvx1Hu6L3GzP3DcHCL9RdN+22/ni+9Cez/dSUjyE6SEMhQE5fpJRDDb+KiFC0R+8Z3TSPCLAKwd8LoTzusrm/jfPPDRR3FiIaIWZypsEDeWUKDmGY44t6ZRKV4k8LgbVavrH9D01FmelG8UMpmjAqZTZQz3k4+soNBFca8uCGQ8UrIeg6m+bx3CkjudbISxh9UIyt6CQG7K1WmbicuMN98buyiw9wmSy0992+1RRZ18/dJ/RyQNtVLBKuAcAFWQ/wrYQSsW+8Sfh8YFR3laVQEjwHSZ5lwQ51axDeFemM4zneLi8gbJesr1NS84SZNnL/iEcRLwrslw6bZnMTNNUoIZDgCUosv0qNPLzdkmeFu+Npj3OLrLO+Grry06zc0VQ0fmBBTpkhpquK4+6OIEJsnUeJ8UNWQrXvXrm7LZZZ1V2432b112LHui5O/Wffv94cd467YdrLbfNRoRx5FQCgLa3yi5OEOgpUrZ0EPlNDatRluuBURDzwNtyIwTW2RUB4LzTAK/4aRFcJhWdKwCu/FazlhGcZV+xoBVjMRZQ63XYKblU1T0gx71OPPVF2+ieAXhPi9S3vMDF1ppNvw2F3cLred6Wa+cnXdv/2fvMRtfdEhbsx267uefXs3q3eS32jrWM1B41kWWKN5TNKWennY7xKRBZ2mVYku0sVNXn4l9+qMI+pu+I0EAb5//ZCj3D5j13TddAUB1IRpRius1xFF+e65iEcgPuOYMNBFaa9WPTgWSdXNxgfwGHkX0SABKmD/wq2RdiLin9Z4aqdyOPv3Jo4KY8fGv+Ps4+tu+I0EAb5HGFhn5o6uZ78+mvjdk/bAiVm+dnA76J1HxqkDIRxxKfAGefSQBd0T+xwUe+OvFQqe3PcbbtQCQ7zro9GmEpQB+2Da6XslwKl2vHFUkoqbTdqdUS0fbw3tqG+1GOXx/2MiwhFemokIfZ360qDWp736z+c2P/cgN/Pl2bE3/7BgsPeD33Ej1ltRrV4F8/ZBQ+0VsKvO2vv7ShyBJaJOEBXL4PEjR7mPjpnlvfkHwsCfjj5prq1AncZpDoROKAuvjkCtF3VMxL0PA9ILS9hX6m42cYFNeD8hX18oYX/g7saCmWZiLMMH0QlrQ2ptHLj4Qm7X28/y2vjDQsCMF69yq+6+mVZ9i8b2yWat6lpdpZvH9qdpYrB7nw/uvspY99lJp6tt/oEQQJlTV1xFq9PbtRzOrXzr/oOmo0DvR7gCfOtatPz4zqu42ejB3LQkwhg/W8J+wI4l7Td/gMUFzncMokbXmLe+9cgl/8IrLOn2e/z7apt/WBAYd/yuGm3CbonjsSKlpVKIzvhbEcEGqGGCScoLUAz9Pk9h8w+EgH+ccKpbZ/jiXnX0bWPG+em0yyoS3G6VwEEjqpbKvu1nQcqK4habgLKpT3GzQS1c9MRx3i8zHq++YzNKfs7j06LADfcpmhMNHhQMCRHEJlVJyJ4uIblO3X4bOHwht++j30tl8w8EgVV2nVD32THHvbYRaXgcJb3GEFXbIwV7jobCjtfZ7eIDBzlU9cFmndbnu0cc54YNGKDR6UUs4+VK9DkWOEIuL1pn5ODD/HjMwV2vnZwzwXeQRYKd6hWFOtdrR17f4WaDa1RR0wClcZIXvvWei5vpDhkCfrnCmMXrBvuL2oRwtmXFI4kYK0+U0HvGde3eze38k1NS3fwRAg5+8Uo3fO3l642XON/RB0VMrDGsNXHa0upe9ph6Y1J422yVueHvt07bPfXNPxAqrtpup4b18GlDxnl5E/+ViFxUMdCaLCILRxyBqKA13O0IKJJVwvUSwYY2l6HvaAPSOVJ60VK/Cn/BwyXCGaw574eZNKuE66fGWN03YoXpM4inTq/wGTxSBq3Z6ntvlfrmH2gBdr/r7LkCh8eY54im7qYYsf/SvA1tI1pHzXUTzeCXjtAgckn8gI2WHJnZ5o8Q8K9ZZ7hVhi6SuL4+bfXIyyDjPJawysR8RsWYNJ3jUY8ANwiPIluHJq1oTb41RATXm6AOWX3+rsJ9z3HEb5SfjY8453VFSQha2gyeuEEeWGWQy6q/gufgubB9Avpun/4goI6GxwQeCmjskiT6ERIquEqIEBclPnyAWe6fvQf2cwc+fWlmAgCCwMrTNvVtN+rxpwr6p30UAFZXhgfmdJ+F8c5d9sxUAEAIuGXqbr4dnnZ+2MmisGyF+yHqNW8MGgQleXHeQxoEJWnafQDjHYQuwXEHgi7CgOZzsdjFPiPvBA2utnCFkLhhqGG8pWocQbXCH74OmDujUHeHqqdyqeEJhYZuJZXa/LeQgK30pHZgK13zgEmZbv4IAPs8cpHr1rN7q3Flv3957ZtHd47qKRE4iw0YOPeNPFDPZ/WJseEi/dWjiSXCoIodPNtI/QR1IIpi2i5KMHX51DfIm+W5au2aiHoLvCCsCOrj+8kbK+QwWzQwFkvDzYYNK0sVdS2OvapxK3yxC+dvRoWMJud8ZSMl+EcweEXgSPrmXItL3P+JkaBBBX523AfHvB+Bdt3KUQHCCix9jPlw3+V33aWL2+PuczMXABAClp6wRn7tLgr+8erxi0C7NifpANpv9bUyf/sPhIy9x+ba4UFo3FMrb7PjE0baijnvv3I77lC+g57NN21h5SsVr/mCBX9c6Aw0zoLGgs25KUcr2FKgPm2VYMfSFDrog6YWtq0q5PE7KutbFcZBeBxFDYZEv6HNYQ6wEcUJMYzADDsl7Geo+aME8vGAKVLWOxRwhHglSdS9SBVscBNeEWsVIWLpAqMWy2XzRwCYcOZ+4TFs19H2BsbN3ImYCLBrdtg5NwFg9vaZGgNqx9puMJdjfY3qGb76RH0XysfbXJESGwubNAFecIE8tHIOitEifwRtIU45QhdBXJK6hMGTDV+2L3bh/FjYRjXm1MCbN8EblduA2+ZWHpXDJmKj6qbO8QthtOk3PvGrx/odzU9wLOPxKNWsOyrhuI1qrZIVVhsCObNAXZzFsxnn8bfXfeeH56JdR1vbsDNJzjz07AEzcxMAntrv4DQ7mY31ZxWf3ROqfvOoWYuYWFh9ccBeYdUiNi7lOhExSzXwVdWzw8fAM2qTWeSvU+j78NjhrZyjpU5LuE0SIjaMRZLrorHKBf2IQI1NwsGVULFoe7XH/DysNjpp91w2/7kCx8uzXY/51IMGzWubwvgoYlkYmSYP5frBUSfmJgD88cgTNAH9q4igAuRtZR2PN8tg0mX1yZuUBtUr50EsFJ2WVlQifAmPRbw9IH9JK7H5/1B5QcJwjSOUTkwXKGDJsVVLutWCgAvrK9qzA0TkWk1NGNH78nj7D545eMm28w4Lrxt5XGO/lDwM4acnnJqbAPD340/xAQw/X85O0wiNm/U8J1odboY+eJAXd69OTKv4CMENcMelaFAKYCKkXdHgmUn7Hw0Q5FOdmCCqov1JsQvyHd7m4HEkxpENBrS8DAXtivW5/RXH5CoAQD2ctO4dmg/BNbkV6V+OPTk3AYCAQx6dxrlYmdL/emAR4EjUu3oMhGXCqVFb0hACoH0d3OiBCb7nzc2LsbPOGEEQ3idBXcqQBWFKw60RDVzRbBp8+ue2OuMkWCOafk665IhcBYAhywxvWr+k7SpxPuygkhtD/e6Qo3MTAH4780ifzob5sEwJlbPG2d6PygRKzLasXTE4RAjyGVe1efFQgLfBN7H5f1e5bmz+vPV1aoIcqra/4v6P5o0jwzKlq5LiMvFbB+QqAPRdaHDc/uv0+zmunOvClAiIu3fdKzcB4Ke77JmoztXBzZl32dKuSSduTT4s7Ds14V8dxw0xyhh8IKJ7YjPM8dSI8qyo97D5cwbcqYmgKHAPRMWr0X1QXJctJR5rax24XW4CAOyD0qVLo36y7+uP9bmMgPcmnQinbjwhNwHg5I286B/vLNusrZI6wJvuO9jRjnyJK7qEWDVrEpwEGoQw4X5gjiX1dSdoTLgsjeuZzQDogN9+rIApgVo0j3iKAjuMg4nG2Ij1V8pNANjhymMT1TlpW0uSD5fq5KrFDUYsmZsAsO7iI3w6HAKSMiYiSEHk4oMNeU8pIzgx2gQHAdwPvjiG8yN0xnUnPU25DtTniBg4lPFWKFDD/ZL0epcyglPRCE9Nig9ueAc9e1kuQgABiJLWu0PzoQEjMqXMSApA1y5d3BuHZm8H8PohR7ku4qXuQV1e1sTm7TsZECJGlxWgiO3aTEmYCvcFBlaw90VJid/EmvT/cVEeXOJ70MK81gSfcF81u74voFEtIVZL++Cz+bkHZS4AzHhptuu/6JBm/WW/fXVPmBWMXYxYEgN05LobZK4FOGSd9RLXt9pWSGDKmlDfe4V3rmJU5kUuat9vnUJ4Vtj7WlmNawSlqZ0jJ0dtdInvg7a4Fpe4/yMc4zZX1oTB6cdJcVpk1VGZCwBbXTgzbh92+v0Ek4MAa26CTjWx72f/Xr3cO4cfl5kQ8PvDjnHz9ejh04Gw/JWd9GZC0glck6/MmpJg/Lf6JHwzLHk+Y642Lyx+jWiM8Smvvd/3fwJ+dXrieAyqY18s59KnlhzMxHZh4Lvt/x6ZmRAw48Wr3JBlF/ft051FZGwB/9asRpX1bV84P+GlV68dv16BMCYvv1JmAsB2yy0fbkzS67srtJgr1IJQsv9h+UqKT5AP18IyGjrF7WqMZTQIYwJc+YTNrzbkbeLjuCZ9nXZ0urhY5nE/b7X3N8Eo3C/Nrn9TcgNZYllc4jvWB40Y6g585geZCAEbHDu9WX9F+e29gr4Q8pKa2CWzwVjHbRUbj6+krzfIEAXAufecO3HL1IWAb03YInJ9IrSHBZ3BnmUAl68An+IXWq5OYGRJZLrvwlhnTMLqF2ijCHSEe57mGIfm1tJ/g0pp4FpWF1lsIzh2SqwJrh23oyau6Wa+PDtVIWDHH57guvXo7tuvPyjgBEFgpV6+bQvnZ/Pfs1FbsQb0snru1rWru3OXPVMTAu6YvofjGcqgUB6DnsFfRte3gxTwKiPZSaN50Or7PZRol8PjGE8usf8AAB2RSURBVBZHCHm0N39YA1lIOj1BkvWBwjwoI0kW44M3QsIYh8ekyvVaB6XHC7Dnvee7PvP316jnhgWbIPTJ95X7g7Vl31btZIB7Adq3Z083Z8ou6kLA9TtNd5TtW78W+d+sToYyLZq8XT7Zot1RcH2+yZl1q3FVtt+hztXerKP0QZx7LrXNf96wA4s42NW7988iMnReieW4IIbIEwrY1MPrv9916eLWPGBbdU3A9FvOcAOGqVj9c6RTpPWeuuCi3hjT+L+xVvEi2DJhGOD9YNzzTtl4vPv3rDO8BQHKmDVuU1+Xv7htYlIwOcqStAKedLr/eHg8EDipqEIA7F7BsUK4zp14DbOjRj+ViTVxyWooaQ1cIq2tS09YQ80mYKuLDtEM+4vNTZESxrqRMI1x3yFxGnhXjIKbVnTDJZZ0zx0wM7EQ8PT+M9x6iy/R9Blada1TDpMDS20mSxnSt+u0MS62eE+0S8jTLPqMiRUXw7Tvv6aOYWEWWBTxGVqhsnkhKINAxTHvWSlwW0Qa0wMXX8ht8/3DEtsE7PPwRW65bdfXpPvF+C8pO2ca431bJWE13B9Hxq0ob75qkiFEQVjtYxvw+UmntxQGPjvpdMdZ/zbLjsn6rT8MWvgalwkmzVzGpLhgFuj+/pVz5ncUNqxbCtSmIlSFCRYeL3leX2/HNF8aEkcp9M2/RIRIke2ccDdFg6FhB+E9voeuNNJNPGv/yBqBqXNOcStN3dR1761+BFwkOmy8gV5VGK/h/klM+oUKMVyQyvXgPn3cpGXHzFXpX739FHfTzrvO/Zu9/U7upHGbzN30B/XurfKsFOrP5GESNfLdbocFYgclXCa1Q2MzrOPxSrj6jP2bIpALZQhJ7o8aUaE8RmPlgyl5z8u9JX4V2FxEXlLAwRfHr+Tv1quHG772GAeF76an7e22vGCG2+biwx1MgusePsUtu826rv/QBb6ST6ktLxZsvnBUpdnWeSx/SYbPQj5MUMoN0QRFoywmE5OqXdPtCv2DxbBGiNt2xbBevSGH0RhfScqgT6PSC9erexm/u1WhP94WETRn7ZjgOIHrJMl4KnseNNwbFaxTNTWJKqRfiQNCdMiga1ciIWwaNCLdnVOwCVSE6nwzh7GPzU7cAENFwCrNOsDcqLGJbZ9mJVMqW4XIRwk/jT5Io4wianU4ZtZoK5FD1RIEMBqVKmsZ7UokdIxCv3I2urLaSCtPQQhGWY13nxDD5UH8yy1BMwXPuW8fELSpnRIcJqpEPgoY+vZBGvmfKajAzHm9b3vP1x6wWEhq+JD7Nqzo+T9pMyIhrKM5A/PF9bGSWEdrzps0/Hjr9dODItJXs+IlKetchXGNhmyJNsGD8Ya2Fg6TeuPEvvs/XLD6L6oX05ae/XdRWnwGC6ZgnVjWQdlORELrK3l77NcmC2WW1WRR1mbyCs+ZR80Go253Yq2PZiqMVZLro+uWXrwvieKaLpGPP5ZJ8E8jDwahaxWvC+fVCA3OnxKOXTT1rDmpJaRhDbVaGh1br0zYnVaqvCERBIXQnfXuSfM7JiWTs+jpMgVsCBta1lgKPv3HhJyjgG/tOP11OIynTwVLlhc/fY3N8FcFsw6v102sxz9WEuBrx1er/xnTGBj+NIWx3erZSX9n8y8a3W+9fk3CK3J5VlrY4UV1J6kZiKi2CYITpKVE5Cc19yQdSHHyYWnKJC2yKnGBCkXkhwrYXB2AbZ/zEEAATSrRNxtn2J3UjeY178mdeYGLbjPcovzGnF2vwPDBRXKmiMBNEqU9mvdwFIzWMEh4ndyYQz3itgkK53bY/MEVIfbmGJgSKTBTgiqCanD2GLcTsrofi2jqWC8xsfOwZ2CyMmmLSiREdCjf/mHh3Lge6B363fIpk66g5t6xQ7Gt12w0UCz0vuOYmAFFTHCPECkyDyIfNL+7NFAxUy8NhlHffmuU/w0RGVPEDm1SJwQrLPkJwNaoXQTtQ1uQqtq/UR3pdNydWPQbVTDr76nLaREoUAGMwZzHcQaTl0lcNCIhMNEQ6mCxMnc0kWVFBGOjtOfA5yICdaglEeiPffFmfqIRK1raLCfN698qoa9PqGxG80UABI2UBumSbx+G88MDMSRC3Yt6C4ILR7RhoQ/+FSz9FytCpSeKCBJWGPQ8rjnvj0vqgHcD7G0M8qzrDJEQk7pIicH2mQIWJxWpUTnUZWkReVcBx6hjkj7DeriT06ZKeO9eMBA5Z1eLyxIDI948iUMfPkaNAs0oEfl5jOdEHeNx7yO0O5Hvcnk7jgJUgnsgo4oiiCUo2i8LlYJ1SGPziNvRqEF468d6MmkivCdqP85V4z7f934mN5O8KEkjChXHHSwEnZggWMpDswTmEzoR8Orc5wXAdy4+UKANAxbWi3Nak+CV8OH2YNPdq6Lp/KNCn8TtU7TA2FwN69C5kGuz8a28QETYlON2XNz7ETZwe1hUscXLicgdGdS9tq1I27MLEmccrcjrChjcX6DFVHGINC0KA9nfKWBXOz6i/s+860QbjJMVMGc9KcI5MWe/BKf5i0Kboo6b4D6O7yY3HeHxfuTFkLb8IaO23FNZv9eIV0W7Ow0EeKNGtY6rUjC4tD5frlDYwpecpsvZViLySgp1b4UBREKw8/loMzT6kxgHreoa5fdpGpVpkzI4j3tNCbco2Da6hzPYDdoEM41qLqPk4osWMc/EW/POORH54KXyjRTdHhEEOFrBxkjbZuyj6nk4NjeWCogAEhkS+kMJjwgwcmLgnJixdAdLHpNCwz2u0WLd6HuIhFgM8jy/IqRso/pF/R4juEEFHJPaVeKcVDuEZ1SM693H+SfhvDshoa6uh0Gc7xDc8owHD1fI4wrtiNNm7kXrAWV1lnN0ZCXA3AwRwTiPcRq3zmhL4Wj4johg98E6balNEEASHFv1X0Yo4Izrh1WfR/we8SP/XqUt/MYGuGrOExNYmRwQCeVh38CikBeREEcraCTiTtDa++nPMifOatFK1bY77//puzXLDLyITFfCPS9j3LyJfNiM80x4Qo0WEYI2oflkU7+iSpzFUSwvIdhmYZe0d9XIe0CeFbZndy4C2DdwTq+twoqyURCQBCKjrBPnd1Hq1+weJPa8hJi08cK96AUFjJrh5/Mb58irpw1CTuXDp6FxtozBWNaJ2A285ORB5PNUGxHiZN0v9jxDoCUCeRMJZSkBdxMRFgyfTYi8zxaQ96BlR7e4AaIp2uWLTTg/x03PKZfJ+a6PRXcLGHL7WSPGAloSTSPiVmDwxgsHyPvKfRweQ42umxH5tKq3/W4IGAIhBDibx1o2D/4DFnTezLMiEuLIRsM98tAQfu1+ydunNpskDHZgzZGThtAV3gggESmSq6lv/2NXhGYp3MYk19j4ZJU4r35eoc5x24lRKAykhEe2ZAgYAooIYDhExDCNs/K4ExsPC02XnWawXKiwcGHwUwjmqmYNjfAb6lsMWuP2V7P7UdWH3ZeIvImhU7M8cX/jrbMIbm4RIG56C4Ivsdzjtr/2foQsNFxpJ6zTOcKrfX7a/yMgcWQZl8gnbTysfEOgdAhwFgz/gcabctyFAd9XAs6kmTh2eEdhEbshzUpmUDZGrJDFxO2jZvcjPNYLT4pxIWyRzfLG/Q1ilnZ3lzpcARM2x3qYaw4h6IRZEzTCEsft5/sqhtWERLZkCBgCGSJQZiKhKQoLLwvZ1hn2h+aj2Py1KU4/bWGQBdeFNh/F2zkZlGr0BURLGrTdbMxppTIR+aSFkZVrCJQaAc77tFW4Ud4COO/Dujgtn+bbFYQAAlmgRm+nRHAj7bjnbP5RYldwbKLBzBgeP/QBlMXtlm5SGH9wU6QVkRPhVruvwv3W6BoyHI4iET4sGQKGQAEQ4Kxy35wsfnnL2y0FIiH8ljWifWGU1C6JRVX7DPefIgLbYtSEC6o2xTBkUyOiVqAA92mxU6ZhN4P9xsMKwkmjDb7R95CkQYfeztHuCjC0rAqGQHoIYNXNhpeHzy+W6usrN43QoI0WpKjfcy7aDq5psIzdotDeMC4QSkE1HTexWbNph8vyvSaATpZucHHbHNzP8YuGAETgLc2EdiZPbhCiTloyBAyBNkCgLERCvBFrMN/xxpQn1XGrIYOFOCQxvptsOD9vbNu0enCT34mwqB1mGG+SoluKf0uhHwiUpEWmZUQ+TQap/WQIGAKNEcD6+FGFBS28sUS55s0T4yeN80+CzWgwIn69MUy5/sLmf41yH+EhgiGlbyL4jQYDXnjMYGiYZnAtnzbDX4DgFK5vkuvjfCpRzdu1erSGHUGSOvjkwQuHI0XqYMkQMATaGIEyEAldqbAIYryEu1uREgssMSl8FuvavGz+UxUbiSufdqx1GAhxXStSoi80hGW0HBhy+qS8iHwwFjUiH5+es7yGQEERyJNIiLc+H4MoNguNSIkE/yhKQjDDqKp2A/f5H5/zXVJoIDYUsEL61K02L9TGUBwXJfHGW1vHuP+jqYribdGozQhbGpEx49bbiHwa9Yh9bwiUDIF2JRIiQlfcha32fhbojQvQn2z+RC6srZ/P/7SNTSytBNkLWhSfOtbmJQJllvEmGmHDnNAQMC9v9IAW3xuRTwuA7GdDwBDQRaDdiITYNO9X2IBeVVDR+vQE7bhIoR3hzZTN/wCfSkXMu1olvvrHynVH7d4/4vPTug3r+jCeSa4RjqBVjpOMyCcOWnavIWAIqCPQTkRCyysZaR2vjmL0As9S2GzCGxSb/0HRH+99J+GWibUQroPvNV4aeQWQ0TIy3SsmsnkT+fjaKcRsrt1uCBgCRUUAH3SilWmoQeNuBvib7xzDTQ8jpbjPqL0fN62R1c5ABT1BRI4RkR+JyCMiArkRb7oY1GEVTnAbjLtQWd9Y+R5+gokJDNm0N3/adUgOg2pDEcFgrBZXn/+JM9E7Rlvw11+32v4fVslxXqy6LtK/1IWoh1jRPyEi11Wi+p1YJUUaXH0Om6AG/XEcN9O1K+PtMWXsouCOZ845Fe+coO0xoLZbDQFDoBMQgEiIRYLFIsqionkPmytvl60SC79GaOSnq8F2fN2+CKIzqyI84DLXLJ2aAqZHNntgyr9tIiLBRqs1DqBAbvZmihcH2g6ENJ/ANwh2bNo3K/QJ4wfNVKsEudK1Si6tcfGeExJ4W9XTfjcEDIEOR4C3YxaNuAuN7/2osyHEgQa4WYLdzvdZaeT/ZeUNdJ86POknpVDfPI8xgr7ZrKI5gWpYE8tb6+C3RSWi3p2em75mHcNlfTMAo8EnGibuyYOdk/Gozc7ZoJn2tSFgCJQNgSITCaGKDy/ERbomAM7M6tvsYSnUkyBMRUlpCAH0LcdS66UQEllznDQLNmVEPkUZoVYPQ8AQSIwAVuv4lr+VwkbWajHm7H1/ESHYUW2CG13bGK1VfeL+rs2ix/NbvXHW4pTF/9spGWeG8U0Du3D5GtdbNgAX+5A8InQSvhg7B47JLBkChoAhoIZAEYmE0ni71tgY0irjfLXe1C9oh4Kq6NPqC47IatNoI/KphcT+NwQMgTIhUCQiIXj0n8lBM5HWptKs3O+0wSCC7dHHOK9Z+4v0G5onNFBBMiKfAAn7NAQMgY5AoChEQsRHx6q7SBuEdl1+EMNNMu/Bt3tFDQ21rDYGRSovcL00Ip+8R5s93xAwBHJFIG8iIXzHtWl1i7TZEL+g3aKy7VliIeD5qk2KEfnkuuzYww0BQ6AoCAREQtoBY6JsxHACpOFjH+XZad8DRW27bf7BmDwwJ5/3tPsEMqe8iHzONSKfYHjZpyFgCBQNAYiEYOrLw+c57YU/6/J/0sD7oWh93qw+M0p+FJDVmLhNRJZuBrT9ZggYAoZAURBYXER4e4XYJ6tFskzPuaEEm38wFg+1MZB4DjxVCYAF7bIlQ8AQMATaDoG8iITaWRhoRYfbdoNARI4wISCWEPBONbQzXi6WDAFDwBBoWwQgEsI9TIO/v5039ih1v6sFF37bDoJKxWEvjIJBJ99DgCWO0PIOj9zO48zqbggYAgVEAHYyoujBVtbJi3yjtmNYFicaXgG7uGWVLrS+rzv2cZu8TEQWaYmg3WAIGAKGQBsjwCKHX3uhfMV79OrlNthikjv8rAvcpXc/4n766nvu4ff/6R776N/u7tc/dFc98JQ78buXu82n7Or6DxzUaBP3+f5dEenbxv0apeocb/hg9JW8fXp1czuOX9x97/g13RM/nOjev38H9/nTU+f+ffjgju7xqye67x63htt6w2GOe7Wfr1DefZWohKtEAc/uMQQMAUOgLAisXAn2cq/CAuq1qPftP8Dtf8Kp7p43PnJP/Pk/kf4eeu8f7rjvXOoWWnQxr2fXafv/lKVz67SDoEFqeC0wqJc794jV3CeP7eTc89Mj/f3pwR3dGTNWcfMP7KlWD482/VpE4BKwZAgYAoZAxyLAIviKx0KaaDHv0qWLm7zvwe6u1z6ItOnXEw4e+MPf3f4nnuZ69e6TqA512vyJiAws6Uh4vE57Y+PWvVsXd9SeY9yfH5kcadOvJxx89NBkt88OS8d+tkb9RQSujIOr0Q5L2tXWLEPAEDAEoiMAkRCLYiZEQn3m6+vOnD0n8cZfKwxc8fMn3YKLDNPaUI6NDlvb3DlOY/Mc1L+nu/vijRNv/LXCwJxz13d9+3TX6rdW5XxWMe4zIp+2GbJWUUPAEMgagcEico6IsFi2WlAT/T5k6KJu9kPPqG3+gTBw+yvvuNErr5aoTjVtJcZ8u7L/NRovkBp5YbPUYv3cr2/ZWm3zD4QB7AYGD0j9SABeByPyaTQ67HtDwBAwBEIIjBQRwq16bRq1+fsPGuyueewF9c0/EAIwHFx42HCNOo8PYdHul0TK+2dtX8T5f+iQPu71Oyapb/6BEPDoVRPcfL1T0QT8UkQ2aPcOtPobAoaAIZAHAuuLCIuo96bKmf/ZP7o5tc0/EAJmP/i044jBs86X5wF2Ss/cxweLbl27uPsv2zS1zT8QAq46bR3fPgvnf1tEdi2hJielIWLFGgKGgCFQHwGIhFhMP/LZSCbuOC31zT8QAo4673vhzSDJ9XttFP63fq/937c3+fTbgVOWSX3zD4SAKRNHJOmrcB6Ork4UETgvLBkChoAhYAgoIZCYSbBHz57uxudez0wAgDtAwR7g+1VWOJjh2vkvMfFTv/m6uz/+fIfMBIB3793e9e/bI7yhx73mqKPsZE5K09mKMQQMAUMgGgIL+rxF7rTfjMw2/0AL8K1rboq7edj9NUc9s/ZfMbPNP9ACHLnHGN9+WDfakLa7DAFDwBAwBKIgsLmPAHD9L3+duQCAFiAFoiDfzalt8uPv/4f7ts9cAHj7Z9u5rl27+OBE4CNLhoAhYAgYAkoIcK6aaFFeZsVVMt/8Ay3A1AMPTVTnpG0tU75xqy+c+eYfaAE2WmNhn377kdKYt2IMAUPAEDAEKkFSLkm6uU096LDcBIDzrr/dZyPp6LynHLRSbgLA2Yd58Tk8ZDPWEDAEDAFDQA+BxEQyJ33/ytwEgNt//W5Hb+JJhTby3XLBhrkJAA9fOcGn336nN+ytJEPAEDAEDIHEQYMu/umDuQkAHAX07jOfz2bSsXlfmLNlbgIAngcewgueAJYMAUPAEDAElBB4JumCfPXDz+YqAEA9nLTunZzvzbu2zU0A+M9z030MAf+jNOatGEPAEDAEDAEReS7pZpi7ALDwIiYAJDDgfOPO/AQAjAE9PAH+ZTPWEDAEDAFDQA+Bh5MKAHkfASjQAnekAPHs9VvkpgH4x5M7+2BuRwB6895KMgQMAUNA7kwqAJz4vStyOwIgOFDSend6vuvOXi83AeCVm7f26bePbb4aAoaAIWAI6CFwVdINEV/8wC8/689vz7nTZyPp6LxH7TkmNwHgnks28cEeexVLhoAhYAgYAkoIHJdUABi1wsq5CQC7zjzKZyPp6LwrjhqUmwDwk3PW98H+RqUxb8UYAoaAIWAIiMgOSQUA8l335CuZCwGPf/yFW3TEkj4bScfnzcsO4KErxvtgf67NWEPAEDAEDAE9BEb5CACT9z04cwHAWACTUTeH+3nPSSNz0QL87fEprnevbkmFgG30hr2VZAgYAoaAIQACb4c3hzjXhAO+4dnXMhMCCAS09PIrJd1AgnxnicjRJfj7ME5fhe8lIBAGeQFHf5af07ZYIuiHOJ9/EJE+Nl0NAUPAEDAEdBFIbAjIpjJ++50zEwDwPAhvZAmu3xWRLrrw5VbalQnaPw+/DcYu5L54dlrmQsDrd0xyfft0n1ePiG3YMzeU7cGGgCFgCJQYgSkRF+GGi/bJl8xOXQiY8/Rv3IDB8zesQ8Q2XFqiftw+YpsbYnb6wStnLgCgbbjp/A1cj+5dG9arpl0XlajPrCmGgCFgCBQKAVSrf6lZdKMuznPv69mrt7vsnsdTEwLu/f2f3RLLLBerTg3as0mhkPerTC8R+ahBOyNhBSsflvlZHgEEz3rgsvFuiUX7Nqvn30XkCD+ILLchYAgYAoZAKwR4M262GLf8bYGFhrqrHnhKXQi4542P3Nj1N2r5/Aj1J5pc11ZAtNnv34nQ7qbY8SaelxDw2VNT3TFfX/52EZkjIi+IyK9FhABV2Ggs0mZ9YdU1BAwBQ6AtEVhVRAi20nSzaPU7EfpOv+I6NSHguidfdsNHjvKqU6jOx7RlzzSv9NIi8u9QGxNhhSbg1INWzsMm4C330uR+zZtovxoChoAhYAikjQBvYok2kHC+Ll26uJ32m+Hue+sviQUBrP2P/fYlrt+Agd71qdYNGtkBaQOYU/k/DuPvc41h4Ms3bZXVkcAX7le7jM8JM3usIWAIGAKGQAiBdXw2j9q8gxdcyB046wx39+sfRhYEHn7/n+60y651sAzWluf5/0mhdpbtEi6Hzz3xmYc3LoJ7bTvSvTBny3QFgeemn1q2jrD2GAKGgCHQzghco7WRBOXAFfC18Vu4Q844z33/jgfcHa/+wT343qfu0Q8/nyscYDeAe9+WU3fXsPKft5EFzxeR34vIfO3cKRHq/u1Qe+thkOi7VZcd7E7cd0V3+0Xj3Gu3T3IQ+Xzy2E7u44cnz/37z3PTkwoJN7vrJ3eL0C67xRAwBAwBQyAjBDC8+iSNzSTHMidnhF2ej+lfFXQSbfRJ+2ZQ/55u242HO4L8BNb9LT+fm/Yz99vN8WCwZAgYAoaAIVAwBPZNuiEUMN/1BcM2zepM1DDkTNqHUyaOcH9/YkpzQeCF6Te6N/bonSYIVrYhYAgYAoaAHwJqhmVJNxSFfG+JyGA/GNou9zcVcEusRRi3+sIO1746WoB/u+enzXLu5LK5YbbdALEKGwKGgCHQCgEs5l/NczPxfPY/RGT1Vo0s4e/dReQeT+wSCwA896T9VqwVAF53z++6cQmxtiYZAoaAIVBaBJYUEYKweG0IOeT/QkQ64dy/0cAbWCXVyaXf4Pn/y6M7IQT81T2/y8nusckWxKdRT9n3hoAhYAgUGIGVfWmCMxYAIDPChqHTE8acr2SM/TyB45i9l7/RvbLbAp3eCdZ+Q8AQMATaHYHVROSPeW0mMZ7Lm/9+7Q62Yv2H5qgJOFexHVaUIWAIGAKGQI4IQDn7eozNeN7bYEZ5PhWRbXPEp6iPxj3wtoz6INznFxcVEKuXIWAIGAKGQHwE5heRW3PYTMIbS73r1yqb3Nj4zemYHFje4x3gHeshRt/zPEuGgCFgCBgCJUKgi4gcVonW9v9ibAb1Nm2t764uMce/9rAZl6EWZ5J25a08Q8AQMAQMgWIgMFJEfpqjEPBbEYH4xlI8BIi8d76IfJZi3+E50jNetexuQ8AQMAQMgXZDYCsReTLFzaRWU8DmMlNEjE3Ob6QsISKzRQTDyVqMff/f3a9qltsQMAQMAUOgnRCYUCHeIZzwv1LYUNiQnqla+JtPue6owLjzbBH5k1K/fVe3elaaIWAIGAKGQLsgsHCFN+AQEfm5gp3Ar0TkdDPwy6Tr0ajsKCJXJHT5xCbkSBHBRsSSIWAIGAKGQIcjwNv6JtWN4QeV64erRmgfVIUD1M8fi8jb1WOE66obPgZkCBKW8kEAr4GVRARV/nkicqeIPFvtp79V++yjal/eKyIniMiwfKpqTzUEDIEwAv8f8D5fsgFC3ysAAAAASUVORK5CYII=;" parent="1" vertex="1">
          <mxGeometry x="1409.25" y="771" width="72.5" height="72.5" as="geometry" />
        </mxCell>
        <mxCell id="qJvai_lrImhjCM4Q15sK-7" value="" style="group" parent="1" vertex="1" connectable="0">
          <mxGeometry x="1390" y="461" width="122.96000000000004" height="70" as="geometry" />
        </mxCell>
        <mxCell id="uPWsSj5vBtJs1v_MymiC-248" value="" style="image;aspect=fixed;html=1;points=[];align=center;fontSize=12;image=img/lib/azure2/power_platform/PowerBI.svg;" parent="qJvai_lrImhjCM4Q15sK-7" vertex="1">
          <mxGeometry width="52.5" height="70" as="geometry" />
        </mxCell>
        <mxCell id="uPWsSj5vBtJs1v_MymiC-250" value="" style="shape=image;imageAspect=0;aspect=fixed;verticalLabelPosition=bottom;verticalAlign=top;image=data:image/svg+xml,PHN2ZyB4bWxucz0iaHR0cDovL3d3dy53My5vcmcvMjAwMC9zdmciIHZpZXdCb3g9IjAgMCA2MC4yOTk5OTkyMzcwNjA1NSA1OS41IiB3aWR0aD0iMjQ5OS45OTk5NjgzNjkwMTEiIGhlaWdodD0iMjQ2NyI+PHBhdGggZmlsbD0iI2U4NzYyZCIgZD0iTTI4LjUgNDAuMmgzLjN2LTloOC4zVjI4aC04LjN2LTloLTMuM3Y5aC04LjJ2My4yaDguMnoiLz48cGF0aCBmaWxsPSIjYzcyMDM3IiBkPSJNMTMuMiA1My4ySDE2di04aDcuNHYtMi41SDE2di04LjFoLTIuOHY4LjFINS44djIuNWg3LjR6Ii8+PHBhdGggZmlsbD0iIzViODc5YiIgZD0iTTQ0LjMgMjQuM2gyLjh2LThoNy41di0yLjRoLTcuNVY1LjhoLTIuOHY4LjFoLTcuNHYyLjRoNy40eiIvPjxwYXRoIGZpbGw9IiM1YzY2OTIiIGQ9Ik0yOSA1OS41aDIuNHYtNS43aDUuMXYtMi4xaC01LjFWNDZIMjl2NS43aC01djIuMWg1eiIvPjxwYXRoIGZpbGw9IiNlYjkxMjkiIGQ9Ik0xMy4zIDI0LjNoMi42di04LjFoNy41di0yLjNoLTcuNVY1LjhoLTIuNnY4LjFINS44djIuM2g3LjV6Ii8+PHBhdGggZmlsbD0iIzVjNjY5MiIgZD0iTTUyLjggMzYuM2gyLjR2LTUuNmg1LjF2LTIuMmgtNS4xdi01LjZoLTIuNHY1LjZoLTV2Mi4yaDV6Ii8+PHBhdGggZmlsbC1ydWxlPSJldmVub2RkIiBmaWxsPSIjMWY0NTdlIiBkPSJNNDQuMyA1My4yaDIuOHYtOGg3LjV2LTIuNWgtNy41di04LjFoLTIuOHY4LjFoLTcuNHYyLjVoNy40eiIgY2xpcC1ydWxlPSJldmVub2RkIi8+PHBhdGggZmlsbD0iIzcxOTlhNiIgZD0iTTM2LjEgNy4yVjUuNWgtNVYwaC0xLjh2NS41aC01djEuN2g1djUuNWgxLjhWNy4yek01IDM1LjloMS44di01LjVoNXYtMS43aC01di01LjRINXY1LjRIMHYxLjhsNS0uMXoiLz48L3N2Zz4=;" parent="qJvai_lrImhjCM4Q15sK-7" vertex="1">
          <mxGeometry x="52" width="70.96" height="70" as="geometry" />
        </mxCell>
        <mxCell id="uPWsSj5vBtJs1v_MymiC-222" value="" style="verticalLabelPosition=bottom;html=1;verticalAlign=top;align=center;strokeColor=#d79b00;fillColor=#ffe6cc;shape=mxgraph.azure.database;" parent="1" vertex="1">
          <mxGeometry x="714.63" y="472.90999999999997" width="50.75" height="65" as="geometry" />
        </mxCell>
      </root>
    </mxGraphModel>
  </diagram>
</mxfile>
